<svg width="49" height="50" viewBox="0 0 49 50" fill="none" xmlns="http://www.w3.org/2000/svg">
<rect x="0.50293" y="0.749023" width="48.4834" height="48.4834" rx="8" fill="#141719"/>
<path d="M15.3258 34.1591C13.5318 31.4046 12.5477 28.2015 12.4858 24.9149C12.4858 19.4906 15.912 16.6095 19.2867 16.6095C21.0601 16.6095 22.5586 17.8157 23.6943 17.8157C24.7448 17.8157 26.4138 16.539 28.4619 16.539C29.515 16.5155 30.5572 16.7566 31.493 17.2402C32.4289 17.7238 33.2285 18.4344 33.8185 19.307C32.9275 19.8813 32.1944 20.6695 31.686 21.5998C31.1776 22.53 30.9102 23.5727 30.9081 24.6328C30.8961 25.8229 31.2319 26.9905 31.8742 27.9925C32.5165 28.9944 33.4374 29.787 34.5238 30.273C34.0892 31.6718 33.4632 33.0038 32.6638 34.2311C31.5104 35.9338 30.2895 37.6734 28.4633 37.6734C26.6048 37.6734 26.1405 36.5568 24.022 36.5568C21.9386 36.5568 21.1982 37.7101 19.5292 37.7101C17.8602 37.7101 16.6701 36.1116 15.3258 34.1591ZM23.4695 16.2011C23.436 16.0377 23.4188 15.8713 23.4181 15.7045C23.4671 14.3126 23.9895 12.979 24.8991 11.9243C25.8943 10.7204 27.3225 9.95535 28.8762 9.79395C28.912 9.97488 28.9292 10.159 28.9276 10.3434C28.8942 11.7671 28.3917 13.1398 27.4981 14.2485C27.0539 14.813 26.4989 15.2805 25.8672 15.6224C25.2355 15.9643 24.5406 16.1732 23.8251 16.2364C23.7057 16.2354 23.5867 16.2236 23.4695 16.2011Z" fill="white"/>
</svg>
