<svg width="49" height="50" viewBox="0 0 49 50" fill="none" xmlns="http://www.w3.org/2000/svg">
<rect x="0.0135498" y="0.749023" width="48.4834" height="48.4834" rx="12" fill="#1877F2"/>
<ellipse cx="24.2555" cy="24.9917" rx="14.6919" ry="14.6919" fill="white"/>
<path d="M24.2575 10.2998C16.1434 10.2998 9.56555 16.8776 9.56555 24.9917C9.56555 32.3249 14.9382 38.403 21.9619 39.5052V29.2386H18.2315V24.9917H21.9619V21.7549C21.9619 18.0728 24.1553 16.0388 27.5112 16.0388C29.1186 16.0388 30.8 16.3258 30.8 16.3258V19.9414H28.9473C27.1223 19.9414 26.5531 21.0739 26.5531 22.2358V24.9917H30.6278L29.9765 29.2386H26.5531V39.5052C33.5768 38.403 38.9495 32.3249 38.9495 24.9917C38.9495 16.8776 32.3716 10.2998 24.2575 10.2998Z" fill="#1877F2"/>
</svg>
