<svg width="61" height="60" viewBox="0 0 61 60" fill="none" xmlns="http://www.w3.org/2000/svg">
<g clip-path="url(#clip0_173_4057)">
<path d="M30.5 2.10938C36.9347 2.11317 43.1702 4.34123 48.1502 8.41608C53.1302 12.4909 56.5485 18.162 57.8259 24.4686C59.1034 30.7752 58.1614 37.3295 55.1597 43.0211C52.158 48.7127 47.281 53.1917 41.3551 55.6992C37.9802 57.1247 34.3576 57.8715 30.6941 57.897C27.0306 57.9225 23.398 57.2262 20.0036 55.8478C13.1483 53.064 7.67973 47.6709 4.80078 40.8551C1.92184 34.0392 1.86839 26.3589 4.65221 19.5036C7.43603 12.6483 12.8291 7.17973 19.6449 4.30078C23.0789 2.84715 26.771 2.10179 30.5 2.10938ZM30.5 0C13.932 0 0.5 13.432 0.5 30C0.5 46.568 13.932 60 30.5 60C47.068 60 60.5 46.568 60.5 30C60.5 13.432 47.068 0 30.5 0Z" fill="#00796B"/>
<path d="M30.5 2.10938C36.9347 2.11317 43.1702 4.34123 48.1502 8.41608C53.1302 12.4909 56.5485 18.162 57.8259 24.4686C59.1034 30.7752 58.1614 37.3295 55.1597 43.0211C52.158 48.7127 47.281 53.1917 41.3551 55.6992C37.9802 57.1247 34.3576 57.8715 30.6941 57.897C27.0306 57.9225 23.398 57.2262 20.0036 55.8478C13.1483 53.064 7.67973 47.6709 4.80078 40.8551C1.92184 34.0392 1.86839 26.3589 4.65221 19.5036C7.43603 12.6483 12.8291 7.17973 19.6449 4.30078C23.0789 2.84715 26.771 2.10179 30.5 2.10938ZM30.5 0C13.932 0 0.5 13.432 0.5 30C0.5 46.568 13.932 60 30.5 60C47.068 60 60.5 46.568 60.5 30C60.5 13.432 47.068 0 30.5 0Z" fill="url(#paint0_linear_173_4057)" fill-opacity="0.12"/>
<g clip-path="url(#clip1_173_4057)">
<path d="M12.8824 40.395C16.8278 43.8408 21.8866 45.7428 27.1249 45.75C29.0406 45.7497 30.9476 45.4924 32.7949 44.985C32.2589 44.3928 31.8117 43.7258 31.4674 43.005C30.8263 41.7677 30.4943 40.3935 30.4999 39C30.4978 37.5562 30.8445 36.1333 31.5105 34.8524C32.1764 33.5714 33.142 32.4702 34.3249 31.6425C35.0038 31.153 35.7555 30.7734 36.5524 30.5175C35.5205 29.6799 34.3864 28.9768 33.1774 28.425C34.21 27.5558 35.0394 26.4707 35.607 25.2461C36.1746 24.0215 36.4666 22.6872 36.4624 21.3375C36.4624 18.861 35.4786 16.486 33.7275 14.7349C31.9764 12.9838 29.6014 12 27.1249 12C24.6484 12 22.2734 12.9838 20.5223 14.7349C18.7712 16.486 17.7874 18.861 17.7874 21.3375C17.7832 22.6872 18.0752 24.0215 18.6428 25.2461C19.2104 26.4707 20.0398 27.5558 21.0724 28.425C18.8686 29.4134 16.9385 30.9234 15.4489 32.8247C13.9593 34.7259 12.9548 36.9612 12.5224 39.3375C12.488 39.5298 12.503 39.7277 12.566 39.9127C12.6289 40.0976 12.7378 40.2636 12.8824 40.395Z" fill="#00796B"/>
<path d="M12.8824 40.395C16.8278 43.8408 21.8866 45.7428 27.1249 45.75C29.0406 45.7497 30.9476 45.4924 32.7949 44.985C32.2589 44.3928 31.8117 43.7258 31.4674 43.005C30.8263 41.7677 30.4943 40.3935 30.4999 39C30.4978 37.5562 30.8445 36.1333 31.5105 34.8524C32.1764 33.5714 33.142 32.4702 34.3249 31.6425C35.0038 31.153 35.7555 30.7734 36.5524 30.5175C35.5205 29.6799 34.3864 28.9768 33.1774 28.425C34.21 27.5558 35.0394 26.4707 35.607 25.2461C36.1746 24.0215 36.4666 22.6872 36.4624 21.3375C36.4624 18.861 35.4786 16.486 33.7275 14.7349C31.9764 12.9838 29.6014 12 27.1249 12C24.6484 12 22.2734 12.9838 20.5223 14.7349C18.7712 16.486 17.7874 18.861 17.7874 21.3375C17.7832 22.6872 18.0752 24.0215 18.6428 25.2461C19.2104 26.4707 20.0398 27.5558 21.0724 28.425C18.8686 29.4134 16.9385 30.9234 15.4489 32.8247C13.9593 34.7259 12.9548 36.9612 12.5224 39.3375C12.488 39.5298 12.503 39.7277 12.566 39.9127C12.6289 40.0976 12.7378 40.2636 12.8824 40.395Z" fill="url(#paint1_linear_173_4057)" fill-opacity="0.12"/>
<path d="M39.5 32.2501C38.6016 32.2443 37.7122 32.4283 36.89 32.7901C36.8482 32.791 36.8083 32.807 36.7775 32.8351C35.8478 33.2437 35.0224 33.8571 34.3631 34.6295C33.7038 35.4019 33.2277 36.3133 32.9702 37.2956C32.7127 38.2779 32.6806 39.3057 32.8762 40.3022C33.0719 41.2987 33.4902 42.2381 34.1 43.0501C34.1447 43.097 34.1826 43.1501 34.2125 43.2076C34.924 44.1019 35.8508 44.8009 36.9061 45.2393C37.9615 45.6777 39.1108 45.8411 40.2465 45.7142C41.3822 45.5874 42.4671 45.1743 43.3997 44.5139C44.3323 43.8534 45.082 42.967 45.5786 41.9378C46.0752 40.9086 46.3026 39.7702 46.2393 38.6292C46.176 37.4882 45.8242 36.3819 45.2169 35.4139C44.6095 34.4459 43.7664 33.6479 42.7665 33.0946C41.7667 32.5412 40.6427 32.2507 39.5 32.2501ZM43.6625 37.5376L39.1625 42.0376C39.0609 42.1443 38.9387 42.2292 38.8034 42.2872C38.668 42.3452 38.5222 42.3752 38.375 42.3752C38.2277 42.3752 38.0819 42.3452 37.9466 42.2872C37.8112 42.2292 37.689 42.1443 37.5875 42.0376L35.3375 39.7876C35.1321 39.5781 35.0177 39.2959 35.0192 39.0025C35.0207 38.709 35.1379 38.428 35.3454 38.2205C35.5529 38.0131 35.8339 37.8958 36.1273 37.8944C36.4207 37.8929 36.7029 38.0072 36.9125 38.2126L38.375 39.6526L42.0875 35.9626C42.297 35.7572 42.5792 35.6429 42.8726 35.6444C43.1661 35.6458 43.4471 35.7631 43.6545 35.9705C43.862 36.178 43.9793 36.459 43.9807 36.7525C43.9822 37.0459 43.8678 37.3281 43.6625 37.5376Z" fill="#00796B"/>
<path d="M39.5 32.2501C38.6016 32.2443 37.7122 32.4283 36.89 32.7901C36.8482 32.791 36.8083 32.807 36.7775 32.8351C35.8478 33.2437 35.0224 33.8571 34.3631 34.6295C33.7038 35.4019 33.2277 36.3133 32.9702 37.2956C32.7127 38.2779 32.6806 39.3057 32.8762 40.3022C33.0719 41.2987 33.4902 42.2381 34.1 43.0501C34.1447 43.097 34.1826 43.1501 34.2125 43.2076C34.924 44.1019 35.8508 44.8009 36.9061 45.2393C37.9615 45.6777 39.1108 45.8411 40.2465 45.7142C41.3822 45.5874 42.4671 45.1743 43.3997 44.5139C44.3323 43.8534 45.082 42.967 45.5786 41.9378C46.0752 40.9086 46.3026 39.7702 46.2393 38.6292C46.176 37.4882 45.8242 36.3819 45.2169 35.4139C44.6095 34.4459 43.7664 33.6479 42.7665 33.0946C41.7667 32.5412 40.6427 32.2507 39.5 32.2501ZM43.6625 37.5376L39.1625 42.0376C39.0609 42.1443 38.9387 42.2292 38.8034 42.2872C38.668 42.3452 38.5222 42.3752 38.375 42.3752C38.2277 42.3752 38.0819 42.3452 37.9466 42.2872C37.8112 42.2292 37.689 42.1443 37.5875 42.0376L35.3375 39.7876C35.1321 39.5781 35.0177 39.2959 35.0192 39.0025C35.0207 38.709 35.1379 38.428 35.3454 38.2205C35.5529 38.0131 35.8339 37.8958 36.1273 37.8944C36.4207 37.8929 36.7029 38.0072 36.9125 38.2126L38.375 39.6526L42.0875 35.9626C42.297 35.7572 42.5792 35.6429 42.8726 35.6444C43.1661 35.6458 43.4471 35.7631 43.6545 35.9705C43.862 36.178 43.9793 36.459 43.9807 36.7525C43.9822 37.0459 43.8678 37.3281 43.6625 37.5376Z" fill="url(#paint2_linear_173_4057)" fill-opacity="0.12"/>
</g>
</g>
<defs>
<linearGradient id="paint0_linear_173_4057" x1="30.5" y1="0" x2="30.5" y2="60" gradientUnits="userSpaceOnUse">
<stop stop-color="white"/>
<stop offset="1" stop-color="white" stop-opacity="0"/>
</linearGradient>
<linearGradient id="paint1_linear_173_4057" x1="24.5284" y1="12" x2="24.5284" y2="45.75" gradientUnits="userSpaceOnUse">
<stop stop-color="white"/>
<stop offset="1" stop-color="white" stop-opacity="0"/>
</linearGradient>
<linearGradient id="paint2_linear_173_4057" x1="39.4998" y1="32.25" x2="39.4998" y2="45.756" gradientUnits="userSpaceOnUse">
<stop stop-color="white"/>
<stop offset="1" stop-color="white" stop-opacity="0"/>
</linearGradient>
<clipPath id="clip0_173_4057">
<rect width="60" height="60" fill="white" transform="translate(0.5)"/>
</clipPath>
<clipPath id="clip1_173_4057">
<rect width="36" height="36" fill="white" transform="translate(12.5 12)"/>
</clipPath>
</defs>
</svg>
