<svg width="60" height="60" viewBox="0 0 60 60" fill="none" xmlns="http://www.w3.org/2000/svg">
<g clip-path="url(#clip0_169_8085)">
<path d="M30 2.10938C36.4347 2.11317 42.6702 4.34123 47.6502 8.41608C52.6302 12.4909 56.0485 18.162 57.3259 24.4686C58.6034 30.7752 57.6614 37.3295 54.6597 43.0211C51.658 48.7127 46.781 53.1917 40.8551 55.6992C37.4802 57.1247 33.8576 57.8715 30.1941 57.897C26.5306 57.9225 22.898 57.2262 19.5036 55.8478C12.6483 53.064 7.17973 47.6709 4.30078 40.8551C1.42184 34.0392 1.36839 26.3589 4.15221 19.5036C6.93603 12.6483 12.3291 7.17973 19.1449 4.30078C22.5789 2.84715 26.271 2.10179 30 2.10938ZM30 0C13.432 0 0 13.432 0 30C0 46.568 13.432 60 30 60C46.568 60 60 46.568 60 30C60 13.432 46.568 0 30 0Z" fill="#00796B"/>
<path d="M30 2.10938C36.4347 2.11317 42.6702 4.34123 47.6502 8.41608C52.6302 12.4909 56.0485 18.162 57.3259 24.4686C58.6034 30.7752 57.6614 37.3295 54.6597 43.0211C51.658 48.7127 46.781 53.1917 40.8551 55.6992C37.4802 57.1247 33.8576 57.8715 30.1941 57.897C26.5306 57.9225 22.898 57.2262 19.5036 55.8478C12.6483 53.064 7.17973 47.6709 4.30078 40.8551C1.42184 34.0392 1.36839 26.3589 4.15221 19.5036C6.93603 12.6483 12.3291 7.17973 19.1449 4.30078C22.5789 2.84715 26.271 2.10179 30 2.10938ZM30 0C13.432 0 0 13.432 0 30C0 46.568 13.432 60 30 60C46.568 60 60 46.568 60 30C60 13.432 46.568 0 30 0Z" fill="url(#paint0_linear_169_8085)" fill-opacity="0.12"/>
<path d="M22.8903 20.4766C22.8903 18.5909 23.6394 16.7825 24.9727 15.4492C26.3061 14.1159 28.1145 13.3668 30.0001 13.3668C31.8857 13.3668 33.6941 14.1159 35.0275 15.4492C36.3608 16.7825 37.1099 18.5909 37.1099 20.4766V24.5781C38.2509 24.6982 39.363 25.0125 40.3981 25.5074V20.4801C40.3981 17.7223 39.3026 15.0776 37.3526 13.1275C35.4026 11.1775 32.7578 10.082 30.0001 10.082C27.2424 10.082 24.5976 11.1775 22.6476 13.1275C20.6976 15.0776 19.6021 17.7223 19.6021 20.4801V25.5074C20.6372 25.0125 21.7493 24.6982 22.8903 24.5781V20.4766Z" fill="#00796B"/>
<path d="M22.8903 20.4766C22.8903 18.5909 23.6394 16.7825 24.9727 15.4492C26.3061 14.1159 28.1145 13.3668 30.0001 13.3668C31.8857 13.3668 33.6941 14.1159 35.0275 15.4492C36.3608 16.7825 37.1099 18.5909 37.1099 20.4766V24.5781C38.2509 24.6982 39.363 25.0125 40.3981 25.5074V20.4801C40.3981 17.7223 39.3026 15.0776 37.3526 13.1275C35.4026 11.1775 32.7578 10.082 30.0001 10.082C27.2424 10.082 24.5976 11.1775 22.6476 13.1275C20.6976 15.0776 19.6021 17.7223 19.6021 20.4801V25.5074C20.6372 25.0125 21.7493 24.6982 22.8903 24.5781V20.4766Z" fill="url(#paint1_linear_169_8085)" fill-opacity="0.12"/>
<path d="M36.0516 25.2227H23.9485C21.4559 25.2227 19.0653 26.2128 17.3028 27.9754C15.5402 29.7379 14.55 32.1285 14.55 34.6211V47.1203C14.5504 47.8635 14.8458 48.5762 15.3715 49.1017C15.8971 49.6271 16.6099 49.9223 17.3532 49.9223H42.6469C43.3902 49.9223 44.103 49.6271 44.6286 49.1017C45.1543 48.5762 45.4497 47.8635 45.45 47.1203V34.6211C45.45 32.1285 44.4599 29.7379 42.6973 27.9754C40.9348 26.2128 38.5442 25.2227 36.0516 25.2227ZM29.7739 46.3164C29.461 46.3134 29.1561 46.2177 28.8975 46.0415C28.639 45.8653 28.4384 45.6165 28.3212 45.3264C28.204 45.0363 28.1754 44.718 28.2389 44.4116C28.3025 44.1053 28.4554 43.8246 28.6784 43.6051C28.9013 43.3856 29.1843 43.2371 29.4916 43.1783C29.7989 43.1195 30.1167 43.1531 30.405 43.2748C30.6932 43.3965 30.9389 43.6008 31.1111 43.8621C31.2832 44.1233 31.3742 44.4297 31.3723 44.7426C31.3716 44.951 31.3295 45.1571 31.2485 45.3491C31.1676 45.5412 31.0494 45.7152 30.9007 45.8612C30.7521 46.0073 30.576 46.1224 30.3825 46.1999C30.1891 46.2774 29.9822 46.3158 29.7739 46.3129V46.3164ZM34.8657 33.7504C34.7754 35.5023 33.9973 36.9484 32.4399 37.8074C31.4532 38.3512 31.0336 39.0895 31.0793 40.1617C31.0887 40.4078 31.0793 40.6551 31.0793 40.9012C31.0665 41.6594 30.5204 42.209 29.7458 42.2441C29.3986 42.2548 29.0607 42.1311 28.8025 41.8988C28.5442 41.6665 28.3855 41.3436 28.3594 40.9973C28.3395 40.7629 28.3594 40.5285 28.3594 40.2941C28.3891 39.5962 28.4793 38.9022 28.629 38.2199C28.9653 36.9672 29.8325 36.1328 30.9528 35.5363C31.6899 35.1426 32.0649 34.4969 32.1446 33.6906C32.2243 32.8844 31.8012 32.1977 31.0219 31.8156C30.1899 31.4125 29.2641 31.5191 28.6172 32.084C28.1965 32.4508 28.0008 32.9277 27.8614 33.4539C27.5743 34.5355 26.427 34.9258 25.6114 34.2332C25.4259 34.0866 25.2857 33.8905 25.2069 33.6676C25.1282 33.4447 25.114 33.204 25.1661 32.9734C25.5844 30.9191 26.8993 29.4578 28.8493 28.9715C31.9711 28.2016 35.0274 30.6086 34.8657 33.7504Z" fill="#00796B"/>
<path d="M36.0516 25.2227H23.9485C21.4559 25.2227 19.0653 26.2128 17.3028 27.9754C15.5402 29.7379 14.55 32.1285 14.55 34.6211V47.1203C14.5504 47.8635 14.8458 48.5762 15.3715 49.1017C15.8971 49.6271 16.6099 49.9223 17.3532 49.9223H42.6469C43.3902 49.9223 44.103 49.6271 44.6286 49.1017C45.1543 48.5762 45.4497 47.8635 45.45 47.1203V34.6211C45.45 32.1285 44.4599 29.7379 42.6973 27.9754C40.9348 26.2128 38.5442 25.2227 36.0516 25.2227ZM29.7739 46.3164C29.461 46.3134 29.1561 46.2177 28.8975 46.0415C28.639 45.8653 28.4384 45.6165 28.3212 45.3264C28.204 45.0363 28.1754 44.718 28.2389 44.4116C28.3025 44.1053 28.4554 43.8246 28.6784 43.6051C28.9013 43.3856 29.1843 43.2371 29.4916 43.1783C29.7989 43.1195 30.1167 43.1531 30.405 43.2748C30.6932 43.3965 30.9389 43.6008 31.1111 43.8621C31.2832 44.1233 31.3742 44.4297 31.3723 44.7426C31.3716 44.951 31.3295 45.1571 31.2485 45.3491C31.1676 45.5412 31.0494 45.7152 30.9007 45.8612C30.7521 46.0073 30.576 46.1224 30.3825 46.1999C30.1891 46.2774 29.9822 46.3158 29.7739 46.3129V46.3164ZM34.8657 33.7504C34.7754 35.5023 33.9973 36.9484 32.4399 37.8074C31.4532 38.3512 31.0336 39.0895 31.0793 40.1617C31.0887 40.4078 31.0793 40.6551 31.0793 40.9012C31.0665 41.6594 30.5204 42.209 29.7458 42.2441C29.3986 42.2548 29.0607 42.1311 28.8025 41.8988C28.5442 41.6665 28.3855 41.3436 28.3594 40.9973C28.3395 40.7629 28.3594 40.5285 28.3594 40.2941C28.3891 39.5962 28.4793 38.9022 28.629 38.2199C28.9653 36.9672 29.8325 36.1328 30.9528 35.5363C31.6899 35.1426 32.0649 34.4969 32.1446 33.6906C32.2243 32.8844 31.8012 32.1977 31.0219 31.8156C30.1899 31.4125 29.2641 31.5191 28.6172 32.084C28.1965 32.4508 28.0008 32.9277 27.8614 33.4539C27.5743 34.5355 26.427 34.9258 25.6114 34.2332C25.4259 34.0866 25.2857 33.8905 25.2069 33.6676C25.1282 33.4447 25.114 33.204 25.1661 32.9734C25.5844 30.9191 26.8993 29.4578 28.8493 28.9715C31.9711 28.2016 35.0274 30.6086 34.8657 33.7504Z" fill="url(#paint2_linear_169_8085)" fill-opacity="0.12"/>
</g>
<defs>
<linearGradient id="paint0_linear_169_8085" x1="30" y1="0" x2="30" y2="60" gradientUnits="userSpaceOnUse">
<stop stop-color="white"/>
<stop offset="1" stop-color="white" stop-opacity="0"/>
</linearGradient>
<linearGradient id="paint1_linear_169_8085" x1="30.0001" y1="10.082" x2="30.0001" y2="25.5074" gradientUnits="userSpaceOnUse">
<stop stop-color="white"/>
<stop offset="1" stop-color="white" stop-opacity="0"/>
</linearGradient>
<linearGradient id="paint2_linear_169_8085" x1="30" y1="25.2227" x2="30" y2="49.9223" gradientUnits="userSpaceOnUse">
<stop stop-color="white"/>
<stop offset="1" stop-color="white" stop-opacity="0"/>
</linearGradient>
<clipPath id="clip0_169_8085">
<rect width="60" height="60" fill="white"/>
</clipPath>
</defs>
</svg>
