<svg width="165" height="42" viewBox="0 0 165 42" fill="none" xmlns="http://www.w3.org/2000/svg">
<path fill-rule="evenodd" clip-rule="evenodd" d="M25.4747 0.869369C25.2321 0.669892 24.9896 0.470518 24.7481 0.270508L24.7717 11.2348L24.7691 23.5244C25.3081 23.1697 25.84 22.8048 26.3649 22.4296C26.4698 22.3568 26.5765 22.2848 26.6834 22.2127C26.9281 22.0477 27.1743 21.8817 27.4034 21.701L27.4071 2.48615C26.7734 1.9371 26.1236 1.40289 25.4748 0.869409L25.4747 0.869369ZM28.981 3.77177L28.981 3.77178L28.981 3.77181C29.0926 3.8727 29.203 3.97256 29.3137 4.0624C29.517 4.22754 29.7254 4.38646 29.9338 4.54538L29.9338 4.5454L29.9338 4.54541L29.9338 4.54542L29.9339 4.54543L29.9339 4.54545L29.9339 4.54546L29.9339 4.54547L29.9339 4.54549L29.9339 4.5455L29.934 4.54553L29.934 4.54557L29.9341 4.5456L29.9341 4.54563L29.9341 4.54566L29.9342 4.5457L29.9342 4.54573L29.9343 4.54576L29.9343 4.5458C30.108 4.67828 30.2818 4.81076 30.4525 4.94684C30.7221 5.16157 30.9836 5.38814 31.2445 5.61414L31.2445 5.61416C31.312 5.67257 31.3794 5.73095 31.4468 5.78907C31.4319 6.26935 31.4346 6.75152 31.4373 7.23303C31.4384 7.42882 31.4395 7.6245 31.4394 7.8199L31.4337 10.9808L31.4369 18.9326C31.0118 19.2396 30.5804 19.5375 30.1427 19.8263C29.8177 20.0591 29.4877 20.285 29.1577 20.5109C28.8923 20.6926 28.627 20.8743 28.3642 21.0595L28.3619 8.98567L28.3468 5.19581C28.346 4.99611 28.3416 4.79476 28.3372 4.59285V4.59284V4.59282V4.59281V4.59279V4.59278V4.59276V4.59275V4.59274V4.59272C28.3274 4.14758 28.3176 3.69975 28.3462 3.26099C28.5673 3.39771 28.7761 3.58649 28.981 3.77177ZM33.5975 11.6692C33.2424 11.3795 32.801 11.0194 32.5623 10.8931L32.5561 14.3376C32.5529 14.6284 32.5488 14.92 32.5446 15.2118L32.5446 15.213L32.5445 15.2142L32.5445 15.2154L32.5445 15.2166L32.5445 15.2178L32.5445 15.2189L32.5445 15.2201L32.5445 15.2212L32.5445 15.2223L32.5445 15.2234L32.5444 15.2245V15.2248C32.5289 16.3091 32.5134 17.3984 32.5495 18.4786C32.8318 18.7131 33.1352 18.916 33.4392 19.1192L33.4394 19.1193C33.5389 19.1859 33.6384 19.2524 33.7374 19.3202L35.43 20.4895L35.4287 15.6352C35.4285 15.385 35.4328 15.1295 35.4371 14.8725C35.4459 14.3417 35.4549 13.8041 35.4255 13.2923L35.4242 13.2659C35.4205 13.1901 35.4167 13.1106 35.3629 13.0538C35.2564 12.9414 35.1242 12.8452 34.9951 12.7513C34.9482 12.7172 34.9018 12.6835 34.8571 12.6493L33.9597 11.9605C33.8643 11.8869 33.7376 11.7835 33.5975 11.6692ZM37.2507 14.4809C36.8815 14.1938 36.5124 13.9068 36.1354 13.6316L36.1219 18.7062C36.1223 18.9288 36.119 19.1542 36.1157 19.3807C36.108 19.9029 36.1003 20.4306 36.1383 20.9416C36.5343 21.2792 36.9733 21.5742 37.4078 21.8661L37.4082 21.8663C37.515 21.9381 37.6215 22.0096 37.727 22.0816C37.8263 22.1493 37.9245 22.2204 38.0228 22.2917L38.0229 22.2918C38.1875 22.411 38.3526 22.5306 38.5239 22.635C38.5034 21.3606 38.5055 20.086 38.5077 18.8113C38.5097 17.6827 38.5116 16.554 38.4977 15.4256C38.0748 15.1217 37.6627 14.8013 37.2507 14.4809ZM25.5162 24.4412C25.9038 24.2234 27.144 23.3599 28.4692 22.4374L28.4692 22.4374C30.2702 21.1836 32.2281 19.8206 32.4157 19.8204C32.4405 19.8204 32.4601 19.8422 32.4778 19.8619L32.4859 19.8709C32.4884 19.8736 32.4909 19.8761 32.4933 19.8784L32.4933 19.8785C33.8418 20.8838 35.2362 21.8565 36.6306 22.797L38.451 24.0452C38.553 24.1153 38.658 24.1829 38.7631 24.2506L38.7633 24.2507L38.7634 24.2508L38.7635 24.2508C38.9495 24.3706 39.1362 24.4907 39.3077 24.6259C39.2787 25.9685 39.2873 27.3112 39.296 28.6539C39.3 29.2684 39.3039 29.883 39.3043 30.4976L39.3047 33.5257C39.3046 33.6941 39.3033 33.8628 39.3019 34.0317C39.2989 34.415 39.2958 34.7991 39.3077 35.181C40.0273 35.5933 40.7131 36.164 41.3163 36.731C41.456 36.8624 41.5929 36.9955 41.7296 37.1284C41.9974 37.3888 42.2645 37.6485 42.5507 37.8929C42.2281 37.7404 41.9223 37.5308 41.6205 37.3238L41.6205 37.3238C41.49 37.2343 41.3602 37.1454 41.2301 37.0617C40.7999 36.7852 40.3595 36.5235 39.9196 36.262L39.9194 36.262L39.9189 36.2617C39.797 36.1892 39.6751 36.1168 39.5534 36.044C37.5628 34.8539 34.7326 33.6268 32.5101 33.026C32.1605 32.9466 31.8126 32.8519 31.4657 32.7575L31.4651 32.7573L31.465 32.7573L31.465 32.7573C31.3544 32.7272 31.244 32.6972 31.1337 32.6676C31.1328 31.9242 31.1345 31.1802 31.1362 30.4361V30.4357V30.4353V30.4349V30.4345V30.4342V30.4338V30.4334V30.433V30.4327V30.4323V30.4319C31.1405 28.5893 31.1447 26.7455 31.1094 24.9052C30.865 25.0053 30.6267 25.125 30.389 25.2443L30.389 25.2443L30.389 25.2443L30.3889 25.2443L30.3889 25.2443L30.3888 25.2443L30.3888 25.2444L30.3888 25.2444L30.3887 25.2444L30.3887 25.2444L30.3886 25.2444L30.3886 25.2444C30.2722 25.3029 30.156 25.3612 30.0393 25.4171C29.4137 25.7169 28.7921 26.0268 28.1706 26.3366L28.1706 26.3366L28.1706 26.3367L28.1705 26.3367L28.1705 26.3367L28.1705 26.3367L28.1705 26.3367L28.1705 26.3367L28.1704 26.3367L28.1704 26.3367L28.1704 26.3367L28.1704 26.3368C27.8007 26.521 27.4311 26.7053 27.0607 26.8874L27.0694 31.7457C26.862 31.7285 26.6545 31.6976 26.4468 31.6666L26.4468 31.6666L26.4467 31.6666C26.1425 31.6213 25.838 31.5759 25.5331 31.5733C25.5106 30.976 25.5118 30.3767 25.5131 29.7782C25.5134 29.607 25.5138 29.4359 25.5136 29.2649L25.5162 24.4412ZM15.1563 28.0961V28.0959V28.0959V28.0957V28.0955V28.0952V28.0951V28.095V28.0947V28.0946V28.0946C15.1727 22.2912 15.1996 12.7553 15.1387 12.6464C14.763 12.9827 14.3743 13.3039 13.9856 13.6251L13.9854 13.6254C13.8522 13.7354 13.7191 13.8454 13.5865 13.956L11.7947 15.4598C11.656 15.5744 11.506 15.6947 11.3521 15.8181C10.9611 16.1317 10.545 16.4655 10.2252 16.7769C10.2251 17.1047 10.2233 17.4329 10.2216 17.7612L10.2215 17.7617C10.2172 18.5592 10.2129 19.3575 10.2325 20.1533L10.2585 20.1274C10.3932 19.9902 10.4767 19.8315 10.5628 19.668L10.5628 19.668C10.5926 19.6113 10.6228 19.5541 10.6554 19.4969C10.8899 19.0867 11.323 18.8421 11.7934 18.8271C12.1705 18.815 12.5667 18.9409 12.8426 19.2025C13.2125 19.5531 13.2715 19.9732 13.2751 20.4588L13.2745 28.4675C13.2735 28.9022 13.2692 29.3378 13.2649 29.7737V29.7739V29.774V29.7741V29.7743V29.7744V29.7745V29.7747V29.7748V29.7749V29.775V29.7751C13.2552 30.7586 13.2456 31.7438 13.2732 32.7239C13.8946 32.5614 14.5193 32.4128 15.1472 32.2781C15.146 31.7503 15.1504 30.1596 15.1563 28.0971L15.1563 28.0961ZM17.6824 13.6552C17.1928 13.3171 16.7032 12.979 16.2364 12.6124C16.2097 13.132 16.2134 13.6577 16.217 14.1811V14.1812V14.1813V14.1814V14.1814V14.1815V14.1816V14.1817V14.1818C16.2183 14.3691 16.2197 14.5561 16.2196 14.7425L16.2249 18.8007L16.238 32.1082C17.0102 31.941 17.7768 31.8059 18.5613 31.712L19.0254 31.6618L19.0244 14.6171C18.5893 14.2815 18.1359 13.9684 17.6824 13.6552L17.6824 13.6552ZM19.8765 15.1604C20.1454 15.3695 20.422 15.5644 20.6992 15.7598L20.6996 15.7601L20.6996 15.7601L20.6996 15.7601L20.6997 15.7601L20.6997 15.7601L20.6997 15.7602C20.8023 15.8325 20.9051 15.9049 21.0076 15.9781L23.5971 17.8191C23.6136 18.4346 23.6111 19.0525 23.6087 19.6697V19.6699V19.6702V19.6705V19.6707V19.671V19.6713V19.6715C23.6075 19.9637 23.6063 20.2557 23.6072 20.5473L23.5897 27.9237L23.5931 30.2858C23.5934 30.3704 23.5977 30.4733 23.6022 30.5839L23.6022 30.584C23.6144 30.8812 23.629 31.2341 23.5758 31.4397L23.5175 31.4682C22.3021 31.4529 21.1057 31.4655 19.8942 31.5731L19.8765 15.1604ZM23.5988 0.288905L23.5988 0.288928L23.5988 0.288931C23.6056 0.29551 23.6125 0.302082 23.6156 0.310771C23.6469 0.396548 23.6318 2.01585 23.6241 2.84282V2.84301L23.6241 2.84447C23.6221 3.0669 23.6205 3.23175 23.6206 3.29359L23.622 16.3822C22.9534 15.8747 22.266 15.3922 21.5786 14.9099L21.5785 14.9098L21.5784 14.9097L21.5783 14.9097L21.5782 14.9096L21.5781 14.9095C21.1753 14.6268 20.7725 14.3441 20.3735 14.0564L17.9747 12.3508C17.9522 10.8431 17.9476 9.33537 17.9607 7.82762C17.9609 7.5167 17.9584 7.20534 17.9559 6.89386V6.89356V6.89325V6.89295V6.89264V6.89233V6.89227V6.8922V6.89214V6.89208V6.89201C17.9513 6.3041 17.9466 5.71579 17.9601 5.12934C18.7856 4.43726 19.6058 3.7389 20.4206 3.03428C20.7275 2.76569 21.033 2.49455 21.3388 2.22323C22.0807 1.56495 22.8238 0.905582 23.589 0.278783C23.592 0.282331 23.5954 0.285612 23.5988 0.288891L23.5988 0.288905ZM11.8804 19.9003L11.8802 19.9003L11.8631 19.9012C11.5444 20.1058 11.2411 20.3601 10.9435 20.6095L10.9434 20.6096C10.8377 20.6982 10.7327 20.7862 10.628 20.8711L8.84255 22.2934C8.55052 22.5248 8.25665 22.7534 7.9628 22.982L7.96271 22.9821L7.96262 22.9822L7.96253 22.9822L7.96244 22.9823L7.96226 22.9824C7.53157 23.3175 7.10091 23.6525 6.67611 23.9962C6.59899 24.0586 6.51968 24.1205 6.43992 24.1827C6.22803 24.3481 6.01291 24.516 5.82697 24.7024C5.86016 25.9029 5.85293 27.1073 5.8457 28.3107V28.3107V28.3107V28.3107V28.3108L5.8457 28.3109C5.84227 28.8825 5.83884 29.4539 5.83975 30.0245L5.83929 33.3068C5.83893 33.4824 5.84013 33.6585 5.84132 33.8348V33.8349V33.8349V33.835V33.835C5.84392 34.2194 5.84653 34.6046 5.83315 34.9873L3.68118 36.8196C3.59022 36.8978 3.49774 36.9759 3.4048 37.0544L3.40442 37.0548L3.40401 37.0551C3.09416 37.3169 2.77929 37.5829 2.49928 37.8682L2.81223 37.6715C5.06548 36.2812 7.43241 34.9948 9.86403 33.9455C10.2505 33.7787 10.6489 33.6393 11.047 33.5L11.0471 33.5C11.4418 33.3619 11.8361 33.224 12.218 33.0596L12.2308 24.7097L12.2318 21.8542C12.232 21.7014 12.2337 21.548 12.2354 21.3942V21.3941V21.394V21.394V21.3939V21.3939V21.3939V21.3938V21.3938C12.2396 21.0056 12.2439 20.6156 12.2239 20.2306L12.223 20.2124C12.2194 20.1367 12.2154 20.0538 12.163 19.9954C12.1001 19.9252 12.0028 19.8961 11.911 19.8988C11.9008 19.8991 11.8906 19.8997 11.8804 19.9003ZM21.7999 33.3194C21.7245 33.3206 21.6488 33.3217 21.5737 33.3258C21.332 33.3353 21.0905 33.3474 20.849 33.3622C20.6076 33.377 20.3664 33.3944 20.1253 33.4145C19.8843 33.4345 19.6435 33.4572 19.4029 33.4825C19.1624 33.5078 18.9221 33.5358 18.6822 33.5664C18.4422 33.597 18.2027 33.6302 17.9635 33.666C17.7243 33.7018 17.4855 33.7403 17.2471 33.7814C17.0087 33.8224 16.7708 33.8661 16.5335 33.9124C16.296 33.9586 16.0592 34.0075 15.8228 34.059C15.5865 34.1104 15.3507 34.1644 15.1156 34.221C14.8804 34.2777 14.6459 34.3368 14.412 34.3986C14.1782 34.4604 13.945 34.5247 13.7126 34.5915C13.4801 34.6584 13.2484 34.7278 13.0175 34.7997C12.7865 34.8716 12.5564 34.9461 12.3271 35.0231C12.0978 35.1 11.8694 35.1795 11.6418 35.2615C11.4143 35.3434 11.1876 35.4279 10.9619 35.5148C10.7362 35.6017 10.5114 35.6911 10.2877 35.783C8.19207 36.6446 6.07131 37.7732 4.11292 38.9168C2.72056 39.7298 1.32684 40.5631 0 41.4795C0.269015 41.4019 0.539634 41.3324 0.810269 41.2628C1.01352 41.2106 1.21677 41.1584 1.41937 41.1028C2.39505 40.8304 3.36907 40.5523 4.34142 40.2683C4.70384 40.162 5.06656 40.055 5.42962 39.9479C8.69555 38.9847 11.989 38.0133 15.3415 37.4343C16.2352 37.287 17.1326 37.1662 18.0335 37.0718C18.9343 36.9774 19.8372 36.9097 20.7421 36.8687C21.6473 36.8281 22.5569 36.7947 23.4629 36.8227C24.6203 36.8548 25.7749 36.93 26.9267 37.0485C28.0786 37.1669 29.2244 37.3282 30.3641 37.5324C32.6341 37.9439 34.8875 38.5407 37.102 39.1834C37.6042 39.3291 38.1061 39.4759 38.6079 39.6226C40.052 40.0449 41.4956 40.4671 42.9471 40.8649C43.1866 40.9305 43.426 41.0019 43.6657 41.0734C44.0907 41.2002 44.5167 41.3273 44.946 41.423C44.6915 41.1779 44.0932 40.8232 43.6496 40.5602C43.5328 40.4909 43.4267 40.428 43.3404 40.3751C43.1142 40.2365 42.8896 40.0965 42.6652 39.9566C42.1529 39.6373 41.6418 39.3187 41.1151 39.0181C40.9033 38.8974 40.692 38.7749 40.4806 38.6524C40.0057 38.3772 39.5301 38.1017 39.0475 37.8435C38.063 37.3169 37.0412 36.8546 36.0231 36.3972C35.9204 36.3511 35.8177 36.3048 35.7149 36.2584C34.9138 35.8975 34.1076 35.5342 33.2845 35.23C33.0569 35.1461 32.8284 35.0649 32.5989 34.9864C32.3694 34.9079 32.1391 34.832 31.9078 34.7588C31.6766 34.6857 31.4445 34.6153 31.2116 34.5476C30.9787 34.4798 30.7451 34.4148 30.5106 34.3526C30.2762 34.2904 30.0411 34.2309 29.8053 34.1741C29.5695 34.1174 29.333 34.0634 29.0959 34.0121C28.8589 33.961 28.6212 33.9125 28.383 33.8669C28.1448 33.8212 27.9061 33.7784 27.6669 33.7383C27.4277 33.6982 27.1881 33.661 26.948 33.6265C26.7079 33.5921 26.4674 33.5604 26.2266 33.5316C25.9858 33.5028 25.7447 33.4767 25.5033 33.4536C25.2618 33.4304 25.0202 33.41 24.7782 33.3925C24.5363 33.375 24.2942 33.3603 24.052 33.3484C23.8097 33.3365 23.5674 33.3275 23.3249 33.3214C23.0825 33.3152 22.84 33.3118 22.5974 33.3113C22.3549 33.3108 22.1124 33.3131 21.8699 33.3182C21.8466 33.3187 21.8232 33.319 21.7999 33.3194Z" fill="#00796B"/>
<path d="M76.0424 17.0242H71.4845C71.4012 16.4345 71.2313 15.9108 70.9746 15.4529C70.7179 14.9881 70.3884 14.5926 69.986 14.2666C69.5836 13.9405 69.1188 13.6907 68.5915 13.5173C68.0712 13.3439 67.5058 13.2572 66.8953 13.2572C65.7923 13.2572 64.8314 13.5312 64.0128 14.0792C63.1941 14.6204 62.5594 15.4113 62.1084 16.4519C61.6575 17.4856 61.432 18.7413 61.432 20.219C61.432 21.7383 61.6575 23.0148 62.1084 24.0485C62.5663 25.0822 63.2046 25.8626 64.0232 26.3899C64.8418 26.9171 65.7888 27.1808 66.8641 27.1808C67.4677 27.1808 68.0261 27.101 68.5395 26.9414C69.0598 26.7819 69.5212 26.5495 69.9235 26.2442C70.3259 25.932 70.6589 25.5539 70.9226 25.1099C71.1931 24.6659 71.3804 24.1595 71.4845 23.5906L76.0424 23.6114C75.9245 24.5896 75.6297 25.5331 75.1579 26.4419C74.6931 27.3438 74.0653 28.152 73.2744 28.8666C72.4904 29.5742 71.5539 30.1362 70.4647 30.5524C69.3824 30.9617 68.1579 31.1664 66.7913 31.1664C64.8904 31.1664 63.1907 30.7362 61.6922 29.876C60.2006 29.0157 59.0212 27.7705 58.154 26.1401C57.2938 24.5098 56.8637 22.5361 56.8637 20.219C56.8637 17.8949 57.3007 15.9177 58.1748 14.2874C59.049 12.6571 60.2353 11.4152 61.7338 10.5619C63.2323 9.70167 64.9181 9.27154 66.7913 9.27154C68.0261 9.27154 69.1708 9.44498 70.2253 9.79186C71.2868 10.1387 72.2268 10.6452 73.0454 11.3112C73.8641 11.9702 74.5301 12.7785 75.0434 13.7358C75.5638 14.6932 75.8968 15.7893 76.0424 17.0242ZM86.0216 31.1872C84.4051 31.1872 83.0072 30.8438 81.8279 30.157C80.6554 29.4632 79.7501 28.4989 79.1118 27.264C78.4736 26.0222 78.1544 24.5827 78.1544 22.9454C78.1544 21.2943 78.4736 19.8513 79.1118 18.6164C79.7501 17.3746 80.6554 16.4103 81.8279 15.7234C83.0072 15.0297 84.4051 14.6828 86.0216 14.6828C87.638 14.6828 89.0325 15.0297 90.2049 15.7234C91.3843 16.4103 92.2931 17.3746 92.9314 18.6164C93.5696 19.8513 93.8887 21.2943 93.8887 22.9454C93.8887 24.5827 93.5696 26.0222 92.9314 27.264C92.2931 28.4989 91.3843 29.4632 90.2049 30.157C89.0325 30.8438 87.638 31.1872 86.0216 31.1872ZM86.0424 27.7531C86.7778 27.7531 87.3918 27.545 87.8843 27.1287C88.3769 26.7055 88.748 26.1297 88.9978 25.4013C89.2545 24.6729 89.3828 23.8438 89.3828 22.9142C89.3828 21.9846 89.2545 21.1555 88.9978 20.4271C88.748 19.6986 88.3769 19.1228 87.8843 18.6996C87.3918 18.2765 86.7778 18.0649 86.0424 18.0649C85.3001 18.0649 84.6757 18.2765 84.1693 18.6996C83.6698 19.1228 83.2917 19.6986 83.035 20.4271C82.7852 21.1555 82.6604 21.9846 82.6604 22.9142C82.6604 23.8438 82.7852 24.6729 83.035 25.4013C83.2917 26.1297 83.6698 26.7055 84.1693 27.1287C84.6757 27.545 85.3001 27.7531 86.0424 27.7531ZM96.4638 30.875V9.56292H100.897V17.5758H101.032C101.226 17.1456 101.507 16.7086 101.875 16.2646C102.25 15.8136 102.735 15.439 103.332 15.1407C103.936 14.8354 104.685 14.6828 105.58 14.6828C106.745 14.6828 107.821 14.9881 108.806 15.5986C109.791 16.2021 110.578 17.1144 111.168 18.3354C111.758 19.5495 112.052 21.0723 112.052 22.9038C112.052 24.6867 111.765 26.1922 111.189 27.4201C110.62 28.6411 109.843 29.5673 108.858 30.1986C107.88 30.823 106.783 31.1352 105.569 31.1352C104.709 31.1352 103.977 30.9929 103.374 30.7085C102.777 30.4241 102.288 30.0668 101.906 29.6367C101.525 29.1996 101.233 28.7591 101.032 28.3151H100.834V30.875H96.4638ZM100.803 22.883C100.803 23.8334 100.935 24.6624 101.199 25.3701C101.462 26.0777 101.844 26.6292 102.343 27.0247C102.843 27.4132 103.45 27.6074 104.164 27.6074C104.886 27.6074 105.496 27.4097 105.996 27.0143C106.495 26.6119 106.874 26.0569 107.13 25.3493C107.394 24.6347 107.526 23.8126 107.526 22.883C107.526 21.9603 107.397 21.1486 107.141 20.4479C106.884 19.7472 106.506 19.1991 106.006 18.8037C105.507 18.4083 104.893 18.2105 104.164 18.2105C103.443 18.2105 102.832 18.4013 102.333 18.7829C101.84 19.1645 101.462 19.7056 101.199 20.4063C100.935 21.107 100.803 21.9325 100.803 22.883ZM124.87 24.0693V14.8909H129.303V30.875H125.047V27.9716H124.88C124.52 28.9082 123.919 29.6609 123.08 30.2298C122.248 30.7987 121.231 31.0831 120.031 31.0831C118.963 31.0831 118.023 30.8403 117.211 30.3547C116.399 29.8691 115.764 29.1788 115.307 28.2838C114.856 27.3889 114.627 26.317 114.62 25.0683V14.8909H119.053V24.2774C119.06 25.2209 119.313 25.9667 119.812 26.5148C120.312 27.0628 120.981 27.3369 121.821 27.3369C122.355 27.3369 122.855 27.2155 123.319 26.9726C123.784 26.7229 124.159 26.3552 124.443 25.8696C124.735 25.3839 124.877 24.7839 124.87 24.0693ZM132.458 30.875V14.8909H136.891V30.875H132.458ZM134.685 12.8305C134.026 12.8305 133.461 12.612 132.989 12.1749C132.524 11.7309 132.292 11.2002 132.292 10.5827C132.292 9.97223 132.524 9.44845 132.989 9.01139C133.461 8.56738 134.026 8.34538 134.685 8.34538C135.344 8.34538 135.906 8.56738 136.371 9.01139C136.843 9.44845 137.079 9.97223 137.079 10.5827C137.079 11.2002 136.843 11.7309 136.371 12.1749C135.906 12.612 135.344 12.8305 134.685 12.8305ZM144.485 9.56292V30.875H140.052V9.56292H144.485ZM153.535 31.1352C152.321 31.1352 151.222 30.823 150.236 30.1986C149.258 29.5673 148.481 28.6411 147.905 27.4201C147.336 26.1922 147.052 24.6867 147.052 22.9038C147.052 21.0723 147.347 19.5495 147.937 18.3354C148.526 17.1144 149.31 16.2021 150.288 15.5986C151.274 14.9881 152.352 14.6828 153.525 14.6828C154.42 14.6828 155.165 14.8354 155.762 15.1407C156.366 15.439 156.851 15.8136 157.219 16.2646C157.594 16.7086 157.878 17.1456 158.072 17.5758H158.208V9.56292H162.63V30.875H158.26V28.3151H158.072C157.864 28.7591 157.569 29.1996 157.188 29.6367C156.813 30.0668 156.324 30.4241 155.72 30.7085C155.124 30.9929 154.395 31.1352 153.535 31.1352ZM154.94 27.6074C155.655 27.6074 156.258 27.4132 156.751 27.0247C157.25 26.6292 157.632 26.0777 157.895 25.3701C158.166 24.6624 158.301 23.8334 158.301 22.883C158.301 21.9325 158.169 21.107 157.906 20.4063C157.642 19.7056 157.261 19.1645 156.761 18.7829C156.262 18.4013 155.655 18.2105 154.94 18.2105C154.212 18.2105 153.598 18.4083 153.098 18.8037C152.599 19.1991 152.221 19.7472 151.964 20.4479C151.707 21.1486 151.579 21.9603 151.579 22.883C151.579 23.8126 151.707 24.6347 151.964 25.3493C152.227 26.0569 152.606 26.6119 153.098 27.0143C153.598 27.4097 154.212 27.6074 154.94 27.6074Z" fill="black"/>
</svg>
