<svg width="24" height="16" viewBox="0 0 24 16" fill="none" xmlns="http://www.w3.org/2000/svg">
<path d="M23.1853 7.44527C23.1525 7.37121 22.3584 5.60965 20.5931 3.84434C18.2409 1.49215 15.27 0.249023 12 0.249023C8.72999 0.249023 5.75905 1.49215 3.40687 3.84434C1.64155 5.60965 0.843741 7.37402 0.814679 7.44527C0.772035 7.54119 0.75 7.64499 0.75 7.74996C0.75 7.85493 0.772035 7.95873 0.814679 8.05465C0.847491 8.12871 1.64155 9.88934 3.40687 11.6546C5.75905 14.0059 8.72999 15.249 12 15.249C15.27 15.249 18.2409 14.0059 20.5931 11.6546C22.3584 9.88934 23.1525 8.12871 23.1853 8.05465C23.2279 7.95873 23.25 7.85493 23.25 7.74996C23.25 7.64499 23.2279 7.54119 23.1853 7.44527ZM12 13.749C9.11437 13.749 6.59343 12.7 4.50655 10.6318C3.65028 9.7803 2.92179 8.80929 2.34374 7.74902C2.92164 6.68865 3.65014 5.71763 4.50655 4.86621C6.59343 2.79809 9.11437 1.74902 12 1.74902C14.8856 1.74902 17.4066 2.79809 19.4934 4.86621C20.3514 5.71742 21.0815 6.68845 21.6609 7.74902C20.985 9.0109 18.0403 13.749 12 13.749ZM12 3.24902C11.11 3.24902 10.2399 3.51294 9.49993 4.00741C8.7599 4.50188 8.18313 5.20468 7.84253 6.02695C7.50194 6.84922 7.41282 7.75402 7.58646 8.62693C7.76009 9.49984 8.18867 10.3017 8.81801 10.931C9.44735 11.5603 10.2492 11.9889 11.1221 12.1626C11.995 12.3362 12.8998 12.2471 13.7221 11.9065C14.5443 11.5659 15.2471 10.9891 15.7416 10.2491C16.2361 9.50907 16.5 8.63904 16.5 7.74902C16.4988 6.55593 16.0242 5.41206 15.1806 4.56841C14.337 3.72477 13.1931 3.25026 12 3.24902ZM12 10.749C11.4066 10.749 10.8266 10.5731 10.3333 10.2434C9.83993 9.91379 9.45542 9.44525 9.22835 8.89707C9.00129 8.34889 8.94188 7.7457 9.05764 7.16375C9.17339 6.58181 9.45911 6.04726 9.87867 5.6277C10.2982 5.20815 10.8328 4.92242 11.4147 4.80667C11.9967 4.69091 12.5999 4.75032 13.148 4.97738C13.6962 5.20445 14.1648 5.58897 14.4944 6.08231C14.824 6.57566 15 7.15568 15 7.74902C15 8.54467 14.6839 9.30773 14.1213 9.87034C13.5587 10.433 12.7956 10.749 12 10.749Z" fill="#00796B"/>
<path d="M23.1853 7.44527C23.1525 7.37121 22.3584 5.60965 20.5931 3.84434C18.2409 1.49215 15.27 0.249023 12 0.249023C8.72999 0.249023 5.75905 1.49215 3.40687 3.84434C1.64155 5.60965 0.843741 7.37402 0.814679 7.44527C0.772035 7.54119 0.75 7.64499 0.75 7.74996C0.75 7.85493 0.772035 7.95873 0.814679 8.05465C0.847491 8.12871 1.64155 9.88934 3.40687 11.6546C5.75905 14.0059 8.72999 15.249 12 15.249C15.27 15.249 18.2409 14.0059 20.5931 11.6546C22.3584 9.88934 23.1525 8.12871 23.1853 8.05465C23.2279 7.95873 23.25 7.85493 23.25 7.74996C23.25 7.64499 23.2279 7.54119 23.1853 7.44527ZM12 13.749C9.11437 13.749 6.59343 12.7 4.50655 10.6318C3.65028 9.7803 2.92179 8.80929 2.34374 7.74902C2.92164 6.68865 3.65014 5.71763 4.50655 4.86621C6.59343 2.79809 9.11437 1.74902 12 1.74902C14.8856 1.74902 17.4066 2.79809 19.4934 4.86621C20.3514 5.71742 21.0815 6.68845 21.6609 7.74902C20.985 9.0109 18.0403 13.749 12 13.749ZM12 3.24902C11.11 3.24902 10.2399 3.51294 9.49993 4.00741C8.7599 4.50188 8.18313 5.20468 7.84253 6.02695C7.50194 6.84922 7.41282 7.75402 7.58646 8.62693C7.76009 9.49984 8.18867 10.3017 8.81801 10.931C9.44735 11.5603 10.2492 11.9889 11.1221 12.1626C11.995 12.3362 12.8998 12.2471 13.7221 11.9065C14.5443 11.5659 15.2471 10.9891 15.7416 10.2491C16.2361 9.50907 16.5 8.63904 16.5 7.74902C16.4988 6.55593 16.0242 5.41206 15.1806 4.56841C14.337 3.72477 13.1931 3.25026 12 3.24902ZM12 10.749C11.4066 10.749 10.8266 10.5731 10.3333 10.2434C9.83993 9.91379 9.45542 9.44525 9.22835 8.89707C9.00129 8.34889 8.94188 7.7457 9.05764 7.16375C9.17339 6.58181 9.45911 6.04726 9.87867 5.6277C10.2982 5.20815 10.8328 4.92242 11.4147 4.80667C11.9967 4.69091 12.5999 4.75032 13.148 4.97738C13.6962 5.20445 14.1648 5.58897 14.4944 6.08231C14.824 6.57566 15 7.15568 15 7.74902C15 8.54467 14.6839 9.30773 14.1213 9.87034C13.5587 10.433 12.7956 10.749 12 10.749Z" fill="url(#paint0_linear_768_3658)" fill-opacity="0.12"/>
<defs>
<linearGradient id="paint0_linear_768_3658" x1="12" y1="0.249023" x2="12" y2="15.249" gradientUnits="userSpaceOnUse">
<stop stop-color="white"/>
<stop offset="1" stop-color="white" stop-opacity="0"/>
</linearGradient>
</defs>
</svg>
