<svg width="20" height="21" viewBox="0 0 20 21" fill="none" xmlns="http://www.w3.org/2000/svg">
<path d="M8.58506 9.33594C8.21005 9.71109 7.99942 10.2198 7.99951 10.7503C7.99961 11.2807 8.21041 11.7894 8.58556 12.1644C8.96071 12.5395 9.46947 12.7501 9.99992 12.75C10.5304 12.7499 11.039 12.5391 11.4141 12.1639M14.681 15.4221C13.2782 16.2997 11.6547 16.76 10 16.7491C6.4 16.7491 3.4 14.7491 1 10.7491C2.272 8.62905 3.712 7.07105 5.32 6.07505M8.18 4.92905C8.77904 4.80778 9.38881 4.74748 10 4.74905C13.6 4.74905 16.6 6.74905 19 10.7491C18.334 11.8591 17.621 12.8161 16.862 13.6191M1 1.74902L19 19.749" stroke="#00796B" stroke-width="1.95" stroke-linecap="round" stroke-linejoin="round"/>
</svg>
