<svg width="255" height="206" viewBox="0 0 255 206" fill="none" xmlns="http://www.w3.org/2000/svg">
<g clip-path="url(#clip0_245_6892)">
<rect x="-0.00827026" y="-50.3618" width="51.1885" height="51.1885" rx="5.64839" stroke="#F0F0F0" stroke-width="0.529536"/>
<rect x="51.1802" y="-50.3618" width="51.1885" height="51.1885" rx="5.64839" stroke="#F0F0F0" stroke-width="0.529536"/>
<rect x="102.369" y="-50.3618" width="51.1885" height="51.1885" rx="5.64839" stroke="#F0F0F0" stroke-width="0.529536"/>
<rect x="153.557" y="-50.3618" width="51.1885" height="51.1885" rx="5.64839" stroke="#F0F0F0" stroke-width="0.529536"/>
<rect x="204.746" y="-50.3618" width="51.1885" height="51.1885" rx="5.64839" stroke="#F0F0F0" stroke-width="0.529536"/>
<rect x="-0.00827026" y="0.826172" width="51.1885" height="51.1885" rx="5.64839" stroke="#F0F0F0" stroke-width="0.529536"/>
<rect x="51.1802" y="0.826172" width="51.1885" height="51.1885" rx="5.64839" stroke="#F0F0F0" stroke-width="0.529536"/>
<rect x="102.369" y="0.826172" width="51.1885" height="51.1885" rx="5.64839" stroke="#F0F0F0" stroke-width="0.529536"/>
<rect x="153.557" y="0.826172" width="51.1885" height="51.1885" rx="5.64839" stroke="#F0F0F0" stroke-width="0.529536"/>
<rect x="204.746" y="0.826172" width="51.1885" height="51.1885" rx="5.64839" stroke="#F0F0F0" stroke-width="0.529536"/>
<rect x="-0.00827026" y="52.0151" width="51.1885" height="51.1885" rx="5.64839" stroke="#F0F0F0" stroke-width="0.529536"/>
<rect x="51.1802" y="52.0151" width="51.1885" height="51.1885" rx="5.64839" stroke="#F0F0F0" stroke-width="0.529536"/>
<rect x="102.369" y="52.0151" width="51.1885" height="51.1885" rx="5.64839" stroke="#F0F0F0" stroke-width="0.529536"/>
<rect x="153.557" y="52.0151" width="51.1885" height="51.1885" rx="5.64839" stroke="#F0F0F0" stroke-width="0.529536"/>
<rect x="204.746" y="52.0151" width="51.1885" height="51.1885" rx="5.64839" stroke="#F0F0F0" stroke-width="0.529536"/>
<rect x="-0.00827026" y="103.204" width="51.1885" height="51.1885" rx="5.64839" stroke="#F0F0F0" stroke-width="0.529536"/>
<rect x="51.1802" y="103.204" width="51.1885" height="51.1885" rx="5.64839" stroke="#F0F0F0" stroke-width="0.529536"/>
<rect x="102.369" y="103.204" width="51.1885" height="51.1885" rx="5.64839" stroke="#F0F0F0" stroke-width="0.529536"/>
<rect x="153.557" y="103.204" width="51.1885" height="51.1885" rx="5.64839" stroke="#F0F0F0" stroke-width="0.529536"/>
<rect x="204.746" y="103.204" width="51.1885" height="51.1885" rx="5.64839" stroke="#F0F0F0" stroke-width="0.529536"/>
<rect x="-0.00827026" y="154.393" width="51.1885" height="51.1885" rx="5.64839" stroke="#F0F0F0" stroke-width="0.529536"/>
<rect x="51.1802" y="154.393" width="51.1885" height="51.1885" rx="5.64839" stroke="#F0F0F0" stroke-width="0.529536"/>
<rect x="102.369" y="154.393" width="51.1885" height="51.1885" rx="5.64839" stroke="#F0F0F0" stroke-width="0.529536"/>
<rect x="153.557" y="154.393" width="51.1885" height="51.1885" rx="5.64839" stroke="#F0F0F0" stroke-width="0.529536"/>
<rect x="204.746" y="154.393" width="51.1885" height="51.1885" rx="5.64839" stroke="#F0F0F0" stroke-width="0.529536"/>
<path d="M204.746 -46.1255V-4.82166C204.746 -1.70214 207.275 0.826724 210.394 0.826724H250.286C253.405 0.826724 255.934 3.35559 255.934 6.47511V46.3668C255.934 49.4864 258.463 52.0152 261.583 52.0152H301.474C304.594 52.0152 307.123 54.5441 307.123 57.6636V97.5553C307.123 100.675 309.652 103.204 312.771 103.204H352.663C355.782 103.204 358.311 105.733 358.311 108.852V148.744C358.311 151.863 360.84 154.392 363.96 154.392H405.264M153.557 -46.1255V-4.82166C153.557 -1.70214 156.086 0.826724 159.206 0.826724H199.097C202.217 0.826724 204.746 3.35559 204.746 6.47511V46.3668C204.746 49.4864 207.275 52.0152 210.394 52.0152H250.286C253.405 52.0152 255.934 54.5441 255.934 57.6636V97.5553C255.934 100.675 253.405 103.204 250.286 103.204H210.394C207.275 103.204 204.746 100.675 204.746 97.5553V56.9576L204.696 56.6239C204.317 54.0656 202.146 52.1553 199.56 52.1056L194.861 52.0152H159.206C156.086 52.0152 153.557 54.5441 153.557 57.6636V97.5553C153.557 100.675 156.086 103.204 159.206 103.204H199.45L200.791 103.293C203.017 103.441 204.746 105.29 204.746 107.52V111.853M204.746 107.44V148.744C204.746 151.863 207.275 154.392 210.394 154.392H250.286C253.405 154.392 255.934 156.921 255.934 160.041V199.932C255.934 203.052 258.463 205.581 261.583 205.581H301.474C304.594 205.581 307.123 208.11 307.123 211.229V251.121C307.123 254.24 309.652 256.769 312.771 256.769H352.663C355.782 256.769 358.311 259.298 358.311 262.418V302.309C358.311 305.429 360.84 307.958 363.96 307.958H405.264" stroke="url(#paint0_linear_245_6892)" stroke-opacity="0.8" stroke-width="0.529536"/>
<rect x="-0.00827026" y="270.227" width="287.009" height="153.566" transform="rotate(-90 -0.00827026 270.227)" fill="url(#paint1_linear_245_6892)"/>
<ellipse cx="200.509" cy="-51.3789" rx="190.986" ry="162.744" fill="url(#paint2_radial_245_6892)"/>
</g>
<defs>
<linearGradient id="paint0_linear_245_6892" x1="153.557" y1="-46.1255" x2="399.615" y2="258.358" gradientUnits="userSpaceOnUse">
<stop offset="0.0819437" stop-color="#F7F7F7"/>
<stop offset="0.208333" stop-color="#12C2E9"/>
<stop offset="0.526042" stop-color="#C471ED"/>
<stop offset="0.9375" stop-color="#F64F59"/>
</linearGradient>
<linearGradient id="paint1_linear_245_6892" x1="143.496" y1="270.227" x2="143.496" y2="423.792" gradientUnits="userSpaceOnUse">
<stop stop-color="white"/>
<stop offset="1" stop-color="white" stop-opacity="0"/>
</linearGradient>
<radialGradient id="paint2_radial_245_6892" cx="0" cy="0" r="1" gradientUnits="userSpaceOnUse" gradientTransform="translate(200.509 -51.3789) rotate(90) scale(162.744 190.986)">
<stop stop-color="white"/>
<stop offset="1" stop-color="white" stop-opacity="0"/>
</radialGradient>
<clipPath id="clip0_245_6892">
<rect width="255" height="206" fill="white"/>
</clipPath>
</defs>
</svg>
