<svg width="61" height="60" viewBox="0 0 61 60" fill="none" xmlns="http://www.w3.org/2000/svg">
<g clip-path="url(#clip0_169_8195)">
<path d="M30.5 2.10938C36.9347 2.11317 43.1702 4.34123 48.1502 8.41608C53.1302 12.4909 56.5485 18.162 57.8259 24.4686C59.1034 30.7752 58.1614 37.3295 55.1597 43.0211C52.158 48.7127 47.281 53.1917 41.3551 55.6992C37.9802 57.1247 34.3576 57.8715 30.6941 57.897C27.0306 57.9225 23.398 57.2262 20.0036 55.8478C13.1483 53.064 7.67973 47.6709 4.80078 40.8551C1.92184 34.0392 1.86839 26.3589 4.65221 19.5036C7.43603 12.6483 12.8291 7.17973 19.6449 4.30078C23.0789 2.84715 26.771 2.10179 30.5 2.10938ZM30.5 0C13.932 0 0.5 13.432 0.5 30C0.5 46.568 13.932 60 30.5 60C47.068 60 60.5 46.568 60.5 30C60.5 13.432 47.068 0 30.5 0Z" fill="#00796B"/>
<path d="M30.5 2.10938C36.9347 2.11317 43.1702 4.34123 48.1502 8.41608C53.1302 12.4909 56.5485 18.162 57.8259 24.4686C59.1034 30.7752 58.1614 37.3295 55.1597 43.0211C52.158 48.7127 47.281 53.1917 41.3551 55.6992C37.9802 57.1247 34.3576 57.8715 30.6941 57.897C27.0306 57.9225 23.398 57.2262 20.0036 55.8478C13.1483 53.064 7.67973 47.6709 4.80078 40.8551C1.92184 34.0392 1.86839 26.3589 4.65221 19.5036C7.43603 12.6483 12.8291 7.17973 19.6449 4.30078C23.0789 2.84715 26.771 2.10179 30.5 2.10938ZM30.5 0C13.932 0 0.5 13.432 0.5 30C0.5 46.568 13.932 60 30.5 60C47.068 60 60.5 46.568 60.5 30C60.5 13.432 47.068 0 30.5 0Z" fill="url(#paint0_linear_169_8195)" fill-opacity="0.12"/>
<g clip-path="url(#clip1_169_8195)">
<path d="M46.335 32.7295H23.1489C22.2499 32.7295 21.519 33.4604 21.519 34.3593V39.6703C21.519 40.5707 22.2499 41.3023 23.1489 41.3023H25.7643C26.0435 41.3023 26.2694 41.5289 26.2694 41.8081V44.5844L29.5096 41.4452C29.6034 41.3536 29.7296 41.3023 29.8609 41.3023H46.335C47.234 41.3023 47.9648 40.5707 47.9648 39.6703V34.3593C47.9648 33.4604 47.2339 32.7295 46.335 32.7295ZM30.2037 37.7136C30.4454 37.8528 30.5276 38.1624 30.3884 38.4033C30.2946 38.5657 30.1251 38.6566 29.9504 38.6566C29.8646 38.6566 29.778 38.6342 29.6986 38.5887L28.4887 37.8896V39.2879C28.4887 39.5671 28.2629 39.7936 27.9836 39.7936C27.7044 39.7936 27.4786 39.5671 27.4786 39.2879V37.8896L26.2687 38.5887C26.1893 38.6342 26.102 38.6566 26.0169 38.6566C25.8423 38.6566 25.672 38.5657 25.5789 38.4033C25.4389 38.1624 25.5219 37.8529 25.7636 37.7136L26.9735 37.0152L25.7636 36.316C25.5219 36.1768 25.4389 35.868 25.5789 35.6263C25.7181 35.3845 26.0269 35.3016 26.2687 35.4416L27.4786 36.14V34.7439C27.4786 34.4646 27.7044 34.2388 27.9836 34.2388C28.2629 34.2388 28.4887 34.4646 28.4887 34.7439V36.14L29.6986 35.4416C29.9403 35.3016 30.2491 35.3845 30.3884 35.6263C30.5276 35.868 30.4454 36.1767 30.2037 36.316L28.9938 37.0152L30.2037 37.7136ZM36.9613 37.7136C37.203 37.8536 37.2852 38.1624 37.146 38.404C37.0522 38.5657 36.8827 38.6565 36.708 38.6565C36.6222 38.6565 36.5356 38.6342 36.4555 38.5887L35.2463 37.8896V39.2878C35.2463 39.567 35.0198 39.7936 34.7412 39.7936C34.462 39.7936 34.2355 39.567 34.2355 39.2878V37.891L33.0284 38.5887C32.9483 38.6341 32.8618 38.6565 32.7759 38.6565C32.6014 38.6565 32.4318 38.5656 32.338 38.404C32.1987 38.1623 32.2809 37.8536 32.5227 37.7136L33.7319 37.0152L32.5227 36.316C32.2809 36.1768 32.1987 35.868 32.338 35.6263C32.478 35.3845 32.7868 35.3016 33.0284 35.4416L34.2355 36.1385V34.7439C34.2355 34.4646 34.462 34.2388 34.7412 34.2388C35.0198 34.2388 35.2463 34.4646 35.2463 34.7439V36.14L36.4555 35.4416C36.6973 35.3016 37.006 35.3845 37.146 35.6263C37.2852 35.868 37.203 36.1767 36.9613 36.316L35.7521 37.0152L36.9613 37.7136ZM43.7203 37.7136C43.962 37.8528 44.045 38.1624 43.905 38.4033C43.8119 38.5657 43.6417 38.6566 43.467 38.6566C43.3812 38.6566 43.2946 38.6342 43.2152 38.5887L42.0053 37.8896V39.2879C42.0053 39.5671 41.7795 39.7936 41.5002 39.7936C41.221 39.7936 40.9952 39.5671 40.9952 39.2879V37.8896L39.7852 38.5887C39.7059 38.6342 39.6193 38.6566 39.5335 38.6566C39.3589 38.6566 39.1886 38.5657 39.0955 38.4033C38.9555 38.1624 39.0385 37.8529 39.2802 37.7136L40.4901 37.0152L39.2802 36.316C39.0385 36.1768 38.9555 35.868 39.0955 35.6263C39.2347 35.3845 39.5435 35.3016 39.7852 35.4416L40.9952 36.14V34.7439C40.9952 34.4646 41.221 34.2388 41.5002 34.2388C41.7795 34.2388 42.0053 34.4646 42.0053 34.7439V36.14L43.2152 35.4416C43.457 35.3016 43.7658 35.3845 43.905 35.6263C44.045 35.868 43.962 36.1767 43.7203 36.316L42.5104 37.0152L43.7203 37.7136ZM26.1164 46.1407C26.0197 46.2338 25.8935 46.2828 25.7644 46.2828C25.698 46.2828 25.6309 46.2698 25.5674 46.2423C25.3805 46.1637 25.2593 45.9804 25.2593 45.7777V42.3131H23.149C21.693 42.3131 20.5082 41.1277 20.5082 39.6702V34.3592C20.5082 32.9033 21.6929 31.7186 23.149 31.7186H38.2045C37.8682 30.2611 36.5602 29.1847 35.019 29.1847H33.5421V24.0123C33.5421 20.5404 30.7175 17.7157 27.2456 17.7157C23.7716 17.7157 20.9461 20.5404 20.9461 24.0123V29.1847H19.4692C17.6677 29.1847 16.2008 30.6522 16.2008 32.4552V44.2583C16.2008 46.0598 17.6676 47.5259 19.4692 47.5259H35.019C36.8213 47.5259 38.2874 46.0598 38.2874 44.2583V42.3131H30.0659L26.1164 46.1407ZM23.9115 24.0123C23.9115 22.1754 25.4072 20.6811 27.2456 20.6811C29.0825 20.6811 30.5767 22.1754 30.5767 24.0123V29.1847H23.9115V24.0123ZM13.0455 27.6817C13.0455 27.9607 12.8193 28.1868 12.5404 28.1868C12.2614 28.1868 12.0352 27.9607 12.0352 27.6817C12.0352 19.2959 18.8574 12.4736 27.2432 12.4736C34.3542 12.4736 40.5269 17.4323 42.079 24.3233H44.9749C45.1719 24.3233 45.3515 24.4379 45.4338 24.6176C45.5161 24.7965 45.4872 25.0072 45.3588 25.1573L42.2318 28.8095C42.1358 28.9221 41.9959 28.9863 41.8479 28.9863C41.7008 28.9863 41.5601 28.9221 41.4641 28.8102L38.335 25.1573C38.2065 25.0073 38.1777 24.7965 38.26 24.6176C38.3422 24.4379 38.5219 24.3233 38.7188 24.3233H41.042C39.512 18.0064 33.8055 13.4839 27.2432 13.4839C19.4146 13.484 13.0455 19.8531 13.0455 27.6817Z" fill="#00796B"/>
<path d="M46.335 32.7295H23.1489C22.2499 32.7295 21.519 33.4604 21.519 34.3593V39.6703C21.519 40.5707 22.2499 41.3023 23.1489 41.3023H25.7643C26.0435 41.3023 26.2694 41.5289 26.2694 41.8081V44.5844L29.5096 41.4452C29.6034 41.3536 29.7296 41.3023 29.8609 41.3023H46.335C47.234 41.3023 47.9648 40.5707 47.9648 39.6703V34.3593C47.9648 33.4604 47.2339 32.7295 46.335 32.7295ZM30.2037 37.7136C30.4454 37.8528 30.5276 38.1624 30.3884 38.4033C30.2946 38.5657 30.1251 38.6566 29.9504 38.6566C29.8646 38.6566 29.778 38.6342 29.6986 38.5887L28.4887 37.8896V39.2879C28.4887 39.5671 28.2629 39.7936 27.9836 39.7936C27.7044 39.7936 27.4786 39.5671 27.4786 39.2879V37.8896L26.2687 38.5887C26.1893 38.6342 26.102 38.6566 26.0169 38.6566C25.8423 38.6566 25.672 38.5657 25.5789 38.4033C25.4389 38.1624 25.5219 37.8529 25.7636 37.7136L26.9735 37.0152L25.7636 36.316C25.5219 36.1768 25.4389 35.868 25.5789 35.6263C25.7181 35.3845 26.0269 35.3016 26.2687 35.4416L27.4786 36.14V34.7439C27.4786 34.4646 27.7044 34.2388 27.9836 34.2388C28.2629 34.2388 28.4887 34.4646 28.4887 34.7439V36.14L29.6986 35.4416C29.9403 35.3016 30.2491 35.3845 30.3884 35.6263C30.5276 35.868 30.4454 36.1767 30.2037 36.316L28.9938 37.0152L30.2037 37.7136ZM36.9613 37.7136C37.203 37.8536 37.2852 38.1624 37.146 38.404C37.0522 38.5657 36.8827 38.6565 36.708 38.6565C36.6222 38.6565 36.5356 38.6342 36.4555 38.5887L35.2463 37.8896V39.2878C35.2463 39.567 35.0198 39.7936 34.7412 39.7936C34.462 39.7936 34.2355 39.567 34.2355 39.2878V37.891L33.0284 38.5887C32.9483 38.6341 32.8618 38.6565 32.7759 38.6565C32.6014 38.6565 32.4318 38.5656 32.338 38.404C32.1987 38.1623 32.2809 37.8536 32.5227 37.7136L33.7319 37.0152L32.5227 36.316C32.2809 36.1768 32.1987 35.868 32.338 35.6263C32.478 35.3845 32.7868 35.3016 33.0284 35.4416L34.2355 36.1385V34.7439C34.2355 34.4646 34.462 34.2388 34.7412 34.2388C35.0198 34.2388 35.2463 34.4646 35.2463 34.7439V36.14L36.4555 35.4416C36.6973 35.3016 37.006 35.3845 37.146 35.6263C37.2852 35.868 37.203 36.1767 36.9613 36.316L35.7521 37.0152L36.9613 37.7136ZM43.7203 37.7136C43.962 37.8528 44.045 38.1624 43.905 38.4033C43.8119 38.5657 43.6417 38.6566 43.467 38.6566C43.3812 38.6566 43.2946 38.6342 43.2152 38.5887L42.0053 37.8896V39.2879C42.0053 39.5671 41.7795 39.7936 41.5002 39.7936C41.221 39.7936 40.9952 39.5671 40.9952 39.2879V37.8896L39.7852 38.5887C39.7059 38.6342 39.6193 38.6566 39.5335 38.6566C39.3589 38.6566 39.1886 38.5657 39.0955 38.4033C38.9555 38.1624 39.0385 37.8529 39.2802 37.7136L40.4901 37.0152L39.2802 36.316C39.0385 36.1768 38.9555 35.868 39.0955 35.6263C39.2347 35.3845 39.5435 35.3016 39.7852 35.4416L40.9952 36.14V34.7439C40.9952 34.4646 41.221 34.2388 41.5002 34.2388C41.7795 34.2388 42.0053 34.4646 42.0053 34.7439V36.14L43.2152 35.4416C43.457 35.3016 43.7658 35.3845 43.905 35.6263C44.045 35.868 43.962 36.1767 43.7203 36.316L42.5104 37.0152L43.7203 37.7136ZM26.1164 46.1407C26.0197 46.2338 25.8935 46.2828 25.7644 46.2828C25.698 46.2828 25.6309 46.2698 25.5674 46.2423C25.3805 46.1637 25.2593 45.9804 25.2593 45.7777V42.3131H23.149C21.693 42.3131 20.5082 41.1277 20.5082 39.6702V34.3592C20.5082 32.9033 21.6929 31.7186 23.149 31.7186H38.2045C37.8682 30.2611 36.5602 29.1847 35.019 29.1847H33.5421V24.0123C33.5421 20.5404 30.7175 17.7157 27.2456 17.7157C23.7716 17.7157 20.9461 20.5404 20.9461 24.0123V29.1847H19.4692C17.6677 29.1847 16.2008 30.6522 16.2008 32.4552V44.2583C16.2008 46.0598 17.6676 47.5259 19.4692 47.5259H35.019C36.8213 47.5259 38.2874 46.0598 38.2874 44.2583V42.3131H30.0659L26.1164 46.1407ZM23.9115 24.0123C23.9115 22.1754 25.4072 20.6811 27.2456 20.6811C29.0825 20.6811 30.5767 22.1754 30.5767 24.0123V29.1847H23.9115V24.0123ZM13.0455 27.6817C13.0455 27.9607 12.8193 28.1868 12.5404 28.1868C12.2614 28.1868 12.0352 27.9607 12.0352 27.6817C12.0352 19.2959 18.8574 12.4736 27.2432 12.4736C34.3542 12.4736 40.5269 17.4323 42.079 24.3233H44.9749C45.1719 24.3233 45.3515 24.4379 45.4338 24.6176C45.5161 24.7965 45.4872 25.0072 45.3588 25.1573L42.2318 28.8095C42.1358 28.9221 41.9959 28.9863 41.8479 28.9863C41.7008 28.9863 41.5601 28.9221 41.4641 28.8102L38.335 25.1573C38.2065 25.0073 38.1777 24.7965 38.26 24.6176C38.3422 24.4379 38.5219 24.3233 38.7188 24.3233H41.042C39.512 18.0064 33.8055 13.4839 27.2432 13.4839C19.4146 13.484 13.0455 19.8531 13.0455 27.6817Z" fill="url(#paint1_linear_169_8195)" fill-opacity="0.12"/>
</g>
</g>
<defs>
<linearGradient id="paint0_linear_169_8195" x1="30.5" y1="0" x2="30.5" y2="60" gradientUnits="userSpaceOnUse">
<stop stop-color="white"/>
<stop offset="1" stop-color="white" stop-opacity="0"/>
</linearGradient>
<linearGradient id="paint1_linear_169_8195" x1="30" y1="12.4736" x2="30" y2="47.5259" gradientUnits="userSpaceOnUse">
<stop stop-color="white"/>
<stop offset="1" stop-color="white" stop-opacity="0"/>
</linearGradient>
<clipPath id="clip0_169_8195">
<rect width="60" height="60" fill="white" transform="translate(0.5)"/>
</clipPath>
<clipPath id="clip1_169_8195">
<rect width="36" height="36" fill="white" transform="translate(12 12)"/>
</clipPath>
</defs>
</svg>
