<svg width="141" height="140" viewBox="0 0 141 140" fill="none" xmlns="http://www.w3.org/2000/svg">
<path d="M102.434 102.66C102.434 102.66 102.463 104.773 104.143 106.725L106.556 105.71C104.875 103.759 104.846 101.645 104.846 101.645L102.434 102.66Z" fill="url(#paint0_linear_169_8350)"/>
<path d="M48.749 125.753L49.5591 129.301C49.5591 129.301 52.4615 129.769 55.5395 127.936L54.7294 124.387C51.6515 126.221 48.749 125.753 48.749 125.753Z" fill="url(#paint1_linear_169_8350)"/>
<path d="M35.3628 111.209C35.3628 111.209 37.462 113.869 41.5045 114.712L42.5437 112.689C38.5012 111.847 36.4019 109.187 36.4019 109.187L35.3628 111.209Z" fill="url(#paint2_linear_169_8350)"/>
<path d="M18.1929 113.828L19.9826 116.509C19.9826 116.509 22.5332 115.98 24.5018 113.492L22.7116 110.811C20.7429 113.299 18.1929 113.828 18.1929 113.828Z" fill="url(#paint3_linear_169_8350)"/>
<path d="M4.25049 65.5867C4.25049 65.5867 8.81109 69.2432 12.9847 70.0576L13.9644 68.167C9.79028 67.3535 5.23017 63.6966 5.23017 63.6966L4.25049 65.5867Z" fill="url(#paint4_linear_169_8350)"/>
<path d="M14.9917 85.6969C14.9917 85.6969 16.1464 88.4292 19.3632 90.0771L21.9625 87.4832C18.7452 85.8348 17.5905 83.103 17.5905 83.103L14.9917 85.6969Z" fill="url(#paint5_linear_169_8350)"/>
<path d="M106.332 58.6344L109.441 61.9102C109.441 61.9102 112.836 60.5737 114.962 56.6682L111.852 53.3929C109.727 57.2979 106.332 58.6344 106.332 58.6344Z" fill="url(#paint6_linear_169_8350)"/>
<path d="M0.66748 97.9441L3.67328 100.795C3.67328 100.795 6.71855 99.4078 8.47757 95.7289L5.47178 92.8786C3.71276 96.5575 0.66748 97.9441 0.66748 97.9441Z" fill="url(#paint7_linear_169_8350)"/>
<path d="M74.2881 12.0439C74.2881 12.0439 77.2602 17.11 80.5253 19.0645L81.9802 18.6146C78.7156 16.6596 75.743 11.5936 75.743 11.5936L74.2881 12.0439Z" fill="url(#paint8_linear_169_8350)"/>
<path d="M21.1696 72.8318C21.1696 72.8318 20.8533 76.133 23.1412 79.4639L27.0759 78.2946C24.7886 74.9632 25.1044 71.6625 25.1044 71.6625L21.1696 72.8318Z" fill="url(#paint9_linear_169_8350)"/>
<path d="M79.2021 106.652L81.9101 110.195C81.9101 110.195 85.3834 109.241 87.8808 105.632L85.1733 102.089C82.6754 105.698 79.2021 106.652 79.2021 106.652Z" fill="url(#paint10_linear_169_8350)"/>
<path d="M27.2446 34.9312L28.4768 36.8701C28.4768 36.8701 30.3016 36.5353 31.7448 34.7943L30.5126 32.8554C29.0699 34.5964 27.2446 34.9312 27.2446 34.9312Z" fill="url(#paint11_linear_169_8350)"/>
<path d="M95.5908 18.7057L95.8413 21.6413C95.8413 21.6413 98.1156 22.3426 100.789 21.2187L100.538 18.2831C97.865 19.4075 95.5908 18.7057 95.5908 18.7057Z" fill="url(#paint12_linear_169_8350)"/>
<path d="M45.7061 27.1789C45.7061 27.1789 45.8552 29.2411 47.6079 31.0508L48.7567 30.4869C47.0035 28.6767 46.8544 26.6145 46.8544 26.6145L45.7061 27.1789Z" fill="url(#paint13_linear_169_8350)"/>
<path d="M11.1079 35.5343L12.2786 37.7568C12.2786 37.7568 14.2979 37.5531 16.0248 35.7833L14.8541 33.5608C13.1272 35.3306 11.1079 35.5343 11.1079 35.5343Z" fill="url(#paint14_linear_169_8350)"/>
<path d="M58.4629 16.5699C58.4629 16.5699 58.652 19.0454 60.7654 21.209L63.5187 19.8433C61.4048 17.6787 61.2162 15.2032 61.2162 15.2032L58.4629 16.5699Z" fill="url(#paint15_linear_169_8350)"/>
<path d="M117.077 110.29C117.403 110.15 118.831 112.518 120.281 114.886C121.741 117.27 123.223 119.654 123.629 119.479C128.303 117.47 132.09 114.319 134.915 110.087C135.131 109.764 131.923 105.793 131.685 105.46C131.471 105.158 128.223 101.109 128.363 100.898C125.538 105.129 121.752 108.28 117.077 110.29Z" fill="url(#paint16_linear_169_8350)"/>
<path d="M14.6473 23.33C12.842 24.5168 10.6765 25.2118 8.62695 24.6235L11.2063 27.33C13.613 28.6387 16.1324 27.8267 18.3286 26.4844C20.5497 25.127 22.8624 23.1228 22.5412 20.2769C22.4959 19.8758 21.0011 18.9258 20.7159 18.6811C20.4566 18.4594 18.8989 17.469 18.8594 17.1224C19.1879 20.0303 16.8387 21.8892 14.6473 23.33Z" fill="url(#paint17_linear_169_8350)"/>
<path d="M5.94092 99.5217L6.60769 99.9014C6.76122 99.162 7.24764 98.7774 7.24764 98.7774L6.58087 98.3982C6.58087 98.3982 6.09445 98.7823 5.94092 99.5217Z" fill="url(#paint18_linear_169_8350)"/>
<path d="M15.3948 97.17L15.2651 97.7821C15.8778 97.7178 16.2965 98 16.2965 98L16.4266 97.3878C16.4266 97.3878 16.0884 97.1602 15.5766 97.1602C15.5181 97.1602 15.4572 97.1631 15.3948 97.17Z" fill="url(#paint19_linear_169_8350)"/>
<path d="M25.0015 106.095L25.2807 106.987C26.0313 106.455 26.7844 106.516 26.7844 106.516L26.5046 105.624C26.5046 105.624 26.4788 105.622 26.431 105.622C26.2239 105.622 25.6122 105.663 25.0015 106.095Z" fill="url(#paint20_linear_169_8350)"/>
<path d="M31.3384 112.162L31.6094 112.938C32.2537 112.449 32.9166 112.482 32.9166 112.482L32.6456 111.706C32.6456 111.706 32.6368 111.706 32.6193 111.706C32.4906 111.706 31.9072 111.731 31.3384 112.162Z" fill="url(#paint21_linear_169_8350)"/>
<path d="M92.7798 16.9925C93.6396 17.0003 94.1767 17.458 94.1767 17.458L94.453 16.6289C94.453 16.6289 93.9164 16.1713 93.0561 16.1635L92.7798 16.9925Z" fill="url(#paint22_linear_169_8350)"/>
<path d="M86.7866 20.0164L86.888 20.9951C87.7736 20.6042 88.5374 20.8245 88.5374 20.8245L88.436 19.8458C88.436 19.8458 88.2215 19.7839 87.8876 19.7839C87.5918 19.7839 87.2024 19.8327 86.7866 20.0164Z" fill="url(#paint23_linear_169_8350)"/>
<path d="M86.6616 23.1684C87.5765 23.5262 87.9635 24.2334 87.9635 24.2334L88.5951 23.4609C88.5951 23.4609 88.2081 22.7536 87.2938 22.3964L86.6616 23.1684Z" fill="url(#paint24_linear_169_8350)"/>
<path d="M76.2852 33.4626L77.296 33.8281C77.3321 32.7705 77.9121 32.1242 77.9121 32.1242L76.9007 31.7586C76.9007 31.7586 76.3207 32.4049 76.2852 33.4626Z" fill="url(#paint25_linear_169_8350)"/>
<path d="M38.6947 17.2149L38.646 18.2399C39.6208 17.9752 40.3733 18.3223 40.3733 18.3223L40.4226 17.2978C40.4226 17.2978 40.0278 17.1155 39.4405 17.1155C39.2163 17.1155 38.9638 17.1418 38.6947 17.2149Z" fill="url(#paint26_linear_169_8350)"/>
<path d="M26.7852 23.2C27.758 23.3131 28.3107 23.8975 28.3107 23.8975L28.724 22.9924C28.724 22.9924 28.1718 22.408 27.199 22.2949L26.7852 23.2Z" fill="url(#paint27_linear_169_8350)"/>
<path d="M25.8218 29.6182L26.199 30.1709C26.6026 29.6504 27.1304 29.5348 27.1304 29.5348L26.7532 28.9821C26.7532 28.9821 26.2253 29.0976 25.8218 29.6182Z" fill="url(#paint28_linear_169_8350)"/>
<path d="M26.8862 38.5382L27.3746 38.8711C27.5384 38.313 27.9356 38.0484 27.9356 38.0484L27.4472 37.7155C27.4472 37.7155 27.05 37.9801 26.8862 38.5382Z" fill="url(#paint29_linear_169_8350)"/>
<path d="M90.4677 122.528L91.23 122.589C91.056 121.856 91.3324 121.304 91.3324 121.304L90.5696 121.243C90.5696 121.243 90.2937 121.796 90.4677 122.528Z" fill="url(#paint30_linear_169_8350)"/>
<path d="M94.2441 120.976L94.2485 121.905C95.1176 121.62 95.815 121.899 95.815 121.899L95.8106 120.969C95.8106 120.969 95.506 120.848 95.0479 120.848C94.8134 120.848 94.5385 120.88 94.2441 120.976Z" fill="url(#paint31_linear_169_8350)"/>
<path d="M98.7002 113.199L99.1491 113.475C99.2709 112.971 99.6126 112.718 99.6126 112.718L99.1637 112.443C99.1637 112.443 98.822 112.695 98.7002 113.199Z" fill="url(#paint32_linear_169_8350)"/>
<path d="M109.357 112.899C109.831 113.162 109.99 113.577 109.99 113.577L110.393 113.202C110.393 113.202 110.233 112.787 109.76 112.523L109.357 112.899Z" fill="url(#paint33_linear_169_8350)"/>
<path d="M87.5796 103.804L88.338 104.051C88.3394 103.267 88.7542 102.774 88.7542 102.774L87.9958 102.527C87.9958 102.527 87.5815 103.019 87.5796 103.804Z" fill="url(#paint34_linear_169_8350)"/>
<path d="M29.7729 55.9496L30.7273 56.4141C30.8735 55.3798 31.511 54.8066 31.511 54.8066L30.5572 54.3416C30.5572 54.3416 29.9197 54.9148 29.7729 55.9496Z" fill="url(#paint35_linear_169_8350)"/>
<path d="M17.5459 57.3966L18.0031 57.9912C18.4217 57.3824 19.0057 57.2201 19.0057 57.2201L18.548 56.6255C18.548 56.6255 17.9641 56.7878 17.5459 57.3966Z" fill="url(#paint36_linear_169_8350)"/>
<path d="M13.9565 47.9462L14.266 48.9717C15.1326 48.3717 15.9939 48.4511 15.9939 48.4511L15.6849 47.4256C15.6849 47.4256 15.6473 47.4218 15.5796 47.4218C15.3242 47.4218 14.6418 47.4715 13.9565 47.9462Z" fill="url(#paint37_linear_169_8350)"/>
<path d="M7.17891 45.7791L7.02441 46.5078C7.75405 46.4318 8.25266 46.7686 8.25266 46.7686L8.40717 46.0394C8.40717 46.0394 8.00457 45.7679 7.39337 45.7679C7.32465 45.7679 7.253 45.7713 7.17891 45.7791Z" fill="url(#paint38_linear_169_8350)"/>
<path d="M47.4077 123.915L47.7942 124.636C48.3518 124.056 49.0083 123.985 49.0083 123.985L48.6218 123.264C48.6218 123.264 47.9658 123.335 47.4077 123.915Z" fill="url(#paint39_linear_169_8350)"/>
<path d="M58.0669 120.028C58.8404 120.432 59.1133 121.095 59.1133 121.095L59.7465 120.473C59.7465 120.473 59.4726 119.811 58.6995 119.407L58.0669 120.028Z" fill="url(#paint40_linear_169_8350)"/>
<path d="M64.4395 119.652L64.7953 120.065C65.0745 119.607 65.4922 119.466 65.4922 119.466L65.1364 119.053C65.1364 119.053 64.7187 119.193 64.4395 119.652Z" fill="url(#paint41_linear_169_8350)"/>
<path d="M69.3472 105.304L69.816 105.585C69.9374 105.061 70.2903 104.795 70.2903 104.795L69.8214 104.513C69.8214 104.513 69.469 104.779 69.3472 105.304Z" fill="url(#paint42_linear_169_8350)"/>
<path d="M105.272 84.6579C105.989 84.8207 106.355 85.3008 106.355 85.3008L106.736 84.6584C106.736 84.6584 106.371 84.1783 105.654 84.0155L105.272 84.6579Z" fill="url(#paint43_linear_169_8350)"/>
<path d="M114.492 81.665C115.245 81.7552 115.672 82.209 115.672 82.209L115.995 81.5086C115.995 81.5086 115.568 81.0553 114.814 80.9651L114.492 81.665Z" fill="url(#paint44_linear_169_8350)"/>
<path d="M107.826 66.0368L108.312 66.3848C108.49 65.8243 108.898 65.5654 108.898 65.5654L108.412 65.2174C108.412 65.2174 108.004 65.4758 107.826 66.0368Z" fill="url(#paint45_linear_169_8350)"/>
<path d="M66.5957 105.2L66.6098 105.807L67.5115 105.785L67.4969 105.178L66.5957 105.2Z" fill="url(#paint46_linear_169_8350)"/>
<path d="M66.5928 105.271L66.6054 105.806C67.1026 105.632 67.5071 105.784 67.5071 105.784L67.4945 105.25C67.4945 105.25 67.3302 105.188 67.0826 105.188C66.9418 105.188 66.7736 105.208 66.5928 105.271Z" fill="url(#paint47_linear_169_8350)"/>
<path d="M60.1699 115.925L60.2382 116.698L61.3874 116.597L61.3192 115.824L60.1699 115.925Z" fill="url(#paint48_linear_169_8350)"/>
<path d="M60.1797 116.017L60.2401 116.699C60.8601 116.437 61.3894 116.598 61.3894 116.598L61.329 115.916C61.329 115.916 61.1681 115.867 60.9196 115.867C60.7178 115.867 60.458 115.9 60.1797 116.017Z" fill="url(#paint49_linear_169_8350)"/>
<path d="M72.0825 118.547L72.7956 118.795L73.1641 117.735L72.45 117.488L72.0825 118.547Z" fill="url(#paint50_linear_169_8350)"/>
<path d="M72.1675 118.576L72.7957 118.795C72.8099 118.14 73.1642 117.735 73.1642 117.735L72.535 117.517C72.535 117.517 72.1811 117.921 72.1675 118.576Z" fill="url(#paint51_linear_169_8350)"/>
<path d="M17.96 79.8769C18.6608 80.1294 18.9684 80.6582 18.9684 80.6582L19.4319 80.0597C19.4319 80.0597 19.1244 79.5313 18.4235 79.2784L17.96 79.8769Z" fill="url(#paint52_linear_169_8350)"/>
<path d="M64.1831 111.87C64.8635 112.106 65.1676 112.612 65.1676 112.612L65.6078 112.028C65.6078 112.028 65.3036 111.522 64.6232 111.286L64.1831 111.87Z" fill="url(#paint53_linear_169_8350)"/>
<path d="M74.8223 108.952L74.872 109.552C75.4189 109.324 75.8833 109.468 75.8833 109.468L75.8336 108.868C75.8336 108.868 75.6884 108.823 75.4651 108.823C75.2887 108.823 75.0635 108.851 74.8223 108.952Z" fill="url(#paint54_linear_169_8350)"/>
<path d="M82.2725 116.677L82.369 117.385C83.0026 117.08 83.5621 117.222 83.5621 117.222L83.4656 116.514C83.4656 116.514 83.335 116.481 83.1288 116.481C82.908 116.481 82.6 116.519 82.2725 116.677Z" fill="url(#paint55_linear_169_8350)"/>
<path d="M119.945 28.6411C119.392 34.4548 122.643 39.8898 129.015 39.3088C133.834 38.8697 138.915 38.1707 140.796 32.939C140.704 33.1934 139.789 33.1588 138.854 33.1247C137.879 33.0886 136.883 33.0526 136.778 33.344C136.107 35.2117 134.942 36.6033 133.321 37.7311C132.552 38.2658 131.673 38.6182 130.79 38.9145C130.306 38.858 129.832 38.7391 129.359 38.6133C124.927 37.4343 123.585 32.2025 123.963 28.2356C123.941 28.4661 119.973 28.3511 119.945 28.6411Z" fill="url(#paint56_linear_169_8350)"/>
<path d="M32.1076 53.5277C31.9297 53.5584 31.7542 53.6116 31.5826 53.6647C31.3604 53.7339 31.1401 53.8099 30.9242 53.8967C30.8282 53.9352 30.6191 53.9912 30.5455 54.0775C30.177 54.5108 30.1526 55.0811 30.1629 55.6357C30.1775 56.3805 30.217 57.1257 30.2501 57.8709C30.2837 58.6152 30.3115 59.3595 30.3105 60.1042C30.3101 60.1408 30.3096 60.1768 30.3096 60.2134C30.1619 59.9487 30.0313 59.6738 29.9011 59.4019C29.4054 58.3661 28.861 57.3577 28.2586 56.3829C28.1129 56.1465 27.9627 55.9126 27.8107 55.6806C27.6839 55.488 27.565 55.2556 27.3632 55.1352C27.276 55.0835 27.1702 55.0889 27.0761 55.105C26.7286 55.1644 26.3841 55.2863 26.0546 55.4066C25.8338 55.488 25.5808 55.567 25.3932 55.7171C25.3059 55.7873 25.2679 55.9184 25.2391 56.0222C24.9623 57.0219 24.8941 58.0839 24.8365 59.1211C24.8 59.7708 24.7737 60.4215 24.721 61.0702C24.7069 61.2423 24.6908 61.4138 24.6718 61.5854C24.3725 61.2199 24.1522 60.7939 23.931 60.3776C23.6839 59.9136 23.427 59.4535 23.0624 59.0734C22.9162 58.9213 22.7154 58.8077 22.5063 58.8087C22.2684 58.8092 22.0165 58.9062 21.7957 58.9773C21.5734 59.0485 21.3536 59.1226 21.1372 59.2089C21.0002 59.2639 20.836 59.32 20.7161 59.4131C20.5479 59.5427 20.527 59.7357 20.5123 59.939C20.4914 60.2314 20.4865 60.5253 20.4919 60.8187C20.4982 61.1838 20.5421 61.5416 20.5874 61.8998C20.3466 61.6883 20.1156 61.4636 19.8656 61.2662C19.442 60.9333 18.922 60.6798 18.3829 60.7227C18.0178 60.7525 17.6479 60.9001 17.3087 61.0249C17.1405 61.0863 16.9694 61.1507 16.8101 61.234C16.7998 61.2399 16.6278 61.3349 16.7423 61.3256C17.4456 61.2696 18.0315 61.7253 18.5389 62.1766C18.8216 62.4276 19.0964 62.6884 19.4108 62.8965C19.7237 63.1037 20.0288 63.149 20.3705 63.0886C20.3963 63.0934 20.4558 63.0803 20.5504 63.0481C20.9905 62.9375 21.4355 62.7937 21.8454 62.5982C22.0091 62.5198 22.1851 62.4388 22.2855 62.2765C22.4751 61.9685 22.3133 61.5216 22.2723 61.1848C22.2665 61.1341 22.2611 61.0829 22.2558 61.0322C22.384 61.2735 22.5121 61.5143 22.6569 61.7458C22.9055 62.142 23.2111 62.5066 23.6049 62.7561C23.7794 62.8663 23.986 62.9623 24.1927 62.9604C24.4349 62.9584 24.6835 62.8585 24.9106 62.7912C25.2684 62.685 25.6759 62.5675 25.9917 62.3575C26.1633 62.2429 26.23 62.0465 26.2705 61.8486C26.3241 61.5869 26.3524 61.3178 26.3826 61.0522C26.4425 60.5317 26.4742 60.0072 26.503 59.4838C26.5449 58.7054 26.5761 57.9255 26.658 57.1515C26.8851 57.5239 27.103 57.9012 27.3145 58.2823C27.5947 58.7887 27.8589 59.3044 28.1099 59.8259C28.321 60.2636 28.5262 60.7042 28.7864 61.1136C29.034 61.5035 29.3557 61.8861 29.7598 62.1094C29.8607 62.1649 29.9723 62.1649 30.0805 62.1459C30.4295 62.0865 30.7745 61.9641 31.1045 61.8433C31.432 61.7229 31.8034 61.6278 31.9272 61.2637C32.0038 61.0395 31.9901 60.772 32.0018 60.5365C32.0164 60.2441 32.0228 59.9512 32.0257 59.6582C32.0306 59.0948 32.0155 58.5309 31.9945 57.967C31.9643 57.154 31.9185 56.3415 31.8917 55.5285C31.8712 54.8915 31.7766 54.0746 32.2148 53.5599C32.245 53.5243 32.227 53.5146 32.1968 53.5146C32.1656 53.5146 32.1217 53.5253 32.1076 53.5277Z" fill="url(#paint57_linear_169_8350)"/>
<path d="M16.8149 61.2334C16.8176 61.2321 16.8189 61.2307 16.8216 61.2307C16.8243 61.2281 16.8229 61.2294 16.8149 61.2334Z" stroke="black" stroke-width="0.487399" stroke-miterlimit="10"/>
<path d="M16.293 63.4219C16.2956 63.4205 16.297 63.4192 16.2996 63.4192C16.3023 63.4165 16.301 63.4179 16.293 63.4219Z" fill="black"/>
<path d="M18.3829 60.7227C18.0178 60.7524 17.6479 60.9001 17.3087 61.0249C17.1405 61.0863 16.9694 61.1507 16.8101 61.234C16.7998 61.2399 16.6278 61.3349 16.7423 61.3256C17.4456 61.2696 18.0315 61.7253 18.5389 62.1766C18.8216 62.4276 19.0964 62.6884 19.4108 62.8965C19.7237 63.1037 20.0288 63.149 20.3705 63.0886C20.3963 63.0934 20.4558 63.0803 20.5504 63.0481C20.9905 62.9375 21.4355 62.7937 21.8454 62.5982C21.8644 62.589 21.8844 62.5792 21.9039 62.57C21.1796 62.6036 20.5874 61.8998 20.5874 61.8998C20.3466 61.6883 20.1156 61.4636 19.8656 61.2662C19.4737 60.9581 18.999 60.7183 18.5028 60.7183C18.4633 60.7183 18.4229 60.7198 18.3829 60.7227Z" fill="url(#paint58_linear_169_8350)"/>
<path d="M22.5165 58.8083C22.2786 58.8087 22.0266 58.9057 21.8058 58.9769C21.5836 59.0481 21.3638 59.1222 21.1474 59.2084C21.043 59.2508 20.9222 59.2932 20.8174 59.3527C21.4598 59.5023 22.1792 60.8695 22.1792 60.8695L22.2732 61.0981C22.2708 61.0761 22.2679 61.0537 22.2659 61.0318C22.3941 61.273 22.5223 61.5138 22.6671 61.7453C22.9156 62.1416 23.2212 62.5062 23.6151 62.7557C23.7896 62.8659 23.9962 62.9619 24.2029 62.9599C24.2029 62.9599 24.6206 62.9346 24.7312 61.0698C24.7171 61.2419 24.701 61.4134 24.682 61.585C24.3827 61.2194 24.1624 60.7934 23.9411 60.3772C23.694 59.9132 23.4372 59.4531 23.0726 59.0729C22.9273 58.9213 22.727 58.8083 22.5189 58.8083C22.5179 58.8083 22.5174 58.8083 22.5165 58.8083Z" fill="url(#paint59_linear_169_8350)"/>
<path d="M27.0863 55.105C26.7388 55.1645 26.3942 55.2863 26.0647 55.4067C25.8439 55.4881 25.591 55.5671 25.4033 55.7172C25.4009 55.7192 25.3989 55.7216 25.396 55.724L25.5393 55.6972C25.5393 55.6972 26.0462 55.7742 26.6681 57.1516C26.8952 57.524 27.1131 57.9013 27.3246 58.2824C27.6049 58.7888 27.8691 59.3045 28.1201 59.826C28.3311 60.2637 28.5363 60.7043 28.7966 61.1137C29.0442 61.5036 29.3659 61.8862 29.7699 62.1095C29.8255 62.1397 29.883 62.1528 29.9425 62.1562C30.0005 62.1494 30.2505 62.0125 30.308 60.1915C30.1652 59.9332 30.038 59.6661 29.9113 59.402C29.4156 58.3662 28.8712 57.3578 28.2687 56.383C28.123 56.1466 27.9729 55.9127 27.8208 55.6807C27.6941 55.4881 27.5752 55.2556 27.3734 55.1353C27.3212 55.1046 27.2623 55.0938 27.2033 55.0938C27.1638 55.0938 27.1238 55.0987 27.0863 55.105Z" fill="url(#paint60_linear_169_8350)"/>
<path d="M108.043 111.535C70.234 125.089 31.0578 104.401 16.1958 92.3629C-16.2693 70.3813 35.003 64.2976 69.1642 63.852C72.5892 63.8073 75.7937 62.1587 77.9171 59.471C98.4613 33.4683 113.228 33.6286 119.115 37.6503C119.793 38.1135 120.332 38.7776 120.788 39.4603C150.353 83.7066 124.706 105.931 108.043 111.535Z" fill="#198679" fill-opacity="0.05"/>
<g clip-path="url(#clip0_169_8350)">
<path d="M70.0483 30.6357C53.507 30.6357 40.0483 44.0944 40.0483 60.6357C40.0483 77.1771 53.507 90.6357 70.0483 90.6357C86.5897 90.6357 100.048 77.1771 100.048 60.6357C100.048 44.0944 86.5897 30.6357 70.0483 30.6357ZM86.8153 52.741L67.6423 71.7636C66.5145 72.8914 64.71 72.9666 63.507 71.8387L53.3566 62.5906C52.1536 61.4628 52.0784 59.5831 53.131 58.3801C54.2589 57.1771 56.1386 57.1019 57.3416 58.2297L65.3867 65.5981L82.5295 48.4553C83.7326 47.2523 85.6123 47.2523 86.8153 48.4553C88.0183 49.6583 88.0183 51.538 86.8153 52.741Z" fill="#00796B"/>
<path d="M70.0483 30.6357C53.507 30.6357 40.0483 44.0944 40.0483 60.6357C40.0483 77.1771 53.507 90.6357 70.0483 90.6357C86.5897 90.6357 100.048 77.1771 100.048 60.6357C100.048 44.0944 86.5897 30.6357 70.0483 30.6357ZM86.8153 52.741L67.6423 71.7636C66.5145 72.8914 64.71 72.9666 63.507 71.8387L53.3566 62.5906C52.1536 61.4628 52.0784 59.5831 53.131 58.3801C54.2589 57.1771 56.1386 57.1019 57.3416 58.2297L65.3867 65.5981L82.5295 48.4553C83.7326 47.2523 85.6123 47.2523 86.8153 48.4553C88.0183 49.6583 88.0183 51.538 86.8153 52.741Z" fill="url(#paint61_linear_169_8350)" fill-opacity="0.12"/>
</g>
<defs>
<linearGradient id="paint0_linear_169_8350" x1="102.434" y1="104.185" x2="106.555" y2="104.185" gradientUnits="userSpaceOnUse">
<stop stop-color="#F8B54A"/>
<stop offset="1" stop-color="#F8A629"/>
</linearGradient>
<linearGradient id="paint1_linear_169_8350" x1="48.7492" y1="126.871" x2="55.5393" y2="126.871" gradientUnits="userSpaceOnUse">
<stop stop-color="#F44274"/>
<stop offset="1" stop-color="#E51F9A"/>
</linearGradient>
<linearGradient id="paint2_linear_169_8350" x1="37.3172" y1="108.723" x2="40.5893" y2="115.176" gradientUnits="userSpaceOnUse">
<stop stop-color="#6DD0E7"/>
<stop offset="1" stop-color="#01A7DB"/>
</linearGradient>
<linearGradient id="paint3_linear_169_8350" x1="18.193" y1="113.66" x2="24.5018" y2="113.66" gradientUnits="userSpaceOnUse">
<stop stop-color="#F71873"/>
<stop offset="1" stop-color="#F8A629"/>
</linearGradient>
<linearGradient id="paint4_linear_169_8350" x1="4.25042" y1="66.8769" x2="13.9646" y2="66.8769" gradientUnits="userSpaceOnUse">
<stop stop-color="#B4DF86"/>
<stop offset="1" stop-color="#84C743"/>
</linearGradient>
<linearGradient id="paint5_linear_169_8350" x1="14.9915" y1="86.5899" x2="21.9622" y2="86.5899" gradientUnits="userSpaceOnUse">
<stop stop-color="#B5188D"/>
<stop offset="1" stop-color="#4E69AE"/>
</linearGradient>
<linearGradient id="paint6_linear_169_8350" x1="106.331" y1="57.6513" x2="114.962" y2="57.6513" gradientUnits="userSpaceOnUse">
<stop stop-color="#F8B54A"/>
<stop offset="1" stop-color="#F8A629"/>
</linearGradient>
<linearGradient id="paint7_linear_169_8350" x1="0.667622" y1="96.8365" x2="8.47735" y2="96.8365" gradientUnits="userSpaceOnUse">
<stop stop-color="#6DD0E7"/>
<stop offset="1" stop-color="#01A7DB"/>
</linearGradient>
<linearGradient id="paint8_linear_169_8350" x1="74.2882" y1="15.3292" x2="81.9807" y2="15.3292" gradientUnits="userSpaceOnUse">
<stop stop-color="#6DD0E7"/>
<stop offset="1" stop-color="#01A7DB"/>
</linearGradient>
<linearGradient id="paint9_linear_169_8350" x1="21.1548" y1="75.5631" x2="27.0761" y2="75.5631" gradientUnits="userSpaceOnUse">
<stop stop-color="#FBE422"/>
<stop offset="1" stop-color="#C8D92B"/>
</linearGradient>
<linearGradient id="paint10_linear_169_8350" x1="79.2023" y1="106.142" x2="87.8807" y2="106.142" gradientUnits="userSpaceOnUse">
<stop stop-color="#B4DF86"/>
<stop offset="1" stop-color="#84C743"/>
</linearGradient>
<linearGradient id="paint11_linear_169_8350" x1="27.2449" y1="34.8628" x2="31.7446" y2="34.8628" gradientUnits="userSpaceOnUse">
<stop stop-color="#6DD0E7"/>
<stop offset="1" stop-color="#01A7DB"/>
</linearGradient>
<linearGradient id="paint12_linear_169_8350" x1="95.5909" y1="20.0703" x2="100.789" y2="20.0703" gradientUnits="userSpaceOnUse">
<stop stop-color="#F8B54A"/>
<stop offset="1" stop-color="#F8A629"/>
</linearGradient>
<linearGradient id="paint13_linear_169_8350" x1="45.4279" y1="28.4331" x2="49.0347" y2="29.2322" gradientUnits="userSpaceOnUse">
<stop stop-color="#F71873"/>
<stop offset="1" stop-color="#F8A629"/>
</linearGradient>
<linearGradient id="paint14_linear_169_8350" x1="11.1079" y1="35.6585" x2="16.025" y2="35.6585" gradientUnits="userSpaceOnUse">
<stop stop-color="#BE1E68"/>
<stop offset="1" stop-color="#B5188D"/>
</linearGradient>
<linearGradient id="paint15_linear_169_8350" x1="58.4631" y1="18.2064" x2="63.5185" y2="18.2064" gradientUnits="userSpaceOnUse">
<stop stop-color="#B4DF86"/>
<stop offset="1" stop-color="#84C743"/>
</linearGradient>
<linearGradient id="paint16_linear_169_8350" x1="132.549" y1="105.887" x2="119.679" y2="115.062" gradientUnits="userSpaceOnUse">
<stop stop-color="#FBE422"/>
<stop offset="1" stop-color="#C8D92B"/>
</linearGradient>
<linearGradient id="paint17_linear_169_8350" x1="10.6821" y1="27.9877" x2="25.1625" y2="15.9563" gradientUnits="userSpaceOnUse">
<stop stop-color="#F71873"/>
<stop offset="1" stop-color="#C6211B"/>
</linearGradient>
<linearGradient id="paint18_linear_169_8350" x1="7.26562" y1="98.8133" x2="5.92321" y2="99.486" gradientUnits="userSpaceOnUse">
<stop stop-color="#F71873"/>
<stop offset="1" stop-color="#F8A629"/>
</linearGradient>
<linearGradient id="paint19_linear_169_8350" x1="16.3886" y1="97.3129" x2="15.3028" y2="97.857" gradientUnits="userSpaceOnUse">
<stop stop-color="#F44274"/>
<stop offset="1" stop-color="#E51F9A"/>
</linearGradient>
<linearGradient id="paint20_linear_169_8350" x1="26.6482" y1="105.91" x2="25.1242" y2="106.674" gradientUnits="userSpaceOnUse">
<stop stop-color="#BE1E68"/>
<stop offset="1" stop-color="#B5188D"/>
</linearGradient>
<linearGradient id="paint21_linear_169_8350" x1="32.78" y1="111.973" x2="31.458" y2="112.636" gradientUnits="userSpaceOnUse">
<stop stop-color="#FBE422"/>
<stop offset="1" stop-color="#C8D92B"/>
</linearGradient>
<linearGradient id="paint22_linear_169_8350" x1="94.358" y1="16.4391" x2="92.8747" y2="17.1825" gradientUnits="userSpaceOnUse">
<stop stop-color="#B5188D"/>
<stop offset="1" stop-color="#4E69AE"/>
</linearGradient>
<linearGradient id="paint23_linear_169_8350" x1="88.5105" y1="19.9954" x2="86.8131" y2="20.846" gradientUnits="userSpaceOnUse">
<stop stop-color="#F8B54A"/>
<stop offset="1" stop-color="#F8A629"/>
</linearGradient>
<linearGradient id="paint24_linear_169_8350" x1="88.3425" y1="22.9568" x2="86.9143" y2="23.6726" gradientUnits="userSpaceOnUse">
<stop stop-color="#B4DF86"/>
<stop offset="1" stop-color="#84C743"/>
</linearGradient>
<linearGradient id="paint25_linear_169_8350" x1="78.0166" y1="32.3331" x2="76.1802" y2="33.2535" gradientUnits="userSpaceOnUse">
<stop stop-color="#F8B54A"/>
<stop offset="1" stop-color="#F8A629"/>
</linearGradient>
<linearGradient id="paint26_linear_169_8350" x1="40.4328" y1="17.3183" x2="38.6357" y2="18.2189" gradientUnits="userSpaceOnUse">
<stop stop-color="#B4DF86"/>
<stop offset="1" stop-color="#84C743"/>
</linearGradient>
<linearGradient id="paint27_linear_169_8350" x1="28.5712" y1="22.6868" x2="26.9383" y2="23.5051" gradientUnits="userSpaceOnUse">
<stop stop-color="#FBE422"/>
<stop offset="1" stop-color="#C8D92B"/>
</linearGradient>
<linearGradient id="paint28_linear_169_8350" x1="27.009" y1="29.2921" x2="25.9296" y2="29.8331" gradientUnits="userSpaceOnUse">
<stop stop-color="#F8B54A"/>
<stop offset="1" stop-color="#F8A629"/>
</linearGradient>
<linearGradient id="paint29_linear_169_8350" x1="27.9283" y1="38.034" x2="26.8935" y2="38.5526" gradientUnits="userSpaceOnUse">
<stop stop-color="#BE1E68"/>
<stop offset="1" stop-color="#B5188D"/>
</linearGradient>
<linearGradient id="paint30_linear_169_8350" x1="91.4906" y1="121.62" x2="90.3092" y2="122.212" gradientUnits="userSpaceOnUse">
<stop stop-color="#F44274"/>
<stop offset="1" stop-color="#E51F9A"/>
</linearGradient>
<linearGradient id="paint31_linear_169_8350" x1="95.8415" y1="121.031" x2="94.2178" y2="121.844" gradientUnits="userSpaceOnUse">
<stop stop-color="#B5188D"/>
<stop offset="1" stop-color="#4E69AE"/>
</linearGradient>
<linearGradient id="paint32_linear_169_8350" x1="99.6175" y1="112.728" x2="98.6955" y2="113.19" gradientUnits="userSpaceOnUse">
<stop stop-color="#BE1E68"/>
<stop offset="1" stop-color="#B5188D"/>
</linearGradient>
<linearGradient id="paint33_linear_169_8350" x1="110.23" y1="112.872" x2="109.521" y2="113.227" gradientUnits="userSpaceOnUse">
<stop stop-color="#F8B54A"/>
<stop offset="1" stop-color="#F8A629"/>
</linearGradient>
<linearGradient id="paint34_linear_169_8350" x1="88.8424" y1="102.95" x2="87.4914" y2="103.627" gradientUnits="userSpaceOnUse">
<stop stop-color="#6DD0E7"/>
<stop offset="1" stop-color="#01A7DB"/>
</linearGradient>
<linearGradient id="paint35_linear_169_8350" x1="31.5654" y1="54.9153" x2="29.7187" y2="55.8407" gradientUnits="userSpaceOnUse">
<stop stop-color="#B4DF86"/>
<stop offset="1" stop-color="#84C743"/>
</linearGradient>
<linearGradient id="paint36_linear_169_8350" x1="18.8903" y1="56.99" x2="17.6528" y2="57.6102" gradientUnits="userSpaceOnUse">
<stop stop-color="#B5188D"/>
<stop offset="1" stop-color="#4E69AE"/>
</linearGradient>
<linearGradient id="paint37_linear_169_8350" x1="15.8455" y1="47.746" x2="14.0919" y2="48.6248" gradientUnits="userSpaceOnUse">
<stop stop-color="#6DD0E7"/>
<stop offset="1" stop-color="#01A7DB"/>
</linearGradient>
<linearGradient id="paint38_linear_169_8350" x1="8.3624" y1="45.9497" x2="7.0693" y2="46.5977" gradientUnits="userSpaceOnUse">
<stop stop-color="#F71873"/>
<stop offset="1" stop-color="#F8A629"/>
</linearGradient>
<linearGradient id="paint39_linear_169_8350" x1="48.8135" y1="123.595" x2="47.5618" y2="124.222" gradientUnits="userSpaceOnUse">
<stop stop-color="#FBE422"/>
<stop offset="1" stop-color="#C8D92B"/>
</linearGradient>
<linearGradient id="paint40_linear_169_8350" x1="59.49" y1="119.958" x2="58.3244" y2="120.543" gradientUnits="userSpaceOnUse">
<stop stop-color="#F71873"/>
<stop offset="1" stop-color="#C6211B"/>
</linearGradient>
<linearGradient id="paint41_linear_169_8350" x1="65.4223" y1="119.327" x2="64.5066" y2="119.786" gradientUnits="userSpaceOnUse">
<stop stop-color="#F71873"/>
<stop offset="1" stop-color="#F8A629"/>
</linearGradient>
<linearGradient id="paint42_linear_169_8350" x1="70.2975" y1="104.809" x2="69.3401" y2="105.289" gradientUnits="userSpaceOnUse">
<stop stop-color="#6DD0E7"/>
<stop offset="1" stop-color="#01A7DB"/>
</linearGradient>
<linearGradient id="paint43_linear_169_8350" x1="106.589" y1="84.3652" x2="105.419" y2="84.9513" gradientUnits="userSpaceOnUse">
<stop stop-color="#F8B54A"/>
<stop offset="1" stop-color="#F8A629"/>
</linearGradient>
<linearGradient id="paint44_linear_169_8350" x1="115.875" y1="81.2704" x2="114.612" y2="81.9036" gradientUnits="userSpaceOnUse">
<stop stop-color="#F71873"/>
<stop offset="1" stop-color="#F8A629"/>
</linearGradient>
<linearGradient id="paint45_linear_169_8350" x1="108.885" y1="65.5388" x2="107.839" y2="66.0632" gradientUnits="userSpaceOnUse">
<stop stop-color="#BE1E68"/>
<stop offset="1" stop-color="#B5188D"/>
</linearGradient>
<linearGradient id="paint46_linear_169_8350" x1="67.5338" y1="105.252" x2="66.5732" y2="105.733" gradientUnits="userSpaceOnUse">
<stop stop-color="#F71873"/>
<stop offset="1" stop-color="#F8A629"/>
</linearGradient>
<linearGradient id="paint47_linear_169_8350" x1="67.5165" y1="105.294" x2="66.5834" y2="105.761" gradientUnits="userSpaceOnUse">
<stop stop-color="#F71873"/>
<stop offset="1" stop-color="#F8A629"/>
</linearGradient>
<linearGradient id="paint48_linear_169_8350" x1="61.386" y1="115.957" x2="60.1712" y2="116.565" gradientUnits="userSpaceOnUse">
<stop stop-color="#F8B54A"/>
<stop offset="1" stop-color="#F8A629"/>
</linearGradient>
<linearGradient id="paint49_linear_169_8350" x1="61.3768" y1="116.011" x2="60.1924" y2="116.605" gradientUnits="userSpaceOnUse">
<stop stop-color="#F8B54A"/>
<stop offset="1" stop-color="#F8A629"/>
</linearGradient>
<linearGradient id="paint50_linear_169_8350" x1="73.2179" y1="117.843" x2="72.0284" y2="118.439" gradientUnits="userSpaceOnUse">
<stop stop-color="#6DD0E7"/>
<stop offset="1" stop-color="#01A7DB"/>
</linearGradient>
<linearGradient id="paint51_linear_169_8350" x1="73.2324" y1="117.872" x2="72.0988" y2="118.44" gradientUnits="userSpaceOnUse">
<stop stop-color="#6DD0E7"/>
<stop offset="1" stop-color="#01A7DB"/>
</linearGradient>
<linearGradient id="paint52_linear_169_8350" x1="19.2475" y1="79.6919" x2="18.1446" y2="80.2446" gradientUnits="userSpaceOnUse">
<stop stop-color="#BE1E68"/>
<stop offset="1" stop-color="#B5188D"/>
</linearGradient>
<linearGradient id="paint53_linear_169_8350" x1="65.4332" y1="111.68" x2="64.3576" y2="112.219" gradientUnits="userSpaceOnUse">
<stop stop-color="#B4DF86"/>
<stop offset="1" stop-color="#84C743"/>
</linearGradient>
<linearGradient id="paint54_linear_169_8350" x1="75.8738" y1="108.949" x2="74.8316" y2="109.471" gradientUnits="userSpaceOnUse">
<stop stop-color="#F71873"/>
<stop offset="1" stop-color="#C6211B"/>
</linearGradient>
<linearGradient id="paint55_linear_169_8350" x1="83.5296" y1="116.642" x2="82.3046" y2="117.256" gradientUnits="userSpaceOnUse">
<stop stop-color="#FBE422"/>
<stop offset="1" stop-color="#C8D92B"/>
</linearGradient>
<linearGradient id="paint56_linear_169_8350" x1="126.913" y1="21.3616" x2="132.957" y2="40.7642" gradientUnits="userSpaceOnUse">
<stop stop-color="#F44274"/>
<stop offset="1" stop-color="#E51F9A"/>
</linearGradient>
<linearGradient id="paint57_linear_169_8350" x1="26.3614" y1="63.3685" x2="24.026" y2="56.0396" gradientUnits="userSpaceOnUse">
<stop stop-color="#F71873"/>
<stop offset="1" stop-color="#F8A629"/>
</linearGradient>
<linearGradient id="paint58_linear_169_8350" x1="21.8156" y1="62.8132" x2="17.1714" y2="61.1265" gradientUnits="userSpaceOnUse">
<stop stop-color="#F71873"/>
<stop offset="1" stop-color="#C6211B"/>
</linearGradient>
<linearGradient id="paint59_linear_169_8350" x1="24.4764" y1="63.1533" x2="22.0639" y2="58.9829" gradientUnits="userSpaceOnUse">
<stop stop-color="#F71873"/>
<stop offset="1" stop-color="#C6211B"/>
</linearGradient>
<linearGradient id="paint60_linear_169_8350" x1="30.284" y1="61.8165" x2="26.4543" y2="55.419" gradientUnits="userSpaceOnUse">
<stop stop-color="#F71873"/>
<stop offset="1" stop-color="#C6211B"/>
</linearGradient>
<linearGradient id="paint61_linear_169_8350" x1="70.0483" y1="30.6357" x2="70.0483" y2="90.6357" gradientUnits="userSpaceOnUse">
<stop stop-color="white"/>
<stop offset="1" stop-color="white" stop-opacity="0"/>
</linearGradient>
<clipPath id="clip0_169_8350">
<rect width="60" height="60" fill="white" transform="translate(40.0532 30.6367)"/>
</clipPath>
</defs>
</svg>
