<svg width="312" height="273" viewBox="0 0 312 273" fill="none" xmlns="http://www.w3.org/2000/svg">
<g clip-path="url(#clip0_169_9758)">
<path d="M303.926 253.883H279.417V254.068H303.926V253.883Z" fill="#EBEBEB"/>
<path d="M216.103 255.896H209.672V256.081H216.103V255.896Z" fill="#EBEBEB"/>
<path d="M278.677 247.016H264.477V247.201H278.677V247.016Z" fill="#EBEBEB"/>
<path d="M41.7811 248.259H9.82047V248.444H41.7811V248.259Z" fill="#EBEBEB"/>
<path d="M53.0586 248.259H48.3744V248.444H53.0586V248.259Z" fill="#EBEBEB"/>
<path d="M137.611 251.382H68.2878V251.567H137.611V251.382Z" fill="#EBEBEB"/>
<path d="M147.416 208.972H4.522C3.40135 208.972 2.32661 208.527 1.53419 207.735C0.741775 206.942 0.2966 205.867 0.2966 204.747V3.88859C0.306357 2.77437 0.755835 1.70911 1.5472 0.924677C2.33856 0.140245 3.40774 -0.299847 4.522 -0.299805H147.416C147.971 -0.299805 148.52 -0.190512 149.033 0.0218337C149.546 0.23418 150.011 0.545422 150.404 0.937786C150.796 1.33015 151.107 1.79596 151.32 2.30861C151.532 2.82125 151.641 3.37071 151.641 3.92559V204.747C151.641 205.302 151.532 205.851 151.32 206.364C151.107 206.876 150.796 207.342 150.404 207.735C150.011 208.127 149.546 208.438 149.033 208.65C148.52 208.863 147.971 208.972 147.416 208.972ZM4.522 -0.151804C3.45102 -0.149848 2.42446 0.276463 1.66717 1.03376C0.909868 1.79106 0.483556 2.81761 0.4816 3.88859V204.747C0.483556 205.818 0.909868 206.844 1.66717 207.602C2.42446 208.359 3.45102 208.785 4.522 208.787H147.416C148.487 208.785 149.514 208.359 150.271 207.602C151.028 206.844 151.454 205.818 151.456 204.747V3.88859C151.454 2.81761 151.028 1.79106 150.271 1.03376C149.514 0.276463 148.487 -0.149848 147.416 -0.151804H4.522Z" fill="#EBEBEB"/>
<path d="M307.478 208.972H164.584C163.463 208.972 162.389 208.527 161.596 207.735C160.804 206.942 160.359 205.867 160.359 204.747V3.88859C160.368 2.77437 160.818 1.70911 161.609 0.924677C162.401 0.140245 163.47 -0.299847 164.584 -0.299805H307.478C308.599 -0.299805 309.673 0.14537 310.466 0.937786C311.258 1.7302 311.703 2.80495 311.703 3.92559V204.747C311.703 205.867 311.258 206.942 310.466 207.735C309.673 208.527 308.599 208.972 307.478 208.972ZM164.584 -0.151804C163.513 -0.149848 162.486 0.276463 161.729 1.03376C160.972 1.79106 160.546 2.81761 160.544 3.88859V204.747C160.546 205.818 160.972 206.844 161.729 207.602C162.486 208.359 163.513 208.785 164.584 208.787H307.478C308.549 208.785 309.576 208.359 310.333 207.602C311.09 206.844 311.516 205.818 311.518 204.747V3.88859C311.516 2.81761 311.09 1.79106 310.333 1.03376C309.576 0.276463 308.549 -0.149848 307.478 -0.151804H164.584Z" fill="#EBEBEB"/>
<path d="M341 241.977H-29V242.162H341V241.977Z" fill="#EBEBEB"/>
<path d="M271.325 105.49L265.455 41.6016L180.012 49.4527L185.882 113.342L271.325 105.49Z" fill="#E6E6E6"/>
<path opacity="0.9" d="M260.967 47.0016L185.421 53.9434L190.382 107.936L265.929 100.994L260.967 47.0016Z" fill="#FAFAFA"/>
<path d="M226.226 56.9981L226.67 61.8895L197.329 64.5905L198.809 80.7225L200.4 97.6907L214.712 96.3735L237.696 94.2645L238.754 94.1609L254.664 92.6809L254.42 89.9799L250.217 90.3647C250.25 89.4036 250.601 88.4808 251.216 87.7413C251.831 87.0019 252.674 86.4878 253.613 86.2799L254.072 86.1763L253.11 75.7497L250.276 76.0087L248.345 54.9854L226.226 56.9981ZM201.332 96.5289L199.963 81.6845L203.249 81.3811C203.62 82.555 204.38 83.5673 205.404 84.2508C206.428 84.9342 207.654 85.248 208.88 85.1403L209.413 85.0959L209.021 80.8483L212.159 80.5671L213.528 95.4115L201.332 96.5289ZM214.586 95.3153L213.106 79.4053L207.844 79.8863L208.229 84.0969C207.267 84.0622 206.344 83.7091 205.605 83.093C204.866 82.4769 204.352 81.6327 204.144 80.6929L204.041 80.2415L199.845 80.6263L198.483 65.5599L226.766 62.9625L228.246 79.0945L230.659 78.8725L234.462 78.5247L236.201 78.3619L237.563 93.2063L214.586 95.3153ZM230.57 77.7995L230.274 74.5953C231.139 74.6274 231.976 74.918 232.675 75.4298C233.374 75.9415 233.904 76.6509 234.196 77.4665L230.57 77.7995ZM252.111 76.8893L252.888 85.3475C251.715 85.7185 250.704 86.479 250.021 87.503C249.339 88.5271 249.027 89.7533 249.136 90.9789L249.181 91.5117L253.421 91.1195L253.473 91.7411L238.628 93.1027L237.267 78.2583L250.335 77.0521L252.111 76.8893ZM247.346 56.1249L249.181 76.1049L237.171 77.2149L236.105 77.3111L235.291 77.3851C234.933 76.1961 234.176 75.1669 233.147 74.4712C232.119 73.7756 230.882 73.4561 229.645 73.5667L229.112 73.6111L229.504 77.9179H229.216L227.736 61.7859L227.38 57.9527L247.346 56.1249Z" fill="#E0E0E0"/>
<path d="M106.515 110.451L119.285 46.2559L33.4393 29.1802L20.67 93.3755L106.515 110.451Z" fill="#E6E6E6"/>
<path opacity="0.9" d="M37.4248 35.1404L26.6333 89.3926L102.536 104.49L113.327 50.2383L37.4248 35.1404Z" fill="#FAFAFA"/>
<path d="M76.45 49.9462L75.4732 54.8598L45.9842 48.999L42.78 65.205L39.3908 82.225L53.7764 85.0888L76.8718 89.6768L77.9374 89.8914L93.914 93.066L94.4616 90.3132L90.2362 89.477C90.5494 88.5478 91.1614 87.7485 91.9766 87.2036C92.7918 86.6588 93.7645 86.3992 94.7428 86.4652H95.2238L97.3032 75.9942L94.4616 75.4244L98.6574 54.2974L76.45 49.9462ZM40.6488 81.4036L43.6088 66.4852L46.9092 67.1364C46.9308 68.3961 47.3832 69.6103 48.191 70.577C48.9989 71.5437 50.1134 72.2046 51.3492 72.4496L51.882 72.5532L52.733 68.2908L55.8854 68.9198L52.9254 83.8382L40.6488 81.4036ZM53.9688 84.0528L57.1434 68.0688L51.8598 67.0402L51.0236 71.2656C50.0944 70.9524 49.2951 70.3405 48.7502 69.5252C48.2054 68.71 47.9457 67.7373 48.0118 66.759V66.278L43.7938 65.4418L46.813 50.294L75.229 55.9476L72.0026 72.161L74.4298 72.642L78.2482 73.382L79.9946 73.7224L77.0346 88.6408L53.9688 84.0528ZM74.6888 71.5542L75.3252 68.3278C76.1626 68.6124 76.896 69.1405 77.4312 69.8445C77.9665 70.5486 78.2793 71.3964 78.3296 72.2794L74.6888 71.5542ZM96.023 76.9044L94.3358 85.3996C93.0775 85.4229 91.8649 85.876 90.8997 86.6837C89.9345 87.4914 89.2748 88.6051 89.03 89.8396L88.919 90.3724L93.1814 91.2234L93.0556 91.845L78.1372 88.885L81.0972 73.9666L94.2322 76.5788L96.023 76.9044ZM97.3624 55.2002L93.3738 75.2616L81.3044 72.8566L80.2388 72.6494L79.4174 72.4866C79.4121 71.216 78.9669 69.9865 78.1574 69.007C77.348 68.0276 76.2243 67.3588 74.9774 67.1142L74.4446 67.0032L73.5862 71.3248L73.2902 71.2656L76.5166 55.0596L77.2566 51.2116L97.3624 55.2002Z" fill="#E0E0E0"/>
<path d="M192.349 38.1802H185.112C183.092 38.1802 181.155 37.378 179.727 35.95C178.299 34.5219 177.497 32.5851 177.497 30.5656V23.3802C177.497 21.3607 178.299 19.4239 179.727 17.9959C181.155 16.5679 183.092 15.7656 185.112 15.7656H192.349C194.368 15.7676 196.303 16.5705 197.731 17.9981C199.159 19.4256 199.961 21.3613 199.963 23.3802V30.6174C199.948 32.6273 199.139 34.5497 197.713 35.9662C196.287 37.3826 194.359 38.1783 192.349 38.1802ZM185.112 17.9338C184.399 17.9348 183.694 18.0767 183.036 18.3514C182.379 18.6261 181.782 19.0281 181.281 19.5343C180.779 20.0406 180.383 20.641 180.115 21.301C179.846 21.9611 179.711 22.6677 179.717 23.3802V30.6174C179.719 32.0476 180.288 33.4186 181.299 34.4298C182.311 35.4411 183.682 36.0101 185.112 36.012H192.349C193.779 36.0101 195.15 35.4411 196.161 34.4298C197.172 33.4186 197.741 32.0476 197.743 30.6174V23.3802C197.741 21.9501 197.172 20.5791 196.161 19.5678C195.15 18.5566 193.779 17.9876 192.349 17.9856L185.112 17.9338Z" fill="#F0F0F0"/>
<path d="M185.718 31.6681L175.166 21.1157L178.311 17.9781L185.718 25.3929L199.149 11.9619L202.287 15.0995L185.718 31.6681Z" fill="#E0E0E0"/>
<path d="M36.9784 135.12H31.4062C30.6309 135.12 29.8632 134.967 29.1474 134.669C28.4316 134.371 27.7819 133.934 27.2358 133.384C26.6896 132.834 26.2577 132.181 25.9651 131.463C25.6724 130.745 25.5248 129.976 25.5306 129.2V123.65C25.5326 122.093 26.1525 120.601 27.2541 119.501C28.3558 118.4 29.8492 117.782 31.4062 117.782H36.9784C38.5342 117.784 40.0256 118.403 41.1257 119.503C42.2258 120.603 42.8447 122.095 42.8466 123.65V129.2C42.8525 129.975 42.7051 130.743 42.4129 131.461C42.1207 132.178 41.6895 132.831 41.1441 133.381C40.5987 133.931 39.9498 134.368 39.2349 134.667C38.52 134.965 37.7531 135.119 36.9784 135.12ZM31.4062 119.514C30.3064 119.514 29.2511 119.949 28.4707 120.724C27.6902 121.499 27.2478 122.551 27.24 123.65V129.2C27.242 130.304 27.6818 131.362 28.4629 132.142C29.244 132.921 30.3025 133.359 31.4062 133.359H36.9784C38.0814 133.359 39.1392 132.921 39.9191 132.141C40.6991 131.361 41.1372 130.303 41.1372 129.2V123.65C41.1372 123.104 41.0296 122.563 40.8206 122.059C40.6116 121.554 40.3053 121.096 39.9191 120.71C39.5329 120.324 39.0745 120.017 38.5699 119.808C38.0653 119.599 37.5246 119.492 36.9784 119.492L31.4062 119.514Z" fill="#F0F0F0"/>
<path d="M31.8724 130.059L23.7398 121.934L26.1596 119.514L31.8724 125.227L42.2176 114.874L44.6374 117.294L31.8724 130.059Z" fill="#E0E0E0"/>
<path d="M289.94 180.504H284.36C282.805 180.503 281.313 179.884 280.213 178.784C279.113 177.683 278.494 176.192 278.492 174.636V169.057C278.494 167.501 279.113 166.009 280.213 164.909C281.313 163.809 282.805 163.19 284.36 163.188H289.94C291.496 163.19 292.987 163.809 294.087 164.909C295.187 166.009 295.806 167.501 295.808 169.057V174.636C295.806 176.192 295.187 177.683 294.087 178.784C292.987 179.884 291.496 180.503 289.94 180.504ZM284.36 164.898C283.257 164.898 282.2 165.336 281.42 166.116C280.64 166.896 280.201 167.954 280.201 169.057V174.636C280.201 175.182 280.309 175.723 280.518 176.228C280.727 176.732 281.033 177.191 281.42 177.577C281.806 177.963 282.264 178.269 282.769 178.478C283.273 178.687 283.814 178.795 284.36 178.795H289.94C290.486 178.795 291.027 178.687 291.531 178.478C292.036 178.269 292.494 177.963 292.881 177.577C293.267 177.191 293.573 176.732 293.782 176.228C293.991 175.723 294.099 175.182 294.099 174.636V169.057C294.099 167.954 293.661 166.896 292.881 166.116C292.101 165.336 291.043 164.898 289.94 164.898H284.36Z" fill="#F0F0F0"/>
<path d="M284.834 175.465L276.701 167.34L279.121 164.92L284.834 170.633L295.179 160.28L297.599 162.7L284.834 175.465Z" fill="#E0E0E0"/>
<path d="M156 272.546C235.241 272.546 299.479 268.795 299.479 264.169C299.479 259.542 235.241 255.792 156 255.792C76.759 255.792 12.5215 259.542 12.5215 264.169C12.5215 268.795 76.759 272.546 156 272.546Z" fill="#F5F5F5"/>
<path d="M228.106 107C229.161 104.189 230.44 101.467 231.931 98.8604C232.634 97.5728 233.411 96.3296 234.151 95.0938C234.891 93.858 235.705 92.6592 236.593 91.3938C237.153 90.6291 237.989 90.1128 238.923 89.9545C239.857 89.7962 240.816 90.0083 241.597 90.5459C242.377 91.0835 242.917 91.9041 243.102 92.8334C243.287 93.7628 243.102 94.7276 242.587 95.523V95.5674C241.847 96.6478 241.107 97.7874 240.367 98.9714C239.627 100.155 238.954 101.295 238.266 102.464C236.912 104.733 235.706 107.086 234.655 109.509C234.359 110.249 234.1 110.945 233.915 111.618H226.892C227.148 110.043 227.554 108.497 228.106 107Z" fill="#B55B52"/>
<path d="M242.454 83.638C235.38 85.2068 229.393 100.458 229.393 100.458L237.533 105.083C239.943 102.499 241.939 99.5586 243.453 96.366C245.229 92.5772 248.759 82.2394 242.454 83.638Z" fill="#00796B"/>
<path opacity="0.2" d="M245.052 92.1997C244.611 93.6197 244.077 95.009 243.453 96.3585C241.939 99.5512 239.943 102.491 237.533 105.076L235.765 104.04C238.569 98.9485 238.54 92.4439 238.54 92.4439L244.637 91.3857L245.052 92.1997Z" fill="black"/>
<path d="M236.256 138.247L236.693 138.324C237.016 138.38 237.303 138.562 237.492 138.83C237.68 139.099 237.754 139.431 237.698 139.754L235.116 154.53C235.06 154.852 234.877 155.14 234.609 155.328C234.341 155.516 234.009 155.591 233.686 155.534L233.621 155.523C233.083 155.429 232.605 155.125 232.291 154.679C231.978 154.232 231.854 153.68 231.948 153.142L234.309 139.627C234.386 139.187 234.634 138.795 234.998 138.537C235.363 138.278 235.815 138.174 236.256 138.247Z" fill="#263238"/>
<path opacity="0.1" d="M236.256 138.247L236.693 138.324C237.016 138.38 237.303 138.562 237.492 138.83C237.68 139.099 237.754 139.431 237.698 139.754L235.116 154.53C235.06 154.852 234.877 155.14 234.609 155.328C234.341 155.516 234.009 155.591 233.686 155.534L233.621 155.523C233.083 155.429 232.605 155.125 232.291 154.679C231.978 154.232 231.854 153.68 231.948 153.142L234.309 139.627C234.386 139.187 234.634 138.795 234.998 138.537C235.363 138.278 235.815 138.174 236.256 138.247Z" fill="white"/>
<path d="M236.882 258.944L231.362 258.877L230.903 246.046L238.192 246.164L236.882 258.944Z" fill="#B55B52"/>
<path opacity="0.2" d="M230.903 246.054L231.169 253.55L237.43 253.631L238.199 246.165L230.903 246.054Z" fill="black"/>
<path d="M231.243 256.998L237.267 257.094C237.373 257.094 237.475 257.133 237.553 257.204C237.631 257.276 237.679 257.374 237.689 257.479L238.207 262.4C238.216 262.525 238.199 262.65 238.157 262.768C238.116 262.886 238.05 262.994 237.964 263.085C237.879 263.176 237.775 263.248 237.66 263.297C237.545 263.346 237.421 263.371 237.296 263.369C235.128 263.303 232.005 263.125 229.275 263.081C226.085 263.029 226.396 263.162 222.652 263.081C220.387 263.044 220.032 260.742 221.002 260.55C225.442 259.677 225.871 259.632 229.882 257.39C230.294 257.144 230.763 257.009 231.243 256.998Z" fill="#263238"/>
<path d="M230.244 257.494C230.267 257.486 230.286 257.472 230.302 257.454C230.318 257.436 230.328 257.414 230.333 257.391C230.336 257.363 230.331 257.336 230.32 257.311C230.308 257.286 230.289 257.265 230.266 257.25C230.015 257.117 227.817 255.962 227.144 256.325C227.08 256.357 227.025 256.405 226.986 256.465C226.947 256.525 226.925 256.594 226.922 256.665C226.905 256.783 226.918 256.903 226.958 257.015C226.997 257.127 227.064 257.228 227.151 257.309C227.75 257.849 229.371 257.657 230.229 257.494H230.244ZM227.284 256.532C227.699 256.392 228.897 256.873 229.763 257.272C228.542 257.457 227.632 257.391 227.299 257.087C227.24 257.034 227.196 256.967 227.17 256.892C227.144 256.817 227.138 256.736 227.151 256.658C227.152 256.631 227.159 256.604 227.174 256.58C227.188 256.557 227.208 256.538 227.232 256.525L227.284 256.532Z" fill="#00796B"/>
<path d="M230.244 257.494C230.263 257.483 230.279 257.466 230.29 257.447C230.3 257.427 230.305 257.405 230.303 257.383C230.303 257.316 230.178 255.829 229.489 255.237C229.389 255.149 229.271 255.082 229.144 255.042C229.017 255.001 228.882 254.987 228.749 255C228.387 255 228.283 255.215 228.254 255.363C228.143 255.984 229.445 257.198 230.104 257.509C230.126 257.518 230.151 257.522 230.176 257.519C230.2 257.516 230.224 257.508 230.244 257.494ZM228.683 255.274C228.727 255.268 228.772 255.268 228.816 255.274C228.912 255.263 229.009 255.272 229.101 255.302C229.193 255.331 229.277 255.379 229.349 255.444C229.75 255.932 229.992 256.531 230.044 257.161C229.371 256.739 228.49 255.792 228.564 255.414C228.564 255.363 228.572 255.303 228.683 255.266V255.274Z" fill="#00796B"/>
<path d="M243.165 198.116C251.371 169.937 259.023 150.357 257.225 136.378L237.748 136.607C237.748 136.607 227.432 182.295 228.202 198.827C229.001 216.017 230.015 248.68 230.015 248.68L238.895 248.806C238.895 248.806 245.473 217.319 243.165 198.116Z" fill="#263238"/>
<path opacity="0.2" d="M246.465 186.758C250.816 172.387 254.716 162.397 256.966 154.027C244.06 158.578 244.319 174.34 246.465 186.758Z" fill="black"/>
<path d="M228.757 246.705L229.297 250.516L239.065 250.686L239.65 247.09L228.757 246.705Z" fill="#263238"/>
<path opacity="0.3" d="M228.757 246.705L229.297 250.516L239.065 250.686L239.65 247.09L228.757 246.705Z" fill="black"/>
<path d="M274.541 258.944L269.005 258.877L266.134 246.046L273.238 246.157L274.541 258.944Z" fill="#B55B52"/>
<path opacity="0.2" d="M266.134 246.054L267.799 253.461L273.993 253.543L273.246 246.165L266.134 246.054Z" fill="black"/>
<path d="M268.591 257.746L274.607 257.627C274.714 257.623 274.819 257.658 274.901 257.726C274.983 257.795 275.037 257.891 275.051 257.997L275.747 262.896C275.761 263.02 275.75 263.145 275.713 263.264C275.677 263.383 275.616 263.493 275.534 263.587C275.453 263.68 275.353 263.756 275.24 263.81C275.128 263.863 275.005 263.892 274.881 263.895C272.713 263.895 272.025 263.755 269.294 263.806C266.105 263.873 267.577 263.947 263.84 264.028C261.576 264.073 261.132 261.808 262.094 261.557C265.135 260.817 265.89 259.559 267.229 258.205C267.607 257.882 268.095 257.718 268.591 257.746Z" fill="#263238"/>
<path d="M269.694 258.123C269.717 258.123 269.741 258.117 269.761 258.105C269.782 258.093 269.8 258.077 269.812 258.056C269.826 258.033 269.834 258.006 269.834 257.979C269.834 257.951 269.826 257.924 269.812 257.901C269.62 257.701 267.881 255.918 267.126 256.051C267.056 256.065 266.99 256.096 266.934 256.141C266.879 256.186 266.835 256.244 266.808 256.31C266.753 256.415 266.725 256.532 266.725 256.65C266.725 256.769 266.753 256.886 266.808 256.991C267.2 257.694 268.769 258.005 269.671 258.123H269.694ZM267.2 256.303C267.644 256.303 268.635 257.124 269.324 257.783C268.103 257.583 267.266 257.235 267.037 256.843C267.001 256.773 266.982 256.696 266.982 256.617C266.982 256.539 267.001 256.461 267.037 256.391C267.043 256.364 267.058 256.339 267.079 256.32C267.101 256.302 267.127 256.29 267.155 256.288L267.2 256.303Z" fill="#00796B"/>
<path d="M269.694 258.123H269.731C269.753 258.119 269.773 258.108 269.789 258.093C269.805 258.077 269.815 258.056 269.819 258.034C269.819 257.968 270.182 256.554 269.701 255.74C269.636 255.627 269.548 255.529 269.442 255.452C269.336 255.375 269.215 255.322 269.087 255.296C268.739 255.215 268.576 255.348 268.51 255.481C268.214 256.044 269.072 257.598 269.605 258.094C269.616 258.105 269.631 258.113 269.646 258.118C269.661 258.123 269.677 258.125 269.694 258.123ZM268.894 255.526C268.939 255.519 268.983 255.519 269.028 255.526C269.216 255.573 269.378 255.693 269.479 255.859C269.715 256.444 269.761 257.088 269.612 257.701C269.102 257.095 268.561 255.918 268.739 255.585C268.757 255.561 268.781 255.543 268.808 255.533C268.836 255.522 268.865 255.52 268.894 255.526Z" fill="#00796B"/>
<path d="M268.243 199.005C271.27 170.818 273.771 150.046 269.398 136.104L249.107 136.645C249.107 136.645 249.603 183.22 253.414 199.752C257.373 216.942 265.572 248.718 265.572 248.718L274.452 248.844C274.452 248.844 274.089 218.2 268.243 199.005Z" fill="#263238"/>
<path d="M264.269 246.705L264.854 250.516L274.837 250.686L275.399 247.09L264.269 246.705Z" fill="#263238"/>
<path opacity="0.3" d="M264.269 246.705L264.854 250.516L274.837 250.686L275.399 247.09L264.269 246.705Z" fill="black"/>
<path d="M245.296 82.7873C251.5 82.1252 257.766 82.3495 263.907 83.4533C265.569 83.7188 267.104 84.5079 268.287 85.7057C269.47 86.9035 270.24 88.4476 270.485 90.1133C271.632 98.0091 273.445 113.556 270.182 137.814C267.259 138.739 258.653 138.672 251.808 138.184C251.068 138.124 249.247 136.393 249.247 136.393C249.247 136.393 247.605 137.806 246.657 137.695C242.129 137.148 238.517 136.371 237.681 135.475C235.831 131.035 234.669 119.891 239.59 109.893C239.642 103.907 238.458 97.1655 238.355 90.7349C238.323 88.7859 239.015 86.8944 240.297 85.4263C241.579 83.9581 243.36 83.0178 245.296 82.7873Z" fill="#00796B"/>
<path d="M255.767 72.5752C256.314 76.6822 257.151 81.4552 260.051 83.7788C259.445 85.3725 258.383 86.7522 256.997 87.7458C255.611 88.7394 253.963 89.3028 252.259 89.3658C247.864 89.5952 248.559 86.0876 249.299 84.2302C251.164 82.136 250.269 79.7902 249.795 78.14L255.767 72.5752Z" fill="#B55B52"/>
<path opacity="0.2" d="M254.553 74.5807C254.553 74.3217 254.479 74.0627 254.442 73.8037L249.765 78.1401C250.183 79.2622 250.393 80.4506 250.387 81.6477C252.703 80.1011 254.834 77.0745 254.553 74.5807Z" fill="black"/>
<path d="M257.306 66.6031C256.61 72.0347 256.485 75.2537 253.547 77.8437C249.107 81.7509 242.55 78.7465 241.603 73.2113C240.752 68.2237 242.025 60.1799 247.523 58.4113C248.736 58.0229 250.028 57.9478 251.277 58.1928C252.527 58.4378 253.694 58.9951 254.671 59.8127C255.647 60.6303 256.401 61.6817 256.862 62.869C257.322 64.0563 257.475 65.3409 257.306 66.6031Z" fill="#B55B52"/>
<path d="M248.611 69.6821C248.611 70.1261 248.322 70.4665 248.026 70.4221C247.73 70.3777 247.523 70.0299 247.553 69.5859C247.582 69.1419 247.841 68.7941 248.137 68.8459C248.433 68.8977 248.633 69.2603 248.611 69.6821Z" fill="#263238"/>
<path d="M243.054 69.4452C243.054 69.8892 242.765 70.2296 242.476 70.1852C242.188 70.1408 241.973 69.7856 242.003 69.3416C242.032 68.8976 242.291 68.5572 242.58 68.6016C242.869 68.646 243.083 69.0012 243.054 69.4452Z" fill="#263238"/>
<path d="M250.135 69.8148H246.028C245.869 69.814 245.714 69.8726 245.595 69.9793C245.476 70.086 245.401 70.2331 245.385 70.392C245.185 70.3037 244.97 70.2581 244.752 70.2581C244.534 70.2581 244.318 70.3037 244.119 70.392C244.099 70.2351 244.023 70.0907 243.905 69.9858C243.786 69.8809 243.634 69.8228 243.475 69.8222H240.36C240.185 69.8222 240.018 69.8916 239.894 70.0151C239.771 70.1387 239.701 70.3062 239.701 70.4808V72.3826C239.701 72.5573 239.771 72.7248 239.894 72.8483C240.018 72.9718 240.185 73.0412 240.36 73.0412H243.498C243.672 73.0412 243.84 72.9718 243.963 72.8483C244.087 72.7248 244.156 72.5573 244.156 72.3826V70.8286C244.341 70.7124 244.555 70.6507 244.774 70.6507C244.993 70.6507 245.207 70.7124 245.392 70.8286V72.3974C245.392 72.5721 245.461 72.7396 245.585 72.8631C245.708 72.9867 245.876 73.056 246.051 73.056H250.158C250.332 73.056 250.5 72.9867 250.623 72.8631C250.747 72.7396 250.816 72.5721 250.816 72.3974V70.4956C250.819 70.4054 250.804 70.3155 250.771 70.2315C250.738 70.1475 250.688 70.0712 250.624 70.0073C250.56 69.9435 250.484 69.8935 250.4 69.8604C250.316 69.8272 250.226 69.8117 250.135 69.8148ZM243.749 72.3752C243.747 72.4473 243.718 72.5158 243.667 72.5668C243.616 72.6177 243.547 72.6472 243.475 72.649H240.36C240.287 72.649 240.218 72.6202 240.166 72.5688C240.115 72.5175 240.086 72.4479 240.086 72.3752V70.4734C240.086 70.4008 240.115 70.3312 240.166 70.2798C240.218 70.2285 240.287 70.1996 240.36 70.1996H243.498C243.57 70.2015 243.638 70.231 243.689 70.2819C243.74 70.3328 243.77 70.4014 243.771 70.4734L243.749 72.3752ZM250.409 72.3752C250.41 72.4115 250.404 72.4475 250.39 72.4812C250.377 72.5149 250.357 72.5455 250.331 72.5711C250.306 72.5968 250.275 72.6169 250.241 72.6303C250.208 72.6437 250.172 72.6501 250.135 72.649H246.028C245.992 72.6501 245.956 72.6437 245.922 72.6303C245.889 72.6169 245.858 72.5968 245.833 72.5711C245.807 72.5455 245.787 72.5149 245.773 72.4812C245.76 72.4475 245.754 72.4115 245.755 72.3752V70.4734C245.754 70.4372 245.76 70.4012 245.773 70.3675C245.787 70.3338 245.807 70.3032 245.833 70.2776C245.858 70.2519 245.889 70.2318 245.922 70.2184C245.956 70.205 245.992 70.1986 246.028 70.1996H250.135C250.207 70.2015 250.276 70.231 250.327 70.2819C250.378 70.3328 250.407 70.4014 250.409 70.4734V72.3752Z" fill="#263238"/>
<path d="M244.748 70.6367C244.162 71.7203 243.427 72.7166 242.565 73.5967C242.797 73.8111 243.072 73.9736 243.372 74.0731C243.672 74.1726 243.99 74.207 244.304 74.1739L244.748 70.6367Z" fill="#A02724"/>
<path d="M249.684 67.2474C249.726 67.2353 249.764 67.2123 249.795 67.1808C249.82 67.1567 249.839 67.1279 249.852 67.0962C249.866 67.0644 249.873 67.0303 249.873 66.9958C249.873 66.9614 249.866 66.9273 249.852 66.8955C249.839 66.8637 249.82 66.8349 249.795 66.8108C249.517 66.507 249.171 66.2734 248.785 66.1294C248.399 65.9853 247.984 65.9348 247.575 65.982C247.541 65.9882 247.509 66.001 247.481 66.0197C247.452 66.0383 247.428 66.0624 247.408 66.0906C247.389 66.1188 247.376 66.1505 247.369 66.184C247.362 66.2174 247.361 66.2519 247.368 66.2854C247.384 66.3529 247.425 66.4118 247.482 66.4502C247.54 66.4887 247.61 66.5038 247.679 66.4926C248.006 66.4585 248.337 66.5023 248.645 66.6207C248.952 66.739 249.227 66.9284 249.447 67.1734C249.478 67.203 249.516 67.2251 249.557 67.2379C249.598 67.2508 249.641 67.254 249.684 67.2474Z" fill="#263238"/>
<path d="M241.366 67.1804C241.409 67.1882 241.453 67.1855 241.494 67.1726C241.535 67.1597 241.573 67.137 241.603 67.1064C241.824 66.8634 242.1 66.6769 242.408 66.5623C242.715 66.4477 243.046 66.4084 243.372 66.4478C243.405 66.4536 243.44 66.4528 243.473 66.4453C243.506 66.4379 243.537 66.424 243.565 66.4044C243.593 66.3848 243.617 66.3599 243.635 66.3312C243.653 66.3024 243.666 66.2704 243.672 66.2369C243.677 66.2033 243.677 66.169 243.669 66.1358C243.662 66.1026 243.648 66.0712 243.628 66.0433C243.609 66.0155 243.584 65.9918 243.555 65.9736C243.526 65.9554 243.494 65.943 243.461 65.9372C243.054 65.8807 242.639 65.9239 242.252 66.0631C241.865 66.2023 241.518 66.4334 241.241 66.7364C241.193 66.786 241.166 66.8523 241.166 66.9214C241.166 66.9904 241.193 67.0567 241.241 67.1064C241.273 67.1445 241.317 67.1706 241.366 67.1804Z" fill="#263238"/>
<path d="M258.512 81.7441C258.645 83.0021 257.136 87.4643 251.852 89.3735C253.887 89.3735 254.775 91.9709 254.775 91.9709C254.775 91.9709 261.768 88.2709 260.932 83.7495C260.823 83.1871 260.522 82.68 260.081 82.3144C259.639 81.9488 259.085 81.7473 258.512 81.7441Z" fill="#00796B"/>
<path d="M250.232 82.084C250.357 83.3198 248.929 85.9098 251.867 89.373C249.825 89.373 248.611 91.4154 248.611 91.4154C247.826 90.1883 247.361 88.7836 247.26 87.3303C247.16 85.8769 247.425 84.4215 248.034 83.0978C248.646 82.5436 249.413 82.1899 250.232 82.084Z" fill="#00796B"/>
<g opacity="0.5">
<path d="M258.512 81.7441C258.645 83.0021 257.136 87.4643 251.852 89.3735C253.887 89.3735 254.775 91.9709 254.775 91.9709C254.775 91.9709 261.768 88.2709 260.932 83.7495C260.823 83.1871 260.522 82.68 260.081 82.3144C259.639 81.9488 259.085 81.7473 258.512 81.7441Z" fill="white"/>
<path d="M250.232 82.085C250.357 83.3208 248.929 85.9108 251.867 89.374C249.825 89.374 248.611 91.4164 248.611 91.4164C247.826 90.1893 247.361 88.7846 247.26 87.3313C247.16 85.8779 247.425 84.4225 248.034 83.0988C248.646 82.5446 249.413 82.1908 250.232 82.085Z" fill="white"/>
</g>
<path d="M236.394 139.82L271.211 140.759V136.379L236.926 135.461L236.394 139.82Z" fill="#263238"/>
<path opacity="0.3" d="M236.394 139.82L271.211 140.759V136.379L236.926 135.461L236.394 139.82Z" fill="white"/>
<path d="M260.68 139.123L261.813 157.031L271.04 156.447C271.62 156.405 272.161 156.137 272.545 155.701C272.93 155.265 273.128 154.696 273.098 154.116L272.217 140.204C272.187 139.726 271.968 139.279 271.608 138.963C271.249 138.647 270.778 138.486 270.3 138.516L260.68 139.123Z" fill="#263238"/>
<path opacity="0.3" d="M260.68 139.123L261.813 157.031L271.04 156.447C271.62 156.405 272.161 156.137 272.545 155.701C272.93 155.265 273.128 154.696 273.098 154.116L272.217 140.204C272.187 139.726 271.968 139.279 271.608 138.963C271.249 138.647 270.778 138.486 270.3 138.516L260.68 139.123Z" fill="white"/>
<path opacity="0.2" d="M262.928 156.938L261.835 157.007L260.705 139.098L262.182 139.005C262.631 138.976 263.072 139.128 263.409 139.425C263.747 139.722 263.952 140.141 263.98 140.589L264.875 154.777C264.889 155.046 264.85 155.316 264.76 155.571C264.67 155.826 264.53 156.06 264.35 156.261C264.169 156.462 263.95 156.625 263.706 156.741C263.462 156.857 263.198 156.924 262.928 156.938Z" fill="black"/>
<path opacity="0.2" d="M263.981 141.291V140.729C263.966 140.492 263.904 140.26 263.799 140.046C263.694 139.833 263.548 139.642 263.369 139.486C263.191 139.329 262.983 139.209 262.757 139.133C262.532 139.057 262.294 139.026 262.057 139.042L270.33 138.516C270.808 138.486 271.278 138.647 271.638 138.963C271.997 139.279 272.216 139.726 272.247 140.204L272.284 140.766L272.365 142.135C272.378 142.342 272.35 142.55 272.283 142.746C272.215 142.942 272.11 143.123 271.972 143.278C271.835 143.434 271.668 143.561 271.481 143.651C271.295 143.742 271.092 143.795 270.885 143.807L265.764 144.126C265.557 144.14 265.349 144.112 265.152 144.045C264.956 143.978 264.774 143.873 264.619 143.735C264.463 143.597 264.336 143.43 264.246 143.243C264.155 143.056 264.103 142.853 264.092 142.646L263.981 141.291Z" fill="white"/>
<path d="M267.548 142.343C267.555 142.466 267.599 142.584 267.674 142.681C267.749 142.779 267.851 142.853 267.967 142.893C268.084 142.932 268.21 142.937 268.329 142.905C268.447 142.873 268.554 142.807 268.635 142.714C268.717 142.621 268.768 142.507 268.784 142.385C268.8 142.262 268.78 142.138 268.725 142.028C268.67 141.918 268.584 141.826 268.477 141.765C268.37 141.704 268.248 141.676 268.125 141.684C268.043 141.689 267.964 141.71 267.891 141.745C267.817 141.781 267.752 141.831 267.698 141.892C267.644 141.954 267.604 142.025 267.578 142.102C267.552 142.18 267.542 142.261 267.548 142.343Z" fill="#263238"/>
<path d="M248.411 137.888C248.428 138.042 248.501 138.185 248.616 138.288C248.732 138.392 248.881 138.449 249.036 138.449C249.192 138.449 249.341 138.392 249.456 138.288C249.572 138.185 249.645 138.042 249.662 137.888C249.645 137.734 249.572 137.591 249.456 137.488C249.341 137.384 249.192 137.327 249.036 137.327C248.881 137.327 248.732 137.384 248.616 137.488C248.501 137.591 248.428 137.734 248.411 137.888Z" fill="#263238"/>
<path opacity="0.1" d="M269.831 143.898L266.714 144.095L267.509 156.694L270.625 156.497L269.831 143.898Z" fill="black"/>
<path d="M254.575 71.5767C254.575 71.5767 252.91 71.7321 253.362 69.4011C253.813 67.0701 251.519 64.7538 252.17 62.5264C252.822 60.299 245.74 62.0306 245.229 60.3064C244.719 58.5822 244.608 63.4515 242.417 62.7855C240.508 62.2083 242.994 59.9217 242.994 59.9217C242.994 59.9217 240.071 61.5867 240.071 59.9217C240.071 58.2567 243.52 58.3306 244.741 58.042C248.219 57.2058 255.804 53.1136 257.95 63.5328C257.95 63.5328 261.198 65.8046 256.47 72.4129L254.575 71.5767Z" fill="#263238"/>
<path opacity="0.2" d="M270.752 92.0369C271.615 98.5351 272.038 105.084 272.017 111.639C267.333 107.592 263.233 96.5657 263.233 96.5657V92.1997L266.726 89.3877L270.752 92.0369Z" fill="black"/>
<path d="M238.591 104.743L229.26 99.4004L228.527 101.909L236.926 106.675L238.591 104.743Z" fill="#00796B"/>
<path opacity="0.5" d="M238.591 104.743L229.26 99.4004L228.527 101.909L236.926 106.675L238.591 104.743Z" fill="white"/>
<path d="M243.949 57.5385C243.949 57.5385 251.253 50.7009 257.898 56.3471C263.433 61.0609 258.712 68.4017 258.712 68.4017L256.048 65.2937L250.868 60.8537L246.125 58.1083L243.949 57.5385Z" fill="#00796B"/>
<path d="M240.057 57.065C243.268 54.6008 252.962 59.2036 258.808 68.4758V68.5498C257.158 66.7442 248.071 57.1612 242.595 58.3452C242.58 58.3452 238.081 58.582 240.057 57.065Z" fill="#00796B"/>
<g opacity="0.3">
<path d="M240.057 57.065C243.268 54.6008 252.962 59.2036 258.808 68.4758V68.5498C257.158 66.7442 248.071 57.1612 242.595 58.3452C242.58 58.3452 238.081 58.582 240.057 57.065Z" fill="black"/>
</g>
<path d="M246.332 55.548C248.796 54.142 253.591 52.366 258.053 56.1622C262.834 60.2248 260.185 66.204 259.26 67.9356L258.808 67.7358C258.808 67.6618 261.413 60.7576 257.765 57.6718C254.805 55.1484 251.186 56.5026 249.307 57.5312L249.181 57.5978L249.055 57.5238C248.441 57.1316 247.471 56.5544 246.339 55.9846L245.932 55.77L246.332 55.548Z" fill="#00796B"/>
<path opacity="0.3" d="M246.332 55.548C248.796 54.142 253.591 52.366 258.053 56.1622C262.834 60.2248 260.185 66.204 259.26 67.9356L258.808 67.7358C258.808 67.6618 261.413 60.7576 257.765 57.6718C254.805 55.1484 251.186 56.5026 249.307 57.5312L249.181 57.5978L249.055 57.5238C248.441 57.1316 247.471 56.5544 246.339 55.9846L245.932 55.77L246.332 55.548Z" fill="white"/>
<path d="M245.636 76.4084C245.376 76.407 245.116 76.3847 244.859 76.3418C244.823 76.3346 244.791 76.3135 244.77 76.2831C244.75 76.2526 244.742 76.2152 244.748 76.179C244.751 76.1614 244.757 76.1445 244.766 76.1293C244.776 76.1141 244.788 76.101 244.802 76.0906C244.817 76.0803 244.833 76.073 244.851 76.0691C244.868 76.0652 244.886 76.0648 244.904 76.068C245.473 76.1816 246.061 76.1598 246.62 76.0043C247.179 75.8488 247.694 75.5638 248.123 75.1726C248.147 75.1461 248.181 75.1304 248.217 75.129C248.253 75.1276 248.289 75.1406 248.315 75.1652C248.341 75.1897 248.357 75.2237 248.359 75.2598C248.36 75.2959 248.347 75.3311 248.322 75.3576C247.599 76.0462 246.635 76.4236 245.636 76.4084Z" fill="#263238"/>
<path opacity="0.5" d="M264.484 101.028H254.575L254.901 102.175C254.992 102.5 255.185 102.787 255.451 102.994C255.718 103.2 256.044 103.316 256.381 103.322H262.264C262.547 103.322 262.825 103.246 263.069 103.102C263.312 102.957 263.512 102.75 263.648 102.501L264.484 101.028Z" fill="white"/>
<path d="M258.912 102.116C258.912 102.279 258.976 102.435 259.092 102.55C259.207 102.665 259.363 102.73 259.526 102.73C259.69 102.73 259.847 102.665 259.963 102.551C260.079 102.436 260.146 102.279 260.148 102.116C260.146 101.951 260.08 101.794 259.963 101.678C259.847 101.562 259.69 101.496 259.526 101.494C259.362 101.496 259.206 101.562 259.091 101.679C258.976 101.795 258.912 101.952 258.912 102.116Z" fill="#00796B"/>
<path opacity="0.5" d="M247.553 100.969H239.576L239.835 102.116C239.877 102.417 240.022 102.695 240.244 102.904C240.466 103.112 240.752 103.239 241.056 103.263H245.792C246.038 103.249 246.274 103.165 246.473 103.019C246.671 102.873 246.823 102.672 246.909 102.441L247.553 100.969Z" fill="white"/>
<path d="M242.284 102.116C242.284 102.279 242.349 102.435 242.464 102.55C242.579 102.665 242.735 102.73 242.898 102.73C243.062 102.73 243.219 102.665 243.335 102.551C243.451 102.436 243.518 102.279 243.52 102.116C243.518 101.951 243.452 101.794 243.336 101.678C243.219 101.562 243.062 101.496 242.898 101.494C242.735 101.496 242.578 101.562 242.463 101.679C242.348 101.795 242.284 101.952 242.284 102.116Z" fill="#00796B"/>
<path d="M250.528 70.2959L255.116 69.9851L255.079 69.4893L250.098 69.8371L250.528 70.2959Z" fill="#263238"/>
<path d="M258.793 72.2716C258.43 72.8464 257.955 73.3427 257.398 73.7316C256.84 74.1204 256.21 74.3939 255.545 74.536C253.761 74.9134 252.97 73.2854 253.554 71.6648C254.08 70.1848 255.641 68.246 257.387 68.6012C257.768 68.685 258.122 68.8619 258.417 69.1161C258.712 69.3703 258.94 69.6938 259.079 70.0577C259.219 70.4215 259.265 70.8143 259.216 71.2007C259.166 71.5871 259.021 71.9551 258.793 72.2716Z" fill="#B55B52"/>
<path d="M248.914 108.406L248.544 109.56C248.533 109.594 248.532 109.63 248.541 109.665C248.55 109.699 248.57 109.73 248.597 109.753C248.624 109.776 248.658 109.791 248.693 109.795C248.729 109.799 248.764 109.792 248.796 109.775L249.884 109.227L256.351 101.62C256.417 101.542 256.449 101.442 256.44 101.341C256.432 101.24 256.384 101.146 256.307 101.08L255.93 100.754C255.891 100.721 255.846 100.695 255.797 100.679C255.749 100.663 255.697 100.657 255.646 100.661C255.595 100.666 255.546 100.68 255.5 100.703C255.455 100.727 255.415 100.759 255.382 100.799L248.914 108.406Z" fill="#263238"/>
<path opacity="0.5" d="M248.914 108.406L248.544 109.56C248.533 109.594 248.532 109.63 248.541 109.665C248.55 109.699 248.57 109.73 248.597 109.753C248.624 109.776 248.658 109.791 248.693 109.795C248.729 109.799 248.764 109.792 248.796 109.775L249.884 109.227L256.351 101.62C256.417 101.542 256.449 101.442 256.44 101.341C256.432 101.24 256.384 101.146 256.307 101.08L255.93 100.754C255.891 100.721 255.846 100.695 255.797 100.679C255.749 100.663 255.697 100.657 255.646 100.661C255.595 100.666 255.546 100.68 255.5 100.703C255.455 100.727 255.415 100.759 255.382 100.799L248.914 108.406Z" fill="white"/>
<path opacity="0.5" d="M255.774 100.681L249.033 108.606L248.581 109.724C248.561 109.702 248.547 109.676 248.54 109.647C248.534 109.619 248.535 109.589 248.544 109.561L248.914 108.406L255.382 100.799C255.43 100.744 255.492 100.704 255.561 100.683C255.63 100.662 255.704 100.662 255.774 100.681Z" fill="white"/>
<path d="M259.104 108.702L254.664 106.482L253.643 112.343C253.643 112.343 257.913 113.823 259.075 111.699L259.104 108.702Z" fill="#B55B52"/>
<path d="M249.758 108.14V110.256C249.754 110.663 249.896 111.059 250.158 111.371C250.42 111.683 250.784 111.891 251.186 111.958L253.636 112.372L254.657 106.512L251.534 106.43C251.305 106.424 251.077 106.464 250.863 106.547C250.649 106.63 250.454 106.755 250.289 106.914C250.123 107.073 249.991 107.263 249.9 107.473C249.809 107.684 249.761 107.91 249.758 108.14Z" fill="#B55B52"/>
<path d="M257.017 111.854C260.183 113.877 263.566 115.535 267.104 116.797C268.053 117.129 269.022 117.403 270.004 117.619C271.159 117.878 272.344 117.983 273.527 117.93C274.395 117.878 275.245 117.657 276.028 117.278C276.578 117.007 277.079 116.644 277.508 116.205C277.619 116.087 277.745 115.939 277.834 115.835L278.048 115.547C278.189 115.354 278.3 115.155 278.418 114.955C279.125 113.621 279.474 112.127 279.432 110.618C279.416 109.475 279.28 108.336 279.025 107.222C278.807 106.221 278.535 105.233 278.211 104.262C277.59 102.42 276.861 100.616 276.028 98.8597C275.214 97.1577 274.356 95.4927 273.423 93.8795C272.491 92.2663 271.566 90.7049 270.463 89.0917C269.9 88.2758 269.041 87.7119 268.068 87.5201C267.096 87.3283 266.087 87.5239 265.256 88.065C264.426 88.6062 263.839 89.4503 263.622 90.4175C263.404 91.3846 263.573 92.3985 264.092 93.2431L264.129 93.3097C264.995 94.6935 265.927 96.2105 266.771 97.6905C267.614 99.1705 268.45 100.651 269.205 102.19C269.963 103.655 270.643 105.159 271.24 106.696C271.787 108.003 272.155 109.377 272.335 110.781C272.349 110.971 272.349 111.161 272.335 111.351C271.882 111.384 271.427 111.384 270.974 111.351C270.234 111.277 269.435 111.181 268.628 111.025C265.387 110.411 261.968 109.427 258.608 108.443H258.542C258.102 108.311 257.629 108.344 257.211 108.535C256.793 108.726 256.459 109.062 256.271 109.481C256.083 109.9 256.053 110.374 256.188 110.813C256.322 111.252 256.612 111.627 257.003 111.869L257.017 111.854Z" fill="#B55B52"/>
<path d="M266.741 84.3188C274.474 86.7534 278.84 102.959 278.84 102.959L270.448 106.26C267.639 104.06 265.333 101.284 263.685 98.1198C262.834 96.4696 260.577 82.3726 266.741 84.3188Z" fill="#00796B"/>
<path d="M278.818 101.028L268.561 105.084L270.071 107.23L279.476 103.507L278.818 101.028Z" fill="#00796B"/>
<path opacity="0.5" d="M278.818 101.028L268.561 105.084L270.071 107.23L279.476 103.507L278.818 101.028Z" fill="white"/>
<path d="M230.659 103.034H245.799L256.433 121.564L256.026 121.978H240.885L230.244 103.441L230.659 103.034Z" fill="#263238"/>
<path opacity="0.2" d="M230.659 103.034H245.799L256.433 121.564L256.026 121.978H240.885L230.244 103.441L230.659 103.034Z" fill="white"/>
<path d="M240.885 121.977H256.026L245.385 103.44H230.244L240.885 121.977Z" fill="#263238"/>
<path opacity="0.4" d="M240.885 121.977H256.026L245.385 103.44H230.244L240.885 121.977Z" fill="white"/>
<path d="M234.536 102.76H240.301L241.522 104.891L241.352 105.061H235.587L234.366 102.93L234.536 102.76Z" fill="#00796B"/>
<path opacity="0.5" d="M234.536 102.76H240.301L241.522 104.891L241.352 105.061H235.587L234.366 102.93L234.536 102.76Z" fill="white"/>
<path d="M235.587 105.062L234.366 102.931H240.131L241.352 105.062H235.587Z" fill="#00796B"/>
<path opacity="0.2" d="M235.587 105.062L234.366 102.931H240.131L241.352 105.062H235.587Z" fill="white"/>
<path d="M226.862 114.881C226.721 113.867 226.721 112.839 226.862 111.825C226.899 111.559 226.951 111.314 226.996 111.085H234.092C233.892 111.671 233.728 112.269 233.604 112.876C233.519 113.257 233.477 113.647 233.478 114.038C233.48 114.084 233.48 114.131 233.478 114.178C233.532 114.211 233.589 114.238 233.648 114.26C234.178 114.487 234.725 114.672 235.284 114.815C236.482 115.148 237.851 115.429 239.146 115.754H239.287C239.678 115.852 240.027 116.074 240.28 116.388C240.533 116.701 240.677 117.089 240.69 117.492C240.702 117.895 240.583 118.291 240.35 118.62C240.117 118.949 239.782 119.192 239.398 119.314C237.911 119.791 236.369 120.074 234.81 120.157C233.959 120.213 233.104 120.188 232.257 120.083C231.756 120.008 231.261 119.894 230.777 119.743C230.114 119.541 229.493 119.223 228.942 118.803C228.756 118.657 228.581 118.499 228.416 118.33C228.241 118.143 228.078 117.945 227.928 117.738C227.721 117.422 227.54 117.091 227.388 116.746C227.128 116.151 226.952 115.524 226.862 114.881Z" fill="#B55B52"/>
<path d="M239.132 119.329L244.393 118.589L241.359 113.72C241.359 113.72 236.919 114.371 237.215 117.116L239.132 119.329Z" fill="#B55B52"/>
<path d="M246.48 115.643L245.533 113.423C245.453 113.238 245.337 113.071 245.19 112.933C245.044 112.794 244.871 112.687 244.682 112.618C244.493 112.548 244.292 112.518 244.09 112.53C243.889 112.541 243.693 112.593 243.512 112.683L241.359 113.712L244.393 118.581L245.984 117.434C246.259 117.237 246.458 116.952 246.548 116.626C246.638 116.3 246.614 115.953 246.48 115.643Z" fill="#B55B52"/>
<path d="M48.3966 135.342H54.2796V137.665H53.3176V148.092H49.3586V137.665H48.3966V135.342Z" fill="#00796B"/>
<g opacity="0.2">
<path d="M48.3966 135.342H54.2796V137.665H53.3176V148.092H49.3586V137.665H48.3966V135.342Z" fill="black"/>
</g>
<path d="M83.1766 127.912L104.067 160.05V188.888H54.6052V160.05L83.1766 127.912Z" fill="#00796B"/>
<path opacity="0.5" d="M83.1766 127.912L104.067 160.05V188.888H54.6052V160.05L83.1766 127.912Z" fill="white"/>
<path d="M60.2366 129.222L63.4186 124.346H83.1766L106.457 160.051H86.6916H60.2366V129.222Z" fill="#00796B"/>
<path opacity="0.2" d="M60.2366 129.222L63.4186 124.346H83.1766L106.457 160.051H86.6916H60.2366V129.222Z" fill="black"/>
<path d="M86.6916 160.051L63.4186 124.346L40.1382 160.051H86.6916Z" fill="#00796B"/>
<path d="M63.4186 127.912L84.3014 160.05V188.888H42.5284V160.05L63.4186 127.912Z" fill="#00796B"/>
<path opacity="0.8" d="M63.4186 127.912L84.3014 160.05V188.888H42.5284V160.05L63.4186 127.912Z" fill="white"/>
<path d="M72.787 146.412H68.5616V157.608H72.787V146.412Z" fill="#00796B"/>
<path d="M57.9944 146.412H53.769V157.608H57.9944V146.412Z" fill="#00796B"/>
<path d="M68.5542 145.88H57.9944V158.134H68.5542V145.88Z" fill="#00796B"/>
<path opacity="0.4" d="M68.5542 145.88H57.9944V158.134H68.5542V145.88Z" fill="white"/>
<path d="M67.237 147.204H59.3116V156.817H67.237V147.204Z" fill="#263238"/>
<path d="M56.8918 188.889H69.6642V168.272H56.8918V188.889Z" fill="#00796B"/>
<path opacity="0.3" d="M56.8918 188.889H69.6642V168.272H56.8918V188.889Z" fill="white"/>
<path d="M57.6836 163.958H68.8724L71.5956 169.005H54.9604L57.6836 163.958Z" fill="#00796B"/>
<path d="M67.4368 171.779H63.5222V188.895H67.4368V171.779Z" fill="#263238"/>
<path d="M63.0338 171.779H59.1192V188.895H63.0338V171.779Z" fill="#263238"/>
<path d="M96.097 209.72H36.5936V260.151H96.097V209.72Z" fill="#00796B"/>
<path opacity="0.6" d="M96.097 209.72H36.5936V260.151H96.097V209.72Z" fill="white"/>
<path d="M109.994 209.72H80.6088V260.151H109.994V209.72Z" fill="#00796B"/>
<path opacity="0.8" d="M109.994 209.72H80.6088V260.151H109.994V209.72Z" fill="white"/>
<path d="M75.0736 214.788H63.3668V228.367H75.0736V214.788Z" fill="#00796B"/>
<path opacity="0.3" d="M75.0736 214.788H63.3668V228.367H75.0736V214.788Z" fill="white"/>
<path d="M73.6084 216.254H64.832V226.902H73.6084V216.254Z" fill="#263238"/>
<path d="M89.3186 215.373H84.6344V227.783H89.3186V215.373Z" fill="#00796B"/>
<path d="M105.71 215.373H101.025V227.783H105.71V215.373Z" fill="#00796B"/>
<path d="M101.025 214.788H89.3186V228.367H101.025V214.788Z" fill="#00796B"/>
<path opacity="0.3" d="M101.025 214.788H89.3186V228.367H101.025V214.788Z" fill="white"/>
<path d="M99.5602 216.254H90.7838V226.902H99.5602V216.254Z" fill="#263238"/>
<path d="M64.2474 237.714H50.3502V260.143H64.2474V237.714Z" fill="#00796B"/>
<path opacity="0.3" d="M64.2474 237.714H50.3502V260.143H64.2474V237.714Z" fill="white"/>
<path d="M63.389 233.015H51.2086L48.2486 238.505H66.349L63.389 233.015Z" fill="#00796B"/>
<path d="M57.0324 241.524H52.7774V260.143H57.0324V241.524Z" fill="#263238"/>
<path d="M61.8202 241.524H57.5652V260.143H61.8202V241.524Z" fill="#263238"/>
<path d="M102.727 210.149L91.102 188.57H41.596L29.9706 210.149H102.727Z" fill="#00796B"/>
<path opacity="0.3" d="M102.727 210.149L91.102 188.57H41.596L29.9706 210.149H102.727Z" fill="black"/>
<path d="M116.625 210.149L104.999 188.57H85.6112L73.9858 210.149H116.625Z" fill="#00796B"/>
<path opacity="0.1" d="M116.625 210.149L104.999 188.57H85.6112L73.9858 210.149H116.625Z" fill="black"/>
<path d="M52.6886 206.456V188.57H75.5694L65.9346 206.456H52.6886Z" fill="#00796B"/>
<path opacity="0.8" d="M52.6886 206.456V188.57H75.5694L65.9346 206.456H52.6886Z" fill="white"/>
<path d="M52.0152 206.456H65.9124V192.559H52.0152V206.456Z" fill="#00796B"/>
<path opacity="0.6" d="M52.0152 206.456H65.9124V192.559H52.0152V206.456Z" fill="white"/>
<path d="M61.8942 204.776H56.0334C55.7782 204.776 55.5335 204.675 55.3531 204.495C55.1727 204.314 55.0714 204.07 55.0714 203.814V203.111H62.8562V203.814C62.8562 204.07 62.7548 204.314 62.5744 204.495C62.394 204.675 62.1493 204.776 61.8942 204.776Z" fill="#00796B"/>
<path d="M56.507 197.414C56.4887 197.079 56.5387 196.744 56.6541 196.43C56.7694 196.116 56.9477 195.828 57.178 195.585C57.4083 195.341 57.6857 195.148 57.9934 195.015C58.3011 194.883 58.6326 194.814 58.9675 194.814C59.3025 194.814 59.634 194.883 59.9417 195.015C60.2493 195.148 60.5268 195.341 60.7571 195.585C60.9874 195.828 61.1656 196.116 61.281 196.43C61.3964 196.744 61.4464 197.079 61.428 197.414V202.719H56.507V197.414Z" fill="#263238"/>
<path d="M61.4206 193.351L64.0032 188.57H75.5694L72.9942 193.351H61.4206Z" fill="#00796B"/>
<path opacity="0.2" d="M61.4206 193.351L64.0032 188.57H75.5694L72.9942 193.351H61.4206Z" fill="black"/>
<path d="M65.4314 188.57L68.014 193.351H49.9136L52.4962 188.57H65.4314Z" fill="#00796B"/>
<path d="M54.1094 214.788H42.4026V228.367H54.1094V214.788Z" fill="#00796B"/>
<path opacity="0.3" d="M54.1094 214.788H42.4026V228.367H54.1094V214.788Z" fill="white"/>
<path d="M52.6368 216.254H43.8604V226.902H52.6368V216.254Z" fill="#263238"/>
<path d="M112.34 259.647H221.216C221.685 259.654 222.149 259.561 222.579 259.375C223.009 259.189 223.395 258.914 223.71 258.567C224.026 258.221 224.264 257.812 224.409 257.366C224.555 256.921 224.604 256.45 224.554 255.984L210.886 99.844C210.786 98.853 210.327 97.9328 209.595 97.2577C208.862 96.5827 207.908 96.1996 206.912 96.181H98.0136C97.5452 96.1741 97.0806 96.2668 96.6507 96.4529C96.2208 96.6391 95.8353 96.9144 95.5198 97.2607C95.2042 97.607 94.9659 98.0164 94.8204 98.4617C94.675 98.9071 94.6259 99.3782 94.6762 99.844L108.344 255.984C108.444 256.979 108.906 257.902 109.643 258.578C110.38 259.253 111.34 259.634 112.34 259.647Z" fill="#263238"/>
<path d="M113.887 259.647H222.785C223.254 259.655 223.719 259.563 224.149 259.378C224.58 259.192 224.966 258.917 225.282 258.57C225.598 258.223 225.836 257.814 225.981 257.368C226.126 256.922 226.174 256.45 226.122 255.984L212.462 99.8442C212.361 98.8525 211.9 97.9322 211.166 97.2573C210.433 96.5824 209.478 96.1995 208.481 96.1812H99.5898C99.121 96.1731 98.6559 96.2649 98.2254 96.4507C97.7949 96.6364 97.4089 96.9117 97.0931 97.2583C96.7774 97.6049 96.539 98.0147 96.3941 98.4606C96.2491 98.9065 96.2008 99.3781 96.2524 99.8442L109.913 255.984C110.012 256.975 110.472 257.895 111.204 258.57C111.936 259.245 112.891 259.629 113.887 259.647Z" fill="#263238"/>
<path opacity="0.5" d="M113.887 259.647H222.785C223.254 259.655 223.719 259.563 224.149 259.378C224.58 259.192 224.966 258.917 225.282 258.57C225.598 258.223 225.836 257.814 225.981 257.368C226.126 256.922 226.174 256.45 226.122 255.984L212.462 99.8442C212.361 98.8525 211.9 97.9322 211.166 97.2573C210.433 96.5824 209.478 96.1995 208.481 96.1812H99.5898C99.121 96.1731 98.6559 96.2649 98.2254 96.4507C97.7949 96.6364 97.4089 96.9117 97.0931 97.2583C96.7774 97.6049 96.539 98.0147 96.3941 98.4606C96.2491 98.9065 96.2008 99.3781 96.2524 99.8442L109.913 255.984C110.012 256.975 110.472 257.895 111.204 258.57C111.936 259.245 112.891 259.629 113.887 259.647Z" fill="white"/>
<path opacity="0.2" d="M202.331 105.202L215.392 253.979H117.239L104.178 105.202H202.331Z" fill="black"/>
<path d="M202.931 105.21L206.697 153.184C207.684 165.621 209.164 178.004 211.137 190.332L220.757 250.613H122.582L112.962 190.184C110.988 177.876 109.521 165.508 108.559 153.081L104.799 105.21H202.931Z" fill="white"/>
<path d="M137.789 124.279H174.589C174.87 124.286 175.149 124.231 175.407 124.117C175.664 124.004 175.894 123.836 176.079 123.624C176.264 123.412 176.4 123.162 176.478 122.891C176.555 122.621 176.572 122.337 176.528 122.059L176.239 119.669C176.157 119.065 175.862 118.51 175.408 118.103C174.954 117.696 174.37 117.464 173.76 117.449H136.952C136.671 117.442 136.392 117.497 136.135 117.61C135.878 117.724 135.649 117.892 135.464 118.104C135.28 118.316 135.144 118.567 135.068 118.837C134.991 119.107 134.975 119.392 135.021 119.669L135.31 122.059C135.392 122.663 135.687 123.218 136.141 123.625C136.595 124.032 137.179 124.264 137.789 124.279Z" fill="#00796B"/>
<path d="M122.249 173.741H201.258C201.539 173.748 201.818 173.693 202.076 173.58C202.333 173.466 202.562 173.298 202.747 173.085C202.931 172.873 203.066 172.623 203.143 172.353C203.22 172.082 203.236 171.798 203.19 171.521L202.901 169.131C202.819 168.527 202.524 167.972 202.07 167.565C201.616 167.158 201.032 166.926 200.422 166.911H121.412C121.131 166.904 120.852 166.959 120.594 167.072C120.337 167.186 120.107 167.354 119.922 167.566C119.737 167.778 119.601 168.028 119.524 168.298C119.446 168.569 119.429 168.853 119.474 169.131L119.77 171.521C119.852 172.125 120.147 172.68 120.601 173.087C121.055 173.494 121.639 173.725 122.249 173.741Z" fill="#00796B"/>
<path opacity="0.5" d="M122.249 173.741H201.258C201.539 173.748 201.818 173.693 202.076 173.58C202.333 173.466 202.562 173.298 202.747 173.085C202.931 172.873 203.066 172.623 203.143 172.353C203.22 172.082 203.236 171.798 203.19 171.521L202.901 169.131C202.819 168.527 202.524 167.972 202.07 167.565C201.616 167.158 201.032 166.926 200.422 166.911H121.412C121.131 166.904 120.852 166.959 120.594 167.072C120.337 167.186 120.107 167.354 119.922 167.566C119.737 167.778 119.601 168.028 119.524 168.298C119.446 168.569 119.429 168.853 119.474 169.131L119.77 171.521C119.852 172.125 120.147 172.68 120.601 173.087C121.055 173.494 121.639 173.725 122.249 173.741Z" fill="white"/>
<path d="M170.941 134.462H134.14C133.4 134.462 133.282 133.285 134.037 133.285H170.837C171.577 133.285 171.703 134.462 170.941 134.462Z" fill="#263238"/>
<path d="M118.46 137.732H171.385C172.125 137.732 172.25 138.916 171.488 138.916H118.556C117.816 138.916 117.698 137.732 118.46 137.732Z" fill="#263238"/>
<path d="M179.058 139.109H197.018C197.299 139.116 197.579 139.061 197.836 138.948C198.094 138.834 198.323 138.666 198.508 138.454C198.693 138.242 198.829 137.992 198.907 137.722C198.985 137.451 199.002 137.167 198.957 136.889L198.661 134.499C198.58 133.894 198.286 133.338 197.831 132.931C197.377 132.524 196.792 132.293 196.182 132.279H178.2C177.918 132.271 177.638 132.325 177.38 132.438C177.122 132.551 176.892 132.719 176.707 132.932C176.521 133.144 176.385 133.394 176.308 133.665C176.231 133.936 176.215 134.221 176.261 134.499L176.557 136.889C176.64 137.497 176.938 138.055 177.397 138.462C177.856 138.87 178.445 139.099 179.058 139.109Z" fill="#263238"/>
<path opacity="0.7" d="M179.058 139.109H197.018C197.299 139.116 197.579 139.061 197.836 138.948C198.094 138.834 198.323 138.666 198.508 138.454C198.693 138.242 198.829 137.992 198.907 137.722C198.985 137.451 199.002 137.167 198.957 136.889L198.661 134.499C198.58 133.894 198.286 133.338 197.831 132.931C197.377 132.524 196.792 132.293 196.182 132.279H178.2C177.918 132.271 177.638 132.325 177.38 132.438C177.122 132.551 176.892 132.719 176.707 132.932C176.521 133.144 176.385 133.394 176.308 133.665C176.231 133.936 176.215 134.221 176.261 134.499L176.557 136.889C176.64 137.497 176.938 138.055 177.397 138.462C177.856 138.87 178.445 139.099 179.058 139.109Z" fill="white"/>
<path d="M189.182 152.807H198.691C198.972 152.813 199.251 152.758 199.509 152.645C199.766 152.532 199.996 152.363 200.181 152.151C200.366 151.939 200.502 151.689 200.579 151.419C200.657 151.149 200.674 150.864 200.629 150.587L200.474 149.336C200.393 148.733 200.1 148.178 199.647 147.771C199.194 147.364 198.611 147.132 198.002 147.116H188.486C188.204 147.108 187.924 147.162 187.666 147.275C187.408 147.388 187.178 147.556 186.993 147.769C186.807 147.981 186.671 148.231 186.594 148.502C186.517 148.773 186.501 149.058 186.547 149.336L186.703 150.587C186.785 151.191 187.08 151.746 187.534 152.153C187.988 152.559 188.572 152.791 189.182 152.807Z" fill="#263238"/>
<path d="M160.1 152.807H182.174C182.455 152.813 182.734 152.758 182.992 152.645C183.249 152.532 183.479 152.363 183.664 152.151C183.849 151.939 183.985 151.689 184.063 151.419C184.14 151.149 184.157 150.864 184.113 150.587L183.957 149.336C183.876 148.733 183.583 148.178 183.13 147.771C182.677 147.364 182.094 147.132 181.486 147.116H159.404C159.123 147.108 158.843 147.162 158.585 147.275C158.327 147.388 158.097 147.556 157.913 147.769C157.728 147.981 157.593 148.232 157.516 148.503C157.44 148.774 157.425 149.059 157.473 149.336L157.621 150.587C157.704 151.19 157.999 151.744 158.453 152.151C158.907 152.557 159.491 152.79 160.1 152.807Z" fill="#263238"/>
<path d="M136.516 152.807H153.099C153.38 152.812 153.659 152.756 153.916 152.642C154.172 152.529 154.401 152.36 154.586 152.149C154.771 151.937 154.907 151.688 154.985 151.418C155.063 151.148 155.081 150.864 155.038 150.587L154.883 149.336C154.802 148.731 154.507 148.175 154.053 147.768C153.598 147.361 153.014 147.13 152.404 147.116H135.828C135.546 147.108 135.266 147.162 135.008 147.275C134.75 147.388 134.52 147.556 134.334 147.769C134.149 147.981 134.013 148.231 133.936 148.502C133.859 148.773 133.843 149.058 133.889 149.336L134.037 150.587C134.122 151.19 134.418 151.743 134.871 152.149C135.325 152.555 135.907 152.788 136.516 152.807Z" fill="#263238"/>
<path d="M120.783 152.807H129.515C129.797 152.813 130.076 152.758 130.333 152.645C130.591 152.532 130.82 152.363 131.005 152.151C131.19 151.939 131.327 151.689 131.404 151.419C131.482 151.149 131.499 150.864 131.454 150.587L131.299 149.336C131.218 148.731 130.924 148.175 130.469 147.768C130.015 147.361 129.43 147.13 128.82 147.116H120.095C119.814 147.108 119.534 147.162 119.275 147.275C119.017 147.388 118.787 147.556 118.602 147.769C118.417 147.981 118.281 148.231 118.204 148.502C118.127 148.773 118.11 149.058 118.156 149.336L118.312 150.587C118.394 151.189 118.688 151.744 119.14 152.15C119.593 152.557 120.175 152.789 120.783 152.807Z" fill="#263238"/>
<path d="M183.128 161.087H199.704C199.986 161.095 200.266 161.041 200.524 160.928C200.782 160.815 201.012 160.646 201.198 160.434C201.383 160.222 201.519 159.971 201.596 159.7C201.673 159.429 201.689 159.145 201.643 158.867L201.488 157.616C201.406 157.013 201.112 156.459 200.659 156.053C200.207 155.646 199.624 155.413 199.016 155.396H182.433C182.152 155.389 181.872 155.444 181.615 155.558C181.357 155.671 181.128 155.839 180.943 156.051C180.758 156.263 180.622 156.513 180.544 156.784C180.466 157.054 180.449 157.338 180.494 157.616L180.649 158.867C180.73 159.471 181.025 160.027 181.479 160.434C181.934 160.841 182.518 161.073 183.128 161.087Z" fill="#263238"/>
<path d="M156.407 161.087H176.121C176.402 161.095 176.682 161.041 176.94 160.928C177.198 160.815 177.428 160.646 177.614 160.434C177.799 160.222 177.935 159.971 178.012 159.7C178.089 159.429 178.105 159.145 178.059 158.867L177.911 157.616C177.826 157.013 177.531 156.46 177.077 156.054C176.624 155.647 176.041 155.415 175.432 155.396H155.711C155.43 155.389 155.151 155.444 154.893 155.558C154.636 155.671 154.406 155.839 154.221 156.051C154.036 156.263 153.9 156.513 153.823 156.784C153.745 157.054 153.728 157.338 153.773 157.616L153.928 158.867C154.009 159.471 154.303 160.027 154.758 160.434C155.212 160.841 155.797 161.073 156.407 161.087Z" fill="#263238"/>
<path d="M139.89 161.087H149.399C149.681 161.095 149.961 161.041 150.219 160.928C150.477 160.815 150.707 160.646 150.892 160.434C151.078 160.222 151.214 159.971 151.291 159.7C151.368 159.429 151.384 159.145 151.338 158.867L151.183 157.616C151.1 157.012 150.806 156.457 150.351 156.05C149.897 155.643 149.313 155.412 148.704 155.396H139.195C138.913 155.389 138.634 155.444 138.377 155.558C138.119 155.671 137.89 155.839 137.705 156.051C137.52 156.263 137.383 156.513 137.306 156.784C137.228 157.054 137.211 157.338 137.256 157.616L137.411 158.867C137.492 159.471 137.786 160.027 138.241 160.434C138.695 160.841 139.28 161.073 139.89 161.087Z" fill="#263238"/>
<path d="M121.797 161.087H132.897C133.179 161.095 133.459 161.041 133.717 160.928C133.975 160.815 134.205 160.646 134.39 160.434C134.576 160.222 134.712 159.971 134.789 159.7C134.866 159.429 134.882 159.145 134.836 158.867L134.681 157.616C134.598 157.012 134.304 156.457 133.849 156.05C133.395 155.643 132.811 155.412 132.202 155.396H121.102C120.82 155.389 120.541 155.444 120.284 155.558C120.026 155.671 119.797 155.839 119.612 156.051C119.426 156.263 119.29 156.513 119.213 156.784C119.135 157.054 119.118 157.338 119.163 157.616L119.318 158.867C119.399 159.471 119.693 160.027 120.148 160.434C120.602 160.841 121.187 161.073 121.797 161.087Z" fill="#263238"/>
<g opacity="0.7">
<path d="M189.182 152.807H198.691C198.972 152.813 199.251 152.758 199.509 152.645C199.766 152.532 199.996 152.363 200.181 152.151C200.366 151.939 200.502 151.689 200.579 151.419C200.657 151.149 200.674 150.864 200.629 150.587L200.474 149.336C200.393 148.733 200.1 148.178 199.647 147.771C199.194 147.364 198.611 147.132 198.002 147.116H188.486C188.204 147.108 187.924 147.162 187.666 147.275C187.408 147.388 187.178 147.556 186.993 147.769C186.807 147.981 186.671 148.231 186.594 148.502C186.517 148.773 186.501 149.058 186.547 149.336L186.703 150.587C186.785 151.191 187.08 151.746 187.534 152.153C187.988 152.559 188.572 152.791 189.182 152.807Z" fill="white"/>
<path d="M160.1 152.807H182.174C182.455 152.813 182.734 152.758 182.992 152.645C183.249 152.532 183.479 152.363 183.664 152.151C183.849 151.939 183.985 151.689 184.063 151.419C184.14 151.149 184.157 150.864 184.113 150.587L183.957 149.336C183.876 148.733 183.583 148.178 183.13 147.771C182.677 147.364 182.094 147.132 181.486 147.116H159.404C159.123 147.108 158.843 147.162 158.585 147.275C158.327 147.388 158.097 147.556 157.913 147.769C157.728 147.981 157.593 148.232 157.516 148.503C157.44 148.774 157.425 149.059 157.473 149.336L157.621 150.587C157.704 151.19 157.999 151.744 158.453 152.151C158.907 152.557 159.491 152.79 160.1 152.807Z" fill="white"/>
<path d="M136.516 152.807H153.099C153.38 152.812 153.659 152.756 153.916 152.642C154.172 152.529 154.401 152.36 154.586 152.149C154.771 151.937 154.907 151.688 154.985 151.418C155.063 151.148 155.081 150.864 155.038 150.587L154.883 149.336C154.802 148.731 154.507 148.175 154.053 147.768C153.598 147.361 153.014 147.13 152.404 147.116H135.828C135.546 147.108 135.266 147.162 135.008 147.275C134.75 147.388 134.52 147.556 134.334 147.769C134.149 147.981 134.013 148.231 133.936 148.502C133.859 148.773 133.843 149.058 133.889 149.336L134.037 150.587C134.122 151.19 134.417 151.743 134.871 152.149C135.325 152.555 135.907 152.788 136.516 152.807Z" fill="white"/>
<path d="M120.783 152.807H129.515C129.797 152.813 130.076 152.758 130.333 152.645C130.591 152.532 130.82 152.363 131.005 152.151C131.19 151.939 131.327 151.689 131.404 151.419C131.482 151.149 131.499 150.864 131.454 150.587L131.299 149.336C131.218 148.731 130.924 148.175 130.469 147.768C130.015 147.361 129.43 147.13 128.82 147.116H120.095C119.814 147.108 119.534 147.162 119.275 147.275C119.017 147.388 118.787 147.556 118.602 147.769C118.417 147.981 118.281 148.231 118.204 148.502C118.127 148.773 118.11 149.058 118.156 149.336L118.312 150.587C118.394 151.189 118.688 151.744 119.14 152.15C119.593 152.557 120.175 152.789 120.783 152.807Z" fill="white"/>
<path d="M183.128 161.088H199.704C199.986 161.096 200.266 161.042 200.524 160.929C200.782 160.816 201.012 160.647 201.198 160.435C201.383 160.223 201.519 159.972 201.596 159.701C201.673 159.43 201.689 159.146 201.643 158.868L201.488 157.617C201.406 157.014 201.112 156.46 200.659 156.053C200.207 155.647 199.624 155.414 199.016 155.397H182.433C182.152 155.39 181.872 155.445 181.615 155.559C181.357 155.672 181.128 155.84 180.943 156.052C180.758 156.264 180.622 156.514 180.544 156.785C180.466 157.055 180.449 157.339 180.494 157.617L180.649 158.868C180.73 159.472 181.025 160.028 181.479 160.435C181.934 160.842 182.518 161.074 183.128 161.088Z" fill="white"/>
<path d="M156.407 161.088H176.121C176.402 161.096 176.682 161.042 176.94 160.929C177.198 160.816 177.428 160.647 177.614 160.435C177.799 160.223 177.935 159.972 178.012 159.701C178.089 159.43 178.105 159.146 178.059 158.868L177.911 157.617C177.826 157.014 177.531 156.461 177.077 156.055C176.624 155.648 176.041 155.415 175.432 155.397H155.711C155.43 155.39 155.151 155.445 154.893 155.559C154.636 155.672 154.406 155.84 154.221 156.052C154.036 156.264 153.9 156.514 153.823 156.785C153.745 157.055 153.728 157.339 153.773 157.617L153.928 158.868C154.009 159.472 154.303 160.028 154.758 160.435C155.212 160.842 155.797 161.074 156.407 161.088Z" fill="white"/>
<path d="M139.89 161.088H149.399C149.681 161.096 149.961 161.042 150.219 160.929C150.477 160.816 150.707 160.647 150.892 160.435C151.078 160.223 151.214 159.972 151.291 159.701C151.368 159.43 151.384 159.146 151.338 158.868L151.183 157.617C151.1 157.013 150.806 156.458 150.351 156.051C149.897 155.644 149.313 155.413 148.704 155.397H139.195C138.913 155.39 138.634 155.445 138.377 155.559C138.119 155.672 137.89 155.84 137.705 156.052C137.52 156.264 137.383 156.514 137.306 156.785C137.228 157.055 137.211 157.339 137.256 157.617L137.411 158.868C137.492 159.472 137.786 160.028 138.241 160.435C138.695 160.842 139.28 161.074 139.89 161.088Z" fill="white"/>
<path d="M121.797 161.088H132.897C133.179 161.096 133.459 161.042 133.717 160.929C133.975 160.816 134.205 160.647 134.39 160.435C134.576 160.223 134.712 159.972 134.789 159.701C134.866 159.43 134.882 159.146 134.836 158.868L134.681 157.617C134.598 157.013 134.304 156.458 133.849 156.051C133.395 155.644 132.811 155.413 132.202 155.397H121.102C120.82 155.39 120.541 155.445 120.284 155.559C120.026 155.672 119.797 155.84 119.612 156.052C119.426 156.264 119.29 156.514 119.213 156.785C119.135 157.055 119.118 157.339 119.163 157.617L119.318 158.868C119.399 159.472 119.693 160.028 120.148 160.435C120.602 160.842 121.187 161.074 121.797 161.088Z" fill="white"/>
</g>
<path d="M153.299 244.589H127.732C126.992 244.589 126.874 243.412 127.628 243.412H153.195C153.935 243.412 154.061 244.589 153.299 244.589Z" fill="#263238"/>
<path d="M212.114 244.589H186.547C185.807 244.589 185.689 243.412 186.444 243.412H212.011C212.751 243.412 212.876 244.589 212.114 244.589Z" fill="#263238"/>
<path d="M207.682 208.381H175.048C174.308 208.381 174.182 207.204 174.944 207.204H207.578C208.318 207.204 208.436 208.381 207.682 208.381Z" fill="#263238"/>
<path d="M175.499 211.703H208.133C208.873 211.703 208.991 212.88 208.237 212.88H175.603C174.863 212.88 174.737 211.703 175.499 211.703Z" fill="#263238"/>
<path d="M176.054 216.231H208.688C209.428 216.231 209.546 217.408 208.792 217.408H176.158C175.418 217.408 175.292 216.231 176.054 216.231Z" fill="#263238"/>
<path d="M176.609 220.76H209.28C210.02 220.76 210.138 221.936 209.376 221.936H176.72C175.98 221.936 175.854 220.76 176.616 220.76H176.609Z" fill="#263238"/>
<path d="M177.164 225.289H209.798C210.538 225.289 210.656 226.473 209.894 226.473H177.268C176.528 226.473 176.402 225.289 177.164 225.289Z" fill="#263238"/>
<path d="M158.886 208.381H133.319C132.579 208.381 132.461 207.204 133.215 207.204H158.782C159.522 207.204 159.648 208.381 158.886 208.381Z" fill="#263238"/>
<path d="M133.8 211.703H159.367C160.107 211.703 160.233 212.88 159.471 212.88H133.874C133.134 212.88 133.008 211.703 133.77 211.703H133.8Z" fill="#263238"/>
<path d="M134.325 216.231H159.892C160.632 216.231 160.751 217.408 159.996 217.408H134.429C133.689 217.408 133.563 216.231 134.325 216.231Z" fill="#263238"/>
<path d="M134.88 220.76H160.44C161.18 220.76 161.298 221.936 160.544 221.936H134.984C134.244 221.936 134.118 220.76 134.88 220.76Z" fill="#263238"/>
<path d="M135.435 225.289H161.002C161.742 225.289 161.861 226.473 161.106 226.473H135.539C134.799 226.473 134.673 225.289 135.435 225.289Z" fill="#263238"/>
<path d="M121.124 185.026L121.797 190.524L122.471 196.023L123.144 201.513H207.156L206.416 195.431L205.743 189.932L205.069 184.442L204.396 178.943H120.376L121.124 185.026ZM136.116 181.985L136.412 184.442H121.612L121.013 179.528H135.813L136.116 181.985ZM137.374 187.483L137.078 185.026H162.838L163.141 187.483L163.437 189.932H137.678L137.374 187.483ZM163.4 185.026H189.159L189.463 187.483L189.759 189.932H164.029L163.726 187.483L163.4 185.026ZM190.432 195.431H164.702L164.399 192.974L164.103 190.524H189.862L190.166 192.974L190.432 195.431ZM164.081 195.431H138.351L138.048 192.974L137.744 190.524H163.511L163.807 192.974L164.081 195.431ZM162.438 181.985L162.734 184.442H137.004L136.701 181.985L136.405 179.528H162.164L162.438 181.985ZM188.789 181.985L189.085 184.442H163.356L163.052 181.985L162.756 179.528H188.516L188.789 181.985ZM204.448 184.442H189.648L189.344 181.985L189.048 179.528H203.848L204.448 184.442ZM205.121 189.932H190.321L190.018 187.483L189.722 185.026H204.522L205.121 189.932ZM205.795 195.431H190.995L190.691 192.974L190.395 190.524H205.195L205.795 195.431ZM191.394 198.472L191.098 196.023H205.898L206.498 200.929H191.698L191.394 198.472ZM165.043 198.472L164.739 196.023H190.506L190.802 198.472L191.106 200.929H165.376L165.043 198.472ZM138.691 198.472L138.388 196.023H164.155L164.451 198.472L164.754 200.929H139.024L138.691 198.472ZM123.033 196.023H137.833L138.129 198.472L138.432 200.929H123.632L123.033 196.023ZM122.36 190.524H137.16L137.456 192.974L137.759 195.431H122.959L122.36 190.524ZM121.686 185.026H136.486L136.782 187.483L137.086 189.932H122.286L121.686 185.026Z" fill="#00796B"/>
<path opacity="0.5" d="M121.124 185.026L121.797 190.524L122.471 196.023L123.144 201.513H207.156L206.416 195.431L205.743 189.932L205.069 184.442L204.396 178.943H120.376L121.124 185.026ZM136.116 181.985L136.412 184.442H121.612L121.013 179.528H135.813L136.116 181.985ZM137.374 187.483L137.078 185.026H162.838L163.141 187.483L163.437 189.932H137.678L137.374 187.483ZM163.4 185.026H189.159L189.463 187.483L189.759 189.932H164.029L163.726 187.483L163.4 185.026ZM190.432 195.431H164.702L164.399 192.974L164.103 190.524H189.862L190.166 192.974L190.432 195.431ZM164.081 195.431H138.351L138.048 192.974L137.744 190.524H163.511L163.807 192.974L164.081 195.431ZM162.438 181.985L162.734 184.442H137.004L136.701 181.985L136.405 179.528H162.164L162.438 181.985ZM188.789 181.985L189.085 184.442H163.356L163.052 181.985L162.756 179.528H188.516L188.789 181.985ZM204.448 184.442H189.648L189.344 181.985L189.048 179.528H203.848L204.448 184.442ZM205.121 189.932H190.321L190.018 187.483L189.722 185.026H204.522L205.121 189.932ZM205.795 195.431H190.995L190.691 192.974L190.395 190.524H205.195L205.795 195.431ZM191.394 198.472L191.098 196.023H205.898L206.498 200.929H191.698L191.394 198.472ZM165.043 198.472L164.739 196.023H190.506L190.802 198.472L191.106 200.929H165.376L165.043 198.472ZM138.691 198.472L138.388 196.023H164.155L164.451 198.472L164.754 200.929H139.024L138.691 198.472ZM123.033 196.023H137.833L138.129 198.472L138.432 200.929H123.632L123.033 196.023ZM122.36 190.524H137.16L137.456 192.974L137.759 195.431H122.959L122.36 190.524ZM121.686 185.026H136.486L136.782 187.483L137.086 189.932H122.286L121.686 185.026Z" fill="white"/>
<path d="M126.119 212.08H128.553C128.658 212.081 128.761 212.06 128.857 212.017C128.952 211.975 129.038 211.913 129.108 211.836C129.178 211.758 129.23 211.667 129.262 211.567C129.294 211.468 129.305 211.363 129.293 211.259L128.997 208.824C128.966 208.601 128.857 208.396 128.689 208.246C128.521 208.096 128.305 208.009 128.08 208.003H125.638C125.533 208.002 125.43 208.024 125.334 208.066C125.239 208.108 125.153 208.17 125.084 208.248C125.014 208.325 124.961 208.417 124.929 208.516C124.897 208.616 124.886 208.721 124.898 208.824L125.194 211.259C125.227 211.483 125.338 211.688 125.507 211.838C125.676 211.988 125.893 212.074 126.119 212.08Z" fill="#00796B"/>
<path d="M126.659 216.521H129.101C129.205 216.521 129.309 216.5 129.404 216.458C129.5 216.416 129.585 216.354 129.655 216.276C129.725 216.199 129.778 216.107 129.81 216.008C129.842 215.908 129.852 215.803 129.841 215.699L129.545 213.265C129.512 213.041 129.401 212.836 129.232 212.686C129.063 212.535 128.846 212.45 128.62 212.443H126.185C126.081 212.443 125.978 212.464 125.882 212.506C125.787 212.549 125.701 212.61 125.631 212.688C125.561 212.766 125.509 212.857 125.477 212.957C125.445 213.056 125.434 213.161 125.445 213.265L125.741 215.699C125.773 215.923 125.882 216.127 126.05 216.278C126.218 216.428 126.434 216.514 126.659 216.521Z" fill="#00796B"/>
<path d="M127.207 220.961H129.641C129.745 220.961 129.848 220.94 129.943 220.898C130.038 220.856 130.123 220.795 130.192 220.718C130.262 220.642 130.315 220.551 130.348 220.453C130.38 220.354 130.392 220.25 130.381 220.147L130.078 217.705C130.046 217.482 129.937 217.278 129.769 217.129C129.6 216.98 129.385 216.895 129.16 216.891H126.726C126.622 216.89 126.519 216.911 126.424 216.953C126.329 216.995 126.244 217.056 126.174 217.133C126.105 217.21 126.052 217.3 126.019 217.399C125.987 217.497 125.975 217.601 125.986 217.705L126.289 220.147C126.321 220.369 126.43 220.573 126.598 220.722C126.766 220.871 126.982 220.956 127.207 220.961Z" fill="#00796B"/>
<path d="M127.754 225.401H130.189C130.293 225.401 130.397 225.38 130.492 225.338C130.588 225.295 130.673 225.234 130.743 225.156C130.813 225.078 130.866 224.987 130.898 224.888C130.93 224.788 130.94 224.683 130.929 224.579L130.633 222.145C130.601 221.92 130.491 221.714 130.321 221.564C130.152 221.413 129.934 221.328 129.708 221.323H127.273C127.169 221.323 127.065 221.344 126.97 221.386C126.874 221.428 126.789 221.49 126.719 221.568C126.649 221.646 126.596 221.737 126.564 221.836C126.532 221.936 126.522 222.041 126.533 222.145L126.829 224.579C126.862 224.803 126.973 225.008 127.142 225.158C127.311 225.309 127.528 225.394 127.754 225.401Z" fill="#00796B"/>
<path opacity="0.5" d="M126.659 216.521H129.101C129.205 216.521 129.309 216.5 129.404 216.458C129.5 216.416 129.585 216.354 129.655 216.276C129.725 216.199 129.778 216.107 129.81 216.008C129.842 215.908 129.852 215.803 129.841 215.699L129.545 213.265C129.512 213.041 129.401 212.836 129.232 212.686C129.063 212.535 128.846 212.45 128.62 212.443H126.185C126.081 212.443 125.978 212.464 125.882 212.506C125.787 212.549 125.701 212.61 125.631 212.688C125.561 212.766 125.509 212.857 125.477 212.957C125.445 213.056 125.434 213.161 125.445 213.265L125.741 215.699C125.773 215.923 125.882 216.127 126.05 216.278C126.218 216.428 126.434 216.514 126.659 216.521Z" fill="white"/>
<path opacity="0.5" d="M127.754 225.401H130.189C130.293 225.401 130.397 225.38 130.492 225.338C130.588 225.295 130.673 225.234 130.743 225.156C130.813 225.078 130.866 224.987 130.898 224.888C130.93 224.788 130.94 224.683 130.929 224.579L130.633 222.145C130.601 221.92 130.491 221.714 130.321 221.564C130.152 221.413 129.934 221.328 129.708 221.323H127.273C127.169 221.323 127.065 221.344 126.97 221.386C126.874 221.428 126.789 221.49 126.719 221.568C126.649 221.646 126.596 221.737 126.564 221.836C126.532 221.936 126.522 222.041 126.533 222.145L126.829 224.579C126.862 224.803 126.973 225.008 127.142 225.158C127.311 225.309 127.528 225.394 127.754 225.401Z" fill="white"/>
<path d="M138.447 93.5027H148.067L146.587 89.8841C146.106 88.7445 147.12 87.6641 148.63 87.6641H157.998C159.478 87.6641 160.714 88.7667 160.433 89.8841L159.545 93.5027H169.165C170.596 93.5261 171.969 94.074 173.023 95.0424C174.078 96.0108 174.74 97.3324 174.885 98.7567L175.625 107.2C175.667 107.586 175.626 107.977 175.506 108.346C175.385 108.715 175.187 109.055 174.926 109.342C174.664 109.629 174.344 109.857 173.988 110.01C173.631 110.164 173.246 110.241 172.857 110.234H137.685C136.86 110.218 136.07 109.901 135.463 109.342C134.856 108.783 134.475 108.021 134.392 107.2L133.652 98.7567C133.578 98.0876 133.648 97.4105 133.857 96.7705C134.065 96.1306 134.408 95.5424 134.861 95.0452C135.315 94.548 135.87 94.1533 136.488 93.8873C137.106 93.6213 137.774 93.4902 138.447 93.5027Z" fill="#00796B"/>
<path opacity="0.2" d="M159.545 93.5023H148.052L147.157 91.3711H160.07L159.545 93.5023Z" fill="black"/>
<path d="M167.285 105.173C167.33 105.615 167.536 106.026 167.863 106.327C168.19 106.628 168.616 106.799 169.061 106.808C169.269 106.809 169.475 106.766 169.666 106.682C169.856 106.599 170.027 106.475 170.167 106.321C170.306 106.167 170.412 105.985 170.476 105.787C170.541 105.589 170.563 105.38 170.541 105.173C170.496 104.73 170.29 104.319 169.963 104.018C169.636 103.717 169.21 103.546 168.765 103.537C168.557 103.536 168.351 103.579 168.16 103.663C167.97 103.747 167.799 103.87 167.659 104.024C167.52 104.178 167.414 104.36 167.35 104.558C167.285 104.756 167.263 104.966 167.285 105.173Z" fill="#263238"/>
<path d="M139.084 105.173C139.13 105.616 139.338 106.026 139.666 106.328C139.994 106.629 140.421 106.8 140.867 106.808C141.075 106.809 141.281 106.766 141.472 106.682C141.662 106.599 141.833 106.475 141.973 106.321C142.112 106.167 142.218 105.985 142.282 105.787C142.347 105.589 142.369 105.38 142.347 105.173C142.303 104.729 142.098 104.318 141.771 104.016C141.443 103.715 141.016 103.544 140.571 103.537C140.362 103.535 140.155 103.577 139.964 103.66C139.773 103.744 139.601 103.867 139.461 104.021C139.32 104.176 139.214 104.358 139.149 104.557C139.084 104.755 139.062 104.965 139.084 105.173Z" fill="#263238"/>
<path d="M201.318 238.609L157.806 247.119C157.322 247.231 156.821 247.239 156.334 247.142C155.848 247.046 155.387 246.848 154.983 246.56C154.579 246.273 154.24 245.903 153.989 245.475C153.739 245.047 153.582 244.571 153.528 244.078L152.788 237.462C152.703 236.415 153.006 235.374 153.639 234.536C154.272 233.698 155.192 233.122 156.222 232.918L199.734 224.408C200.218 224.297 200.719 224.289 201.206 224.385C201.693 224.481 202.154 224.68 202.559 224.967C202.964 225.254 203.303 225.624 203.555 226.052C203.806 226.48 203.964 226.956 204.019 227.45L204.759 234.065C204.844 235.113 204.54 236.156 203.905 236.994C203.27 237.832 202.349 238.407 201.318 238.609ZM156.348 234.021C155.618 234.166 154.966 234.573 154.518 235.167C154.069 235.76 153.854 236.498 153.913 237.24L154.653 243.856C154.691 244.205 154.803 244.543 154.981 244.846C155.159 245.149 155.399 245.411 155.686 245.615C155.973 245.818 156.299 245.958 156.644 246.026C156.989 246.094 157.345 246.089 157.687 246.009L201.192 237.506C201.923 237.362 202.576 236.953 203.025 236.358C203.474 235.763 203.688 235.023 203.626 234.28L202.886 227.664C202.848 227.316 202.737 226.979 202.559 226.677C202.382 226.375 202.142 226.113 201.856 225.911C201.57 225.708 201.244 225.568 200.9 225.5C200.556 225.433 200.201 225.439 199.86 225.518L156.348 234.021Z" fill="#00796B"/>
<path d="M162.512 240.297L160.292 240.726L159.981 241.806L158.864 242.028L160.455 236.967L161.535 236.752L164.17 240.985L163.015 241.214L162.512 240.297ZM162.075 239.557L161.128 237.921L160.573 239.853L162.075 239.557Z" fill="#00796B"/>
<path d="M167.322 235.834C167.627 235.894 167.904 236.054 168.109 236.288C168.314 236.522 168.435 236.818 168.454 237.129C168.494 237.451 168.44 237.777 168.299 238.069C168.16 238.372 167.937 238.63 167.655 238.809C167.328 239.016 166.963 239.156 166.582 239.223L165.635 239.408L165.775 240.696L164.68 240.903L164.162 236.256L166.212 235.856C166.576 235.771 166.955 235.763 167.322 235.834ZM167.152 237.987C167.23 237.901 167.288 237.799 167.321 237.687C167.355 237.576 167.362 237.458 167.344 237.343C167.341 237.232 167.309 237.123 167.252 237.028C167.195 236.932 167.115 236.852 167.019 236.796C166.787 236.689 166.526 236.666 166.279 236.729L165.383 236.907L165.568 238.52L166.456 238.342C166.722 238.301 166.966 238.174 167.152 237.98V237.987Z" fill="#00796B"/>
<path d="M172.199 234.88C172.498 234.946 172.77 235.104 172.976 235.331C173.184 235.565 173.309 235.862 173.331 236.175C173.371 236.496 173.317 236.823 173.175 237.115C173.037 237.418 172.813 237.675 172.532 237.855C172.208 238.063 171.845 238.204 171.466 238.269L170.511 238.454L170.652 239.742L169.557 239.956L169.039 235.302L171.089 234.902C171.453 234.817 171.831 234.809 172.199 234.88ZM172.028 237.033C172.107 236.947 172.164 236.845 172.198 236.733C172.231 236.622 172.239 236.504 172.221 236.389C172.217 236.278 172.186 236.169 172.129 236.074C172.072 235.978 171.991 235.898 171.895 235.842C171.663 235.739 171.402 235.715 171.155 235.775L170.26 235.953L170.445 237.566L171.333 237.388C171.598 237.351 171.843 237.226 172.028 237.033Z" fill="#00796B"/>
<path d="M177.46 238.395L176.402 237.277H176.343L175.395 237.462L175.536 238.757L174.441 238.972L173.923 234.325L175.973 233.925C176.34 233.84 176.722 233.84 177.09 233.925C177.389 233.989 177.66 234.144 177.867 234.369C178.069 234.607 178.191 234.902 178.215 235.213C178.255 235.537 178.201 235.866 178.059 236.16C177.915 236.462 177.69 236.718 177.408 236.9L178.629 238.188L177.46 238.395ZM176.779 234.887C176.547 234.784 176.285 234.763 176.039 234.828L175.144 234.998L175.329 236.619L176.217 236.449C176.497 236.415 176.758 236.287 176.957 236.086C177.037 236.001 177.097 235.899 177.13 235.787C177.164 235.675 177.17 235.557 177.149 235.442C177.142 235.324 177.103 235.211 177.037 235.113C176.97 235.015 176.879 234.937 176.772 234.887H176.779Z" fill="#00796B"/>
<path d="M180.339 237.595C179.935 237.47 179.578 237.227 179.314 236.898C179.05 236.568 178.892 236.166 178.859 235.745C178.805 235.303 178.874 234.855 179.058 234.45C179.242 234.038 179.527 233.679 179.887 233.407C180.269 233.119 180.712 232.923 181.182 232.837C181.631 232.741 182.096 232.759 182.536 232.889C182.935 233.013 183.29 233.249 183.558 233.569C183.83 233.902 183.995 234.31 184.031 234.739C184.085 235.181 184.016 235.629 183.831 236.034C183.645 236.444 183.36 236.802 183.003 237.077C182.623 237.364 182.182 237.559 181.715 237.647C181.259 237.745 180.786 237.727 180.339 237.595ZM182.337 236.389C182.542 236.222 182.703 236.005 182.803 235.76C182.907 235.505 182.945 235.227 182.914 234.953C182.889 234.686 182.792 234.43 182.633 234.213C182.484 234.018 182.28 233.871 182.048 233.791C181.795 233.706 181.524 233.691 181.264 233.747C180.993 233.798 180.738 233.915 180.524 234.087C180.313 234.252 180.15 234.469 180.05 234.716C179.948 234.972 179.912 235.25 179.946 235.523C179.969 235.79 180.064 236.046 180.22 236.263C180.371 236.459 180.577 236.606 180.812 236.685C181.051 236.764 181.306 236.78 181.552 236.729C181.839 236.686 182.109 236.569 182.337 236.389Z" fill="#00796B"/>
<path d="M188.974 231.395L187.45 236.441L186.37 236.656L183.809 232.401L184.993 232.172L186.799 235.213L187.887 231.609L188.974 231.395Z" fill="#00796B"/>
<path d="M193.451 234.384L193.548 235.25L189.885 235.99L189.367 231.335L192.941 230.64L193.037 231.505L190.551 231.986L190.662 233L192.882 232.571L192.978 233.407L190.758 233.836L190.876 234.909L193.451 234.384Z" fill="#00796B"/>
<path d="M193.903 230.432L196.049 230.011C196.506 229.9 196.983 229.9 197.44 230.011C197.835 230.114 198.189 230.336 198.454 230.647C198.718 230.978 198.878 231.38 198.913 231.801C198.971 232.24 198.904 232.686 198.72 233.089C198.539 233.489 198.252 233.831 197.891 234.081C197.498 234.364 197.045 234.554 196.567 234.636L194.421 235.057L193.903 230.432ZM196.411 233.785C196.836 233.722 197.223 233.506 197.499 233.178C197.625 233.018 197.717 232.835 197.77 232.64C197.823 232.444 197.837 232.239 197.81 232.038C197.799 231.846 197.745 231.659 197.651 231.492C197.558 231.324 197.427 231.179 197.27 231.069C197.094 230.965 196.9 230.897 196.698 230.869C196.496 230.841 196.29 230.854 196.093 230.906L195.094 231.098L195.412 233.984L196.411 233.785Z" fill="#00796B"/>
</g>
<defs>
<clipPath id="clip0_169_9758">
<rect width="312" height="273" fill="white"/>
</clipPath>
</defs>
</svg>
