<svg width="60" height="60" viewBox="0 0 60 60" fill="none" xmlns="http://www.w3.org/2000/svg">
<g clip-path="url(#clip0_169_15599)">
<path d="M30 2.10938C36.4347 2.11317 42.6702 4.34123 47.6502 8.41608C52.6302 12.4909 56.0485 18.162 57.3259 24.4686C58.6034 30.7752 57.6614 37.3295 54.6597 43.0211C51.658 48.7127 46.781 53.1917 40.8551 55.6992C37.4802 57.1247 33.8576 57.8715 30.1941 57.897C26.5306 57.9225 22.898 57.2262 19.5036 55.8478C12.6483 53.064 7.17973 47.6709 4.30078 40.8551C1.42184 34.0392 1.36839 26.3589 4.15221 19.5036C6.93603 12.6483 12.3291 7.17973 19.1449 4.30078C22.5789 2.84715 26.271 2.10179 30 2.10938ZM30 0C13.432 0 0 13.432 0 30C0 46.568 13.432 60 30 60C46.568 60 60 46.568 60 30C60 13.432 46.568 0 30 0Z" fill="#00796B"/>
<path d="M30 2.10938C36.4347 2.11317 42.6702 4.34123 47.6502 8.41608C52.6302 12.4909 56.0485 18.162 57.3259 24.4686C58.6034 30.7752 57.6614 37.3295 54.6597 43.0211C51.658 48.7127 46.781 53.1917 40.8551 55.6992C37.4802 57.1247 33.8576 57.8715 30.1941 57.897C26.5306 57.9225 22.898 57.2262 19.5036 55.8478C12.6483 53.064 7.17973 47.6709 4.30078 40.8551C1.42184 34.0392 1.36839 26.3589 4.15221 19.5036C6.93603 12.6483 12.3291 7.17973 19.1449 4.30078C22.5789 2.84715 26.271 2.10179 30 2.10938ZM30 0C13.432 0 0 13.432 0 30C0 46.568 13.432 60 30 60C46.568 60 60 46.568 60 30C60 13.432 46.568 0 30 0Z" fill="url(#paint0_linear_169_15599)" fill-opacity="0.12"/>
<path d="M37.2201 12.1875H22.7802C20.7971 12.1875 19.188 13.7965 19.188 15.7797V24.1219H16.9793C15.863 24.1219 14.9604 25.0303 14.9604 26.1466V33.8534C14.9604 34.9697 15.863 35.8781 16.9793 35.8781H19.188V44.2203C19.188 46.2034 20.7971 47.8125 22.7802 47.8125H37.2201C39.2033 47.8125 40.8123 46.2034 40.8123 44.2203V35.8781H43.0211C44.1374 35.8781 45.0399 34.9697 45.0399 33.8534V26.1466C45.0399 25.0303 44.1374 24.1219 43.0211 24.1219H40.8123V15.7797C40.8123 13.7965 39.2033 12.1875 37.2201 12.1875ZM27.4946 15.0434H31.6508C31.9774 15.0434 32.2446 15.3106 32.2446 15.6372C32.2446 15.9697 31.9774 16.2309 31.6508 16.2309H27.4946C27.168 16.2309 26.9008 15.9697 26.9008 15.6372C26.9008 15.3106 27.168 15.0434 27.4946 15.0434ZM32.5058 44.9566H27.4946C27.162 44.9566 26.9008 44.6894 26.9008 44.3628C26.9008 44.0303 27.162 43.7691 27.4946 43.7691H32.5058C32.8383 43.7691 33.0995 44.0303 33.0995 44.3628C33.0995 44.6894 32.8383 44.9566 32.5058 44.9566ZM43.8524 26.1466V33.8534C43.8524 34.3165 43.4783 34.6906 43.0211 34.6906H16.9793C16.5221 34.6906 16.1479 34.3165 16.1479 33.8534V26.1466C16.1479 25.6834 16.5221 25.3094 16.9793 25.3094H43.0211C43.4783 25.3094 43.8524 25.6834 43.8524 26.1466Z" fill="#00796B"/>
<path d="M37.2201 12.1875H22.7802C20.7971 12.1875 19.188 13.7965 19.188 15.7797V24.1219H16.9793C15.863 24.1219 14.9604 25.0303 14.9604 26.1466V33.8534C14.9604 34.9697 15.863 35.8781 16.9793 35.8781H19.188V44.2203C19.188 46.2034 20.7971 47.8125 22.7802 47.8125H37.2201C39.2033 47.8125 40.8123 46.2034 40.8123 44.2203V35.8781H43.0211C44.1374 35.8781 45.0399 34.9697 45.0399 33.8534V26.1466C45.0399 25.0303 44.1374 24.1219 43.0211 24.1219H40.8123V15.7797C40.8123 13.7965 39.2033 12.1875 37.2201 12.1875ZM27.4946 15.0434H31.6508C31.9774 15.0434 32.2446 15.3106 32.2446 15.6372C32.2446 15.9697 31.9774 16.2309 31.6508 16.2309H27.4946C27.168 16.2309 26.9008 15.9697 26.9008 15.6372C26.9008 15.3106 27.168 15.0434 27.4946 15.0434ZM32.5058 44.9566H27.4946C27.162 44.9566 26.9008 44.6894 26.9008 44.3628C26.9008 44.0303 27.162 43.7691 27.4946 43.7691H32.5058C32.8383 43.7691 33.0995 44.0303 33.0995 44.3628C33.0995 44.6894 32.8383 44.9566 32.5058 44.9566ZM43.8524 26.1466V33.8534C43.8524 34.3165 43.4783 34.6906 43.0211 34.6906H16.9793C16.5221 34.6906 16.1479 34.3165 16.1479 33.8534V26.1466C16.1479 25.6834 16.5221 25.3094 16.9793 25.3094H43.0211C43.4783 25.3094 43.8524 25.6834 43.8524 26.1466Z" fill="url(#paint1_linear_169_15599)" fill-opacity="0.12"/>
<path d="M22.8778 28.7204C22.7114 28.4386 22.3479 28.3449 22.0643 28.5122L21.3123 28.9579V28.084C21.3123 27.7561 21.0467 27.4902 20.7185 27.4902C20.3904 27.4902 20.1248 27.7561 20.1248 28.084V28.9575L19.3733 28.5122C19.0904 28.3449 18.7268 28.4386 18.5598 28.7204C18.3928 29.0024 18.4856 29.3666 18.768 29.5339L19.5542 29.9998L18.768 30.4657C18.4856 30.6329 18.3928 30.9971 18.5598 31.2792C18.6706 31.4664 18.8683 31.5702 19.0712 31.5702C19.1739 31.5702 19.2782 31.5436 19.3733 31.4873L20.1248 31.042V31.9155C20.1248 32.2434 20.3904 32.5093 20.7185 32.5093C21.0467 32.5093 21.3123 32.2434 21.3123 31.9155V31.0416L22.0643 31.4873C22.1594 31.5436 22.2638 31.5702 22.3664 31.5702C22.5694 31.5702 22.7671 31.4664 22.8778 31.2792C23.0448 30.9971 22.9521 30.6329 22.6697 30.4657L21.8835 29.9998L22.6697 29.5339C22.9521 29.3666 23.0448 29.0024 22.8778 28.7204Z" fill="#00796B"/>
<path d="M22.8778 28.7204C22.7114 28.4386 22.3479 28.3449 22.0643 28.5122L21.3123 28.9579V28.084C21.3123 27.7561 21.0467 27.4902 20.7185 27.4902C20.3904 27.4902 20.1248 27.7561 20.1248 28.084V28.9575L19.3733 28.5122C19.0904 28.3449 18.7268 28.4386 18.5598 28.7204C18.3928 29.0024 18.4856 29.3666 18.768 29.5339L19.5542 29.9998L18.768 30.4657C18.4856 30.6329 18.3928 30.9971 18.5598 31.2792C18.6706 31.4664 18.8683 31.5702 19.0712 31.5702C19.1739 31.5702 19.2782 31.5436 19.3733 31.4873L20.1248 31.042V31.9155C20.1248 32.2434 20.3904 32.5093 20.7185 32.5093C21.0467 32.5093 21.3123 32.2434 21.3123 31.9155V31.0416L22.0643 31.4873C22.1594 31.5436 22.2638 31.5702 22.3664 31.5702C22.5694 31.5702 22.7671 31.4664 22.8778 31.2792C23.0448 30.9971 22.9521 30.6329 22.6697 30.4657L21.8835 29.9998L22.6697 29.5339C22.9521 29.3666 23.0448 29.0024 22.8778 28.7204Z" fill="url(#paint2_linear_169_15599)" fill-opacity="0.12"/>
<path d="M29.0653 28.7204C28.8989 28.4386 28.5354 28.3449 28.2518 28.5122L27.4998 28.9579V28.084C27.4998 27.7561 27.2342 27.4902 26.906 27.4902C26.5779 27.4902 26.3123 27.7561 26.3123 28.084V28.9575L25.5608 28.5122C25.2779 28.3449 24.9143 28.4386 24.7473 28.7204C24.5803 29.0024 24.6731 29.3666 24.9555 29.5339L25.7417 29.9998L24.9555 30.4657C24.6731 30.6329 24.5803 30.9971 24.7473 31.2792C24.8581 31.4664 25.0558 31.5702 25.2587 31.5702C25.3614 31.5702 25.4657 31.5436 25.5608 31.4873L26.3123 31.042V31.9155C26.3123 32.2434 26.5779 32.5093 26.906 32.5093C27.2342 32.5093 27.4998 32.2434 27.4998 31.9155V31.0416L28.2518 31.4873C28.3469 31.5436 28.4513 31.5702 28.5539 31.5702C28.7569 31.5702 28.9546 31.4664 29.0653 31.2792C29.2323 30.9971 29.1396 30.6329 28.8572 30.4657L28.071 29.9998L28.8572 29.5339C29.1396 29.3666 29.2323 29.0024 29.0653 28.7204Z" fill="#00796B"/>
<path d="M29.0653 28.7204C28.8989 28.4386 28.5354 28.3449 28.2518 28.5122L27.4998 28.9579V28.084C27.4998 27.7561 27.2342 27.4902 26.906 27.4902C26.5779 27.4902 26.3123 27.7561 26.3123 28.084V28.9575L25.5608 28.5122C25.2779 28.3449 24.9143 28.4386 24.7473 28.7204C24.5803 29.0024 24.6731 29.3666 24.9555 29.5339L25.7417 29.9998L24.9555 30.4657C24.6731 30.6329 24.5803 30.9971 24.7473 31.2792C24.8581 31.4664 25.0558 31.5702 25.2587 31.5702C25.3614 31.5702 25.4657 31.5436 25.5608 31.4873L26.3123 31.042V31.9155C26.3123 32.2434 26.5779 32.5093 26.906 32.5093C27.2342 32.5093 27.4998 32.2434 27.4998 31.9155V31.0416L28.2518 31.4873C28.3469 31.5436 28.4513 31.5702 28.5539 31.5702C28.7569 31.5702 28.9546 31.4664 29.0653 31.2792C29.2323 30.9971 29.1396 30.6329 28.8572 30.4657L28.071 29.9998L28.8572 29.5339C29.1396 29.3666 29.2323 29.0024 29.0653 28.7204Z" fill="url(#paint3_linear_169_15599)" fill-opacity="0.12"/>
<path d="M35.2526 28.7204C35.0862 28.4386 34.7226 28.3449 34.4391 28.5122L33.6876 28.9575V28.084C33.6876 27.7561 33.4221 27.4902 33.0939 27.4902C32.7657 27.4902 32.5001 27.7561 32.5001 28.084V28.9579L31.7481 28.5122C31.4651 28.3449 31.1016 28.4386 30.9346 28.7204C30.7676 29.0024 30.8604 29.3666 31.1427 29.5339L31.9289 29.9998L31.1427 30.4657C30.8604 30.6329 30.7676 30.9971 30.9346 31.2792C31.0453 31.4664 31.243 31.5702 31.446 31.5702C31.5486 31.5702 31.653 31.5436 31.7481 31.4873L32.5001 31.0416V31.9155C32.5001 32.2434 32.7657 32.5093 33.0939 32.5093C33.4221 32.5093 33.6876 32.2434 33.6876 31.9155V31.042L34.4391 31.4873C34.5342 31.5436 34.6386 31.5702 34.7412 31.5702C34.9441 31.5702 35.1418 31.4664 35.2526 31.2792C35.4196 30.9971 35.3268 30.6329 35.0444 30.4657L34.2583 29.9998L35.0444 29.5339C35.3268 29.3666 35.4196 29.0024 35.2526 28.7204Z" fill="#00796B"/>
<path d="M35.2526 28.7204C35.0862 28.4386 34.7226 28.3449 34.4391 28.5122L33.6876 28.9575V28.084C33.6876 27.7561 33.4221 27.4902 33.0939 27.4902C32.7657 27.4902 32.5001 27.7561 32.5001 28.084V28.9579L31.7481 28.5122C31.4651 28.3449 31.1016 28.4386 30.9346 28.7204C30.7676 29.0024 30.8604 29.3666 31.1427 29.5339L31.9289 29.9998L31.1427 30.4657C30.8604 30.6329 30.7676 30.9971 30.9346 31.2792C31.0453 31.4664 31.243 31.5702 31.446 31.5702C31.5486 31.5702 31.653 31.5436 31.7481 31.4873L32.5001 31.0416V31.9155C32.5001 32.2434 32.7657 32.5093 33.0939 32.5093C33.4221 32.5093 33.6876 32.2434 33.6876 31.9155V31.042L34.4391 31.4873C34.5342 31.5436 34.6386 31.5702 34.7412 31.5702C34.9441 31.5702 35.1418 31.4664 35.2526 31.2792C35.4196 30.9971 35.3268 30.6329 35.0444 30.4657L34.2583 29.9998L35.0444 29.5339C35.3268 29.3666 35.4196 29.0024 35.2526 28.7204Z" fill="url(#paint4_linear_169_15599)" fill-opacity="0.12"/>
<path d="M39.8751 28.084C39.8751 27.7561 39.6096 27.4902 39.2814 27.4902C38.9532 27.4902 38.6876 27.7561 38.6876 28.084V28.9579L37.9356 28.5122C37.6526 28.3449 37.2891 28.4386 37.1221 28.7204C36.9551 29.0024 37.0479 29.3666 37.3302 29.5339L38.1164 29.9998L37.3302 30.4657C37.0479 30.6329 36.9551 30.9971 37.1221 31.2792C37.2328 31.4664 37.4305 31.5702 37.6335 31.5702C37.7361 31.5702 37.8405 31.5436 37.9356 31.4873L38.6876 31.0416V31.9155C38.6876 32.2434 38.9532 32.5093 39.2814 32.5093C39.6096 32.5093 39.8751 32.2434 39.8751 31.9155V31.042L40.6266 31.4873C40.7217 31.5436 40.8261 31.5702 40.9287 31.5702C41.1316 31.5702 41.3293 31.4664 41.4401 31.2792C41.6071 30.9971 41.5143 30.6329 41.2319 30.4657L40.4458 29.9998L41.2319 29.5339C41.5143 29.3666 41.6071 29.0024 41.4401 28.7204C41.2737 28.4386 40.9101 28.3449 40.6266 28.5122L39.8751 28.9575V28.084Z" fill="#00796B"/>
<path d="M39.8751 28.084C39.8751 27.7561 39.6096 27.4902 39.2814 27.4902C38.9532 27.4902 38.6876 27.7561 38.6876 28.084V28.9579L37.9356 28.5122C37.6526 28.3449 37.2891 28.4386 37.1221 28.7204C36.9551 29.0024 37.0479 29.3666 37.3302 29.5339L38.1164 29.9998L37.3302 30.4657C37.0479 30.6329 36.9551 30.9971 37.1221 31.2792C37.2328 31.4664 37.4305 31.5702 37.6335 31.5702C37.7361 31.5702 37.8405 31.5436 37.9356 31.4873L38.6876 31.0416V31.9155C38.6876 32.2434 38.9532 32.5093 39.2814 32.5093C39.6096 32.5093 39.8751 32.2434 39.8751 31.9155V31.042L40.6266 31.4873C40.7217 31.5436 40.8261 31.5702 40.9287 31.5702C41.1316 31.5702 41.3293 31.4664 41.4401 31.2792C41.6071 30.9971 41.5143 30.6329 41.2319 30.4657L40.4458 29.9998L41.2319 29.5339C41.5143 29.3666 41.6071 29.0024 41.4401 28.7204C41.2737 28.4386 40.9101 28.3449 40.6266 28.5122L39.8751 28.9575V28.084Z" fill="url(#paint5_linear_169_15599)" fill-opacity="0.12"/>
</g>
<defs>
<linearGradient id="paint0_linear_169_15599" x1="30" y1="0" x2="30" y2="60" gradientUnits="userSpaceOnUse">
<stop stop-color="white"/>
<stop offset="1" stop-color="white" stop-opacity="0"/>
</linearGradient>
<linearGradient id="paint1_linear_169_15599" x1="30.0002" y1="12.1875" x2="30.0002" y2="47.8125" gradientUnits="userSpaceOnUse">
<stop stop-color="white"/>
<stop offset="1" stop-color="white" stop-opacity="0"/>
</linearGradient>
<linearGradient id="paint2_linear_169_15599" x1="20.7188" y1="27.4902" x2="20.7188" y2="32.5093" gradientUnits="userSpaceOnUse">
<stop stop-color="white"/>
<stop offset="1" stop-color="white" stop-opacity="0"/>
</linearGradient>
<linearGradient id="paint3_linear_169_15599" x1="26.9063" y1="27.4902" x2="26.9063" y2="32.5093" gradientUnits="userSpaceOnUse">
<stop stop-color="white"/>
<stop offset="1" stop-color="white" stop-opacity="0"/>
</linearGradient>
<linearGradient id="paint4_linear_169_15599" x1="33.0936" y1="27.4902" x2="33.0936" y2="32.5093" gradientUnits="userSpaceOnUse">
<stop stop-color="white"/>
<stop offset="1" stop-color="white" stop-opacity="0"/>
</linearGradient>
<linearGradient id="paint5_linear_169_15599" x1="39.2811" y1="27.4902" x2="39.2811" y2="32.5093" gradientUnits="userSpaceOnUse">
<stop stop-color="white"/>
<stop offset="1" stop-color="white" stop-opacity="0"/>
</linearGradient>
<clipPath id="clip0_169_15599">
<rect width="60" height="60" fill="white"/>
</clipPath>
</defs>
</svg>
