<svg width="25" height="24" viewBox="0 0 25 24" fill="none" xmlns="http://www.w3.org/2000/svg">
<path d="M6.29026 14V14.1097H6.39995H13.7125C14.1669 14.1097 14.5884 14.21 14.9786 14.4101C15.3689 14.6102 15.697 14.8944 15.9635 15.2641L15.9635 15.2641L15.9645 15.2655L18.012 18.0155L18.2096 18.281V17.95V4V3.89031H18.1H6.39995H6.29026V4V14ZM6.29026 20V20.1097H6.39995H17.1737H17.3919L17.2617 19.9346L14.6054 16.3603C14.6053 16.3601 14.6052 16.36 14.6051 16.3598C14.4985 16.2143 14.3687 16.0992 14.2157 16.0161C14.061 15.9321 13.8926 15.8903 13.7125 15.8903H6.39995H6.29026V16V20ZM8.45964 11.8903V10.1097H16.0403V11.8903H8.45964ZM8.45964 7.89031V6.10969H16.0403V7.89031H8.45964ZM18.1 21.8903H6.39995C5.89394 21.8903 5.463 21.7069 5.1013 21.3359C4.73952 20.9649 4.55964 20.5216 4.55964 20V4C4.55964 3.47844 4.73952 3.03513 5.1013 2.66407C5.463 2.2931 5.89394 2.10969 6.39995 2.10969H18.1C18.606 2.10969 19.0369 2.2931 19.3986 2.66407C19.7604 3.03513 19.9403 3.47844 19.9403 4V20C19.9403 20.5216 19.7604 20.9649 19.3986 21.3359C19.0369 21.7069 18.606 21.8903 18.1 21.8903Z" fill="#6C7278" stroke="white" stroke-width="0.219375"/>
</svg>
