<svg width="25" height="24" viewBox="0 0 25 24" fill="none" xmlns="http://www.w3.org/2000/svg">
<path d="M8.75 12H16.75V10H8.75V12ZM8.75 8H16.75V6H8.75V8ZM20.7 20.475L16.65 15.2C16.3667 14.8167 16.0167 14.5208 15.6 14.3125C15.1833 14.1042 14.7333 14 14.25 14H4.75V4C4.75 3.45 4.94583 2.97917 5.3375 2.5875C5.72917 2.19583 6.2 2 6.75 2H18.75C19.3 2 19.7708 2.19583 20.1625 2.5875C20.5542 2.97917 20.75 3.45 20.75 4V20C20.75 20.0833 20.7458 20.1625 20.7375 20.2375C20.7292 20.3125 20.7167 20.3917 20.7 20.475ZM6.75 22C6.2 22 5.72917 21.8042 5.3375 21.4125C4.94583 21.0208 4.75 20.55 4.75 20V16H14.25C14.4167 16 14.5708 16.0375 14.7125 16.1125C14.8542 16.1875 14.975 16.2917 15.075 16.425L19.275 21.925C19.1917 21.9583 19.1042 21.9792 19.0125 21.9875C18.9208 21.9958 18.8333 22 18.75 22H6.75Z" fill="#00796B"/>
<path d="M8.75 12H16.75V10H8.75V12ZM8.75 8H16.75V6H8.75V8ZM20.7 20.475L16.65 15.2C16.3667 14.8167 16.0167 14.5208 15.6 14.3125C15.1833 14.1042 14.7333 14 14.25 14H4.75V4C4.75 3.45 4.94583 2.97917 5.3375 2.5875C5.72917 2.19583 6.2 2 6.75 2H18.75C19.3 2 19.7708 2.19583 20.1625 2.5875C20.5542 2.97917 20.75 3.45 20.75 4V20C20.75 20.0833 20.7458 20.1625 20.7375 20.2375C20.7292 20.3125 20.7167 20.3917 20.7 20.475ZM6.75 22C6.2 22 5.72917 21.8042 5.3375 21.4125C4.94583 21.0208 4.75 20.55 4.75 20V16H14.25C14.4167 16 14.5708 16.0375 14.7125 16.1125C14.8542 16.1875 14.975 16.2917 15.075 16.425L19.275 21.925C19.1917 21.9583 19.1042 21.9792 19.0125 21.9875C18.9208 21.9958 18.8333 22 18.75 22H6.75Z" fill="url(#paint0_linear_1201_12565)" fill-opacity="0.12"/>
<defs>
<linearGradient id="paint0_linear_1201_12565" x1="12.75" y1="2" x2="12.75" y2="22" gradientUnits="userSpaceOnUse">
<stop stop-color="white"/>
<stop offset="1" stop-color="white" stop-opacity="0"/>
</linearGradient>
</defs>
</svg>
