<svg width="24" height="25" viewBox="0 0 24 25" fill="none" xmlns="http://www.w3.org/2000/svg">
<path d="M20.5603 10.689L13.0603 3.18899C12.779 2.9079 12.3976 2.75 12 2.75C11.6023 2.75 11.221 2.9079 10.9397 3.18899L3.43968 10.689C3.29972 10.8279 3.18877 10.9933 3.11328 11.1755C3.0378 11.3577 2.99929 11.553 2.99999 11.7502V20.7502C2.99999 20.9492 3.07901 21.1399 3.21966 21.2806C3.36032 21.4212 3.55108 21.5002 3.74999 21.5002H9.74999C9.94891 21.5002 10.1397 21.4212 10.2803 21.2806C10.421 21.1399 10.5 20.9492 10.5 20.7502V15.5002H13.5V20.7502C13.5 20.9492 13.579 21.1399 13.7197 21.2806C13.8603 21.4212 14.0511 21.5002 14.25 21.5002H20.25C20.4489 21.5002 20.6397 21.4212 20.7803 21.2806C20.921 21.1399 21 20.9492 21 20.7502V11.7502C21.0007 11.553 20.9622 11.3577 20.8867 11.1755C20.8112 10.9933 20.7003 10.8279 20.5603 10.689Z" fill="#00796B"/>
<path d="M20.5603 10.689L13.0603 3.18899C12.779 2.9079 12.3976 2.75 12 2.75C11.6023 2.75 11.221 2.9079 10.9397 3.18899L3.43968 10.689C3.29972 10.8279 3.18877 10.9933 3.11328 11.1755C3.0378 11.3577 2.99929 11.553 2.99999 11.7502V20.7502C2.99999 20.9492 3.07901 21.1399 3.21966 21.2806C3.36032 21.4212 3.55108 21.5002 3.74999 21.5002H9.74999C9.94891 21.5002 10.1397 21.4212 10.2803 21.2806C10.421 21.1399 10.5 20.9492 10.5 20.7502V15.5002H13.5V20.7502C13.5 20.9492 13.579 21.1399 13.7197 21.2806C13.8603 21.4212 14.0511 21.5002 14.25 21.5002H20.25C20.4489 21.5002 20.6397 21.4212 20.7803 21.2806C20.921 21.1399 21 20.9492 21 20.7502V11.7502C21.0007 11.553 20.9622 11.3577 20.8867 11.1755C20.8112 10.9933 20.7003 10.8279 20.5603 10.689Z" fill="url(#paint0_linear_385_5096)" fill-opacity="0.12"/>
<defs>
<linearGradient id="paint0_linear_385_5096" x1="12" y1="2.75" x2="12" y2="21.5002" gradientUnits="userSpaceOnUse">
<stop stop-color="white"/>
<stop offset="1" stop-color="white" stop-opacity="0"/>
</linearGradient>
</defs>
</svg>
