<svg width="25" height="25" viewBox="0 0 25 25" fill="none" xmlns="http://www.w3.org/2000/svg">
<path d="M21.4908 10.9681L13.4909 2.96825C13.1909 2.66842 12.7841 2.5 12.3599 2.5C11.9357 2.5 11.5289 2.66842 11.2289 2.96825L3.22901 10.9681C3.07972 11.1163 2.96138 11.2927 2.88086 11.4871C2.80035 11.6814 2.75927 11.8898 2.76002 12.1001V21.7C2.76002 21.9122 2.8443 22.1157 2.99433 22.2657C3.14436 22.4157 3.34784 22.5 3.56001 22.5H9.95993C10.1721 22.5 10.3756 22.4157 10.5256 22.2657C10.6756 22.1157 10.7599 21.9122 10.7599 21.7V16.1001H13.9599V21.7C13.9599 21.9122 14.0442 22.1157 14.1942 22.2657C14.3442 22.4157 14.5477 22.5 14.7599 22.5H21.1598C21.372 22.5 21.5754 22.4157 21.7255 22.2657C21.8755 22.1157 21.9598 21.9122 21.9598 21.7V12.1001C21.9605 11.8898 21.9194 11.6814 21.8389 11.4871C21.7584 11.2927 21.6401 11.1163 21.4908 10.9681ZM20.3598 20.9H15.5599V15.3001C15.5599 15.0879 15.4756 14.8844 15.3255 14.7344C15.1755 14.5844 14.972 14.5001 14.7599 14.5001H9.95993C9.74776 14.5001 9.54428 14.5844 9.39425 14.7344C9.24422 14.8844 9.15994 15.0879 9.15994 15.3001V20.9H4.36V12.1001L12.3599 4.10024L20.3598 12.1001V20.9Z" fill="#6C7278"/>
</svg>
