<svg width="37" height="12" viewBox="0 0 37 12" fill="none" xmlns="http://www.w3.org/2000/svg">
<path d="M16.8257 7.33655C17.3419 8.29859 19.6581 8.29859 20.1743 7.33656C21.1165 5.58053 22.4944 4 24.4025 4C28.6951 4 8.30484 4 12.5975 4C14.5056 4 15.8836 5.58053 16.8257 7.33655Z" fill="#00796B"/>
<path d="M16.8257 7.33655C17.3419 8.29859 19.6581 8.29859 20.1743 7.33656C21.1165 5.58053 22.4944 4 24.4025 4C28.6951 4 8.30484 4 12.5975 4C14.5056 4 15.8836 5.58053 16.8257 7.33655Z" fill="url(#paint0_linear_367_8194)" fill-opacity="0.12"/>
<path d="M37 0L0 3.23464e-06C1.93129e-07 2.20914 1.79086 4 4 4L33 4C35.2091 4 37 2.20914 37 0Z" fill="#00796B"/>
<path d="M37 0L0 3.23464e-06C1.93129e-07 2.20914 1.79086 4 4 4L33 4C35.2091 4 37 2.20914 37 0Z" fill="url(#paint1_linear_367_8194)" fill-opacity="0.12"/>
<defs>
<linearGradient id="paint0_linear_367_8194" x1="18.5" y1="12" x2="18.5" y2="4" gradientUnits="userSpaceOnUse">
<stop stop-color="white"/>
<stop offset="1" stop-color="white" stop-opacity="0"/>
</linearGradient>
<linearGradient id="paint1_linear_367_8194" x1="18.5" y1="1.61732e-06" x2="18.5" y2="4" gradientUnits="userSpaceOnUse">
<stop stop-color="white"/>
<stop offset="1" stop-color="white" stop-opacity="0"/>
</linearGradient>
</defs>
</svg>
