<svg width="25" height="24" viewBox="0 0 25 24" fill="none" xmlns="http://www.w3.org/2000/svg">
<path d="M21.5438 16.6102C21.0235 15.691 20.25 13.0899 20.25 9.69264C20.25 7.65242 19.4598 5.69577 18.0533 4.25312C16.6468 2.81047 14.7391 2 12.75 2C10.7609 2 8.85324 2.81047 7.44671 4.25312C6.04019 5.69577 5.25001 7.65242 5.25001 9.69264C5.25001 13.0909 4.47564 15.691 3.95532 16.6102C3.82245 16.844 3.75201 17.1095 3.75111 17.38C3.7502 17.6505 3.81886 17.9165 3.95017 18.1512C4.08147 18.3858 4.27077 18.5808 4.49899 18.7164C4.7272 18.8521 4.98625 18.9236 5.25001 18.9238H9.07595C9.24899 19.7923 9.70916 20.5728 10.3786 21.1333C11.0481 21.6938 11.8858 22 12.75 22C13.6142 22 14.4519 21.6938 15.1214 21.1333C15.7909 20.5728 16.251 19.7923 16.4241 18.9238H20.25C20.5137 18.9234 20.7726 18.8518 21.0007 18.7161C21.2288 18.5804 21.418 18.3854 21.5492 18.1508C21.6803 17.9161 21.7489 17.6502 21.748 17.3798C21.747 17.1093 21.6766 16.8439 21.5438 16.6102ZM12.75 20.4623C12.2848 20.4622 11.8312 20.3142 11.4514 20.0386C11.0716 19.7631 10.7844 19.3736 10.6294 18.9238H14.8706C14.7156 19.3736 14.4284 19.7631 14.0486 20.0386C13.6689 20.3142 13.2152 20.4622 12.75 20.4623Z" fill="#00796B"/>
<path d="M21.5438 16.6102C21.0235 15.691 20.25 13.0899 20.25 9.69264C20.25 7.65242 19.4598 5.69577 18.0533 4.25312C16.6468 2.81047 14.7391 2 12.75 2C10.7609 2 8.85324 2.81047 7.44671 4.25312C6.04019 5.69577 5.25001 7.65242 5.25001 9.69264C5.25001 13.0909 4.47564 15.691 3.95532 16.6102C3.82245 16.844 3.75201 17.1095 3.75111 17.38C3.7502 17.6505 3.81886 17.9165 3.95017 18.1512C4.08147 18.3858 4.27077 18.5808 4.49899 18.7164C4.7272 18.8521 4.98625 18.9236 5.25001 18.9238H9.07595C9.24899 19.7923 9.70916 20.5728 10.3786 21.1333C11.0481 21.6938 11.8858 22 12.75 22C13.6142 22 14.4519 21.6938 15.1214 21.1333C15.7909 20.5728 16.251 19.7923 16.4241 18.9238H20.25C20.5137 18.9234 20.7726 18.8518 21.0007 18.7161C21.2288 18.5804 21.418 18.3854 21.5492 18.1508C21.6803 17.9161 21.7489 17.6502 21.748 17.3798C21.747 17.1093 21.6766 16.8439 21.5438 16.6102ZM12.75 20.4623C12.2848 20.4622 11.8312 20.3142 11.4514 20.0386C11.0716 19.7631 10.7844 19.3736 10.6294 18.9238H14.8706C14.7156 19.3736 14.4284 19.7631 14.0486 20.0386C13.6689 20.3142 13.2152 20.4622 12.75 20.4623Z" fill="url(#paint0_linear_1201_12568)" fill-opacity="0.12"/>
<defs>
<linearGradient id="paint0_linear_1201_12568" x1="12.7495" y1="2" x2="12.7495" y2="22" gradientUnits="userSpaceOnUse">
<stop stop-color="white"/>
<stop offset="1" stop-color="white" stop-opacity="0"/>
</linearGradient>
</defs>
</svg>
