<svg width="25" height="25" viewBox="0 0 25 25" fill="none" xmlns="http://www.w3.org/2000/svg">
<g clip-path="url(#clip0_663_3689)">
<path d="M21.0438 17.1102C20.5235 16.191 19.75 13.5899 19.75 10.1926C19.75 8.15242 18.9598 6.19577 17.5533 4.75312C16.1468 3.31047 14.2391 2.5 12.25 2.5C10.2609 2.5 8.35323 3.31047 6.94671 4.75312C5.54019 6.19577 4.75001 8.15242 4.75001 10.1926C4.75001 13.5909 3.97564 16.191 3.45532 17.1102C3.32245 17.344 3.25201 17.6095 3.25111 17.88C3.2502 18.1505 3.31886 18.4165 3.45017 18.6512C3.58147 18.8858 3.77077 19.0808 3.99899 19.2164C4.2272 19.3521 4.48625 19.4236 4.75001 19.4238H8.57595C8.74899 20.2923 9.20916 21.0728 9.87864 21.6333C10.5481 22.1938 11.3858 22.5 12.25 22.5C13.1142 22.5 13.9519 22.1938 14.6214 21.6333C15.2909 21.0728 15.751 20.2923 15.9241 19.4238H19.75C20.0137 19.4234 20.2726 19.3518 20.5007 19.2161C20.7288 19.0804 20.918 18.8854 21.0492 18.6508C21.1803 18.4161 21.2489 18.1502 21.248 17.8798C21.247 17.6093 21.1766 17.3439 21.0438 17.1102ZM12.25 20.9623C11.7848 20.9622 11.3312 20.8142 10.9514 20.5386C10.5716 20.2631 10.2844 19.8736 10.1294 19.4238H14.3706C14.2156 19.8736 13.9284 20.2631 13.5486 20.5386C13.1689 20.8142 12.7152 20.9622 12.25 20.9623ZM4.75001 17.8853C5.47189 16.6121 6.25001 13.662 6.25001 10.1926C6.25001 8.56047 6.88215 6.99515 8.00737 5.84103C9.13259 4.68691 10.6587 4.03853 12.25 4.03853C13.8413 4.03853 15.3674 4.68691 16.4927 5.84103C17.6179 6.99515 18.25 8.56047 18.25 10.1926C18.25 13.6591 19.0263 16.6093 19.75 17.8853H4.75001Z" fill="#6C7278"/>
<circle cx="19.25" cy="5.50195" r="4.375" fill="#DA2A31" stroke="white" stroke-width="1.25"/>
</g>
<defs>
<clipPath id="clip0_663_3689">
<rect width="24" height="24" fill="white" transform="translate(0.25 0.5)"/>
</clipPath>
</defs>
</svg>
