<svg width="24" height="24" viewBox="0 0 24 24" fill="none" xmlns="http://www.w3.org/2000/svg">
<path d="M16.231 11.2308C16.231 12.0675 15.9828 12.8855 15.5179 13.5813C15.0531 14.277 14.3923 14.8193 13.6192 15.1395C12.8462 15.4597 11.9955 15.5435 11.1748 15.3802C10.3541 15.217 9.60026 14.8141 9.00858 14.2224C8.4169 13.6307 8.01396 12.8768 7.85071 12.0561C7.68747 11.2355 7.77125 10.3848 8.09147 9.61172C8.41168 8.83865 8.95395 8.17789 9.6497 7.71301C10.3454 7.24813 11.1634 7 12.0002 7C13.1219 7.00127 14.1972 7.44742 14.9904 8.24057C15.7835 9.03371 16.2297 10.1091 16.231 11.2308ZM22.0002 12C22.0002 13.9778 21.4137 15.9112 20.3149 17.5557C19.2161 19.2002 17.6543 20.4819 15.827 21.2388C13.9998 21.9957 11.9891 22.1937 10.0493 21.8078C8.10947 21.422 6.32764 20.4696 4.92912 19.0711C3.53059 17.6725 2.57819 15.8907 2.19233 13.9509C1.80648 12.0111 2.00452 10.0004 2.76139 8.17316C3.51827 6.3459 4.79999 4.78412 6.44448 3.6853C8.08898 2.58649 10.0224 2 12.0002 2C14.6515 2.0028 17.1934 3.05727 19.0682 4.93202C20.9429 6.80678 21.9974 9.34869 22.0002 12ZM20.4617 12C20.4605 10.8611 20.2296 9.73412 19.7828 8.6865C19.3361 7.63887 18.6826 6.69211 17.8615 5.90282C17.0405 5.11353 16.0687 4.49794 15.0042 4.09285C13.9398 3.68776 12.8046 3.50149 11.6665 3.54519C7.13769 3.72019 3.52615 7.49231 3.53865 12.024C3.54299 14.087 4.30386 16.0768 5.67711 17.6163C6.23636 16.8052 6.94676 16.1095 7.76942 15.5673C7.83956 15.521 7.92294 15.4989 8.00681 15.5045C8.09068 15.51 8.17043 15.5429 8.23384 15.5981C9.2792 16.5023 10.6152 16.9999 11.9973 16.9999C13.3794 16.9999 14.7154 16.5023 15.7608 15.5981C15.8242 15.5429 15.9039 15.51 15.9878 15.5045C16.0717 15.4989 16.155 15.521 16.2252 15.5673C17.0489 16.1092 17.7603 16.8049 18.3204 17.6163C19.7004 16.0712 20.4628 14.0717 20.4617 12Z" fill="#6C7278"/>
</svg>
