<svg width="25" height="24" viewBox="0 0 25 24" fill="none" xmlns="http://www.w3.org/2000/svg">
<path d="M16.981 11.2308C16.981 12.0675 16.7328 12.8855 16.2679 13.5813C15.8031 14.277 15.1423 14.8193 14.3692 15.1395C13.5962 15.4597 12.7455 15.5435 11.9248 15.3802C11.1041 15.217 10.3503 14.8141 9.75858 14.2224C9.1669 13.6307 8.76396 12.8768 8.60071 12.0561C8.43747 11.2355 8.52125 10.3848 8.84147 9.61172C9.16168 8.83865 9.70395 8.17789 10.3997 7.71301C11.0954 7.24813 11.9134 7 12.7502 7C13.8719 7.00127 14.9472 7.44742 15.7404 8.24057C16.5335 9.03371 16.9797 10.1091 16.981 11.2308ZM22.7502 12C22.7502 13.9778 22.1637 15.9112 21.0649 17.5557C19.9661 19.2002 18.4043 20.4819 16.577 21.2388C14.7498 21.9957 12.7391 22.1937 10.7993 21.8078C8.85947 21.422 7.07764 20.4696 5.67912 19.0711C4.28059 17.6725 3.32819 15.8907 2.94233 13.9509C2.55648 12.0111 2.75452 10.0004 3.51139 8.17316C4.26827 6.3459 5.54999 4.78412 7.19448 3.6853C8.83898 2.58649 10.7724 2 12.7502 2C15.4015 2.0028 17.9434 3.05727 19.8182 4.93202C21.6929 6.80678 22.7474 9.34869 22.7502 12ZM21.2117 12C21.2105 10.8611 20.9796 9.73412 20.5328 8.6865C20.0861 7.63887 19.4326 6.69211 18.6115 5.90282C17.7905 5.11353 16.8187 4.49794 15.7542 4.09285C14.6898 3.68776 13.5546 3.50149 12.4165 3.54519C7.88769 3.72019 4.27615 7.49231 4.28865 12.024C4.29299 14.087 5.05386 16.0768 6.42711 17.6163C6.98636 16.8052 7.69676 16.1095 8.51942 15.5673C8.58956 15.521 8.67294 15.4989 8.75681 15.5045C8.84068 15.51 8.92043 15.5429 8.98384 15.5981C10.0292 16.5023 11.3652 16.9999 12.7473 16.9999C14.1294 16.9999 15.4654 16.5023 16.5108 15.5981C16.5742 15.5429 16.6539 15.51 16.7378 15.5045C16.8217 15.4989 16.905 15.521 16.9752 15.5673C17.7989 16.1092 18.5103 16.8049 19.0704 17.6163C20.4504 16.0712 21.2128 14.0717 21.2117 12Z" fill="#00796B"/>
<path d="M16.981 11.2308C16.981 12.0675 16.7328 12.8855 16.2679 13.5813C15.8031 14.277 15.1423 14.8193 14.3692 15.1395C13.5962 15.4597 12.7455 15.5435 11.9248 15.3802C11.1041 15.217 10.3503 14.8141 9.75858 14.2224C9.1669 13.6307 8.76396 12.8768 8.60071 12.0561C8.43747 11.2355 8.52125 10.3848 8.84147 9.61172C9.16168 8.83865 9.70395 8.17789 10.3997 7.71301C11.0954 7.24813 11.9134 7 12.7502 7C13.8719 7.00127 14.9472 7.44742 15.7404 8.24057C16.5335 9.03371 16.9797 10.1091 16.981 11.2308ZM22.7502 12C22.7502 13.9778 22.1637 15.9112 21.0649 17.5557C19.9661 19.2002 18.4043 20.4819 16.577 21.2388C14.7498 21.9957 12.7391 22.1937 10.7993 21.8078C8.85947 21.422 7.07764 20.4696 5.67912 19.0711C4.28059 17.6725 3.32819 15.8907 2.94233 13.9509C2.55648 12.0111 2.75452 10.0004 3.51139 8.17316C4.26827 6.3459 5.54999 4.78412 7.19448 3.6853C8.83898 2.58649 10.7724 2 12.7502 2C15.4015 2.0028 17.9434 3.05727 19.8182 4.93202C21.6929 6.80678 22.7474 9.34869 22.7502 12ZM21.2117 12C21.2105 10.8611 20.9796 9.73412 20.5328 8.6865C20.0861 7.63887 19.4326 6.69211 18.6115 5.90282C17.7905 5.11353 16.8187 4.49794 15.7542 4.09285C14.6898 3.68776 13.5546 3.50149 12.4165 3.54519C7.88769 3.72019 4.27615 7.49231 4.28865 12.024C4.29299 14.087 5.05386 16.0768 6.42711 17.6163C6.98636 16.8052 7.69676 16.1095 8.51942 15.5673C8.58956 15.521 8.67294 15.4989 8.75681 15.5045C8.84068 15.51 8.92043 15.5429 8.98384 15.5981C10.0292 16.5023 11.3652 16.9999 12.7473 16.9999C14.1294 16.9999 15.4654 16.5023 16.5108 15.5981C16.5742 15.5429 16.6539 15.51 16.7378 15.5045C16.8217 15.4989 16.905 15.521 16.9752 15.5673C17.7989 16.1092 18.5103 16.8049 19.0704 17.6163C20.4504 16.0712 21.2128 14.0717 21.2117 12Z" fill="url(#paint0_linear_1201_12379)" fill-opacity="0.12"/>
<defs>
<linearGradient id="paint0_linear_1201_12379" x1="12.7502" y1="2" x2="12.7502" y2="22" gradientUnits="userSpaceOnUse">
<stop stop-color="white"/>
<stop offset="1" stop-color="white" stop-opacity="0"/>
</linearGradient>
</defs>
</svg>
