<svg width="24" height="24" viewBox="0 0 24 24" fill="none" xmlns="http://www.w3.org/2000/svg">
<g clip-path="url(#clip0_477_7090)">
<path d="M21.8572 9.85714H14.5715C14.3348 9.85714 14.1429 9.66525 14.1429 9.42857V2.14286C14.1429 0.959473 13.1834 0 12 0C10.8166 0 9.85717 0.959473 9.85717 2.14286V9.42857C9.85717 9.66525 9.66528 9.85714 9.4286 9.85714H2.14289C0.959503 9.85714 3.05176e-05 10.8166 3.05176e-05 12C3.05176e-05 13.1834 0.959503 14.1429 2.14289 14.1429H9.4286C9.66528 14.1429 9.85717 14.3348 9.85717 14.5714V21.8571C9.85717 23.0405 10.8166 24 12 24C13.1834 24 14.1429 23.0405 14.1429 21.8571V14.5714C14.1429 14.3348 14.3348 14.1429 14.5715 14.1429H21.8572C23.0406 14.1429 24 13.1834 24 12C24 10.8166 23.0406 9.85714 21.8572 9.85714Z" fill="white"/>
</g>
<defs>
<clipPath id="clip0_477_7090">
<rect width="24" height="24" fill="white"/>
</clipPath>
</defs>
</svg>
