<svg width="25" height="25" viewBox="0 0 25 25" fill="none" xmlns="http://www.w3.org/2000/svg">
<path d="M12.5 12.5002V21.5002M12.5 12.5002L9.99996 14.5002M12.5 12.5002L15 14.5002M5.53396 9.61719C4.58817 9.85518 3.76184 10.4303 3.21021 11.2346C2.65859 12.0389 2.41964 13.0169 2.53827 13.985C2.65689 14.953 3.12492 15.8444 3.85443 16.4917C4.58393 17.139 5.52469 17.4976 6.49996 17.5002H7.49996" stroke="#00796B" stroke-width="2" stroke-linecap="round" stroke-linejoin="round"/>
<path d="M12.5 12.5002V21.5002M12.5 12.5002L9.99996 14.5002M12.5 12.5002L15 14.5002M5.53396 9.61719C4.58817 9.85518 3.76184 10.4303 3.21021 11.2346C2.65859 12.0389 2.41964 13.0169 2.53827 13.985C2.65689 14.953 3.12492 15.8444 3.85443 16.4917C4.58393 17.139 5.52469 17.4976 6.49996 17.5002H7.49996" stroke="url(#paint0_linear_660_7531)" stroke-opacity="0.12" stroke-width="2" stroke-linecap="round" stroke-linejoin="round"/>
<path d="M16.33 7.63772C15.9882 6.28429 15.1446 5.11146 13.9701 4.35698C12.7956 3.60249 11.3783 3.32281 10.0052 3.57462C8.63221 3.82643 7.40631 4.5909 6.57604 5.71306C5.74576 6.83521 5.37324 8.23109 5.53398 9.61772C5.53398 9.61772 5.68698 10.4997 5.99998 10.9997" stroke="#00796B" stroke-width="2" stroke-linecap="round" stroke-linejoin="round"/>
<path d="M16.33 7.63772C15.9882 6.28429 15.1446 5.11146 13.9701 4.35698C12.7956 3.60249 11.3783 3.32281 10.0052 3.57462C8.63221 3.82643 7.40631 4.5909 6.57604 5.71306C5.74576 6.83521 5.37324 8.23109 5.53398 9.61772C5.53398 9.61772 5.68698 10.4997 5.99998 10.9997" stroke="url(#paint1_linear_660_7531)" stroke-opacity="0.12" stroke-width="2" stroke-linecap="round" stroke-linejoin="round"/>
<path d="M17.5 17.5C18.206 17.4995 18.904 17.3495 19.5479 17.0599C20.1917 16.7702 20.767 16.3475 21.2357 15.8195C21.7045 15.2915 22.0561 14.6702 22.2674 13.9965C22.4787 13.3229 22.545 12.6121 22.4618 11.9109C22.3786 11.2098 22.1479 10.5343 21.7848 9.92874C21.4217 9.32321 20.9345 8.80145 20.3552 8.39778C19.776 7.99412 19.1178 7.71772 18.424 7.58676C17.7302 7.4558 17.0166 7.47327 16.33 7.638L15 8" stroke="#00796B" stroke-width="2" stroke-linecap="round" stroke-linejoin="round"/>
<path d="M17.5 17.5C18.206 17.4995 18.904 17.3495 19.5479 17.0599C20.1917 16.7702 20.767 16.3475 21.2357 15.8195C21.7045 15.2915 22.0561 14.6702 22.2674 13.9965C22.4787 13.3229 22.545 12.6121 22.4618 11.9109C22.3786 11.2098 22.1479 10.5343 21.7848 9.92874C21.4217 9.32321 20.9345 8.80145 20.3552 8.39778C19.776 7.99412 19.1178 7.71772 18.424 7.58676C17.7302 7.4558 17.0166 7.47327 16.33 7.638L15 8" stroke="url(#paint2_linear_660_7531)" stroke-opacity="0.12" stroke-width="2" stroke-linecap="round" stroke-linejoin="round"/>
<defs>
<linearGradient id="paint0_linear_660_7531" x1="8.75425" y1="9.61719" x2="8.75425" y2="21.5002" gradientUnits="userSpaceOnUse">
<stop stop-color="white"/>
<stop offset="1" stop-color="white" stop-opacity="0"/>
</linearGradient>
<linearGradient id="paint1_linear_660_7531" x1="10.9137" y1="3.48438" x2="10.9137" y2="10.9997" gradientUnits="userSpaceOnUse">
<stop stop-color="white"/>
<stop offset="1" stop-color="white" stop-opacity="0"/>
</linearGradient>
<linearGradient id="paint2_linear_660_7531" x1="18.7483" y1="7.5" x2="18.7483" y2="17.5" gradientUnits="userSpaceOnUse">
<stop stop-color="white"/>
<stop offset="1" stop-color="white" stop-opacity="0"/>
</linearGradient>
</defs>
</svg>
