<svg width="36" height="36" viewBox="0 0 36 36" fill="none" xmlns="http://www.w3.org/2000/svg">
<rect width="36" height="36" rx="6" fill="#349489"/>
<g clip-path="url(#clip0_663_3693)">
<path d="M18.2814 10.3125C16.4172 10.3145 14.63 11.056 13.3118 12.3742C11.9937 13.6923 11.2522 15.4796 11.2502 17.3438V23.25C11.2502 23.5484 11.3687 23.8345 11.5797 24.0455C11.7907 24.2565 12.0768 24.375 12.3752 24.375H18.2814C20.1462 24.375 21.9346 23.6342 23.2533 22.3156C24.5719 20.997 25.3127 19.2086 25.3127 17.3438C25.3127 15.4789 24.5719 13.6905 23.2533 12.3719C21.9346 11.0533 20.1462 10.3125 18.2814 10.3125ZM18.2814 23.25H12.3752V17.3438C12.3752 16.1756 12.7216 15.0337 13.3706 14.0624C14.0195 13.0911 14.942 12.3341 16.0212 11.8871C17.1004 11.4401 18.288 11.3231 19.4337 11.551C20.5794 11.7789 21.6318 12.3414 22.4578 13.1674C23.2838 13.9934 23.8463 15.0458 24.0742 16.1915C24.3021 17.3372 24.1851 18.5247 23.7381 19.604C23.2911 20.6832 22.534 21.6056 21.5628 22.2546C20.5915 22.9036 19.4496 23.25 18.2814 23.25ZM19.1252 17.625C19.1252 17.7919 19.0757 17.955 18.983 18.0938C18.8903 18.2325 18.7585 18.3407 18.6043 18.4045C18.4501 18.4684 18.2805 18.4851 18.1168 18.4525C17.9531 18.42 17.8028 18.3396 17.6848 18.2216C17.5668 18.1036 17.4864 17.9533 17.4539 17.7896C17.4213 17.6259 17.438 17.4563 17.5019 17.3021C17.5658 17.1479 17.6739 17.0162 17.8127 16.9234C17.9514 16.8307 18.1145 16.7812 18.2814 16.7812C18.5052 16.7812 18.7198 16.8701 18.878 17.0284C19.0363 17.1866 19.1252 17.4012 19.1252 17.625ZM16.0314 17.625C16.0314 17.7919 15.9819 17.955 15.8892 18.0938C15.7965 18.2325 15.6647 18.3407 15.5106 18.4045C15.3564 18.4684 15.1867 18.4851 15.0231 18.4525C14.8594 18.42 14.709 18.3396 14.591 18.2216C14.473 18.1036 14.3927 17.9533 14.3601 17.7896C14.3276 17.6259 14.3443 17.4563 14.4081 17.3021C14.472 17.1479 14.5802 17.0162 14.7189 16.9234C14.8577 16.8307 15.0208 16.7812 15.1877 16.7812C15.4114 16.7812 15.6261 16.8701 15.7843 17.0284C15.9425 17.1866 16.0314 17.4012 16.0314 17.625ZM22.2189 17.625C22.2189 17.7919 22.1694 17.955 22.0767 18.0938C21.984 18.2325 21.8522 18.3407 21.6981 18.4045C21.5439 18.4684 21.3742 18.4851 21.2106 18.4525C21.0469 18.42 20.8965 18.3396 20.7785 18.2216C20.6605 18.1036 20.5802 17.9533 20.5476 17.7896C20.5151 17.6259 20.5318 17.4563 20.5956 17.3021C20.6595 17.1479 20.7677 17.0162 20.9064 16.9234C21.0452 16.8307 21.2083 16.7812 21.3752 16.7812C21.5989 16.7812 21.8136 16.8701 21.9718 17.0284C22.13 17.1866 22.2189 17.4012 22.2189 17.625Z" fill="white"/>
</g>
<defs>
<clipPath id="clip0_663_3693">
<rect width="18" height="18" fill="white" transform="translate(9.00003 8.99902)"/>
</clipPath>
</defs>
</svg>
