<svg width="18" height="18" viewBox="0 0 18 18" fill="none" xmlns="http://www.w3.org/2000/svg">
<path d="M9.28142 1.3125C7.41724 1.31455 5.63001 2.05599 4.31183 3.37417C2.99366 4.69234 2.25222 6.47957 2.25017 8.34375V14.25C2.25017 14.5484 2.36869 14.8345 2.57967 15.0455C2.79065 15.2565 3.0768 15.375 3.37517 15.375H9.28142C11.1462 15.375 12.9346 14.6342 14.2533 13.3156C15.5719 11.997 16.3127 10.2086 16.3127 8.34375C16.3127 6.47895 15.5719 4.69052 14.2533 3.37191C12.9346 2.05329 11.1462 1.3125 9.28142 1.3125ZM9.28142 14.25H3.37517V8.34375C3.37517 7.1756 3.72156 6.03369 4.37055 5.06241C5.01954 4.09114 5.94197 3.33412 7.02119 2.88709C8.10042 2.44006 9.28797 2.32309 10.4337 2.55099C11.5794 2.77888 12.6318 3.3414 13.4578 4.1674C14.2838 4.9934 14.8463 6.0458 15.0742 7.1915C15.3021 8.3372 15.1851 9.52475 14.7381 10.604C14.2911 11.6832 13.534 12.6056 12.5628 13.2546C11.5915 13.9036 10.4496 14.25 9.28142 14.25ZM10.1252 8.625C10.1252 8.79188 10.0757 8.95501 9.98297 9.09376C9.89026 9.23252 9.75848 9.34066 9.60431 9.40452C9.45013 9.46838 9.28048 9.48509 9.11681 9.45254C8.95314 9.41998 8.8028 9.33962 8.6848 9.22162C8.5668 9.10362 8.48644 8.95328 8.45388 8.78961C8.42132 8.62594 8.43803 8.45629 8.50189 8.30211C8.56576 8.14794 8.6739 8.01616 8.81266 7.92345C8.95141 7.83073 9.11454 7.78125 9.28142 7.78125C9.50519 7.78125 9.7198 7.87014 9.87804 8.02838C10.0363 8.18661 10.1252 8.40122 10.1252 8.625ZM7.03142 8.625C7.03142 8.79188 6.98193 8.95501 6.88922 9.09376C6.79651 9.23252 6.66473 9.34066 6.51056 9.40452C6.35638 9.46838 6.18673 9.48509 6.02306 9.45254C5.85939 9.41998 5.70905 9.33962 5.59105 9.22162C5.47305 9.10362 5.39269 8.95328 5.36013 8.78961C5.32757 8.62594 5.34428 8.45629 5.40814 8.30211C5.47201 8.14794 5.58015 8.01616 5.71891 7.92345C5.85766 7.83073 6.02079 7.78125 6.18767 7.78125C6.41144 7.78125 6.62606 7.87014 6.78429 8.02838C6.94252 8.18661 7.03142 8.40122 7.03142 8.625ZM13.2189 8.625C13.2189 8.79188 13.1694 8.95501 13.0767 9.09376C12.984 9.23252 12.8522 9.34066 12.6981 9.40452C12.5439 9.46838 12.3742 9.48509 12.2106 9.45254C12.0469 9.41998 11.8965 9.33962 11.7785 9.22162C11.6605 9.10362 11.5802 8.95328 11.5476 8.78961C11.5151 8.62594 11.5318 8.45629 11.5956 8.30211C11.6595 8.14794 11.7677 8.01616 11.9064 7.92345C12.0452 7.83073 12.2083 7.78125 12.3752 7.78125C12.5989 7.78125 12.8136 7.87014 12.9718 8.02838C13.13 8.18661 13.2189 8.40122 13.2189 8.625Z" fill="white"/>
</svg>
