<svg width="13" height="12" viewBox="0 0 13 12" fill="none" xmlns="http://www.w3.org/2000/svg">
<path fill-rule="evenodd" clip-rule="evenodd" d="M2.65522 0.638374C2.18687 0.170021 1.42752 0.170021 0.959165 0.638374C0.490812 1.10673 0.490812 1.86608 0.959165 2.33443L4.62578 6.00105L0.957954 9.66888C0.489601 10.1372 0.489601 10.8966 0.957954 11.3649C1.42631 11.8333 2.18566 11.8333 2.65401 11.3649L6.32184 7.6971L9.98905 11.3643C10.4574 11.8327 11.2168 11.8327 11.6851 11.3643C12.1535 10.896 12.1535 10.1366 11.6851 9.66826L8.01789 6.00105L11.6839 2.33505C12.1522 1.8667 12.1522 1.10735 11.6839 0.638993C11.2155 0.170641 10.4562 0.17064 9.98784 0.638994L6.32184 4.30499L2.65522 0.638374Z" fill="#989898"/>
</svg>
