<svg width="32" height="32" viewBox="0 0 32 32" fill="none" xmlns="http://www.w3.org/2000/svg">
<circle cx="16" cy="16" r="16" fill="#F3F3F3"/>
<path fill-rule="evenodd" clip-rule="evenodd" d="M12.6551 10.6364C12.1867 10.1681 11.4274 10.1681 10.959 10.6364C10.4907 11.1048 10.4907 11.8641 10.959 12.3325L14.6257 15.9991L10.9578 19.6669C10.4895 20.1353 10.4895 20.8946 10.9578 21.363C11.4262 21.8313 12.1855 21.8313 12.6539 21.363L16.3217 17.6952L19.9889 21.3624C20.4573 21.8307 21.2166 21.8307 21.685 21.3624C22.1533 20.894 22.1533 20.1347 21.685 19.6663L18.0178 15.9991L21.6838 12.3331C22.1521 11.8647 22.1521 11.1054 21.6838 10.637C21.2154 10.1687 20.4561 10.1687 19.9877 10.637L16.3217 14.303L12.6551 10.6364Z" fill="#989898"/>
</svg>
