<svg width="24" height="24" viewBox="0 0 24 24" fill="none" xmlns="http://www.w3.org/2000/svg">
<g clip-path="url(#clip0_396_4411)">
<path d="M19.4262 15.4485C19.06 15.0823 18.4664 15.0823 18.1003 15.4485L17.4374 16.1113L16.7745 15.4484C16.4084 15.0823 15.8147 15.0823 15.4486 15.4484C15.0825 15.8146 15.0825 16.4082 15.4486 16.7742L16.1115 17.4372L15.4486 18.1001C15.0825 18.4662 15.0825 19.0598 15.4486 19.4259C15.8147 19.792 16.4084 19.7921 16.7745 19.4259L17.4374 18.7631L18.1003 19.426C18.4664 19.7921 19.06 19.7921 19.4262 19.426C19.7923 19.0598 19.7923 18.4662 19.4262 18.1002L18.7633 17.4372L19.4262 16.7743C19.7922 16.4082 19.7922 15.8146 19.4262 15.4485Z" fill="#ED2D24"/>
<path d="M17.4375 10.875C13.8189 10.875 10.875 13.8189 10.875 17.4375C10.875 21.0561 13.8189 24 17.4375 24C21.0561 24 24 21.0561 24 17.4375C24 13.8189 21.0561 10.875 17.4375 10.875ZM17.4375 22.125C14.8528 22.125 12.75 20.0222 12.75 17.4375C12.75 14.8528 14.8528 12.75 17.4375 12.75C20.0222 12.75 22.125 14.8528 22.125 17.4375C22.125 20.0222 20.0222 22.125 17.4375 22.125Z" fill="#ED2D24" stroke="white" stroke-width="0.5"/>
<path d="M8.06991 16.875H1.875V15.9375C1.875 12.3189 4.81894 9.375 8.4375 9.375C9.65756 9.375 10.848 9.71189 11.88 10.3492C12.3206 10.6212 12.8982 10.4846 13.1702 10.0441C13.4422 9.60356 13.3057 9.02588 12.8651 8.75386C12.4677 8.50842 12.0517 8.29838 11.6224 8.12344C12.546 7.2667 13.125 6.04355 13.125 4.6875C13.125 2.10281 11.0222 0 8.4375 0C5.85277 0 3.75 2.10281 3.75 4.6875C3.75 6.04402 4.32942 7.26759 5.25356 8.12433C2.17491 9.38353 0 12.411 0 15.9375V17.8125C0 18.3303 0.419719 18.75 0.9375 18.75H8.06991C8.58769 18.75 9.00741 18.3303 9.00741 17.8125C9.00741 17.2947 8.58769 16.875 8.06991 16.875ZM5.625 4.6875C5.625 3.13669 6.88669 1.875 8.4375 1.875C9.98831 1.875 11.25 3.13669 11.25 4.6875C11.25 6.23831 9.98831 7.5 8.4375 7.5C6.88669 7.5 5.625 6.23831 5.625 4.6875Z" fill="#ED2D24" stroke="white" stroke-width="0.5"/>
</g>
<defs>
<clipPath id="clip0_396_4411">
<rect width="24" height="24" fill="white"/>
</clipPath>
</defs>
</svg>
