<svg width="20" height="20" viewBox="0 0 20 20" fill="none" xmlns="http://www.w3.org/2000/svg">
<path d="M16.6922 7.94254L10.4422 14.1925C10.3842 14.2506 10.3153 14.2967 10.2394 14.3282C10.1635 14.3597 10.0822 14.3758 10 14.3758C9.91791 14.3758 9.83658 14.3597 9.7607 14.3282C9.68483 14.2967 9.6159 14.2506 9.55785 14.1925L3.30785 7.94254C3.19058 7.82526 3.12469 7.6662 3.12469 7.50035C3.12469 7.3345 3.19058 7.17544 3.30785 7.05816C3.42513 6.94088 3.58419 6.875 3.75004 6.875C3.91589 6.875 4.07495 6.94088 4.19223 7.05816L10 12.8668L15.8079 7.05816C15.8659 7.00009 15.9349 6.95403 16.0107 6.9226C16.0866 6.89117 16.1679 6.875 16.25 6.875C16.3322 6.875 16.4135 6.89117 16.4894 6.9226C16.5652 6.95403 16.6342 7.00009 16.6922 7.05816C16.7503 7.11623 16.7964 7.18517 16.8278 7.26104C16.8592 7.33691 16.8754 7.41823 16.8754 7.50035C16.8754 7.58247 16.8592 7.66379 16.8278 7.73966C16.7964 7.81553 16.7503 7.88447 16.6922 7.94254Z" fill="white"/>
</svg>
