<svg width="24" height="24" viewBox="0 0 24 24" fill="none" xmlns="http://www.w3.org/2000/svg">
<path d="M20.3077 5.07715H3.69231C3.5087 5.07715 3.33261 5.15009 3.20277 5.27992C3.07294 5.40975 3 5.58584 3 5.76946V17.5387C3 17.9059 3.14588 18.2581 3.40554 18.5178C3.66521 18.7774 4.01739 18.9233 4.38462 18.9233H19.6154C19.9826 18.9233 20.3348 18.7774 20.5945 18.5178C20.8541 18.2581 21 17.9059 21 17.5387V5.76946C21 5.58584 20.9271 5.40975 20.7972 5.27992C20.6674 5.15009 20.4913 5.07715 20.3077 5.07715ZM12 12.4459L5.4724 6.46176H18.5276L12 12.4459ZM9.46529 12.0002L4.38462 16.6569V7.34359L9.46529 12.0002ZM10.4899 12.9392L11.5284 13.8954C11.6561 14.0127 11.8232 14.0777 11.9965 14.0777C12.1699 14.0777 12.337 14.0127 12.4647 13.8954L13.5032 12.9392L18.5224 17.5387H5.4724L10.4899 12.9392ZM14.5347 12.0002L19.6154 7.34273V16.6577L14.5347 12.0002Z" fill="#00796B"/>
<path d="M20.3077 5.07715H3.69231C3.5087 5.07715 3.33261 5.15009 3.20277 5.27992C3.07294 5.40975 3 5.58584 3 5.76946V17.5387C3 17.9059 3.14588 18.2581 3.40554 18.5178C3.66521 18.7774 4.01739 18.9233 4.38462 18.9233H19.6154C19.9826 18.9233 20.3348 18.7774 20.5945 18.5178C20.8541 18.2581 21 17.9059 21 17.5387V5.76946C21 5.58584 20.9271 5.40975 20.7972 5.27992C20.6674 5.15009 20.4913 5.07715 20.3077 5.07715ZM12 12.4459L5.4724 6.46176H18.5276L12 12.4459ZM9.46529 12.0002L4.38462 16.6569V7.34359L9.46529 12.0002ZM10.4899 12.9392L11.5284 13.8954C11.6561 14.0127 11.8232 14.0777 11.9965 14.0777C12.1699 14.0777 12.337 14.0127 12.4647 13.8954L13.5032 12.9392L18.5224 17.5387H5.4724L10.4899 12.9392ZM14.5347 12.0002L19.6154 7.34273V16.6577L14.5347 12.0002Z" fill="url(#paint0_linear_367_8104)" fill-opacity="0.12"/>
<defs>
<linearGradient id="paint0_linear_367_8104" x1="12" y1="5.07715" x2="12" y2="18.9233" gradientUnits="userSpaceOnUse">
<stop stop-color="white"/>
<stop offset="1" stop-color="white" stop-opacity="0"/>
</linearGradient>
</defs>
</svg>
