<svg width="106" height="119" viewBox="0 0 106 119" fill="none" xmlns="http://www.w3.org/2000/svg">
<path d="M47.2572 0.946408C54.4215 0.313454 57.9731 6.03728 57.6471 12.6122C56.1368 12.2404 54.6245 11.9014 53.1052 11.5707C53.1301 8.44649 51.5378 6.08474 48.2914 5.68338C44.7969 5.44198 42.7147 8.32374 42.9113 11.5707C41.2408 11.8951 39.8029 12.2521 38.1687 12.6122C37.3792 6.80603 41.3348 1.43302 47.2572 0.946408Z" fill="#6C7278"/>
<path d="M60.6205 105.638C61.7384 105.642 62.8549 105.598 63.9729 105.638C62.6924 115.567 53.6965 119.654 44.5066 118.236C40.062 117.55 36.7265 115.192 34.1244 111.614C32.8904 109.749 32.194 107.837 31.8536 105.638H36.5935C38.1495 114.29 50.8198 116.121 56.593 110.712C58.2577 109.152 58.7279 107.767 59.3716 105.638C59.7864 105.626 60.205 105.638 60.6205 105.638Z" fill="#6C7278"/>
<path d="M85.4302 31.267C102.434 30.5829 111.319 50.7238 100.454 63.0828C96.7918 67.2488 92.5089 69.1417 87.0154 69.5126C76.5219 69.8893 67.91 61.7153 67.3733 51.2725C66.8422 40.9378 75.1229 31.8239 85.4302 31.267Z" fill="#00796B"/>
<path d="M85.4302 31.267C102.434 30.5829 111.319 50.7238 100.454 63.0828C96.7918 67.2488 92.5089 69.1417 87.0154 69.5126C76.5219 69.8893 67.91 61.7153 67.3733 51.2725C66.8422 40.9378 75.1229 31.8239 85.4302 31.267Z" fill="url(#paint0_linear_397_2903)" fill-opacity="0.12"/>
<path d="M83.8702 59.5764C84.9595 59.5339 88.945 59.3684 89.7683 59.782C91.5114 60.6574 90.7693 62.9399 89.1161 63.3577C87.8279 63.423 84.1283 63.5511 83.0833 62.9666C81.4907 62.076 82.3617 59.9294 83.8702 59.5764Z" fill="white"/>
<path d="M86.1828 36.8746C87.176 36.8122 87.8794 37.2897 88.4173 38.1173C88.5049 43.7022 88.6007 49.8082 88.4504 55.3906C88.4208 56.4884 88.0566 56.9607 87.0154 57.3916C86.1532 57.5325 85.1278 57.1238 84.766 56.2889C84.4338 55.5231 84.4927 41.1498 84.6227 38.8055C84.6813 37.7508 85.2046 37.2461 86.1828 36.8746Z" fill="white"/>
<path d="M84.6036 73.2374C86.1997 77.2033 86.5082 80.1063 89.8307 83.5941C94.9767 88.9967 96.2567 88.2467 96.4305 97.1248C96.4674 99.0018 97.0135 102.07 94.2013 102.108C92.343 102.134 90.4729 102.072 88.6123 102.072L8.23193 102.074C0.539592 102.076 -0.221541 103.661 0.0425701 95.1689C0.270353 87.8465 3.93554 87.3303 7.07821 83.1227C11.9374 76.6165 12.4852 62.3842 12.4888 54.7164C12.4908 50.05 12.2195 45.3397 13.1684 40.7431C17.1314 21.5488 35.834 8.83686 55.1491 12.8476C64.6806 14.8267 72.8784 20.8228 78.1844 28.9237C76.6847 29.6148 75.2389 30.3202 73.8792 31.2677C72.9596 29.5667 71.6734 27.9791 70.3363 26.5934C51.0865 6.64547 18.9408 19.3193 17.263 46.0593C17.0327 49.7287 17.2729 53.4649 17.2129 57.1431C17.0397 67.7572 16.2804 81.0553 8.22812 88.8716C10.3559 88.8262 12.4914 88.8719 14.6201 88.8719L86.185 88.8704C86.9139 88.8701 87.6944 88.929 88.4172 88.8716C83.5964 84.538 80.8228 78.667 79.8185 72.3085C81.4041 72.7432 82.9814 72.9934 84.6036 73.2374ZM5.15619 93.4972C4.8748 94.7514 4.75995 96.0247 4.83935 97.309H91.5947C91.619 96.0405 91.5039 94.7611 91.5947 93.4972C88.1142 93.5968 84.5995 93.4978 81.1161 93.4975L5.15619 93.4972Z" fill="#6C7278"/>
<path d="M88.4172 88.8717C90.0546 90.2811 90.7967 91.4999 91.5948 93.4973C88.1143 93.5969 84.5996 93.4979 81.1162 93.4976L5.15625 93.4973C5.73823 91.758 6.69478 89.9597 8.22818 88.8717C10.356 88.8263 12.4915 88.872 14.6202 88.872L86.1851 88.8705C86.914 88.8702 87.6945 88.9291 88.4172 88.8717Z" fill="#9E9C9C"/>
<defs>
<linearGradient id="paint0_linear_397_2903" x1="86.2817" y1="31.25" x2="86.2817" y2="69.5251" gradientUnits="userSpaceOnUse">
<stop stop-color="white"/>
<stop offset="1" stop-color="white" stop-opacity="0"/>
</linearGradient>
</defs>
</svg>
