<svg width="46" height="58" viewBox="0 0 46 58" fill="none" xmlns="http://www.w3.org/2000/svg">
<g clip-path="url(#clip0_989_5267)">
<path d="M65.0694 45.0148C63.5229 43.7114 62.5292 41.7451 62.5292 39.5579V34.2337C62.5292 30.3895 65.5777 27.2523 69.3995 27.1419C66.0856 23.5409 64.0532 18.7247 64.0532 13.4446C64.0532 6.99348 67.0803 1.24955 71.7637 -2.48409V-31.0718C71.7637 -35.2253 68.3833 -38.6055 64.2303 -38.6055H7.67284C3.51981 -38.6055 0.139999 -35.2253 0.139999 -31.0718V50.8252C0.139999 55.0006 3.51981 58.3587 7.67284 58.3587H63.015C62.7057 57.5634 62.5292 56.7017 62.5292 55.796V50.4716C62.5292 48.2845 63.5229 46.3182 65.0694 45.0148ZM21.9893 48.0416C21.9893 49.2124 21.0395 50.1624 19.8681 50.1624H13.55C12.4011 50.1624 11.4508 49.2124 11.4508 48.0416V41.7451C11.4508 40.5743 12.4011 39.6243 13.55 39.6243H19.8681C21.0395 39.6243 21.9893 40.5743 21.9893 41.7451V48.0416ZM21.9893 30.1908C21.9893 31.3617 21.0395 32.3117 19.8681 32.3117H13.55C12.4011 32.3117 11.4508 31.3617 11.4508 30.1908V23.8722C11.4508 22.7233 12.4011 21.7734 13.55 21.7734H19.8681C21.0395 21.7734 21.9893 22.7234 21.9893 23.8722V30.1908ZM21.9893 12.3178C21.9893 13.4887 21.0395 14.4387 19.8681 14.4387H13.55C12.4011 14.4387 11.4508 13.4887 11.4508 12.3178V6.02145C11.4508 4.85061 12.4011 3.90052 13.55 3.90052H19.8681C21.0395 3.90052 21.9893 4.85061 21.9893 6.02145V12.3178ZM41.2101 48.0416C41.2101 49.2124 40.2598 50.1624 39.1109 50.1624H32.7928C31.6214 50.1624 30.6716 49.2124 30.6716 48.0416V41.7451C30.6716 40.5743 31.6214 39.6243 32.7928 39.6243H39.1109C40.2598 39.6243 41.2101 40.5743 41.2101 41.7451V48.0416ZM41.2101 30.1908C41.2101 31.3617 40.2598 32.3117 39.1109 32.3117H32.7928C31.6214 32.3117 30.6716 31.3617 30.6716 30.1908V23.8722C30.6716 22.7233 31.6214 21.7734 32.7928 21.7734H39.1109C40.2598 21.7734 41.2101 22.7234 41.2101 23.8722V30.1908ZM41.2101 12.3178C41.2101 13.4887 40.2598 14.4387 39.1109 14.4387H32.7928C31.6214 14.4387 30.6716 13.4887 30.6716 12.3178V6.02145C30.6716 4.85061 31.6214 3.90052 32.7928 3.90052H39.1109C40.2598 3.90052 41.2101 4.85061 41.2101 6.02145V12.3178ZM60.4524 48.0416C60.4524 49.2124 59.502 50.1624 58.3317 50.1624H52.035C50.8642 50.1624 49.9143 49.2124 49.9143 48.0416V41.7451C49.9143 40.5743 50.8642 39.6243 52.035 39.6243H58.3317C59.502 39.6243 60.4524 40.5743 60.4524 41.7451V48.0416ZM60.4524 30.1908C60.4524 31.3617 59.502 32.3117 58.3317 32.3117H52.035C50.8642 32.3117 49.9143 31.3617 49.9143 30.1908V23.8722C49.9143 22.7233 50.8642 21.7734 52.035 21.7734H58.3317C59.502 21.7734 60.4524 22.7234 60.4524 23.8722V30.1908ZM60.4524 12.3178C60.4524 13.4887 59.502 14.4387 58.3317 14.4387H52.035C50.8642 14.4387 49.9143 13.4887 49.9143 12.3178V6.02145C49.9143 4.85061 50.8642 3.90052 52.035 3.90052H58.3317C59.502 3.90052 60.4524 4.85061 60.4524 6.02145V12.3178ZM60.4524 -7.60956H11.4508V-27.2942H60.4524V-7.60956Z" fill="#328AA9" fill-opacity="0.24"/>
</g>
<defs>
<clipPath id="clip0_989_5267">
<rect width="46" height="58" fill="white"/>
</clipPath>
</defs>
</svg>
