<svg width="36" height="36" viewBox="0 0 36 36" fill="none" xmlns="http://www.w3.org/2000/svg">
<path d="M22.5654 29.6124C22.0451 29.1739 21.7107 28.5124 21.7107 27.7765V25.9851C21.7107 24.6918 22.7364 23.6363 24.0223 23.5991C22.9073 22.3876 22.2235 20.7672 22.2235 18.9907C22.2235 16.8202 23.242 14.8877 24.8177 13.6315V4.0132C24.8177 2.61578 23.6804 1.47852 22.2831 1.47852H3.25442C1.85713 1.47852 0.720001 2.61578 0.720001 4.0132V31.5673C0.720001 32.9721 1.85713 34.102 3.25442 34.102H21.8742C21.7702 33.8344 21.7107 33.5445 21.7107 33.2398V31.4484C21.7107 30.7125 22.0451 30.051 22.5654 29.6124ZM8.07117 30.6308C8.07117 31.0247 7.7516 31.3443 7.3575 31.3443H5.23178C4.84523 31.3443 4.52549 31.0247 4.52549 30.6308V28.5124C4.52549 28.1184 4.84523 27.7988 5.23178 27.7988H7.3575C7.7516 27.7988 8.07117 28.1184 8.07117 28.5124V30.6308ZM8.07117 24.6249C8.07117 25.0189 7.7516 25.3385 7.3575 25.3385H5.23178C4.84523 25.3385 4.52549 25.0189 4.52549 24.6249V22.4991C4.52549 22.1125 4.84523 21.7929 5.23178 21.7929H7.3575C7.7516 21.7929 8.07117 22.1125 8.07117 22.4991V24.6249ZM8.07117 18.6116C8.07117 19.0055 7.7516 19.3251 7.3575 19.3251H5.23178C4.84523 19.3251 4.52549 19.0055 4.52549 18.6116V16.4932C4.52549 16.0993 4.84523 15.7796 5.23178 15.7796H7.3575C7.7516 15.7796 8.07117 16.0993 8.07117 16.4932V18.6116ZM14.538 30.6308C14.538 31.0247 14.2182 31.3443 13.8317 31.3443H11.706C11.3119 31.3443 10.9923 31.0247 10.9923 30.6308V28.5124C10.9923 28.1184 11.3119 27.7988 11.706 27.7988H13.8317C14.2182 27.7988 14.538 28.1184 14.538 28.5124V30.6308ZM14.538 24.6249C14.538 25.0189 14.2182 25.3385 13.8317 25.3385H11.706C11.3119 25.3385 10.9923 25.0189 10.9923 24.6249V22.4991C10.9923 22.1125 11.3119 21.7929 11.706 21.7929H13.8317C14.2182 21.7929 14.538 22.1125 14.538 22.4991V24.6249ZM14.538 18.6116C14.538 19.0055 14.2182 19.3251 13.8317 19.3251H11.706C11.3119 19.3251 10.9923 19.0055 10.9923 18.6116V16.4932C10.9923 16.0993 11.3119 15.7796 11.706 15.7796H13.8317C14.2182 15.7796 14.538 16.0993 14.538 16.4932V18.6116ZM21.012 30.6308C21.012 31.0247 20.6923 31.3443 20.2985 31.3443H18.18C17.7861 31.3443 17.4665 31.0247 17.4665 30.6308V28.5124C17.4665 28.1184 17.7861 27.7988 18.18 27.7988H20.2985C20.6923 27.7988 21.012 28.1184 21.012 28.5124V30.6308ZM21.012 24.6249C21.012 25.0189 20.6923 25.3385 20.2985 25.3385H18.18C17.7861 25.3385 17.4665 25.0189 17.4665 24.6249V22.4991C17.4665 22.1125 17.7861 21.7929 18.18 21.7929H20.2985C20.6923 21.7929 21.012 22.1125 21.012 22.4991V24.6249ZM21.012 18.6116C21.012 19.0055 20.6923 19.3251 20.2985 19.3251H18.18C17.7861 19.3251 17.4665 19.0055 17.4665 18.6116V16.4932C17.4665 16.0993 17.7861 15.7796 18.18 15.7796H20.2985C20.6923 15.7796 21.012 16.0993 21.012 16.4932V18.6116ZM21.012 11.907H4.52549V5.28418H21.012V11.907Z" fill="#328AA9"/>
<path d="M34.7655 18.9897C34.7655 15.8301 32.2109 13.2754 29.0512 13.2754C25.8982 13.2754 23.3371 15.8301 23.3371 18.9897C23.3371 22.1427 25.8982 24.704 29.0512 24.704C32.2109 24.704 34.7655 22.1427 34.7655 18.9897ZM29.0536 18.4039C30.0507 18.4039 30.8619 19.2147 30.8619 20.212C30.8619 21.0136 30.3346 21.6867 29.6112 21.9232V22.2808C29.6112 22.5886 29.3614 22.8383 29.0536 22.8383C28.7459 22.8383 28.4962 22.5886 28.4962 22.2808V21.9232C27.7731 21.6867 27.2459 21.0136 27.2459 20.212C27.2459 19.9043 27.4957 19.6546 27.8033 19.6546C28.1111 19.6546 28.3609 19.9043 28.3609 20.212C28.3609 20.5946 28.6715 20.9053 29.0536 20.9053C29.436 20.9053 29.7469 20.5946 29.7469 20.212C29.7469 19.8295 29.436 19.5188 29.0536 19.5188C28.0568 19.5188 27.2459 18.708 27.2459 17.7107C27.2459 16.9097 27.7731 16.2367 28.4962 16.0002V15.6542C28.4962 15.3465 28.7459 15.0968 29.0536 15.0968C29.3614 15.0968 29.6112 15.3465 29.6112 15.6542V16.0002C30.3346 16.2367 30.8619 16.9097 30.8619 17.7107C30.8619 18.0184 30.6121 18.2681 30.3043 18.2681C29.9967 18.2681 29.7469 18.0184 29.7469 17.7107C29.7469 17.3289 29.436 17.0182 29.0536 17.0182C28.6715 17.0182 28.3609 17.3289 28.3609 17.7107C28.3609 18.0932 28.6715 18.4039 29.0536 18.4039Z" fill="#328AA9"/>
<path d="M34.0409 30.1699H24.0615C23.3773 30.1699 22.8226 30.7246 22.8226 31.4089V33.2823C22.8226 33.9666 23.3773 34.5212 24.0615 34.5212H34.0409C34.7252 34.5213 35.28 33.9666 35.28 33.2823V31.4089C35.28 30.7246 34.7252 30.1699 34.0409 30.1699Z" fill="#328AA9"/>
<path d="M34.0409 24.7031H29.0512H24.0615C23.3773 24.7031 22.8226 25.2578 22.8226 25.942V27.8155C22.8226 28.4997 23.3773 29.0545 24.0615 29.0545H34.0409C34.7252 29.0545 35.28 28.4997 35.28 27.8155V25.942C35.28 25.2578 34.7252 24.7031 34.0409 24.7031Z" fill="#328AA9"/>
</svg>
