<svg width="24" height="24" viewBox="0 0 24 24" fill="none" xmlns="http://www.w3.org/2000/svg">
<path d="M8.24999 20.25V17.1562C8.8953 16.991 9.46727 16.6157 9.87572 16.0895C10.2842 15.5633 10.5059 14.9161 10.5059 14.25C10.5059 13.5839 10.2842 12.9367 9.87572 12.4105C9.46727 11.8843 8.8953 11.509 8.24999 11.3438V3.75C8.24999 3.55109 8.17097 3.36032 8.03032 3.21967C7.88967 3.07902 7.6989 3 7.49999 3C7.30108 3 7.11032 3.07902 6.96966 3.21967C6.82901 3.36032 6.74999 3.55109 6.74999 3.75L6.74999 11.3438C6.10468 11.509 5.53271 11.8843 5.12426 12.4105C4.71581 12.9367 4.49411 13.5839 4.49411 14.25C4.49411 14.9161 4.71581 15.5633 5.12426 16.0895C5.53271 16.6157 6.10468 16.991 6.74999 17.1562V20.25C6.74999 20.4489 6.82901 20.6397 6.96966 20.7803C7.11032 20.921 7.30108 21 7.49999 21C7.6989 21 7.88967 20.921 8.03032 20.7803C8.17097 20.6397 8.24999 20.4489 8.24999 20.25ZM5.99999 14.25C5.99999 13.9533 6.08797 13.6633 6.25279 13.4166C6.41761 13.17 6.65188 12.9777 6.92597 12.8642C7.20006 12.7506 7.50166 12.7209 7.79263 12.7788C8.0836 12.8367 8.35087 12.9796 8.56065 13.1893C8.77043 13.3991 8.91329 13.6664 8.97117 13.9574C9.02905 14.2483 8.99934 14.5499 8.88581 14.824C8.77228 15.0981 8.58002 15.3324 8.33335 15.4972C8.08667 15.662 7.79666 15.75 7.49999 15.75C7.10217 15.75 6.72064 15.592 6.43933 15.3107C6.15803 15.0294 5.99999 14.6478 5.99999 14.25ZM15.75 3.75V5.34375C15.1047 5.50898 14.5327 5.88428 14.1243 6.41048C13.7158 6.93669 13.4941 7.58387 13.4941 8.25C13.4941 8.91613 13.7158 9.56331 14.1243 10.0895C14.5327 10.6157 15.1047 10.991 15.75 11.1562V20.25C15.75 20.4489 15.829 20.6397 15.9697 20.7803C16.1103 20.921 16.3011 21 16.5 21C16.6989 21 16.8897 20.921 17.0303 20.7803C17.171 20.6397 17.25 20.4489 17.25 20.25V11.1562C17.8953 10.991 18.4673 10.6157 18.8757 10.0895C19.2842 9.56331 19.5059 8.91613 19.5059 8.25C19.5059 7.58387 19.2842 6.93669 18.8757 6.41048C18.4673 5.88428 17.8953 5.50898 17.25 5.34375V3.75C17.25 3.55109 17.171 3.36032 17.0303 3.21967C16.8897 3.07902 16.6989 3 16.5 3C16.3011 3 16.1103 3.07902 15.9697 3.21967C15.829 3.36032 15.75 3.55109 15.75 3.75ZM18 8.25C18 8.54667 17.912 8.83668 17.7472 9.08336C17.5824 9.33003 17.3481 9.52229 17.074 9.63582C16.7999 9.74935 16.4983 9.77906 16.2074 9.72118C15.9164 9.6633 15.6491 9.52044 15.4393 9.31066C15.2296 9.10088 15.0867 8.83361 15.0288 8.54263C14.9709 8.25166 15.0006 7.95006 15.1142 7.67597C15.2277 7.40189 15.42 7.16762 15.6666 7.0028C15.9133 6.83797 16.2033 6.75 16.5 6.75C16.8978 6.75 17.2793 6.90804 17.5607 7.18934C17.842 7.47064 18 7.85218 18 8.25Z" fill="white"/>
</svg>
