<svg width="9" height="8" viewBox="0 0 9 8" fill="none" xmlns="http://www.w3.org/2000/svg">
<path d="M4.78887 0.0673828L3.67421 1.18204L6.26913 3.77644L3.67421 6.37083L4.78887 7.48549L8.4974 3.77644L4.78887 0.0673828Z" fill="#00796B"/>
<path d="M4.78887 0.0673828L3.67421 1.18204L6.26913 3.77644L3.67421 6.37083L4.78887 7.48549L8.4974 3.77644L4.78887 0.0673828Z" fill="url(#paint0_linear_385_4972)" fill-opacity="0.12"/>
<path d="M1.11203 7.48549L4.82056 3.77644L1.11203 0.0673828L-0.00262451 1.18204L2.59229 3.77644L-0.00262451 6.37083L1.11203 7.48549Z" fill="#00796B"/>
<path d="M1.11203 7.48549L4.82056 3.77644L1.11203 0.0673828L-0.00262451 1.18204L2.59229 3.77644L-0.00262451 6.37083L1.11203 7.48549Z" fill="url(#paint1_linear_385_4972)" fill-opacity="0.12"/>
<defs>
<linearGradient id="paint0_linear_385_4972" x1="6.0858" y1="0.0673828" x2="6.0858" y2="7.48549" gradientUnits="userSpaceOnUse">
<stop stop-color="white"/>
<stop offset="1" stop-color="white" stop-opacity="0"/>
</linearGradient>
<linearGradient id="paint1_linear_385_4972" x1="2.40897" y1="0.0673828" x2="2.40897" y2="7.48549" gradientUnits="userSpaceOnUse">
<stop stop-color="white"/>
<stop offset="1" stop-color="white" stop-opacity="0"/>
</linearGradient>
</defs>
</svg>
