<svg width="81" height="80" viewBox="0 0 81 80" fill="none" xmlns="http://www.w3.org/2000/svg">
<path d="M40.4941 -0.00195312C18.439 -0.00195312 0.494141 17.9429 0.494141 39.998C0.494141 62.0532 18.439 79.998 40.4941 79.998C62.5493 79.998 80.4941 62.0532 80.4941 39.998C80.4941 17.9429 62.5493 -0.00195312 40.4941 -0.00195312ZM62.85 29.4717L37.2861 54.8351C35.7824 56.3389 33.3763 56.4391 31.7723 54.9354L18.2385 42.6046C16.6345 41.1008 16.5342 38.5945 17.9377 36.9905C19.4415 35.3865 21.9478 35.2863 23.5518 36.79L34.2786 46.6146L57.1357 23.7574C58.7398 22.1534 61.246 22.1534 62.85 23.7574C64.454 25.3615 64.454 27.8677 62.85 29.4717Z" fill="#00796B"/>
<path d="M40.4941 -0.00195312C18.439 -0.00195312 0.494141 17.9429 0.494141 39.998C0.494141 62.0532 18.439 79.998 40.4941 79.998C62.5493 79.998 80.4941 62.0532 80.4941 39.998C80.4941 17.9429 62.5493 -0.00195312 40.4941 -0.00195312ZM62.85 29.4717L37.2861 54.8351C35.7824 56.3389 33.3763 56.4391 31.7723 54.9354L18.2385 42.6046C16.6345 41.1008 16.5342 38.5945 17.9377 36.9905C19.4415 35.3865 21.9478 35.2863 23.5518 36.79L34.2786 46.6146L57.1357 23.7574C58.7398 22.1534 61.246 22.1534 62.85 23.7574C64.454 25.3615 64.454 27.8677 62.85 29.4717Z" fill="url(#paint0_linear_396_4151)" fill-opacity="0.12"/>
<defs>
<linearGradient id="paint0_linear_396_4151" x1="40.4941" y1="-0.00195313" x2="40.4941" y2="79.998" gradientUnits="userSpaceOnUse">
<stop stop-color="white"/>
<stop offset="1" stop-color="white" stop-opacity="0"/>
</linearGradient>
</defs>
</svg>
