<svg width="14" height="24" viewBox="0 0 14 24" fill="none" xmlns="http://www.w3.org/2000/svg">
<path d="M7.48209 3.75C5.7635 3.75195 4.11585 4.43552 2.90063 5.65075C1.6854 6.86598 1.00183 8.51362 0.999878 10.2322C0.999878 15.7789 6.89279 19.968 7.14398 20.1434C7.24306 20.2128 7.36111 20.25 7.48209 20.25C7.60306 20.25 7.72111 20.2128 7.82019 20.1434C8.07138 19.968 13.9643 15.7789 13.9643 10.2322C13.9623 8.51362 13.2788 6.86598 12.0635 5.65075C10.8483 4.43552 9.20068 3.75195 7.48209 3.75ZM7.48209 7.87504C7.94829 7.87504 8.40402 8.01329 8.79166 8.2723C9.17929 8.5313 9.48142 8.89944 9.65982 9.33016C9.83823 9.76088 9.88491 10.2348 9.79396 10.6921C9.70301 11.1493 9.47851 11.5693 9.14885 11.899C8.8192 12.2286 8.39919 12.4531 7.94195 12.5441C7.4847 12.635 7.01075 12.5884 6.58004 12.4099C6.14932 12.2315 5.78118 11.9294 5.52217 11.5418C5.26316 11.1541 5.12492 10.6984 5.12492 10.2322C5.12492 9.60705 5.37326 9.00749 5.81532 8.56544C6.25737 8.12338 6.85693 7.87504 7.48209 7.87504Z" fill="#ED841A"/>
</svg>
