<svg width="17" height="22" viewBox="0 0 17 22" fill="none" xmlns="http://www.w3.org/2000/svg">
<path d="M8.25 5C7.50832 5 6.7833 5.21993 6.16661 5.63199C5.54993 6.04404 5.06928 6.62971 4.78545 7.31494C4.50162 8.00016 4.42736 8.75416 4.57205 9.48159C4.71675 10.209 5.0739 10.8772 5.59835 11.4017C6.1228 11.9261 6.79098 12.2833 7.51841 12.4279C8.24584 12.5726 8.99984 12.4984 9.68506 12.2145C10.3703 11.9307 10.956 11.4501 11.368 10.8334C11.7801 10.2167 12 9.49168 12 8.75C12 7.75544 11.6049 6.80161 10.9017 6.09835C10.1984 5.39509 9.24456 5 8.25 5ZM8.25 11C7.80499 11 7.36998 10.868 6.99997 10.6208C6.62996 10.3736 6.34157 10.0222 6.17127 9.61104C6.00097 9.1999 5.95642 8.7475 6.04323 8.31105C6.13005 7.87459 6.34434 7.47368 6.65901 7.15901C6.97368 6.84434 7.37459 6.63005 7.81105 6.54323C8.2475 6.45642 8.6999 6.50097 9.11104 6.67127C9.52217 6.84157 9.87357 7.12996 10.1208 7.49997C10.368 7.86998 10.5 8.30499 10.5 8.75C10.5 9.34674 10.2629 9.91903 9.84099 10.341C9.41903 10.7629 8.84674 11 8.25 11ZM8.25 0.5C6.06273 0.502481 3.96575 1.37247 2.41911 2.91911C0.872472 4.46575 0.00248131 6.56273 0 8.75C0 11.6938 1.36031 14.8138 3.9375 17.7734C5.09552 19.1108 6.39886 20.3151 7.82344 21.3641C7.94954 21.4524 8.09978 21.4998 8.25375 21.4998C8.40772 21.4998 8.55796 21.4524 8.68406 21.3641C10.106 20.3147 11.4068 19.1104 12.5625 17.7734C15.1359 14.8138 16.5 11.6938 16.5 8.75C16.4975 6.56273 15.6275 4.46575 14.0809 2.91911C12.5343 1.37247 10.4373 0.502481 8.25 0.5ZM8.25 19.8125C6.70031 18.5938 1.5 14.1172 1.5 8.75C1.5 6.95979 2.21116 5.2429 3.47703 3.97703C4.7429 2.71116 6.45979 2 8.25 2C10.0402 2 11.7571 2.71116 13.023 3.97703C14.2888 5.2429 15 6.95979 15 8.75C15 14.1153 9.79969 18.5938 8.25 19.8125Z" fill="#00796B"/>
<path d="M8.25 5C7.50832 5 6.7833 5.21993 6.16661 5.63199C5.54993 6.04404 5.06928 6.62971 4.78545 7.31494C4.50162 8.00016 4.42736 8.75416 4.57205 9.48159C4.71675 10.209 5.0739 10.8772 5.59835 11.4017C6.1228 11.9261 6.79098 12.2833 7.51841 12.4279C8.24584 12.5726 8.99984 12.4984 9.68506 12.2145C10.3703 11.9307 10.956 11.4501 11.368 10.8334C11.7801 10.2167 12 9.49168 12 8.75C12 7.75544 11.6049 6.80161 10.9017 6.09835C10.1984 5.39509 9.24456 5 8.25 5ZM8.25 11C7.80499 11 7.36998 10.868 6.99997 10.6208C6.62996 10.3736 6.34157 10.0222 6.17127 9.61104C6.00097 9.1999 5.95642 8.7475 6.04323 8.31105C6.13005 7.87459 6.34434 7.47368 6.65901 7.15901C6.97368 6.84434 7.37459 6.63005 7.81105 6.54323C8.2475 6.45642 8.6999 6.50097 9.11104 6.67127C9.52217 6.84157 9.87357 7.12996 10.1208 7.49997C10.368 7.86998 10.5 8.30499 10.5 8.75C10.5 9.34674 10.2629 9.91903 9.84099 10.341C9.41903 10.7629 8.84674 11 8.25 11ZM8.25 0.5C6.06273 0.502481 3.96575 1.37247 2.41911 2.91911C0.872472 4.46575 0.00248131 6.56273 0 8.75C0 11.6938 1.36031 14.8138 3.9375 17.7734C5.09552 19.1108 6.39886 20.3151 7.82344 21.3641C7.94954 21.4524 8.09978 21.4998 8.25375 21.4998C8.40772 21.4998 8.55796 21.4524 8.68406 21.3641C10.106 20.3147 11.4068 19.1104 12.5625 17.7734C15.1359 14.8138 16.5 11.6938 16.5 8.75C16.4975 6.56273 15.6275 4.46575 14.0809 2.91911C12.5343 1.37247 10.4373 0.502481 8.25 0.5ZM8.25 19.8125C6.70031 18.5938 1.5 14.1172 1.5 8.75C1.5 6.95979 2.21116 5.2429 3.47703 3.97703C4.7429 2.71116 6.45979 2 8.25 2C10.0402 2 11.7571 2.71116 13.023 3.97703C14.2888 5.2429 15 6.95979 15 8.75C15 14.1153 9.79969 18.5938 8.25 19.8125Z" fill="url(#paint0_linear_385_5023)" fill-opacity="0.12"/>
<defs>
<linearGradient id="paint0_linear_385_5023" x1="8.25" y1="0.5" x2="8.25" y2="21.4998" gradientUnits="userSpaceOnUse">
<stop stop-color="white"/>
<stop offset="1" stop-color="white" stop-opacity="0"/>
</linearGradient>
</defs>
</svg>
