<svg width="25" height="24" viewBox="0 0 25 24" fill="none" xmlns="http://www.w3.org/2000/svg">
<path d="M12.2495 6.57147C11.5785 6.57147 10.9225 6.77046 10.3645 7.14327C9.80657 7.51609 9.37169 8.04599 9.11489 8.66596C8.85809 9.28593 8.7909 9.96812 8.92182 10.6263C9.05273 11.2844 9.37588 11.889 9.85038 12.3635C10.3249 12.838 10.9294 13.1611 11.5876 13.2921C12.2458 13.423 12.9279 13.3558 13.5479 13.099C14.1679 12.8422 14.6978 12.4073 15.0706 11.8493C15.4434 11.2914 15.6424 10.6354 15.6424 9.96436C15.6424 9.06451 15.2849 8.20151 14.6487 7.56522C14.0124 6.92893 13.1494 6.57147 12.2495 6.57147ZM12.2495 12.0001C11.8469 12.0001 11.4533 11.8807 11.1185 11.657C10.7837 11.4333 10.5228 11.1154 10.3687 10.7434C10.2147 10.3714 10.1743 9.9621 10.2529 9.56721C10.3314 9.17231 10.5253 8.80958 10.81 8.52488C11.0947 8.24018 11.4575 8.04629 11.8524 7.96774C12.2473 7.88919 12.6566 7.92951 13.0286 8.08359C13.4005 8.23767 13.7185 8.49859 13.9422 8.83337C14.1659 9.16814 14.2853 9.56173 14.2853 9.96436C14.2853 10.5043 14.0708 11.0221 13.689 11.4038C13.3072 11.7856 12.7894 12.0001 12.2495 12.0001ZM12.2495 2.5C10.2705 2.50225 8.37325 3.28939 6.9739 4.68874C5.57454 6.08809 4.7874 7.98538 4.78516 9.96436C4.78516 12.6278 6.01593 15.4507 8.34769 18.1285C9.39543 19.3385 10.5747 20.4282 11.8636 21.3772C11.9777 21.4571 12.1136 21.5 12.2529 21.5C12.3922 21.5 12.5281 21.4571 12.6422 21.3772C13.9288 20.4278 15.1057 19.3382 16.1513 18.1285C18.4797 15.4507 19.7139 12.6278 19.7139 9.96436C19.7116 7.98538 18.9245 6.08809 17.5251 4.68874C16.1258 3.28939 14.2285 2.50225 12.2495 2.5ZM12.2495 19.9734C10.8474 18.8707 6.14231 14.8204 6.14231 9.96436C6.14231 8.34463 6.78575 6.79124 7.93107 5.64591C9.07639 4.50059 10.6298 3.85716 12.2495 3.85716C13.8692 3.85716 15.4226 4.50059 16.568 5.64591C17.7133 6.79124 18.3567 8.34463 18.3567 9.96436C18.3567 14.8187 13.6516 18.8707 12.2495 19.9734Z" fill="#00796B"/>
<path d="M12.2495 6.57147C11.5785 6.57147 10.9225 6.77046 10.3645 7.14327C9.80657 7.51609 9.37169 8.04599 9.11489 8.66596C8.85809 9.28593 8.7909 9.96812 8.92182 10.6263C9.05273 11.2844 9.37588 11.889 9.85038 12.3635C10.3249 12.838 10.9294 13.1611 11.5876 13.2921C12.2458 13.423 12.9279 13.3558 13.5479 13.099C14.1679 12.8422 14.6978 12.4073 15.0706 11.8493C15.4434 11.2914 15.6424 10.6354 15.6424 9.96436C15.6424 9.06451 15.2849 8.20151 14.6487 7.56522C14.0124 6.92893 13.1494 6.57147 12.2495 6.57147ZM12.2495 12.0001C11.8469 12.0001 11.4533 11.8807 11.1185 11.657C10.7837 11.4333 10.5228 11.1154 10.3687 10.7434C10.2147 10.3714 10.1743 9.9621 10.2529 9.56721C10.3314 9.17231 10.5253 8.80958 10.81 8.52488C11.0947 8.24018 11.4575 8.04629 11.8524 7.96774C12.2473 7.88919 12.6566 7.92951 13.0286 8.08359C13.4005 8.23767 13.7185 8.49859 13.9422 8.83337C14.1659 9.16814 14.2853 9.56173 14.2853 9.96436C14.2853 10.5043 14.0708 11.0221 13.689 11.4038C13.3072 11.7856 12.7894 12.0001 12.2495 12.0001ZM12.2495 2.5C10.2705 2.50225 8.37325 3.28939 6.9739 4.68874C5.57454 6.08809 4.7874 7.98538 4.78516 9.96436C4.78516 12.6278 6.01593 15.4507 8.34769 18.1285C9.39543 19.3385 10.5747 20.4282 11.8636 21.3772C11.9777 21.4571 12.1136 21.5 12.2529 21.5C12.3922 21.5 12.5281 21.4571 12.6422 21.3772C13.9288 20.4278 15.1057 19.3382 16.1513 18.1285C18.4797 15.4507 19.7139 12.6278 19.7139 9.96436C19.7116 7.98538 18.9245 6.08809 17.5251 4.68874C16.1258 3.28939 14.2285 2.50225 12.2495 2.5ZM12.2495 19.9734C10.8474 18.8707 6.14231 14.8204 6.14231 9.96436C6.14231 8.34463 6.78575 6.79124 7.93107 5.64591C9.07639 4.50059 10.6298 3.85716 12.2495 3.85716C13.8692 3.85716 15.4226 4.50059 16.568 5.64591C17.7133 6.79124 18.3567 8.34463 18.3567 9.96436C18.3567 14.8187 13.6516 18.8707 12.2495 19.9734Z" fill="url(#paint0_linear_367_8113)" fill-opacity="0.12"/>
<defs>
<linearGradient id="paint0_linear_367_8113" x1="12.2495" y1="2.5" x2="12.2495" y2="21.5" gradientUnits="userSpaceOnUse">
<stop stop-color="white"/>
<stop offset="1" stop-color="white" stop-opacity="0"/>
</linearGradient>
</defs>
</svg>
