<svg width="134" height="161" viewBox="0 0 134 161" fill="none" xmlns="http://www.w3.org/2000/svg">
<path fill-rule="evenodd" clip-rule="evenodd" d="M91.343 13.961C89.3505 12.7293 83.5179 9.25145 78.3735 6.20833C73.2292 3.20144 68.6645 0.59304 68.2298 0.411902C67.6139 0.194537 67.0343 0.37567 65.7301 1.24513C64.1723 2.29573 63.9912 2.5131 63.81 4.2158C63.6651 5.23017 63.7013 21.9674 63.8463 41.3491C63.919 50.4929 63.9755 57.634 64.017 63.6836H76.9095C76.9232 59.2005 76.9419 53.0419 76.9605 46.384C76.9968 29.6107 77.1417 22.8361 77.4315 22.8361C78.0111 22.8361 86.3797 27.5819 94.9657 32.7987C109.239 41.4933 117.173 46.2029 118.514 46.8188L119.419 47.2173V55.4409V63.6284L119.323 63.6836H133.76C133.71 61.1096 133.673 57.8466 133.657 54.3548C133.621 40.8782 133.584 40.0449 132.932 39.6464C131.882 38.9943 119.528 31.2416 116.159 29.0679C109.674 24.938 97.7915 17.6562 96.4149 16.9679C95.6179 16.5332 93.3355 15.1928 91.343 13.961ZM133.556 97.1036H119.577L119.782 97.1759V106.088V115.036L118.224 115.797C116.195 116.775 108.841 120.796 102.755 124.274C100.074 125.832 96.7408 127.68 95.3279 128.44C93.9512 129.201 90.5096 131.121 87.7201 132.751C84.9305 134.345 81.4165 136.302 79.9311 137.062L77.2141 138.439L77.1054 113.007C77.0899 107.027 77.0943 101.491 77.1129 97.1036H64.0867C64.0629 104.421 64.0181 113.253 63.9549 125.615C63.81 157.604 63.81 157.93 64.5346 158.473C64.9331 158.799 65.9475 159.306 66.7807 159.632L68.3023 160.248L71.6714 158.256C73.519 157.133 76.7433 155.321 78.8445 154.162C82.5397 152.097 96.2337 144.38 100.943 141.663C102.248 140.903 106.812 138.294 111.087 135.867C115.362 133.403 121.557 129.853 124.854 127.969C128.15 126.085 131.483 124.202 132.28 123.767C133.077 123.332 133.802 122.897 133.91 122.789C134.019 122.644 133.983 120.289 133.874 117.536C133.729 114.746 133.621 107.501 133.584 101.342C133.578 99.7143 133.569 98.3107 133.556 97.1036ZM14.167 63.6836L14.2144 48.9207L17.9821 46.7108C20.0833 45.4791 23.5974 43.3416 25.771 41.8925C29.7561 39.2841 43.595 30.4446 49.2103 26.9305C50.166 26.3488 51.3122 25.6242 52.328 24.982C53.0836 24.5043 53.7669 24.0723 54.2459 23.7787L56.2747 22.5108L56.4921 14.6494C56.637 10.302 56.7094 6.75176 56.637 6.67931C56.6007 6.64308 55.7675 7.18647 54.7531 7.87479C53.775 8.56312 51.9636 9.61374 50.8043 10.2296C49.6088 10.8092 46.4208 12.7293 43.7399 14.4682C41.0229 16.2434 36.8567 18.8155 34.4657 20.1922C32.0746 21.6051 24.974 25.9886 18.7067 29.9012C3.70044 39.297 2.94621 39.801 2.1183 40.0029C2.05878 40.0174 1.99888 40.0303 1.93328 40.0449C1.0689 40.261 1.06384 40.3697 0.85024 44.9628L0.846449 45.0443C0.781504 46.6247 0.71656 53.8582 0.682537 63.6836H14.167ZM0.665314 97.1036H14.2004C14.2246 100.174 14.2541 102.731 14.2869 104.458L14.468 114.927L15.4099 115.253C15.9171 115.471 17.4025 116.232 18.7067 116.992C19.7738 117.615 22.3692 119.111 24.9644 120.606C25.5408 120.938 26.1171 121.271 26.6767 121.593C28.8822 122.839 32.63 125.013 36.1901 127.079C37.6007 127.897 38.9818 128.699 40.2259 129.418C44.5732 131.991 49.9711 135.07 52.2172 136.265L56.3472 138.439L56.166 142.497C56.1234 143.378 56.0752 144.442 56.0258 145.534C55.9492 147.225 55.8698 148.98 55.8037 150.213L55.5864 153.872L52.1085 151.807C50.1522 150.648 45.7325 148.112 42.2546 146.119C38.7768 144.163 32.5094 140.504 28.307 138.041C24.1408 135.577 18.1632 132.135 15.0839 130.397C12.0045 128.658 8.49048 126.665 7.29496 125.941C6.09945 125.216 4.10694 124.129 2.91142 123.513L0.665314 122.427V97.1036Z" fill="white"/>
<path d="M32.1459 86.7027H37.454V90.2012H29.7935C28.4664 88.9546 27.4611 87.3762 26.7775 85.4661C26.0939 83.556 25.7521 81.5957 25.7521 79.585C25.7521 77.5543 26.1341 75.604 26.8982 73.7341C27.6622 71.8642 28.7982 70.316 30.3062 69.0895H37.454V72.7087H32.1459C31.603 73.332 31.1305 74.3373 30.7284 75.7246C30.3464 77.112 30.1554 78.439 30.1554 79.7057C30.1554 80.9724 30.3464 82.2994 30.7284 83.6867C31.1305 85.0741 31.603 86.0794 32.1459 86.7027ZM48.3896 90.2012H41.8148C39.8042 88.3313 38.7989 85.7778 38.7989 82.5407C38.7989 80.9121 39.0201 79.4946 39.4624 78.2882C39.9248 77.0818 40.6487 75.9156 41.6339 74.7897H48.6912C49.7367 75.9961 50.4505 77.1723 50.8325 78.3183C51.2145 79.4443 51.4056 80.8517 51.4056 82.5407C51.4056 85.7778 50.4002 88.3313 48.3896 90.2012ZM43.9562 87.0344H46.2483C46.9721 85.627 47.334 84.0285 47.334 82.2391C47.334 80.4496 46.9621 79.0221 46.2181 77.9564H43.9562C43.2323 78.9818 42.8704 80.4396 42.8704 82.3295C42.8704 84.1994 43.2323 85.7677 43.9562 87.0344ZM53.7153 90.2012V69.0895H62.3108C63.296 69.4514 64.1706 70.0848 64.9347 70.9896C65.6987 71.8944 66.0807 72.9902 66.0807 74.277C66.0807 76.549 65.3368 78.1374 63.8489 79.0422V79.1628C65.6987 80.1882 66.6236 81.7967 66.6236 83.9883C66.6236 86.5016 65.3469 88.5726 62.7934 90.2012H53.7153ZM57.817 77.8056H60.8028C61.6875 77.2628 62.1298 76.4384 62.1298 75.3325C62.1298 74.2267 61.7177 73.3521 60.8933 72.7087H57.817V77.8056ZM57.817 86.7027H60.9235C61.2854 86.4413 61.6071 86.0291 61.8886 85.4661C62.1902 84.9032 62.341 84.3402 62.341 83.7772C62.341 83.2142 62.2203 82.7015 61.979 82.2391C61.7378 81.7766 61.4362 81.4348 61.0743 81.2136H57.817V86.7027ZM74.012 90.2012H70.8452C69.9606 89.0752 69.3574 87.9493 69.0357 86.8233C68.714 85.6974 68.5531 84.2899 68.5531 82.601V74.7897H72.5643V82.9026C72.5643 84.7323 72.9262 86.1095 73.6501 87.0344H76.4549V74.7897H80.4661V90.2012H77.2994L76.7565 89.1154C75.9924 89.8393 75.0776 90.2012 74.012 90.2012ZM83.0466 90.2012V74.7897H87.0277V90.2012H83.0466ZM83.0466 69.0895H87.0277V73.1611H83.0466V69.0895ZM93.5956 69.0895V90.2012H89.6146V69.0895H93.5956ZM107.854 90.2012H104.808L104.265 89.1154C103.823 89.5176 103.401 89.799 102.999 89.9599C102.617 90.1207 102.033 90.2012 101.249 90.2012H98.6254C97.7407 89.3567 97.037 88.2509 96.5142 86.8836C96.0116 85.5164 95.7603 83.9883 95.7603 82.2994C95.7603 80.5903 96.0116 79.1427 96.5142 77.9564C97.037 76.7701 97.7709 75.7146 98.7159 74.7897H101.31C102.375 74.7897 103.22 75.0712 103.843 75.6341V69.0895H107.854V90.2012ZM103.843 77.9564H100.948C100.204 79.2231 99.8318 80.7814 99.8318 82.6311C99.8318 84.4608 100.194 85.9286 100.918 87.0344H103.843V77.9564Z" fill="white"/>
</svg>
