<svg width="61" height="73" viewBox="0 0 61 73" fill="none" xmlns="http://www.w3.org/2000/svg">
<path fill-rule="evenodd" clip-rule="evenodd" d="M41.1326 6.43516C40.2359 5.88079 37.6107 4.31549 35.2954 2.94586C32.98 1.59253 30.9256 0.418548 30.7299 0.337022C30.4527 0.239191 30.1919 0.320715 29.6049 0.71204C28.9038 1.18489 28.8222 1.28272 28.7407 2.04907C28.6755 2.50561 28.6918 10.0386 28.757 18.7619C28.7898 22.877 28.8152 26.0908 28.8339 28.8135H34.6365C34.6426 26.7958 34.651 24.0242 34.6594 21.0281C34.6757 13.4788 34.741 10.4297 34.8714 10.4297C35.1323 10.4297 38.8988 12.5657 42.7631 14.9136C49.1874 18.8269 52.7582 20.9465 53.3615 21.2237L53.7691 21.4031V25.1044V28.7893L53.7268 28.8135H60.2235C60.2012 27.6551 60.1843 26.1867 60.1771 24.6154C60.1608 18.5499 60.1445 18.1749 59.851 17.9955C59.3781 17.702 53.8181 14.2127 52.3017 13.2344C49.3831 11.3756 44.035 8.09829 43.4154 7.78849C43.0567 7.59283 42.0294 6.98954 41.1326 6.43516ZM60.1319 43.855H53.8383L53.9321 43.8881V47.8992V51.9266L53.231 52.269C52.3179 52.7092 49.008 54.5191 46.2687 56.0844C45.0621 56.7855 43.562 57.6171 42.9261 57.9595C42.3065 58.3019 40.7575 59.1661 39.502 59.8998C38.2465 60.6172 36.6649 61.4977 35.9964 61.8401L34.7735 62.4597L34.7246 51.0135C34.7177 48.3216 34.7196 45.8296 34.728 43.855H28.8652C28.8545 47.1484 28.8344 51.124 28.8059 56.6877C28.7407 71.0852 28.7407 71.232 29.0668 71.4765C29.2462 71.6233 29.7027 71.8516 30.0777 71.9983L30.7625 72.2755L32.2789 71.3787C33.1105 70.8732 34.5617 70.058 35.5074 69.5362C37.1705 68.6068 43.3338 65.1338 45.4535 63.9109C46.0405 63.5685 48.095 62.3946 50.019 61.3021C51.943 60.1934 54.7312 58.5954 56.2149 57.7476C57.6987 56.8997 59.1988 56.0518 59.5575 55.8562C59.9162 55.6605 60.2423 55.4648 60.2912 55.4159C60.3402 55.3507 60.3238 54.2909 60.2749 53.0517C60.2097 51.7962 60.1608 48.5352 60.1445 45.7633C60.1415 45.0304 60.1375 44.3984 60.1319 43.855ZM6.39754 28.8135L6.41891 22.1697L8.11465 21.1751C9.06035 20.6207 10.6419 19.6587 11.6203 19.0065C13.4138 17.8325 19.6424 13.854 22.1697 12.2724C22.5998 12.0106 23.1157 11.6845 23.5729 11.3955C23.9129 11.1805 24.2205 10.986 24.4361 10.8539L25.3492 10.2832L25.4471 6.74496C25.5123 4.78834 25.5449 3.19044 25.5123 3.15783C25.496 3.14153 25.121 3.38609 24.6644 3.69589C24.2242 4.00569 23.4089 4.47855 22.8871 4.75574C22.3491 5.01662 20.9142 5.88079 19.7076 6.66344C18.4847 7.46239 16.6096 8.62006 15.5335 9.23966C14.4574 9.87556 11.2615 11.8485 8.44075 13.6095C1.68681 17.8383 1.34735 18.0651 0.974726 18.156C0.947938 18.1625 0.920978 18.1683 0.89145 18.1749C0.502414 18.2722 0.500139 18.3211 0.404001 20.3883L0.402295 20.425C0.373066 21.1362 0.343838 24.3916 0.328524 28.8135H6.39754ZM0.32077 43.855H6.4126C6.42349 45.2372 6.43676 46.3883 6.45152 47.1655L6.53304 51.8777L6.95698 52.0245C7.18525 52.1223 7.85376 52.4647 8.44075 52.8071C8.92108 53.0873 10.0893 53.7606 11.2573 54.4337C11.5167 54.5832 11.7761 54.7327 12.0279 54.8779C13.0205 55.4384 14.7074 56.4172 16.3098 57.3469C16.9446 57.7153 17.5662 58.0759 18.126 58.3998C20.0826 59.5574 22.5121 60.9434 23.523 61.4815L25.3818 62.4598L25.3003 64.2859C25.2811 64.6824 25.2594 65.1615 25.2372 65.6526C25.2028 66.4139 25.167 67.2039 25.1373 67.7589L25.0394 69.4058L23.4741 68.4764C22.5936 67.9546 20.6044 66.8133 19.0391 65.9165C17.4738 65.036 14.653 63.3892 12.7616 62.2804C10.8865 61.1717 8.19617 59.6227 6.81023 58.84C5.42429 58.0574 3.84269 57.1606 3.30462 56.8345C2.76655 56.5084 1.86976 56.0192 1.33169 55.742L0.32077 55.2529V43.855Z" fill="#00796B"/>
<path fill-rule="evenodd" clip-rule="evenodd" d="M41.1326 6.43516C40.2359 5.88079 37.6107 4.31549 35.2954 2.94586C32.98 1.59253 30.9256 0.418548 30.7299 0.337022C30.4527 0.239191 30.1919 0.320715 29.6049 0.71204C28.9038 1.18489 28.8222 1.28272 28.7407 2.04907C28.6755 2.50561 28.6918 10.0386 28.757 18.7619C28.7898 22.877 28.8152 26.0908 28.8339 28.8135H34.6365C34.6426 26.7958 34.651 24.0242 34.6594 21.0281C34.6757 13.4788 34.741 10.4297 34.8714 10.4297C35.1323 10.4297 38.8988 12.5657 42.7631 14.9136C49.1874 18.8269 52.7582 20.9465 53.3615 21.2237L53.7691 21.4031V25.1044V28.7893L53.7268 28.8135H60.2235C60.2012 27.6551 60.1843 26.1867 60.1771 24.6154C60.1608 18.5499 60.1445 18.1749 59.851 17.9955C59.3781 17.702 53.8181 14.2127 52.3017 13.2344C49.3831 11.3756 44.035 8.09829 43.4154 7.78849C43.0567 7.59283 42.0294 6.98954 41.1326 6.43516ZM60.1319 43.855H53.8383L53.9321 43.8881V47.8992V51.9266L53.231 52.269C52.3179 52.7092 49.008 54.5191 46.2687 56.0844C45.0621 56.7855 43.562 57.6171 42.9261 57.9595C42.3065 58.3019 40.7575 59.1661 39.502 59.8998C38.2465 60.6172 36.6649 61.4977 35.9964 61.8401L34.7735 62.4597L34.7246 51.0135C34.7177 48.3216 34.7196 45.8296 34.728 43.855H28.8652C28.8545 47.1484 28.8344 51.124 28.8059 56.6877C28.7407 71.0852 28.7407 71.232 29.0668 71.4765C29.2462 71.6233 29.7027 71.8516 30.0777 71.9983L30.7625 72.2755L32.2789 71.3787C33.1105 70.8732 34.5617 70.058 35.5074 69.5362C37.1705 68.6068 43.3338 65.1338 45.4535 63.9109C46.0405 63.5685 48.095 62.3946 50.019 61.3021C51.943 60.1934 54.7312 58.5954 56.2149 57.7476C57.6987 56.8997 59.1988 56.0518 59.5575 55.8562C59.9162 55.6605 60.2423 55.4648 60.2912 55.4159C60.3402 55.3507 60.3238 54.2909 60.2749 53.0517C60.2097 51.7962 60.1608 48.5352 60.1445 45.7633C60.1415 45.0304 60.1375 44.3984 60.1319 43.855ZM6.39754 28.8135L6.41891 22.1697L8.11465 21.1751C9.06035 20.6207 10.6419 19.6587 11.6203 19.0065C13.4138 17.8325 19.6424 13.854 22.1697 12.2724C22.5998 12.0106 23.1157 11.6845 23.5729 11.3955C23.9129 11.1805 24.2205 10.986 24.4361 10.8539L25.3492 10.2832L25.4471 6.74496C25.5123 4.78834 25.5449 3.19044 25.5123 3.15783C25.496 3.14153 25.121 3.38609 24.6644 3.69589C24.2242 4.00569 23.4089 4.47855 22.8871 4.75574C22.3491 5.01662 20.9142 5.88079 19.7076 6.66344C18.4847 7.46239 16.6096 8.62006 15.5335 9.23966C14.4574 9.87556 11.2615 11.8485 8.44075 13.6095C1.68681 17.8383 1.34735 18.0651 0.974726 18.156C0.947938 18.1625 0.920978 18.1683 0.89145 18.1749C0.502414 18.2722 0.500139 18.3211 0.404001 20.3883L0.402295 20.425C0.373066 21.1362 0.343838 24.3916 0.328524 28.8135H6.39754ZM0.32077 43.855H6.4126C6.42349 45.2372 6.43676 46.3883 6.45152 47.1655L6.53304 51.8777L6.95698 52.0245C7.18525 52.1223 7.85376 52.4647 8.44075 52.8071C8.92108 53.0873 10.0893 53.7606 11.2573 54.4337C11.5167 54.5832 11.7761 54.7327 12.0279 54.8779C13.0205 55.4384 14.7074 56.4172 16.3098 57.3469C16.9446 57.7153 17.5662 58.0759 18.126 58.3998C20.0826 59.5574 22.5121 60.9434 23.523 61.4815L25.3818 62.4598L25.3003 64.2859C25.2811 64.6824 25.2594 65.1615 25.2372 65.6526C25.2028 66.4139 25.167 67.2039 25.1373 67.7589L25.0394 69.4058L23.4741 68.4764C22.5936 67.9546 20.6044 66.8133 19.0391 65.9165C17.4738 65.036 14.653 63.3892 12.7616 62.2804C10.8865 61.1717 8.19617 59.6227 6.81023 58.84C5.42429 58.0574 3.84269 57.1606 3.30462 56.8345C2.76655 56.5084 1.86976 56.0192 1.33169 55.742L0.32077 55.2529V43.855Z" fill="url(#paint0_linear_1070_3972)" fill-opacity="0.12"/>
<path d="M14.4894 39.7721H16.8785V41.3467H13.4306C12.8334 40.7856 12.3809 40.0752 12.0732 39.2156C11.7656 38.3559 11.6117 37.4735 11.6117 36.5686C11.6117 35.6546 11.7837 34.7768 12.1275 33.9352C12.4714 33.0936 12.9827 32.3968 13.6614 31.8448H16.8785V33.4737H14.4894C14.2451 33.7543 14.0324 34.2067 13.8514 34.8311C13.6795 35.4555 13.5935 36.0528 13.5935 36.6229C13.5935 37.193 13.6795 37.7903 13.8514 38.4147C14.0324 39.0391 14.2451 39.4916 14.4894 39.7721ZM21.8003 41.3467H18.8412C17.9362 40.5051 17.4838 39.3558 17.4838 37.8989C17.4838 37.1659 17.5833 36.5279 17.7824 35.9849C17.9905 35.442 18.3163 34.9171 18.7597 34.4103H21.9361C22.4066 34.9533 22.7279 35.4827 22.8998 35.9985C23.0718 36.5053 23.1577 37.1387 23.1577 37.8989C23.1577 39.3558 22.7053 40.5051 21.8003 41.3467ZM19.8049 39.9214H20.8366C21.1623 39.2879 21.3252 38.5685 21.3252 37.7631C21.3252 36.9577 21.1578 36.3152 20.823 35.8356H19.8049C19.4792 36.2971 19.3163 36.9532 19.3163 37.8038C19.3163 38.6454 19.4792 39.3513 19.8049 39.9214ZM24.1973 41.3467V31.8448H28.0659C28.5093 32.0077 28.903 32.2928 29.2469 32.7C29.5907 33.1072 29.7627 33.6004 29.7627 34.1796C29.7627 35.2022 29.4279 35.9171 28.7582 36.3243V36.3786C29.5907 36.8401 30.007 37.564 30.007 38.5504C30.007 39.6816 29.4324 40.6137 28.2831 41.3467H24.1973ZM26.0434 35.7677H27.3872C27.7854 35.5234 27.9845 35.1524 27.9845 34.6547C27.9845 34.157 27.799 33.7633 27.4279 33.4737H26.0434V35.7677ZM26.0434 39.7721H27.4415C27.6044 39.6544 27.7492 39.4689 27.8759 39.2156C28.0116 38.9622 28.0795 38.7088 28.0795 38.4554C28.0795 38.202 28.0252 37.9713 27.9166 37.7631C27.808 37.555 27.6723 37.4012 27.5094 37.3016H26.0434V39.7721ZM33.3323 41.3467H31.9071C31.5089 40.8399 31.2374 40.3331 31.0926 39.8264C30.9478 39.3196 30.8754 38.6862 30.8754 37.926V34.4103H32.6808V38.0618C32.6808 38.8852 32.8437 39.5051 33.1695 39.9214H34.4318V34.4103H36.2372V41.3467H34.8119L34.5676 40.858C34.2237 41.1838 33.812 41.3467 33.3323 41.3467ZM37.3986 41.3467V34.4103H39.1904V41.3467H37.3986ZM37.3986 31.8448H39.1904V33.6773H37.3986V31.8448ZM42.1465 31.8448V41.3467H40.3547V31.8448H42.1465ZM48.5639 41.3467H47.1929L46.9486 40.858C46.7495 41.039 46.5595 41.1657 46.3785 41.2381C46.2066 41.3105 45.9441 41.3467 45.5912 41.3467H44.4103C44.0121 40.9666 43.6954 40.4689 43.4601 39.8535C43.2338 39.2382 43.1207 38.5504 43.1207 37.7903C43.1207 37.0211 43.2338 36.3695 43.4601 35.8356C43.6954 35.3017 44.0257 34.8266 44.451 34.4103H45.6184C46.098 34.4103 46.478 34.537 46.7586 34.7904V31.8448H48.5639V41.3467ZM46.7586 35.8356H45.4555C45.1206 36.4057 44.9532 37.107 44.9532 37.9396C44.9532 38.7631 45.1161 39.4237 45.4419 39.9214H46.7586V35.8356Z" fill="#0D0B07"/>
<defs>
<linearGradient id="paint0_linear_1070_3972" x1="30.3208" y1="0.299316" x2="30.3208" y2="72.2755" gradientUnits="userSpaceOnUse">
<stop stop-color="white"/>
<stop offset="1" stop-color="white" stop-opacity="0"/>
</linearGradient>
</defs>
</svg>
