<svg width="24" height="24" viewBox="0 0 24 24" fill="none" xmlns="http://www.w3.org/2000/svg">
<path d="M11.251 20.25C11.251 20.4489 11.172 20.6397 11.0313 20.7803C10.8907 20.921 10.6999 21 10.501 21H4.50098C4.30206 21 4.1113 20.921 3.97065 20.7803C3.82999 20.6397 3.75098 20.4489 3.75098 20.25V3.75C3.75098 3.55109 3.82999 3.36032 3.97065 3.21967C4.1113 3.07902 4.30206 3 4.50098 3H10.501C10.6999 3 10.8907 3.07902 11.0313 3.21967C11.172 3.36032 11.251 3.55109 11.251 3.75C11.251 3.94891 11.172 4.13968 11.0313 4.28033C10.8907 4.42098 10.6999 4.5 10.501 4.5H5.25098V19.5H10.501C10.6999 19.5 10.8907 19.579 11.0313 19.7197C11.172 19.8603 11.251 20.0511 11.251 20.25ZM21.5316 11.4694L17.7816 7.71937C17.6409 7.57864 17.45 7.49958 17.251 7.49958C17.052 7.49958 16.8611 7.57864 16.7204 7.71937C16.5796 7.86011 16.5006 8.05098 16.5006 8.25C16.5006 8.44902 16.5796 8.63989 16.7204 8.78063L19.1907 11.25H10.501C10.3021 11.25 10.1113 11.329 9.97065 11.4697C9.82999 11.6103 9.75098 11.8011 9.75098 12C9.75098 12.1989 9.82999 12.3897 9.97065 12.5303C10.1113 12.671 10.3021 12.75 10.501 12.75H19.1907L16.7204 15.2194C16.5796 15.3601 16.5006 15.551 16.5006 15.75C16.5006 15.949 16.5796 16.1399 16.7204 16.2806C16.8611 16.4214 17.052 16.5004 17.251 16.5004C17.45 16.5004 17.6409 16.4214 17.7816 16.2806L21.5316 12.5306C21.6013 12.461 21.6567 12.3783 21.6944 12.2872C21.7321 12.1962 21.7516 12.0986 21.7516 12C21.7516 11.9014 21.7321 11.8038 21.6944 11.7128C21.6567 11.6217 21.6013 11.539 21.5316 11.4694Z" fill="#00796B"/>
<path d="M11.251 20.25C11.251 20.4489 11.172 20.6397 11.0313 20.7803C10.8907 20.921 10.6999 21 10.501 21H4.50098C4.30206 21 4.1113 20.921 3.97065 20.7803C3.82999 20.6397 3.75098 20.4489 3.75098 20.25V3.75C3.75098 3.55109 3.82999 3.36032 3.97065 3.21967C4.1113 3.07902 4.30206 3 4.50098 3H10.501C10.6999 3 10.8907 3.07902 11.0313 3.21967C11.172 3.36032 11.251 3.55109 11.251 3.75C11.251 3.94891 11.172 4.13968 11.0313 4.28033C10.8907 4.42098 10.6999 4.5 10.501 4.5H5.25098V19.5H10.501C10.6999 19.5 10.8907 19.579 11.0313 19.7197C11.172 19.8603 11.251 20.0511 11.251 20.25ZM21.5316 11.4694L17.7816 7.71937C17.6409 7.57864 17.45 7.49958 17.251 7.49958C17.052 7.49958 16.8611 7.57864 16.7204 7.71937C16.5796 7.86011 16.5006 8.05098 16.5006 8.25C16.5006 8.44902 16.5796 8.63989 16.7204 8.78063L19.1907 11.25H10.501C10.3021 11.25 10.1113 11.329 9.97065 11.4697C9.82999 11.6103 9.75098 11.8011 9.75098 12C9.75098 12.1989 9.82999 12.3897 9.97065 12.5303C10.1113 12.671 10.3021 12.75 10.501 12.75H19.1907L16.7204 15.2194C16.5796 15.3601 16.5006 15.551 16.5006 15.75C16.5006 15.949 16.5796 16.1399 16.7204 16.2806C16.8611 16.4214 17.052 16.5004 17.251 16.5004C17.45 16.5004 17.6409 16.4214 17.7816 16.2806L21.5316 12.5306C21.6013 12.461 21.6567 12.3783 21.6944 12.2872C21.7321 12.1962 21.7516 12.0986 21.7516 12C21.7516 11.9014 21.7321 11.8038 21.6944 11.7128C21.6567 11.6217 21.6013 11.539 21.5316 11.4694Z" fill="url(#paint0_linear_367_8130)" fill-opacity="0.12"/>
<defs>
<linearGradient id="paint0_linear_367_8130" x1="12.7513" y1="3" x2="12.7513" y2="21" gradientUnits="userSpaceOnUse">
<stop stop-color="white"/>
<stop offset="1" stop-color="white" stop-opacity="0"/>
</linearGradient>
</defs>
</svg>
