<svg width="54" height="66" viewBox="0 0 54 66" fill="none" xmlns="http://www.w3.org/2000/svg">
<g opacity="0.1" clip-path="url(#clip0_385_5002)">
<path d="M5.90625 62.4067L28.6875 49.3623L53.1731 62.4235C53.4173 62.5535 53.6896 62.6215 53.9663 62.6215C54.2429 62.6215 54.5152 62.5535 54.7594 62.4235L79.3125 49.3623L102.094 62.4067C102.351 62.5524 102.642 62.6281 102.938 62.626C103.303 62.626 103.658 62.5076 103.95 62.2885C104.203 62.0948 104.395 61.8335 104.506 61.5349C104.616 61.2363 104.64 60.9126 104.574 60.601L94.4494 16.726C94.3949 16.4848 94.2881 16.2585 94.1364 16.0631C93.9848 15.8677 93.7921 15.708 93.5719 15.5954L73.3219 5.4704C73.0952 5.36245 72.8473 5.30643 72.5963 5.30643C72.3452 5.30643 72.0973 5.36245 71.8706 5.4704L59.4844 11.1067L70.5881 -11.4552C72.0476 -14.2978 72.7522 -17.4678 72.6342 -20.6609C72.5162 -23.8541 71.5795 -26.9634 69.9142 -29.6905C68.2488 -32.4176 65.9106 -34.671 63.1239 -36.2345C60.3372 -37.798 57.1954 -38.6191 54 -38.6191C50.8046 -38.6191 47.6629 -37.798 44.8761 -36.2345C42.0894 -34.671 39.7512 -32.4176 38.0858 -29.6905C36.4205 -26.9634 35.4839 -23.8541 35.3659 -20.6609C35.2478 -17.4678 35.9524 -14.2978 37.4119 -11.4552L48.5156 11.0392L36.1294 5.4029C35.9027 5.29495 35.6548 5.23893 35.4038 5.23893C35.1527 5.23893 34.9048 5.29495 34.6781 5.4029L14.4281 15.5279C14.2079 15.6405 14.0152 15.8002 13.8636 15.9956C13.7119 16.191 13.6051 16.4173 13.5506 16.6585L3.42563 60.5335C3.34905 60.8539 3.36791 61.1897 3.47991 61.4995C3.5919 61.8093 3.79211 62.0796 4.05587 62.2769C4.31962 62.4743 4.63537 62.5902 4.96418 62.6102C5.29299 62.6303 5.62048 62.5536 5.90625 62.3898V62.4067ZM42.1875 -20.0615C42.1875 -22.3978 42.8803 -24.6816 44.1783 -26.6241C45.4762 -28.5667 47.3211 -30.0807 49.4796 -30.9748C51.638 -31.8689 54.0131 -32.1028 56.3045 -31.647C58.5959 -31.1912 60.7007 -30.0662 62.3527 -28.4142C64.0047 -26.7622 65.1297 -24.6574 65.5855 -22.366C66.0413 -20.0746 65.8074 -17.6995 64.9133 -15.541C64.0193 -13.3826 62.5052 -11.5377 60.5627 -10.2397C58.6201 -8.94176 56.3363 -8.24897 54 -8.24897C50.8671 -8.24897 47.8626 -9.4935 45.6473 -11.7088C43.432 -13.924 42.1875 -16.9286 42.1875 -20.0615ZM36.7369 9.3854L50.8781 15.8148L54 22.126L57.1219 15.8148L71.2631 9.3854L77.4563 46.5104L55.6875 58.1204V25.501H52.3125V58.1204L30.5438 46.5273L36.7369 9.3854Z" fill="#6262C8"/>
</g>
<defs>
<clipPath id="clip0_385_5002">
<rect width="54" height="66" fill="white"/>
</clipPath>
</defs>
</svg>
