<svg width="36" height="36" viewBox="0 0 36 36" fill="none" xmlns="http://www.w3.org/2000/svg">
<path d="M1.96874 34.8022L9.56249 30.4541L17.7244 34.8078C17.8058 34.8512 17.8965 34.8738 17.9887 34.8738C18.0809 34.8738 18.1717 34.8512 18.2531 34.8078L26.4375 30.4541L34.0312 34.8022C34.117 34.8508 34.214 34.876 34.3125 34.8753C34.4342 34.8753 34.5526 34.8359 34.65 34.7628C34.7342 34.6983 34.7985 34.6112 34.8353 34.5116C34.8721 34.4121 34.88 34.3042 34.8581 34.2003L31.4831 19.5753C31.465 19.4949 31.4293 19.4195 31.3788 19.3544C31.3283 19.2892 31.264 19.236 31.1906 19.1985L24.4406 15.8235C24.3651 15.7875 24.2824 15.7688 24.1987 15.7688C24.1151 15.7688 24.0324 15.7875 23.9569 15.8235L19.8281 17.7022L23.5294 10.1816C24.0159 9.23406 24.2507 8.17741 24.2114 7.11302C24.172 6.04862 23.8598 5.01218 23.3047 4.10315C22.7496 3.19412 21.9702 2.44299 21.0413 1.92183C20.1124 1.40066 19.0651 1.12695 18 1.12695C16.9349 1.12695 15.8876 1.40066 14.9587 1.92183C14.0298 2.44299 13.2504 3.19412 12.6953 4.10315C12.1402 5.01218 11.8279 6.04862 11.7886 7.11302C11.7493 8.17741 11.9841 9.23406 12.4706 10.1816L16.1719 17.6797L12.0431 15.801C11.9676 15.765 11.8849 15.7463 11.8012 15.7463C11.7176 15.7463 11.6349 15.765 11.5594 15.801L4.80937 19.176C4.73598 19.2135 4.67173 19.2667 4.62119 19.3319C4.57064 19.397 4.53503 19.4724 4.51687 19.5528L1.14187 34.1778C1.11634 34.2846 1.12263 34.3966 1.15996 34.4998C1.19729 34.6031 1.26403 34.6932 1.35195 34.759C1.43986 34.8248 1.54512 34.8634 1.65472 34.8701C1.76432 34.8768 1.87348 34.8512 1.96874 34.7966V34.8022ZM14.0625 7.31284C14.0625 6.53408 14.2934 5.7728 14.7261 5.12529C15.1587 4.47777 15.7737 3.97309 16.4932 3.67507C17.2127 3.37705 18.0044 3.29907 18.7682 3.451C19.532 3.60293 20.2336 3.97794 20.7842 4.52861C21.3349 5.07928 21.7099 5.78087 21.8618 6.54467C22.0138 7.30847 21.9358 8.10017 21.6378 8.81966C21.3397 9.53914 20.8351 10.1541 20.1876 10.5868C19.54 11.0194 18.7788 11.2503 18 11.2503C16.9557 11.2503 15.9542 10.8355 15.2158 10.0971C14.4773 9.35865 14.0625 8.35713 14.0625 7.31284ZM12.2456 17.1285L16.9594 19.2716L18 21.3753L19.0406 19.2716L23.7544 17.1285L25.8187 29.5035L18.5625 33.3735V22.5003H17.4375V33.3735L10.1812 29.5091L12.2456 17.1285Z" fill="#6262C8"/>
<path d="M18 8.79188L19.3894 9.5625L19.125 7.93687L20.25 6.78375L18.6975 6.54188L18 5.0625L17.3025 6.54188L15.75 6.78375L16.875 7.93687L16.6106 9.5625L18 8.79188Z" fill="#6262C8"/>
</svg>
