<svg width="24" height="24" viewBox="0 0 24 24" fill="none" xmlns="http://www.w3.org/2000/svg">
<path d="M11.9998 10.0813C13.7774 10.0813 15.2236 8.63508 15.2236 6.8575C15.2236 5.07993 13.7775 3.63379 11.9998 3.63379C10.2222 3.63379 8.77612 5.07993 8.77612 6.8575C8.77612 8.63508 10.2223 10.0813 11.9998 10.0813ZM11.9998 4.6736C13.204 4.6736 14.1838 5.6533 14.1838 6.8575C14.1838 8.0617 13.2041 9.04151 11.9998 9.04151C10.7956 9.04151 9.81594 8.06176 9.81594 6.8575C9.81594 5.65324 10.7956 4.6736 11.9998 4.6736Z" fill="#00796B"/>
<path d="M11.9998 10.0813C13.7774 10.0813 15.2236 8.63508 15.2236 6.8575C15.2236 5.07993 13.7775 3.63379 11.9998 3.63379C10.2222 3.63379 8.77612 5.07993 8.77612 6.8575C8.77612 8.63508 10.2223 10.0813 11.9998 10.0813ZM11.9998 4.6736C13.204 4.6736 14.1838 5.6533 14.1838 6.8575C14.1838 8.0617 13.2041 9.04151 11.9998 9.04151C10.7956 9.04151 9.81594 8.06176 9.81594 6.8575C9.81594 5.65324 10.7956 4.6736 11.9998 4.6736Z" fill="url(#paint0_linear_385_4725)" fill-opacity="0.12"/>
<path d="M15.7403 11.8C15.5015 11.7236 14.8077 11.5138 14.7783 11.5048C14.5143 11.425 14.2339 11.5652 14.1394 11.8244L12.8311 15.4139L12.5234 13.2827L13.1125 12.2624C13.2054 12.1015 13.2054 11.9034 13.1125 11.7425C13.0196 11.5817 12.848 11.4826 12.6622 11.4826H11.3377C11.1519 11.4826 10.9803 11.5817 10.8874 11.7425C10.7945 11.9034 10.7945 12.1016 10.8874 12.2624L11.4767 13.283L11.1739 15.4282L9.86046 11.8244C9.76599 11.5652 9.4855 11.4249 9.22154 11.5048C9.19211 11.5137 8.49839 11.7236 8.2595 11.8C6.95126 12.2187 6.07227 13.4357 6.07227 14.8282V20.114C6.07227 20.4011 6.30503 20.6339 6.59214 20.6339H17.4076C17.6947 20.6339 17.9275 20.4011 17.9275 20.114V14.8282C17.9275 13.4357 17.0485 12.2187 15.7403 11.8ZM7.11208 19.5942V14.8282C7.11208 13.8896 7.70057 13.0706 8.57645 12.7903C8.67698 12.7581 8.86792 12.6993 9.05212 12.643L11.5114 19.3909C11.5403 19.4702 11.5873 19.5393 11.6465 19.5942L7.11208 19.5942ZM16.8878 19.5941H12.3532C12.4125 19.5392 12.4595 19.4701 12.4884 19.3908L14.9477 12.643C15.1319 12.6993 15.3229 12.758 15.4234 12.7902C16.2993 13.0705 16.8878 13.8895 16.8878 14.8282V19.5941Z" fill="#00796B"/>
<path d="M15.7403 11.8C15.5015 11.7236 14.8077 11.5138 14.7783 11.5048C14.5143 11.425 14.2339 11.5652 14.1394 11.8244L12.8311 15.4139L12.5234 13.2827L13.1125 12.2624C13.2054 12.1015 13.2054 11.9034 13.1125 11.7425C13.0196 11.5817 12.848 11.4826 12.6622 11.4826H11.3377C11.1519 11.4826 10.9803 11.5817 10.8874 11.7425C10.7945 11.9034 10.7945 12.1016 10.8874 12.2624L11.4767 13.283L11.1739 15.4282L9.86046 11.8244C9.76599 11.5652 9.4855 11.4249 9.22154 11.5048C9.19211 11.5137 8.49839 11.7236 8.2595 11.8C6.95126 12.2187 6.07227 13.4357 6.07227 14.8282V20.114C6.07227 20.4011 6.30503 20.6339 6.59214 20.6339H17.4076C17.6947 20.6339 17.9275 20.4011 17.9275 20.114V14.8282C17.9275 13.4357 17.0485 12.2187 15.7403 11.8ZM7.11208 19.5942V14.8282C7.11208 13.8896 7.70057 13.0706 8.57645 12.7903C8.67698 12.7581 8.86792 12.6993 9.05212 12.643L11.5114 19.3909C11.5403 19.4702 11.5873 19.5393 11.6465 19.5942L7.11208 19.5942ZM16.8878 19.5941H12.3532C12.4125 19.5392 12.4595 19.4701 12.4884 19.3908L14.9477 12.643C15.1319 12.6993 15.3229 12.758 15.4234 12.7902C16.2993 13.0705 16.8878 13.8895 16.8878 14.8282V19.5941Z" fill="url(#paint1_linear_385_4725)" fill-opacity="0.12"/>
<defs>
<linearGradient id="paint0_linear_385_4725" x1="11.9999" y1="3.63379" x2="11.9999" y2="10.0813" gradientUnits="userSpaceOnUse">
<stop stop-color="white"/>
<stop offset="1" stop-color="white" stop-opacity="0"/>
</linearGradient>
<linearGradient id="paint1_linear_385_4725" x1="11.9999" y1="11.4824" x2="11.9999" y2="20.6339" gradientUnits="userSpaceOnUse">
<stop stop-color="white"/>
<stop offset="1" stop-color="white" stop-opacity="0"/>
</linearGradient>
</defs>
</svg>
