<svg width="24" height="24" viewBox="0 0 24 24" fill="none" xmlns="http://www.w3.org/2000/svg">
<path d="M20.8474 14.8556L16.4308 12.8765L16.4186 12.8709C16.1893 12.7728 15.9392 12.7334 15.6909 12.7563C15.4425 12.7793 15.2038 12.8637 14.9964 13.0021C14.9719 13.0182 14.9485 13.0358 14.9261 13.0546L12.6442 14.9999C11.1985 14.2977 9.70601 12.8165 9.00382 11.3896L10.952 9.073C10.9707 9.04956 10.9885 9.02613 11.0054 9.00081C11.1408 8.79391 11.223 8.55674 11.2445 8.31041C11.2661 8.06408 11.2265 7.81623 11.1291 7.58892V7.57767L9.14444 3.15357C9.01576 2.85663 8.79449 2.60927 8.51367 2.44841C8.23285 2.28756 7.90754 2.22184 7.5863 2.26106C6.31595 2.42822 5.14988 3.0521 4.3059 4.01617C3.46191 4.98023 2.99771 6.21856 3.00001 7.49986C3.00001 14.9437 9.05632 21 16.5001 21C17.7814 21.0023 19.0198 20.5381 19.9838 19.6941C20.9479 18.8501 21.5718 17.6841 21.7389 16.4137C21.7782 16.0926 21.7127 15.7673 21.552 15.4865C21.3913 15.2057 21.1441 14.9844 20.8474 14.8556ZM16.5001 19.5C13.3186 19.4965 10.2683 18.2311 8.01861 15.9814C5.76891 13.7317 4.5035 10.6814 4.50002 7.49986C4.4965 6.58437 4.82632 5.6989 5.42791 5.00881C6.0295 4.31872 6.8617 3.8712 7.76912 3.74982C7.76875 3.75357 7.76875 3.75733 7.76912 3.76107L9.73789 8.16737L7.80005 10.4868C7.78039 10.5094 7.76252 10.5335 7.74662 10.559C7.60554 10.7754 7.52277 11.0247 7.50635 11.2826C7.48992 11.5405 7.54039 11.7982 7.65287 12.0308C8.50225 13.768 10.2526 15.5053 12.0085 16.3537C12.2429 16.4651 12.5021 16.5138 12.7609 16.4951C13.0197 16.4764 13.2693 16.3908 13.4851 16.2468C13.5092 16.2306 13.5323 16.2131 13.5545 16.1943L15.8336 14.2499L20.2399 16.2234C20.2399 16.2234 20.2474 16.2234 20.2502 16.2234C20.1303 17.1321 19.6834 17.966 18.9932 18.569C18.303 19.1721 17.4167 19.5031 16.5001 19.5Z" fill="#00796B"/>
<path d="M20.8474 14.8556L16.4308 12.8765L16.4186 12.8709C16.1893 12.7728 15.9392 12.7334 15.6909 12.7563C15.4425 12.7793 15.2038 12.8637 14.9964 13.0021C14.9719 13.0182 14.9485 13.0358 14.9261 13.0546L12.6442 14.9999C11.1985 14.2977 9.70601 12.8165 9.00382 11.3896L10.952 9.073C10.9707 9.04956 10.9885 9.02613 11.0054 9.00081C11.1408 8.79391 11.223 8.55674 11.2445 8.31041C11.2661 8.06408 11.2265 7.81623 11.1291 7.58892V7.57767L9.14444 3.15357C9.01576 2.85663 8.79449 2.60927 8.51367 2.44841C8.23285 2.28756 7.90754 2.22184 7.5863 2.26106C6.31595 2.42822 5.14988 3.0521 4.3059 4.01617C3.46191 4.98023 2.99771 6.21856 3.00001 7.49986C3.00001 14.9437 9.05632 21 16.5001 21C17.7814 21.0023 19.0198 20.5381 19.9838 19.6941C20.9479 18.8501 21.5718 17.6841 21.7389 16.4137C21.7782 16.0926 21.7127 15.7673 21.552 15.4865C21.3913 15.2057 21.1441 14.9844 20.8474 14.8556ZM16.5001 19.5C13.3186 19.4965 10.2683 18.2311 8.01861 15.9814C5.76891 13.7317 4.5035 10.6814 4.50002 7.49986C4.4965 6.58437 4.82632 5.6989 5.42791 5.00881C6.0295 4.31872 6.8617 3.8712 7.76912 3.74982C7.76875 3.75357 7.76875 3.75733 7.76912 3.76107L9.73789 8.16737L7.80005 10.4868C7.78039 10.5094 7.76252 10.5335 7.74662 10.559C7.60554 10.7754 7.52277 11.0247 7.50635 11.2826C7.48992 11.5405 7.54039 11.7982 7.65287 12.0308C8.50225 13.768 10.2526 15.5053 12.0085 16.3537C12.2429 16.4651 12.5021 16.5138 12.7609 16.4951C13.0197 16.4764 13.2693 16.3908 13.4851 16.2468C13.5092 16.2306 13.5323 16.2131 13.5545 16.1943L15.8336 14.2499L20.2399 16.2234C20.2399 16.2234 20.2474 16.2234 20.2502 16.2234C20.1303 17.1321 19.6834 17.966 18.9932 18.569C18.303 19.1721 17.4167 19.5031 16.5001 19.5Z" fill="url(#paint0_linear_367_8108)" fill-opacity="0.12"/>
<defs>
<linearGradient id="paint0_linear_367_8108" x1="12.375" y1="2.25" x2="12.375" y2="21" gradientUnits="userSpaceOnUse">
<stop stop-color="white"/>
<stop offset="1" stop-color="white" stop-opacity="0"/>
</linearGradient>
</defs>
</svg>
