<svg width="104" height="198" viewBox="0 0 104 198" fill="none" xmlns="http://www.w3.org/2000/svg">
<g clip-path="url(#clip0_1824_7732)">
<g opacity="0.2" clip-path="url(#clip1_1824_7732)">
<rect x="-0.00830078" y="70.3926" width="51.1885" height="51.1885" rx="5.64839" stroke="url(#paint0_linear_1824_7732)" stroke-width="0.529536"/>
<rect x="51.1802" y="70.3926" width="51.1885" height="51.1885" rx="5.64839" stroke="url(#paint1_linear_1824_7732)" stroke-width="0.529536"/>
<rect x="102.369" y="70.3926" width="51.1885" height="51.1885" rx="5.64839" stroke="url(#paint2_linear_1824_7732)" stroke-width="0.529536"/>
<rect x="-0.00830078" y="-31.9844" width="51.1885" height="51.1885" rx="5.64839" stroke="url(#paint3_linear_1824_7732)" stroke-width="0.529536"/>
<rect x="51.1802" y="-31.9844" width="51.1885" height="51.1885" rx="5.64839" stroke="url(#paint4_linear_1824_7732)" stroke-width="0.529536"/>
<rect x="102.369" y="-31.9844" width="51.1885" height="51.1885" rx="5.64839" stroke="url(#paint5_linear_1824_7732)" stroke-width="0.529536"/>
<rect x="-0.00830078" y="19.2041" width="51.1885" height="51.1885" rx="5.64839" stroke="url(#paint6_linear_1824_7732)" stroke-width="0.529536"/>
<rect x="51.1802" y="19.2041" width="51.1885" height="51.1885" rx="5.64839" stroke="url(#paint7_linear_1824_7732)" stroke-width="0.529536"/>
<rect x="102.369" y="19.2041" width="51.1885" height="51.1885" rx="5.64839" stroke="url(#paint8_linear_1824_7732)" stroke-width="0.529536"/>
</g>
<path d="M80.4737 173.042L42.8207 182.346C38.2807 183.468 33.6554 180.686 32.5307 176.158L8.82913 80.7243C7.70442 76.1957 10.4931 71.582 15.0331 70.4601L52.6861 61.1556C57.2261 60.0338 61.8514 62.8154 62.9761 67.344L86.6674 162.736C87.844 167.296 85.0554 171.909 80.4737 173.042Z" fill="#1F1F2B"/>
<path d="M53.0736 63.2105L48.329 64.3815C47.9961 64.4637 47.7668 64.785 47.7662 65.138L47.8469 66.7059C47.8865 67.9311 47.0943 69.0088 45.8874 69.3067L24.9116 74.484C23.7463 74.7716 22.4991 74.1973 21.9601 73.0954L21.2967 71.6712C21.1724 71.3491 20.8191 71.1716 20.4861 71.2538L15.7 72.4352C12.204 73.298 10.0454 76.8742 10.9237 80.4065L34.5776 175.529C35.456 179.061 39.0304 181.178 42.5264 180.315L79.8999 171.091C83.4375 170.217 85.5546 166.652 84.6865 163.161L61.0326 68.0385C60.1542 64.5062 56.6111 62.3373 53.0736 63.2105Z" fill="white"/>
<rect x="36.4457" y="147.573" width="36.8348" height="10.0928" rx="1.02319" transform="rotate(-15 36.4457 147.573)" fill="#00796B"/>
<rect x="36.4457" y="147.573" width="36.8348" height="10.0928" rx="1.02319" transform="rotate(-15 36.4457 147.573)" fill="url(#paint9_linear_1824_7732)" fill-opacity="0.12"/>
<path d="M51.5881 150.874C51.3839 150.929 51.19 150.943 51.0066 150.918C50.8241 150.89 50.662 150.826 50.5203 150.724C50.3796 150.62 50.2693 150.483 50.1893 150.311L50.6027 150.13C50.6928 150.292 50.8201 150.404 50.9846 150.464C51.1487 150.523 51.323 150.528 51.5075 150.478C51.6222 150.448 51.7228 150.402 51.8095 150.34C51.8958 150.278 51.9589 150.205 51.9989 150.122C52.0398 150.038 52.0476 149.948 52.0222 149.853C52.0084 149.802 51.987 149.759 51.958 149.724C51.9302 149.689 51.8967 149.662 51.8573 149.641C51.8188 149.619 51.7744 149.603 51.724 149.594C51.6745 149.584 51.6212 149.577 51.5643 149.576L50.7772 149.556C50.7004 149.554 50.6207 149.546 50.538 149.533C50.4551 149.518 50.3754 149.492 50.299 149.455C50.2235 149.416 50.1559 149.361 50.0962 149.291C50.036 149.22 49.9905 149.126 49.9594 149.01C49.9124 148.835 49.9175 148.674 49.9746 148.529C50.0327 148.382 50.1306 148.257 50.2681 148.154C50.4054 148.049 50.5695 147.971 50.7606 147.92C50.9537 147.871 51.1348 147.86 51.304 147.885C51.4746 147.91 51.6265 147.971 51.7598 148.068C51.8941 148.163 52.0039 148.293 52.0891 148.458L51.6664 148.652C51.618 148.551 51.5513 148.47 51.4663 148.411C51.3809 148.351 51.2859 148.313 51.1814 148.297C51.0766 148.28 50.9693 148.285 50.8595 148.313C50.7534 148.339 50.6608 148.381 50.5817 148.439C50.5039 148.496 50.4469 148.563 50.4108 148.639C50.376 148.715 50.3694 148.793 50.3909 148.873C50.4121 148.952 50.4523 149.01 50.5115 149.046C50.5707 149.083 50.6378 149.106 50.7127 149.117C50.7887 149.127 50.8627 149.132 50.9349 149.132L51.5004 149.139C51.5712 149.14 51.6524 149.145 51.7439 149.155C51.8363 149.162 51.9288 149.183 52.0214 149.218C52.1153 149.252 52.2003 149.308 52.2764 149.387C52.3522 149.464 52.4086 149.572 52.4457 149.71C52.4842 149.854 52.4891 149.988 52.4604 150.113C52.4314 150.237 52.376 150.349 52.2943 150.45C52.2136 150.549 52.1123 150.635 51.9904 150.707C51.8685 150.779 51.7344 150.835 51.5881 150.874ZM54.2884 150.151C54.0038 150.227 53.7447 150.23 53.5113 150.16C53.2774 150.088 53.0773 149.955 52.9109 149.761C52.7458 149.567 52.6239 149.323 52.5451 149.029C52.4664 148.735 52.4499 148.463 52.4956 148.212C52.5427 147.96 52.6498 147.746 52.8169 147.568C52.9837 147.39 53.2093 147.262 53.494 147.186C53.8221 147.098 54.1158 147.108 54.3751 147.217C54.6357 147.325 54.8458 147.508 55.0053 147.766L54.6165 147.991C54.5078 147.807 54.3671 147.677 54.1944 147.602C54.0231 147.526 53.8247 147.519 53.5994 147.579C53.3978 147.633 53.2419 147.724 53.1319 147.851C53.0218 147.977 52.9544 148.132 52.9297 148.314C52.9063 148.495 52.9237 148.694 52.982 148.912C53.0389 149.13 53.1229 149.311 53.2339 149.457C53.3462 149.602 53.4817 149.702 53.6405 149.757C53.8006 149.811 53.9814 149.811 54.183 149.757C54.4084 149.697 54.5764 149.591 54.687 149.44C54.7986 149.287 54.8556 149.105 54.858 148.892L55.3072 148.893C55.2981 149.196 55.2077 149.459 55.0361 149.683C54.8658 149.907 54.6166 150.063 54.2884 150.151ZM55.6975 149.71L55.8599 146.615L56.4548 146.456L58.1426 149.054L57.7137 149.169L56.1658 146.8L56.2725 146.772L56.1264 149.595L55.6975 149.71ZM56.0057 148.938L55.9019 148.551L57.3883 148.153L57.4921 148.54L56.0057 148.938ZM58.4972 148.959L57.7345 146.113L58.1536 146.001L60.1217 147.74L59.555 145.625L59.9741 145.513L60.7368 148.359L60.3177 148.472L58.349 146.73L58.9163 148.847L58.4972 148.959Z" fill="white"/>
<path d="M51.5881 150.874C51.3839 150.929 51.19 150.943 51.0066 150.918C50.8241 150.89 50.662 150.826 50.5203 150.724C50.3796 150.62 50.2693 150.483 50.1893 150.311L50.6027 150.13C50.6928 150.292 50.8201 150.404 50.9846 150.464C51.1487 150.523 51.323 150.528 51.5075 150.478C51.6222 150.448 51.7228 150.402 51.8095 150.34C51.8958 150.278 51.9589 150.205 51.9989 150.122C52.0398 150.038 52.0476 149.948 52.0222 149.853C52.0084 149.802 51.987 149.759 51.958 149.724C51.9302 149.689 51.8967 149.662 51.8573 149.641C51.8188 149.619 51.7744 149.603 51.724 149.594C51.6745 149.584 51.6212 149.577 51.5643 149.576L50.7772 149.556C50.7004 149.554 50.6207 149.546 50.538 149.533C50.4551 149.518 50.3754 149.492 50.299 149.455C50.2235 149.416 50.1559 149.361 50.0962 149.291C50.036 149.22 49.9905 149.126 49.9594 149.01C49.9124 148.835 49.9175 148.674 49.9746 148.529C50.0327 148.382 50.1306 148.257 50.2681 148.154C50.4054 148.049 50.5695 147.971 50.7606 147.92C50.9537 147.871 51.1348 147.86 51.304 147.885C51.4746 147.91 51.6265 147.971 51.7598 148.068C51.8941 148.163 52.0039 148.293 52.0891 148.458L51.6664 148.652C51.618 148.551 51.5513 148.47 51.4663 148.411C51.3809 148.351 51.2859 148.313 51.1814 148.297C51.0766 148.28 50.9693 148.285 50.8595 148.313C50.7534 148.339 50.6608 148.381 50.5817 148.439C50.5039 148.496 50.4469 148.563 50.4108 148.639C50.376 148.715 50.3694 148.793 50.3909 148.873C50.4121 148.952 50.4523 149.01 50.5115 149.046C50.5707 149.083 50.6378 149.106 50.7127 149.117C50.7887 149.127 50.8627 149.132 50.9349 149.132L51.5004 149.139C51.5712 149.14 51.6524 149.145 51.7439 149.155C51.8363 149.162 51.9288 149.183 52.0214 149.218C52.1153 149.252 52.2003 149.308 52.2764 149.387C52.3522 149.464 52.4086 149.572 52.4457 149.71C52.4842 149.854 52.4891 149.988 52.4604 150.113C52.4314 150.237 52.376 150.349 52.2943 150.45C52.2136 150.549 52.1123 150.635 51.9904 150.707C51.8685 150.779 51.7344 150.835 51.5881 150.874ZM54.2884 150.151C54.0038 150.227 53.7447 150.23 53.5113 150.16C53.2774 150.088 53.0773 149.955 52.9109 149.761C52.7458 149.567 52.6239 149.323 52.5451 149.029C52.4664 148.735 52.4499 148.463 52.4956 148.212C52.5427 147.96 52.6498 147.746 52.8169 147.568C52.9837 147.39 53.2093 147.262 53.494 147.186C53.8221 147.098 54.1158 147.108 54.3751 147.217C54.6357 147.325 54.8458 147.508 55.0053 147.766L54.6165 147.991C54.5078 147.807 54.3671 147.677 54.1944 147.602C54.0231 147.526 53.8247 147.519 53.5994 147.579C53.3978 147.633 53.2419 147.724 53.1319 147.851C53.0218 147.977 52.9544 148.132 52.9297 148.314C52.9063 148.495 52.9237 148.694 52.982 148.912C53.0389 149.13 53.1229 149.311 53.2339 149.457C53.3462 149.602 53.4817 149.702 53.6405 149.757C53.8006 149.811 53.9814 149.811 54.183 149.757C54.4084 149.697 54.5764 149.591 54.687 149.44C54.7986 149.287 54.8556 149.105 54.858 148.892L55.3072 148.893C55.2981 149.196 55.2077 149.459 55.0361 149.683C54.8658 149.907 54.6166 150.063 54.2884 150.151ZM55.6975 149.71L55.8599 146.615L56.4548 146.456L58.1426 149.054L57.7137 149.169L56.1658 146.8L56.2725 146.772L56.1264 149.595L55.6975 149.71ZM56.0057 148.938L55.9019 148.551L57.3883 148.153L57.4921 148.54L56.0057 148.938ZM58.4972 148.959L57.7345 146.113L58.1536 146.001L60.1217 147.74L59.555 145.625L59.9741 145.513L60.7368 148.359L60.3177 148.472L58.349 146.73L58.9163 148.847L58.4972 148.959Z" fill="url(#paint10_linear_1824_7732)" fill-opacity="0.12"/>
<g clip-path="url(#clip2_1824_7732)">
<path d="M56.9406 112.988C56.5326 113.101 56.294 113.525 56.4079 113.933L57.8519 119.11L52.6794 120.549C52.2715 120.663 52.0329 121.086 52.1468 121.494C52.2607 121.903 52.684 122.142 53.092 122.028L59.0033 120.383C59.4113 120.27 59.6499 119.846 59.536 119.438L57.8858 113.522C57.7719 113.113 57.3485 112.874 56.9406 112.988Z" fill="#0D0B07"/>
<path d="M37.3284 126.415L43.2397 124.77C43.6477 124.657 43.8862 124.233 43.7724 123.825C43.6585 123.417 43.2351 123.177 42.8272 123.291L37.6547 124.73L36.2108 119.553C36.0969 119.145 35.6735 118.906 35.2656 119.019C34.8577 119.133 34.6191 119.556 34.733 119.965L36.3832 125.881C36.4971 126.289 36.9204 126.529 37.3284 126.415Z" fill="#0D0B07"/>
<path d="M47.0414 100.331L52.2138 98.8912L53.6577 104.068C53.7716 104.476 54.195 104.716 54.6029 104.602C55.0109 104.489 55.2495 104.065 55.1356 103.657L53.4854 97.7404C53.3715 97.3321 52.9481 97.0929 52.5402 97.2065L46.6288 98.8515C46.2209 98.965 45.9823 99.3884 46.0962 99.7967C46.2101 100.205 46.6334 100.444 47.0414 100.331Z" fill="#0D0B07"/>
<path d="M32.9278 110.638C33.3357 110.524 33.5743 110.101 33.4604 109.693L32.0165 104.516L37.1889 103.076C37.5968 102.963 37.8354 102.539 37.7215 102.131C37.6077 101.723 37.1843 101.484 36.7763 101.597L30.865 103.242C30.4571 103.356 30.2185 103.779 30.3324 104.187L31.9826 110.104C32.0965 110.512 32.5198 110.751 32.9278 110.638Z" fill="#0D0B07"/>
<path d="M49.0366 118.907L53.9627 117.536C54.3706 117.422 54.6092 116.999 54.4953 116.591L53.1201 111.66C53.0063 111.252 52.5829 111.013 52.1749 111.126L47.2488 112.497C46.8409 112.611 46.6023 113.034 46.7162 113.442L48.0914 118.373C48.2052 118.781 48.6286 119.02 49.0366 118.907ZM49.3629 117.222L48.4003 113.771L51.8486 112.811L52.8112 116.262L49.3629 117.222Z" fill="#0D0B07"/>
<path d="M43.3079 113.594L38.3818 114.965C37.9738 115.078 37.7352 115.502 37.8491 115.91L39.2243 120.84C39.3382 121.249 39.7615 121.488 40.1695 121.374L45.0956 120.003C45.5036 119.89 45.7421 119.467 45.6283 119.058L44.2531 114.128C44.1392 113.72 43.7158 113.48 43.3079 113.594ZM42.9815 115.279L43.9441 118.73L40.4959 119.69L39.5332 116.238L42.9815 115.279Z" fill="#0D0B07"/>
<path d="M46.5608 110.032L51.4869 108.661C51.8949 108.547 52.1335 108.124 52.0196 107.716L50.6444 102.785C50.5305 102.377 50.1072 102.138 49.6992 102.251L44.7731 103.622C44.3651 103.736 44.1266 104.159 44.2404 104.567L45.6156 109.498C45.7295 109.906 46.1529 110.145 46.5608 110.032ZM46.8872 108.347L45.9246 104.896L49.3728 103.936L50.3355 107.387L46.8872 108.347Z" fill="#0D0B07"/>
<path d="M36.8514 106.624C36.7375 106.216 36.3141 105.977 35.9062 106.09C35.4983 106.204 35.2597 106.627 35.3736 107.035L36.7487 111.966C36.8626 112.374 37.286 112.613 37.6939 112.5C38.1019 112.386 38.3405 111.963 38.2266 111.555L37.7453 109.829L39.962 109.212C40.37 109.099 40.6085 108.675 40.4947 108.267C40.3808 107.859 39.9574 107.619 39.5495 107.733L37.3327 108.35L36.8514 106.624Z" fill="#0D0B07"/>
<path d="M42.2076 109.647C41.7993 109.761 41.5606 110.184 41.6745 110.592C41.7884 111 42.2117 111.239 42.6199 111.126C43.0282 111.012 43.2669 110.589 43.153 110.181C43.0392 109.772 42.6159 109.534 42.2076 109.647Z" fill="#0D0B07"/>
<path d="M40.8322 104.72C40.4239 104.834 40.1852 105.257 40.2991 105.665C40.4129 106.074 40.8362 106.313 41.2445 106.199C41.6528 106.085 41.8915 105.662 41.7776 105.254C41.6637 104.846 41.2405 104.607 40.8322 104.72Z" fill="#0D0B07"/>
</g>
<g opacity="0.3">
<path opacity="0.3" d="M79.9258 171.197L42.5666 180.413C38.9888 181.295 35.3943 179.094 34.5153 175.562L10.8444 80.4292C9.95506 76.855 12.1537 73.2689 15.6899 72.3966L20.4326 71.2266C20.8071 71.1342 21.2123 71.343 21.3885 71.6966L22.052 73.1209C22.5393 74.1917 23.7342 74.7351 24.8575 74.458L45.8252 69.2855C46.9485 69.0084 47.7505 67.9724 47.6793 66.799L47.5982 65.231C47.5884 64.8364 47.8488 64.4634 48.2232 64.371L52.9659 63.201C56.5438 62.3184 60.1382 64.5195 61.0172 68.0522L84.6881 163.185C85.7023 166.728 83.5036 170.314 79.9258 171.197ZM15.7313 72.5628C12.2783 73.4146 10.1421 76.8971 11.0108 80.3882L34.6817 175.521C35.54 178.97 39.0722 181.098 42.5252 180.247L79.8844 171.031C83.3375 170.179 85.4633 166.655 84.6049 163.205L60.934 68.0727C60.0757 64.6232 56.5435 62.4949 53.0905 63.3467L48.3478 64.5167C48.0566 64.5885 47.8587 64.8579 47.8478 65.1694L47.9289 66.7374C47.9792 68.0042 47.1563 69.1336 45.9082 69.4415L24.9405 74.614C23.734 74.9116 22.4351 74.3056 21.8856 73.162L21.2221 71.7376C21.1081 71.457 20.7652 71.321 20.474 71.3928L15.7313 72.5628Z" fill="#1E2132"/>
</g>
<path opacity="0.2" d="M64.0425 69.5064L63.1267 69.7324L63.4265 70.9377L64.3423 70.7117L64.0425 69.5064Z" fill="#5D7292"/>
<path opacity="0.2" d="M50.5221 62.1694L50.2947 61.2549L49.0872 61.5529L49.3147 62.4674L50.5221 62.1694Z" fill="#5D7292"/>
<path opacity="0.2" d="M9.85357 82.897L8.93774 83.123L9.23749 84.3283L10.1533 84.1023L9.85357 82.897Z" fill="#5D7292"/>
<path d="M77.041 45.6863C72.2744 44.2072 67.0802 43.8327 61.9626 44.6361C56.8513 45.4633 51.8656 47.5577 47.5044 50.7262C47.2243 50.9262 46.9381 51.1023 46.6882 51.3199L45.9145 51.979L44.3672 53.2973C43.8736 53.7564 43.4164 54.2572 42.9352 54.7641L42.2343 55.5063C42.0739 55.6752 41.9047 55.8593 41.7505 56.0521L30.8667 49.6722L37.9217 76.7683L51.507 73.2615L65.086 69.7309L55.8302 64.3053C55.9011 64.185 55.9719 64.0647 56.0579 63.9533L56.7215 63.0678L57.0502 62.6132C57.1627 62.4566 57.2965 62.3327 57.4153 62.2C59.401 59.9655 61.9986 58.0693 65.0255 56.8901C68.0436 55.726 71.4006 55.2258 74.789 55.533C78.1748 55.8791 81.5654 57.0776 84.591 59.0332C85.3837 59.4777 86.0489 60.0699 86.7858 60.6435C87.16 60.9033 87.466 61.2445 87.8048 61.5645L88.8061 62.5155L89.7064 63.5692C90.0035 63.9255 90.3397 64.2843 90.5801 64.668C91.0999 65.438 91.6827 66.2044 92.1192 67.047C93.9876 70.3472 95.1923 74.189 95.3368 78.1779C95.5051 82.1607 94.7392 86.2836 93.0139 90.1071C95.4778 86.7166 97.18 82.657 97.866 78.3254C98.6 73.9815 98.1743 69.4028 96.7761 65.0633C94.0658 56.2728 86.5688 48.7224 77.041 45.6863Z" fill="url(#paint11_linear_1824_7732)"/>
<path d="M91.2503 132.771L92.0689 134.268L93.5354 135.085L92.0689 135.901L91.2503 137.364L90.4318 135.901L88.9311 135.085L90.4318 134.268L91.2503 132.771Z" fill="#FBFCE6"/>
<path d="M2.31923 105.771L3.13778 107.268L4.60435 108.085L3.13778 108.901L2.31923 110.364L1.50068 108.901L0 108.085L1.50068 107.268L2.31923 105.771Z" fill="#FBFCE6"/>
</g>
<defs>
<linearGradient id="paint0_linear_1824_7732" x1="25.586" y1="70.3926" x2="25.586" y2="121.581" gradientUnits="userSpaceOnUse">
<stop offset="0.515" stop-color="#F0F0F0"/>
<stop offset="1" stop-color="#8A8A8A"/>
</linearGradient>
<linearGradient id="paint1_linear_1824_7732" x1="76.7745" y1="70.3926" x2="76.7745" y2="121.581" gradientUnits="userSpaceOnUse">
<stop offset="0.515" stop-color="#F0F0F0"/>
<stop offset="1" stop-color="#8A8A8A"/>
</linearGradient>
<linearGradient id="paint2_linear_1824_7732" x1="127.963" y1="70.3926" x2="127.963" y2="121.581" gradientUnits="userSpaceOnUse">
<stop offset="0.515" stop-color="#F0F0F0"/>
<stop offset="1" stop-color="#8A8A8A"/>
</linearGradient>
<linearGradient id="paint3_linear_1824_7732" x1="25.586" y1="-31.9844" x2="25.586" y2="19.2041" gradientUnits="userSpaceOnUse">
<stop offset="0.515" stop-color="#F0F0F0"/>
<stop offset="1" stop-color="#8A8A8A"/>
</linearGradient>
<linearGradient id="paint4_linear_1824_7732" x1="76.7745" y1="-31.9844" x2="76.7745" y2="19.2041" gradientUnits="userSpaceOnUse">
<stop offset="0.515" stop-color="#F0F0F0"/>
<stop offset="1" stop-color="#8A8A8A"/>
</linearGradient>
<linearGradient id="paint5_linear_1824_7732" x1="127.963" y1="-31.9844" x2="127.963" y2="19.2041" gradientUnits="userSpaceOnUse">
<stop offset="0.515" stop-color="#F0F0F0"/>
<stop offset="1" stop-color="#8A8A8A"/>
</linearGradient>
<linearGradient id="paint6_linear_1824_7732" x1="25.586" y1="19.2041" x2="25.586" y2="70.3926" gradientUnits="userSpaceOnUse">
<stop offset="0.515" stop-color="#F0F0F0"/>
<stop offset="1" stop-color="#8A8A8A"/>
</linearGradient>
<linearGradient id="paint7_linear_1824_7732" x1="76.7745" y1="19.2041" x2="76.7745" y2="70.3926" gradientUnits="userSpaceOnUse">
<stop offset="0.515" stop-color="#F0F0F0"/>
<stop offset="1" stop-color="#8A8A8A"/>
</linearGradient>
<linearGradient id="paint8_linear_1824_7732" x1="127.963" y1="19.2041" x2="127.963" y2="70.3926" gradientUnits="userSpaceOnUse">
<stop offset="0.515" stop-color="#F0F0F0"/>
<stop offset="1" stop-color="#8A8A8A"/>
</linearGradient>
<linearGradient id="paint9_linear_1824_7732" x1="54.8631" y1="147.573" x2="54.8631" y2="157.666" gradientUnits="userSpaceOnUse">
<stop stop-color="white"/>
<stop offset="1" stop-color="white" stop-opacity="0"/>
</linearGradient>
<linearGradient id="paint10_linear_1824_7732" x1="54.7652" y1="144.783" x2="56.3181" y2="150.579" gradientUnits="userSpaceOnUse">
<stop stop-color="white"/>
<stop offset="1" stop-color="white" stop-opacity="0"/>
</linearGradient>
<linearGradient id="paint11_linear_1824_7732" x1="32.8297" y1="46.3401" x2="225.304" y2="43.9878" gradientUnits="userSpaceOnUse">
<stop stop-color="#ED841A"/>
<stop offset="1" stop-color="#ED841A"/>
</linearGradient>
<clipPath id="clip0_1824_7732">
<rect width="104" height="198" fill="white"/>
</clipPath>
<clipPath id="clip1_1824_7732">
<rect width="104" height="122" fill="white"/>
</clipPath>
<clipPath id="clip2_1824_7732">
<rect width="24.5448" height="24.5686" fill="white" transform="matrix(-0.963359 0.268089 -0.268671 -0.963267 60.0576 120.353)"/>
</clipPath>
</defs>
</svg>
