<svg width="24" height="24" viewBox="0 0 24 24" fill="none" xmlns="http://www.w3.org/2000/svg">
<path d="M15.75 19.0003C14.785 19.0003 14 18.2153 14 17.2503V10.6838C13.0675 10.0893 12.5 9.06684 12.5 7.94734C12.5 6.72234 13.179 5.61434 14.272 5.05484C14.4275 4.97584 14.6125 4.98234 14.761 5.07334C14.9095 5.16484 15 5.32584 15 5.50034V7.66184L15.75 7.96184L16.5 7.66184V5.50034C16.5 5.32584 16.5905 5.16484 16.739 5.07334C16.8875 4.98234 17.0725 4.97584 17.228 5.05484C18.321 5.61484 19 6.72234 19 7.94784C19 9.06684 18.4325 10.0893 17.5 10.6843V17.2503C17.5 18.2153 16.715 19.0003 15.75 19.0003ZM14 6.53334C13.6815 6.92584 13.5 7.42084 13.5 7.94734C13.5 8.79434 13.9705 9.56184 14.728 9.94984C14.895 10.0353 15 10.2073 15 10.3948V17.2503C15 17.6638 15.3365 18.0003 15.75 18.0003C16.1635 18.0003 16.5 17.6638 16.5 17.2503V10.3948C16.5 10.2073 16.605 10.0353 16.772 9.94984C17.5295 9.56184 18 8.79484 18 7.94784C18 7.42134 17.8185 6.92634 17.5 6.53384V8.00034C17.5 8.20484 17.3755 8.38834 17.186 8.46484L15.936 8.96484C15.8165 9.01284 15.684 9.01284 15.5645 8.96484L14.3145 8.46484C14.1245 8.38834 14 8.20484 14 8.00034V6.53334Z" fill="#00796B"/>
<path d="M15.75 19.0003C14.785 19.0003 14 18.2153 14 17.2503V10.6838C13.0675 10.0893 12.5 9.06684 12.5 7.94734C12.5 6.72234 13.179 5.61434 14.272 5.05484C14.4275 4.97584 14.6125 4.98234 14.761 5.07334C14.9095 5.16484 15 5.32584 15 5.50034V7.66184L15.75 7.96184L16.5 7.66184V5.50034C16.5 5.32584 16.5905 5.16484 16.739 5.07334C16.8875 4.98234 17.0725 4.97584 17.228 5.05484C18.321 5.61484 19 6.72234 19 7.94784C19 9.06684 18.4325 10.0893 17.5 10.6843V17.2503C17.5 18.2153 16.715 19.0003 15.75 19.0003ZM14 6.53334C13.6815 6.92584 13.5 7.42084 13.5 7.94734C13.5 8.79434 13.9705 9.56184 14.728 9.94984C14.895 10.0353 15 10.2073 15 10.3948V17.2503C15 17.6638 15.3365 18.0003 15.75 18.0003C16.1635 18.0003 16.5 17.6638 16.5 17.2503V10.3948C16.5 10.2073 16.605 10.0353 16.772 9.94984C17.5295 9.56184 18 8.79484 18 7.94784C18 7.42134 17.8185 6.92634 17.5 6.53384V8.00034C17.5 8.20484 17.3755 8.38834 17.186 8.46484L15.936 8.96484C15.8165 9.01284 15.684 9.01284 15.5645 8.96484L14.3145 8.46484C14.1245 8.38834 14 8.20484 14 8.00034V6.53334Z" fill="url(#paint0_linear_385_4743)" fill-opacity="0.12"/>
<path d="M12.537 19H11.4635C10.944 19 10.506 18.5945 10.4665 18.077L10.4035 17.2595C10.0605 17.1555 9.7285 17.0175 9.411 16.8475L8.788 17.381C8.3935 17.7195 7.7975 17.696 7.4305 17.3295L6.6705 16.569C6.3035 16.202 6.2805 15.6055 6.6185 15.211L7.152 14.5885C6.982 14.271 6.844 13.939 6.74 13.596L5.923 13.5335C5.4055 13.4945 5 13.0565 5 12.537V11.463C5 10.9435 5.4055 10.5055 5.9235 10.466L6.7405 10.4035C6.8445 10.06 6.9825 9.728 7.1525 9.411L6.6185 8.7875C6.2805 8.3935 6.3035 7.7975 6.671 7.4295L7.43 6.67C7.7975 6.3025 8.394 6.28 8.788 6.618L9.411 7.1515C9.7285 6.9815 10.0605 6.8435 10.4035 6.7395L10.4665 5.922C10.506 5.4055 10.944 5 11.463 5H12C12.276 5 12.5 5.2235 12.5 5.5C12.5 5.7765 12.276 6 12 6H11.463L11.373 7.1705C11.356 7.3885 11.1995 7.57 10.987 7.619C10.5035 7.7305 10.0435 7.921 9.62 8.1865C9.4355 8.303 9.196 8.2855 9.0295 8.142L8.137 7.3775L7.378 8.1375L8.1425 9.0295C8.285 9.1955 8.3025 9.435 8.1865 9.62C7.9215 10.044 7.7305 10.504 7.619 10.987C7.57 11.2 7.388 11.3565 7.17 11.373L6 11.463V12.537L7.17 12.627C7.388 12.6435 7.57 12.8005 7.619 13.013C7.7305 13.4965 7.921 13.9565 8.1865 14.38C8.3025 14.565 8.2845 14.8045 8.1425 14.9705L7.378 15.8625L8.1375 16.6225L9.0295 15.858C9.196 15.715 9.4355 15.6975 9.62 15.8135C10.044 16.0785 10.504 16.2695 10.987 16.381C11.2 16.4305 11.3565 16.612 11.373 16.8295L11.463 18H12.5365C12.5575 17.725 12.797 17.5195 13.0735 17.54C13.349 17.561 13.555 17.8015 13.5335 18.077C13.494 18.5945 13.056 19 12.537 19Z" fill="#00796B"/>
<path d="M12.537 19H11.4635C10.944 19 10.506 18.5945 10.4665 18.077L10.4035 17.2595C10.0605 17.1555 9.7285 17.0175 9.411 16.8475L8.788 17.381C8.3935 17.7195 7.7975 17.696 7.4305 17.3295L6.6705 16.569C6.3035 16.202 6.2805 15.6055 6.6185 15.211L7.152 14.5885C6.982 14.271 6.844 13.939 6.74 13.596L5.923 13.5335C5.4055 13.4945 5 13.0565 5 12.537V11.463C5 10.9435 5.4055 10.5055 5.9235 10.466L6.7405 10.4035C6.8445 10.06 6.9825 9.728 7.1525 9.411L6.6185 8.7875C6.2805 8.3935 6.3035 7.7975 6.671 7.4295L7.43 6.67C7.7975 6.3025 8.394 6.28 8.788 6.618L9.411 7.1515C9.7285 6.9815 10.0605 6.8435 10.4035 6.7395L10.4665 5.922C10.506 5.4055 10.944 5 11.463 5H12C12.276 5 12.5 5.2235 12.5 5.5C12.5 5.7765 12.276 6 12 6H11.463L11.373 7.1705C11.356 7.3885 11.1995 7.57 10.987 7.619C10.5035 7.7305 10.0435 7.921 9.62 8.1865C9.4355 8.303 9.196 8.2855 9.0295 8.142L8.137 7.3775L7.378 8.1375L8.1425 9.0295C8.285 9.1955 8.3025 9.435 8.1865 9.62C7.9215 10.044 7.7305 10.504 7.619 10.987C7.57 11.2 7.388 11.3565 7.17 11.373L6 11.463V12.537L7.17 12.627C7.388 12.6435 7.57 12.8005 7.619 13.013C7.7305 13.4965 7.921 13.9565 8.1865 14.38C8.3025 14.565 8.2845 14.8045 8.1425 14.9705L7.378 15.8625L8.1375 16.6225L9.0295 15.858C9.196 15.715 9.4355 15.6975 9.62 15.8135C10.044 16.0785 10.504 16.2695 10.987 16.381C11.2 16.4305 11.3565 16.612 11.373 16.8295L11.463 18H12.5365C12.5575 17.725 12.797 17.5195 13.0735 17.54C13.349 17.561 13.555 17.8015 13.5335 18.077C13.494 18.5945 13.056 19 12.537 19Z" fill="url(#paint1_linear_385_4743)" fill-opacity="0.12"/>
<path d="M8.5 12.0002C8.5 10.2832 9.727 8.8317 11.4175 8.5487C11.689 8.5002 11.948 8.6867 11.993 8.9592C12.0385 9.2317 11.855 9.4892 11.5825 9.5347C10.376 9.7372 9.5 10.7742 9.5 12.0002C9.5 13.7267 11.215 14.9307 12.8335 14.3582C13.0925 14.2657 13.3795 14.4017 13.472 14.6622C13.564 14.9227 13.428 15.2082 13.1675 15.3002C10.891 16.1057 8.5 14.4082 8.5 12.0002Z" fill="#00796B"/>
<path d="M8.5 12.0002C8.5 10.2832 9.727 8.8317 11.4175 8.5487C11.689 8.5002 11.948 8.6867 11.993 8.9592C12.0385 9.2317 11.855 9.4892 11.5825 9.5347C10.376 9.7372 9.5 10.7742 9.5 12.0002C9.5 13.7267 11.215 14.9307 12.8335 14.3582C13.0925 14.2657 13.3795 14.4017 13.472 14.6622C13.564 14.9227 13.428 15.2082 13.1675 15.3002C10.891 16.1057 8.5 14.4082 8.5 12.0002Z" fill="url(#paint2_linear_385_4743)" fill-opacity="0.12"/>
<defs>
<linearGradient id="paint0_linear_385_4743" x1="15.75" y1="5" x2="15.75" y2="19.0003" gradientUnits="userSpaceOnUse">
<stop stop-color="white"/>
<stop offset="1" stop-color="white" stop-opacity="0"/>
</linearGradient>
<linearGradient id="paint1_linear_385_4743" x1="9.26752" y1="5" x2="9.26752" y2="19" gradientUnits="userSpaceOnUse">
<stop stop-color="white"/>
<stop offset="1" stop-color="white" stop-opacity="0"/>
</linearGradient>
<linearGradient id="paint2_linear_385_4743" x1="11.0004" y1="8.54102" x2="11.0004" y2="15.5028" gradientUnits="userSpaceOnUse">
<stop stop-color="white"/>
<stop offset="1" stop-color="white" stop-opacity="0"/>
</linearGradient>
</defs>
</svg>
