<svg width="273" height="273" viewBox="0 0 273 273" fill="none" xmlns="http://www.w3.org/2000/svg">
<path d="M0 0H273V273H0V0Z" fill="#FEFEFE"/>
<path d="M62.45 100.775C63.9283 100.801 65.57 100.609 67.0118 100.802C67.2539 101.122 67.44 101.44 67.7843 101.654C67.7848 101.705 67.788 101.756 67.7858 101.807C67.7455 102.882 67.3309 104.082 66.5215 104.817C65.9228 105.36 65.1448 105.655 64.3349 105.611C63.5415 105.568 62.7759 105.217 62.2586 104.607C61.4544 103.66 61.5354 102.741 61.6327 101.592C61.9216 101.329 62.1898 101.066 62.45 100.775Z" fill="#FCB58D"/>
<path d="M149.774 111.336C152.623 113.785 154.516 117.361 154.799 121.118C154.848 121.838 154.888 122.558 154.919 123.278C155.967 124.147 156.469 125.22 156.591 126.571C156.767 128.508 156.906 131.058 155.607 132.653C154.735 133.723 153.677 134.042 152.601 134.765L152.548 134.461L152.067 134.695L152.03 134.75C150.796 134.605 150.262 134.159 149.483 133.246C149.261 132.401 149.086 131.546 148.848 130.704C149.106 128.77 148.688 126.842 149.142 124.889C149.704 123.629 150.253 123.195 151.466 122.612C152.008 119.934 152.029 117.325 151.39 114.673C150.934 113.517 150.193 112.499 149.774 111.336Z" fill="#00796B"/>
<path d="M149.774 111.336C152.623 113.785 154.516 117.361 154.799 121.118C154.848 121.838 154.888 122.558 154.919 123.278C155.967 124.147 156.469 125.22 156.591 126.571C156.767 128.508 156.906 131.058 155.607 132.653C154.735 133.723 153.677 134.042 152.601 134.765L152.548 134.461L152.067 134.695L152.03 134.75C150.796 134.605 150.262 134.159 149.483 133.246C149.261 132.401 149.086 131.546 148.848 130.704C149.106 128.77 148.688 126.842 149.142 124.889C149.704 123.629 150.253 123.195 151.466 122.612C152.008 119.934 152.029 117.325 151.39 114.673C150.934 113.517 150.193 112.499 149.774 111.336Z" fill="url(#paint0_linear_396_4522)" fill-opacity="0.12"/>
<path d="M151.39 114.666C151.895 114.823 152.305 115.622 152.546 116.075C153.621 118.091 154.005 120.752 153.999 123.011C153.496 122.829 152.985 122.607 152.462 122.496L151.466 122.604C152.008 119.927 152.028 117.318 151.39 114.666Z" fill="#FEFEFE"/>
<path d="M145.854 74.5645C146.561 75.6654 146.853 77.0315 147.21 78.2799C148.82 78.2554 152.025 78.5495 153.416 78.1538L153.478 78.3898L155.143 78.4194C156.415 78.4108 157.686 78.4142 158.958 78.4296C159.34 78.713 159.793 79.0391 159.825 79.5631C159.839 79.7783 159.838 79.955 159.697 80.1249C159.459 80.4137 159.178 80.4878 158.822 80.5274C157.12 80.7161 155.285 80.557 153.57 80.5468L143.038 80.4954L122.492 80.4591C120.281 80.4418 118.048 80.6055 115.842 80.5074C115.245 80.481 114.889 80.4209 114.407 80.0557C114.315 79.8737 114.206 79.7594 114.237 79.5472C114.328 78.9286 114.842 78.6286 115.316 78.3062C116.429 78.2634 117.542 78.2696 118.654 78.3249C119.035 78.383 119.386 78.4203 119.771 78.4257L120.054 78.3859C121.938 78.0897 124.012 78.2475 125.918 78.2745C126.313 77.3151 126.693 76.3464 127.123 75.4022C127.338 76.3632 127.542 77.3029 127.628 78.2854L138.491 78.2463C140.396 78.2397 142.604 78.0167 144.459 78.3793L145.06 78.3974C145.204 77.0517 145.352 75.8286 145.854 74.5645Z" fill="#E6E7E7"/>
<path d="M219.547 121.775C220.545 121.767 224.557 121.993 225.147 121.693C226.199 122.494 230.829 121.202 231.021 122.69C231.079 123.136 231.103 123.58 230.83 123.972C230.537 124.394 230.012 124.5 229.531 124.52C227.185 124.619 224.767 124.487 222.415 124.489L206.43 124.508L193.596 124.548C191.631 124.557 189.585 124.71 187.629 124.598C187.149 124.571 186.777 124.538 186.424 124.178C186.087 123.834 185.949 123.378 185.965 122.904C185.976 122.584 186.042 122.538 186.2 122.276C187.391 121.509 189.389 121.978 190.768 121.855L190.915 121.81C191.697 121.859 192.463 121.85 193.246 121.825C202.013 121.871 210.78 121.854 219.547 121.775Z" fill="#49BAAD"/>
<path d="M119.229 123.51C119.146 123.097 119.065 122.681 119.017 122.262C118.664 119.168 119.854 116.057 121.8 113.69C123.72 111.355 125.608 109.961 128.667 109.672C126.908 110.622 125.585 111.328 124.318 112.952C122.71 116.22 122.312 119.147 123.182 122.725C125.366 125.221 124.543 127.375 124.972 130.272C124.61 132.04 124.314 133.214 122.903 134.44C122.252 134.611 121.7 134.576 121.044 134.522C120.159 134.449 119.353 134.286 118.578 133.828C118.505 133.785 118.434 133.741 118.363 133.695C118.293 133.648 118.223 133.6 118.155 133.55C118.087 133.501 118.021 133.449 117.955 133.396C117.89 133.342 117.826 133.287 117.763 133.231C117.701 133.174 117.64 133.116 117.58 133.056C117.521 132.996 117.463 132.935 117.406 132.872C117.35 132.809 117.295 132.745 117.242 132.68C117.189 132.614 117.138 132.547 117.088 132.479C117.039 132.411 116.991 132.341 116.945 132.27C116.899 132.2 116.855 132.128 116.813 132.055C116.771 131.982 116.73 131.908 116.692 131.833C116.653 131.758 116.617 131.682 116.582 131.605C116.548 131.527 116.516 131.45 116.485 131.371C116.455 131.292 116.426 131.213 116.4 131.133C116.374 131.053 116.349 130.972 116.327 130.891C116.305 130.809 116.285 130.727 116.267 130.645C115.939 129.114 115.864 126.413 116.74 125.071C117.361 124.121 118.152 123.754 119.229 123.51Z" fill="#00796B"/>
<path d="M119.229 123.51C119.146 123.097 119.065 122.681 119.017 122.262C118.664 119.168 119.854 116.057 121.8 113.69C123.72 111.355 125.608 109.961 128.667 109.672C126.908 110.622 125.585 111.328 124.318 112.952C122.71 116.22 122.312 119.147 123.182 122.725C125.366 125.221 124.543 127.375 124.972 130.272C124.61 132.04 124.314 133.214 122.903 134.44C122.252 134.611 121.7 134.576 121.044 134.522C120.159 134.449 119.353 134.286 118.578 133.828C118.505 133.785 118.434 133.741 118.363 133.695C118.293 133.648 118.223 133.6 118.155 133.55C118.087 133.501 118.021 133.449 117.955 133.396C117.89 133.342 117.826 133.287 117.763 133.231C117.701 133.174 117.64 133.116 117.58 133.056C117.521 132.996 117.463 132.935 117.406 132.872C117.35 132.809 117.295 132.745 117.242 132.68C117.189 132.614 117.138 132.547 117.088 132.479C117.039 132.411 116.991 132.341 116.945 132.27C116.899 132.2 116.855 132.128 116.813 132.055C116.771 131.982 116.73 131.908 116.692 131.833C116.653 131.758 116.617 131.682 116.582 131.605C116.548 131.527 116.516 131.45 116.485 131.371C116.455 131.292 116.426 131.213 116.4 131.133C116.374 131.053 116.349 130.972 116.327 130.891C116.305 130.809 116.285 130.727 116.267 130.645C115.939 129.114 115.864 126.413 116.74 125.071C117.361 124.121 118.152 123.754 119.229 123.51Z" fill="url(#paint1_linear_396_4522)" fill-opacity="0.12"/>
<path d="M121.145 122.311C120.843 122.442 120.529 122.542 120.217 122.649C120.013 122.518 120.008 122.572 119.949 122.371C119.541 120.985 120.553 117.764 121.224 116.45C121.787 115.351 123.106 113.353 124.318 112.959C122.71 116.227 122.312 119.154 123.182 122.732C122.508 122.52 121.841 122.415 121.145 122.311Z" fill="#FEFEFE"/>
<path d="M33.5919 193.408C33.6596 193.244 33.6868 193.064 33.846 192.966C34.5696 192.522 36.2948 192.873 37.1345 192.963C38.3192 193.297 45.9666 193.057 47.9193 193.058C54.9857 193.06 62.0719 193.251 69.1351 193.117C69.6962 193.106 70.2361 193.087 70.782 192.946L70.6724 193.226C70.711 193.233 70.7497 193.241 70.7886 193.248C72.0399 193.466 75.3463 192.952 76.1082 193.892C76.3932 194.244 76.5736 194.883 76.4759 195.329C76.4468 195.461 76.3906 195.532 76.322 195.638L76.2604 195.515L76.3115 195.542L76.1484 195.897L76.0113 195.739L75.8286 195.767C74.1164 196.02 72.3095 195.879 70.5821 195.865C67.9863 195.851 65.3905 195.853 62.7948 195.873C55.481 195.959 48.1931 195.902 40.8801 195.879C37.4874 195.868 33.3285 196.084 30.0368 195.859C29.6605 195.833 29.3024 195.754 29.0145 195.492C28.8019 195.3 28.6883 195.06 28.7229 194.769C28.788 194.224 29.3155 193.777 29.705 193.438C30.9934 193.458 32.3084 193.534 33.5919 193.408Z" fill="#49BAAD"/>
<path d="M237.561 193.566C239.078 193.65 241.871 193.036 242.883 194.365C243.114 194.668 243.146 194.862 243.14 195.233C242.932 195.678 242.617 195.911 242.154 196.063C241.034 196.43 237.741 196.024 236.329 196.019C233.49 196.01 230.646 196.048 227.807 196.088C224.278 196.139 220.757 196.458 217.23 196.572C209.67 196.789 202.108 196.86 194.546 196.785L194.511 193.821C196.471 193.872 199.051 194.293 200.913 193.797C202.859 193.646 204.846 193.724 206.798 193.728C210.442 193.757 214.087 193.747 217.731 193.699L220.793 193.694L231.588 193.707C233.464 193.71 235.419 193.594 237.284 193.777L237.561 193.566Z" fill="#E6E7E7"/>
<path d="M87.8128 54.334C88.7379 54.4724 89.594 54.8765 90.4377 55.2595L89.5213 56.4096C90.4933 57.1543 91.136 58.0558 91.819 59.056C92.2968 58.7379 92.7498 58.3761 93.2085 58.0308C93.4575 58.7531 93.974 59.7619 93.7525 60.513C93.3733 60.845 93.1051 60.7847 92.6118 60.8272C92.5486 61.7378 91.9959 62.8952 92.2791 63.772C92.418 64.2026 92.8355 64.3759 93.2044 64.5741C92.842 65.2724 92.406 65.9313 91.9882 66.5974L90.8992 66.0023C90.0337 66.3849 88.9618 66.6822 88.2179 67.2632C88.2496 67.4155 88.3173 67.6463 88.3144 67.808C88.3107 68.0102 88.3008 68.1605 88.1395 68.2902C87.7067 68.6373 86.9045 68.7787 86.3636 68.6944C86.0266 68.6422 86.0165 68.6024 85.8279 68.3405C85.3615 66.938 84.6365 67.3027 83.5074 66.6698C83.466 66.6465 83.4253 66.6223 83.3842 66.5985C82.9122 66.8529 82.453 67.1337 81.9913 67.4059L80.2971 65.7049C80.6306 65.4157 80.9956 65.1585 81.3495 64.8941C80.8842 64.0955 80.6122 63.322 80.3587 62.4396C79.9672 62.3932 79.5957 62.3786 79.248 62.1756C79.1376 61.7157 78.9848 61.0954 79.1088 60.6328C79.199 60.2948 79.4077 60.1115 79.724 59.991C79.8597 59.9393 80.3338 59.8373 80.4282 59.7472C80.8792 59.3174 80.9154 58.2505 81.5905 57.6876C81.8006 57.5122 81.901 57.4141 82.0156 57.153L81.9267 56.9388C81.6641 56.7463 81.4412 56.6204 81.3436 56.2914C81.5948 56.0103 81.8478 55.7205 82.1457 55.4872C82.6426 55.0976 83.0805 54.915 83.7098 54.9731C84.113 55.181 84.235 55.5325 84.4264 55.9191C85.32 55.6724 86.4966 55.6768 87.3046 55.2306C87.699 55.0129 87.6919 54.7352 87.8128 54.334Z" fill="#E1EFEE"/>
<path d="M86.1886 59.7461C86.5355 59.7715 86.9557 59.8074 87.282 59.928C87.6497 60.0635 87.979 60.4244 88.123 60.7849C88.3144 61.2638 88.2454 61.8046 88.0283 62.2619C87.6675 63.0226 87.1833 63.257 86.4097 63.5064C86.1575 63.4802 85.8879 63.4621 85.6493 63.3671C85.1157 63.1554 84.6784 62.6768 84.5088 62.1306C84.3593 61.648 84.4382 61.0952 84.6968 60.6631C85.0409 60.0876 85.5778 59.9226 86.1886 59.7461Z" fill="#FEFEFE"/>
<path d="M185.935 193.207C187.135 197.549 188.969 201.943 190.438 206.229C191.217 208.505 192.153 210.918 192.314 213.333C192.439 215.196 192.084 217.112 191.152 218.741C191.087 218.855 191.02 218.967 190.95 219.078C190.88 219.189 190.808 219.298 190.732 219.405C190.657 219.512 190.579 219.617 190.498 219.72C190.417 219.823 190.334 219.924 190.248 220.023C190.162 220.122 190.074 220.218 189.983 220.313C189.892 220.407 189.799 220.499 189.704 220.589C189.608 220.679 189.511 220.766 189.411 220.85C189.311 220.935 189.209 221.017 189.105 221.097C189.001 221.177 188.895 221.253 188.787 221.328C188.679 221.402 188.57 221.474 188.458 221.542C188.347 221.611 188.234 221.677 188.119 221.74C188.004 221.803 187.888 221.863 187.77 221.92C187.652 221.977 187.533 222.031 187.412 222.082C187.292 222.133 187.17 222.181 187.047 222.226C186.924 222.271 186.8 222.313 186.675 222.351C186.549 222.39 186.423 222.425 186.297 222.458C184.871 222.83 183.379 222.797 181.917 222.781C182.52 221.066 182.525 218.744 182.757 216.919C183.332 212.411 184.017 207.919 184.56 203.406C184.937 200.267 185.14 197.037 185.664 193.925C185.711 193.649 185.799 193.449 185.935 193.207Z" fill="#00796B"/>
<path d="M185.935 193.207C187.135 197.549 188.969 201.943 190.438 206.229C191.217 208.505 192.153 210.918 192.314 213.333C192.439 215.196 192.084 217.112 191.152 218.741C191.087 218.855 191.02 218.967 190.95 219.078C190.88 219.189 190.808 219.298 190.732 219.405C190.657 219.512 190.579 219.617 190.498 219.72C190.417 219.823 190.334 219.924 190.248 220.023C190.162 220.122 190.074 220.218 189.983 220.313C189.892 220.407 189.799 220.499 189.704 220.589C189.608 220.679 189.511 220.766 189.411 220.85C189.311 220.935 189.209 221.017 189.105 221.097C189.001 221.177 188.895 221.253 188.787 221.328C188.679 221.402 188.57 221.474 188.458 221.542C188.347 221.611 188.234 221.677 188.119 221.74C188.004 221.803 187.888 221.863 187.77 221.92C187.652 221.977 187.533 222.031 187.412 222.082C187.292 222.133 187.17 222.181 187.047 222.226C186.924 222.271 186.8 222.313 186.675 222.351C186.549 222.39 186.423 222.425 186.297 222.458C184.871 222.83 183.379 222.797 181.917 222.781C182.52 221.066 182.525 218.744 182.757 216.919C183.332 212.411 184.017 207.919 184.56 203.406C184.937 200.267 185.14 197.037 185.664 193.925C185.711 193.649 185.799 193.449 185.935 193.207Z" fill="url(#paint2_linear_396_4522)" fill-opacity="0.12"/>
<path d="M87.4062 193.572C87.6838 193.851 87.7138 194.009 87.7867 194.399C88.4906 198.163 88.7285 202.291 89.2065 206.12C89.9158 211.803 90.8141 217.476 91.4586 223.164C89.8497 223.224 88.3976 223.19 86.8949 222.556C84.2773 221.45 82.4039 219.229 81.3589 216.626C80.812 215.264 80.4691 213.765 80.5705 212.291C80.8382 208.388 82.9561 204.285 84.4401 200.705C85.4084 198.319 86.3972 195.941 87.4062 193.572Z" fill="#00796B"/>
<path d="M87.4062 193.572C87.6838 193.851 87.7138 194.009 87.7867 194.399C88.4906 198.163 88.7285 202.291 89.2065 206.12C89.9158 211.803 90.8141 217.476 91.4586 223.164C89.8497 223.224 88.3976 223.19 86.8949 222.556C84.2773 221.45 82.4039 219.229 81.3589 216.626C80.812 215.264 80.4691 213.765 80.5705 212.291C80.8382 208.388 82.9561 204.285 84.4401 200.705C85.4084 198.319 86.3972 195.941 87.4062 193.572Z" fill="url(#paint3_linear_396_4522)" fill-opacity="0.12"/>
<path d="M72.6782 111.611C73.3746 112.882 73.8143 114.3 74.3447 115.646C75.2076 117.835 76.1128 120.038 77.0986 122.174C79.0891 122.205 81.079 122.186 83.0686 122.118C83.0358 121.392 82.9584 120.643 82.9968 119.918L83.1493 119.991C83.2224 120.291 83.2354 120.556 83.2477 120.861C83.2632 121.25 83.2765 121.781 83.573 122.076C83.6853 122.188 83.7973 122.203 83.9488 122.258C84.7362 122.216 85.5993 122.067 86.2816 122.554C86.6862 122.841 86.9812 123.252 87.0357 123.756C87.0826 124.189 86.935 124.639 86.5976 124.924C86.2934 125.181 85.7286 125.203 85.3487 125.218C82.0004 125.347 78.5817 125.183 75.2236 125.177L55.4396 125.199L44.761 125.224C42.998 125.229 41.0195 125.412 39.2841 125.126C39.0644 124.907 38.9962 124.821 38.9314 124.502C38.7796 123.757 38.9104 122.815 39.3425 122.187C40.7848 122.015 42.2991 122.09 43.7515 122.092C46.4208 122.097 49.0943 122.14 51.7632 122.112C52.1963 120.138 53.6865 113.708 54.8058 112.35L55.0445 112.26C55.3384 112.515 55.3505 112.692 55.3762 113.079C55.5529 115.744 54.9354 119.334 54.7797 122.109L73.483 122.11C73.1562 118.661 72.533 115.073 72.6782 111.611Z" fill="#E6E7E7"/>
<path d="M28.8086 125.52C29.2289 125.925 29.1387 126.702 29.4883 127.201C29.6847 127.481 30.1888 127.565 30.5116 127.604C31.7128 127.749 32.5021 126.796 33.3549 126.106C34.0682 126.791 34.7583 127.464 35.3758 128.238C34.982 128.704 34.6542 129.202 34.3175 129.71C34.6122 130.372 34.9164 130.888 35.3968 131.436L37.7748 131.576C38.0611 132.61 38.111 133.684 38.167 134.75C37.421 134.944 36.6616 135.022 35.8981 135.117C35.6922 135.867 35.4757 136.614 35.2492 137.358C35.7733 137.961 36.3554 138.528 36.9084 139.105L34.6404 141.538C33.9204 140.966 33.1067 140.474 32.3424 139.96C31.6963 140.245 31.0985 140.596 30.4902 140.952C30.5623 141.755 30.6231 142.522 30.5604 143.329C29.7677 143.476 28.7024 143.536 27.9064 143.434C27.5092 143.383 27.1196 143.163 26.8924 142.831C26.4892 142.242 26.737 141.313 26.8172 140.648C26.0902 140.467 25.4636 140.255 24.7899 139.919C24.239 140.338 23.6561 140.695 23.0691 141.06C21.6466 139.905 20.5008 137.784 19.8931 136.086C20.4656 135.609 21.1255 135.2 21.7388 134.774C21.7435 134.07 21.7797 133.412 21.8888 132.714C21.2193 132.365 20.5766 131.985 19.931 131.594C20.5196 130.537 21.1189 129.487 21.7287 128.442L23.344 129.522C24.0912 129.023 24.811 128.464 25.5397 127.937C25.425 127.336 25.3506 126.729 25.2694 126.122C26.4365 125.828 27.6156 125.668 28.8086 125.52Z" fill="#49BAAD"/>
<path d="M28.4291 131.212C28.8027 131.191 29.164 131.189 29.5228 131.313C30.235 131.56 30.8525 132.123 31.1424 132.819C31.4523 133.561 31.4613 134.383 31.128 135.119C30.6851 136.096 29.9289 136.471 28.9805 136.846C28.4504 136.843 27.9214 136.83 27.4243 136.623C26.767 136.349 26.2051 135.843 25.9473 135.17C25.9168 135.09 25.8904 135.008 25.8682 134.924C25.8458 134.841 25.8277 134.757 25.8138 134.672C25.7999 134.587 25.7903 134.501 25.7849 134.415C25.7794 134.329 25.7784 134.243 25.7816 134.157C25.7847 134.071 25.7923 133.985 25.804 133.9C25.8158 133.815 25.8318 133.73 25.852 133.646C25.8723 133.563 25.8966 133.48 25.925 133.398C25.9534 133.317 25.9859 133.237 26.0223 133.159C26.5232 132.062 27.374 131.639 28.4291 131.212Z" fill="#FEFEFE"/>
<path d="M242.074 119.879C242.501 119.83 242.809 119.789 243.227 119.938C243.634 120.313 243.708 120.975 243.839 121.496C244.587 121.709 245.372 121.804 246.139 121.928L247.207 119.995C248.396 120.311 249.312 120.699 250.312 121.42C250.137 122.184 249.832 122.913 249.554 123.643C250.125 124.223 250.75 124.691 251.403 125.173C252.118 124.859 252.838 124.575 253.57 124.3C253.981 124.923 254.457 125.698 254.697 126.401C254.82 126.76 254.833 127.206 254.622 127.533C254.32 128.002 253.682 128.115 253.186 128.259C253.207 128.795 253.191 129.468 253.337 129.983C253.469 130.451 253.943 130.793 254.333 131.032C254.613 131.203 254.827 131.351 255.061 131.581C255.423 132.542 254.634 134.04 254.248 134.953C253.755 134.71 253.082 134.29 252.508 134.332C251.702 134.392 251.093 135.599 250.672 136.21C250.916 136.585 251.16 136.967 251.368 137.363C251.57 137.746 251.667 138.153 251.475 138.57C251.154 139.268 250.038 139.604 249.373 139.876C248.773 139.498 248.449 138.848 247.902 138.506C247.46 138.23 247.005 138.383 246.518 138.441C246.162 138.488 245.987 138.533 245.698 138.749C245.297 139.456 245.283 140.348 245.169 141.147C244.042 141.308 243.115 141.259 242.011 140.984C241.896 140.128 241.917 139.349 242.002 138.495C241.418 138.131 240.802 137.835 240.186 137.531C239.593 138.035 238.99 138.498 238.355 138.947L236.017 136.788C236.457 136.186 236.928 135.605 237.387 135.018C237.105 134.325 236.778 133.681 236.424 133.024C235.995 133.092 235.555 133.176 235.121 133.205C234.759 133.229 234.363 133.135 234.124 132.842C233.64 132.248 233.839 130.5 233.843 129.721C234.406 129.691 235.245 129.743 235.727 129.428C236.461 128.95 236.496 127.778 236.637 126.99C236.286 126.844 235.925 126.701 235.607 126.489C235.31 126.291 235.08 126.035 235.047 125.662C234.97 124.814 235.997 123.835 236.516 123.224C237.018 123.626 237.553 123.982 238.082 124.346L238.17 124.294C238.951 123.841 239.591 123.277 240.267 122.685C240.058 122.173 239.7 121.506 239.988 120.961C240.317 120.339 241.453 120.099 242.074 119.879Z" fill="#49BAAD"/>
<path d="M243.874 127.871C244.328 127.83 244.794 127.807 245.243 127.905C245.903 128.049 246.546 128.491 246.878 129.084C246.915 129.151 246.949 129.22 246.98 129.291C247.01 129.362 247.037 129.434 247.06 129.508C247.083 129.581 247.102 129.656 247.117 129.731C247.132 129.807 247.143 129.883 247.15 129.96C247.157 130.036 247.161 130.113 247.16 130.19C247.159 130.267 247.154 130.344 247.145 130.421C247.136 130.497 247.123 130.573 247.106 130.648C247.089 130.723 247.068 130.797 247.043 130.87C246.743 131.78 246.082 132.185 245.28 132.622C244.904 132.673 244.536 132.709 244.158 132.645C243.458 132.525 242.8 132.137 242.418 131.53C242.06 130.963 241.985 130.264 242.173 129.623C242.443 128.704 243.065 128.297 243.874 127.871Z" fill="#FEFEFE"/>
<path d="M56.6341 180.159C57.5516 180.158 58.4507 180.725 59.3637 180.85C59.9243 181.031 61.2314 181.598 61.7441 181.432L61.7958 181.213C62.1536 182.252 63.9697 182.793 64.6651 183.803C66.3068 186.188 67.0934 189.438 67.824 192.216C68.6412 192.086 69.7619 191.8 70.4747 192.35C70.6716 192.501 70.6978 192.717 70.7818 192.942C70.2359 193.083 69.696 193.102 69.1349 193.113C62.0718 193.247 54.9854 193.056 47.919 193.054C45.9664 193.053 38.319 193.293 37.1343 192.959C38.3113 191.799 39.0722 187.126 40.0369 185.241C40.9027 183.55 42.0645 182.656 43.8414 182.07C44.7323 181.761 45.6178 181.425 46.5441 181.238C47.7581 180.707 48.9949 180.416 50.2873 180.143L50.431 180.267C50.4811 180.426 50.5299 180.61 50.6078 180.76C50.8579 181.242 51.3565 181.553 51.8609 181.722C53.5488 182.288 55.0671 180.903 56.4918 180.225L56.6341 180.159Z" fill="#00796B"/>
<path d="M56.6341 180.159C57.5516 180.158 58.4507 180.725 59.3637 180.85C59.9243 181.031 61.2314 181.598 61.7441 181.432L61.7958 181.213C62.1536 182.252 63.9697 182.793 64.6651 183.803C66.3068 186.188 67.0934 189.438 67.824 192.216C68.6412 192.086 69.7619 191.8 70.4747 192.35C70.6716 192.501 70.6978 192.717 70.7818 192.942C70.2359 193.083 69.696 193.102 69.1349 193.113C62.0718 193.247 54.9854 193.056 47.919 193.054C45.9664 193.053 38.319 193.293 37.1343 192.959C38.3113 191.799 39.0722 187.126 40.0369 185.241C40.9027 183.55 42.0645 182.656 43.8414 182.07C44.7323 181.761 45.6178 181.425 46.5441 181.238C47.7581 180.707 48.9949 180.416 50.2873 180.143L50.431 180.267C50.4811 180.426 50.5299 180.61 50.6078 180.76C50.8579 181.242 51.3565 181.553 51.8609 181.722C53.5488 182.288 55.0671 180.903 56.4918 180.225L56.6341 180.159Z" fill="url(#paint4_linear_396_4522)" fill-opacity="0.12"/>
<path d="M56.6341 180.159C57.5516 180.158 58.4507 180.725 59.3637 180.85C58.4195 184.335 56.4708 187.783 53.9046 190.334C50.4809 188.387 47.6851 185.05 46.5444 181.238C47.7585 180.707 48.9952 180.416 50.2876 180.143L50.4313 180.267C50.4815 180.426 50.5302 180.61 50.6081 180.76C50.8582 181.242 51.3568 181.553 51.8613 181.722C53.5491 182.288 55.0675 180.903 56.4921 180.225L56.6341 180.159Z" fill="#F8BD9B"/>
<path d="M190.263 36.373C190.351 36.3762 190.439 36.3704 190.526 36.3824C191.247 36.4819 191.844 37.7157 192.2 38.2774C193.627 38.1439 195.004 38.1883 196.433 38.2942C196.802 37.698 197.15 36.9677 197.897 36.8096C199.041 36.5675 200.72 37.9874 201.647 38.5774L200.995 40.9428C201.864 41.8096 202.485 42.94 203.125 43.9799C203.882 43.9479 204.808 43.8194 205.553 43.9581C205.849 44.0133 206.017 44.1067 206.183 44.3629C206.619 45.0351 206.913 46.5662 206.698 47.3426C206.507 48.034 204.712 48.6785 204.045 49.0166C203.796 50.276 203.467 51.2443 202.82 52.3553C203.235 52.7595 203.631 53.2058 203.943 53.6957C204.184 54.0753 204.276 54.5667 204.157 55.0043C203.879 56.0251 202.448 56.8741 201.574 57.3631L199.745 55.7516C198.916 56.1992 198.073 56.6011 197.218 56.9952L196.065 57.5183C195.965 58.3148 195.964 59.2467 195.261 59.776C194.452 60.3853 192.919 59.9173 191.998 59.7149C191.657 58.8727 191.481 58.1049 191.394 57.2066C190.18 56.8421 189.319 56.3024 188.315 55.547C187.603 56.0539 186.925 56.4894 186.124 56.8432C185.661 56.367 185.185 55.8945 184.749 55.3932C184.33 54.911 184.004 54.3506 184.086 53.6922C184.177 52.9691 184.93 52.4872 185.47 52.114C185.058 50.9141 184.593 49.7612 184.419 48.4972C183.631 48.0284 182.75 47.6751 181.915 47.2933C181.948 46.4134 181.922 45.3331 182.173 44.4919C182.297 44.076 182.531 43.6549 182.944 43.4672C183.692 43.1281 184.509 43.4283 185.251 43.6366C185.924 42.2828 186.731 41.2376 187.725 40.1012C187.42 39.3932 187.214 38.7173 187.035 37.9689C188.074 37.3432 189.157 36.8623 190.263 36.373Z" fill="#49BAAD"/>
<path d="M193.519 43.627C194.356 43.5694 195.137 43.6231 195.902 44.0033C196.022 44.0629 196.139 44.1285 196.252 44.2C196.366 44.2715 196.475 44.3486 196.581 44.4315C196.686 44.5144 196.787 44.6024 196.883 44.6958C196.98 44.789 197.071 44.8868 197.157 44.9896C197.243 45.0922 197.324 45.1989 197.399 45.3098C197.475 45.4208 197.544 45.5352 197.607 45.6533C197.671 45.7715 197.728 45.8926 197.779 46.0165C197.831 46.1406 197.875 46.2669 197.913 46.3954C197.956 46.5311 197.991 46.6688 198.02 46.8081C198.048 46.9477 198.069 47.0881 198.083 47.2297C198.097 47.3714 198.104 47.5134 198.103 47.6558C198.103 47.798 198.095 47.9399 198.079 48.0814C198.064 48.2228 198.041 48.3632 198.011 48.5024C197.982 48.6416 197.945 48.7789 197.901 48.9141C197.857 49.0496 197.806 49.1822 197.748 49.3122C197.69 49.4423 197.626 49.5692 197.556 49.6926C196.93 50.7672 195.977 51.3285 194.813 51.6623C194.034 51.7229 193.378 51.6248 192.654 51.3184C191.606 50.8744 190.685 50.0446 190.292 48.9577C189.918 47.9228 190.072 46.6977 190.578 45.7334C191.222 44.5094 192.25 43.991 193.519 43.627Z" fill="#FEFEFE"/>
<path d="M128.667 109.673C128.728 109.651 128.789 109.633 128.848 109.608C129.36 109.399 130.305 107.698 130.904 107.17C133.322 105.039 140.206 105.07 143.094 106.086C145.802 107.038 148.035 109.109 149.774 111.335C150.193 112.498 150.934 113.516 151.39 114.672C152.028 117.324 152.008 119.933 151.466 122.611C150.253 123.194 149.704 123.628 149.142 124.888C148.687 126.841 149.106 128.769 148.848 130.703C148.696 130.618 148.491 130.521 148.378 130.386C147.798 129.693 148.265 125.722 148.293 124.715L148.311 122.807C144.132 124.139 139.272 124.416 135.256 122.362C133.143 121.281 131.788 119.776 130.521 117.81C129.34 120.109 127.734 122.201 126.398 124.415C126.456 126.314 126.677 128.333 126.5 130.221C126.2 130.513 125.851 130.556 125.438 130.553C125.367 130.553 125.296 130.551 125.225 130.549L124.971 130.274C124.543 127.377 125.365 125.222 123.182 122.726C122.312 119.149 122.71 116.222 124.318 112.953C125.585 111.329 126.908 110.624 128.667 109.673Z" fill="#1A2C34"/>
<path d="M130.521 117.811C131.788 119.776 133.144 121.281 135.256 122.362C139.272 124.416 144.132 124.139 148.312 122.807L148.293 124.716C148.265 125.722 147.799 129.693 148.378 130.386C148.492 130.522 148.697 130.618 148.848 130.703C149.086 131.545 149.261 132.4 149.483 133.245C150.262 134.158 150.796 134.604 152.03 134.749L152.067 134.694L152.548 134.46L152.601 134.764C152.083 138.568 150.437 141.825 147.342 144.195C146.174 145.09 144.653 145.979 143.207 146.293L143.155 146.382C143.439 146.929 143.825 147.328 144.24 147.774C144.148 148.182 143.947 148.684 144.211 149.057C144.348 149.25 144.598 149.434 144.777 149.593C142.81 151.773 139.2 154.081 136.751 155.813C134.118 153.592 131.267 151.59 128.841 149.14C129.334 148.838 129.909 148.712 130.46 148.55C130.784 146.586 131.094 144.621 131.39 142.653C130.67 141.998 129.947 141.341 129.27 140.641C126.603 137.883 125.159 134.393 125.225 130.549C125.296 130.55 125.367 130.552 125.438 130.553C125.851 130.555 126.2 130.513 126.501 130.221C126.677 128.333 126.456 126.314 126.398 124.414C127.735 122.201 129.34 120.109 130.521 117.811Z" fill="#FCB58D"/>
<path d="M149.483 133.246C150.262 134.159 150.796 134.605 152.03 134.75L152.067 134.695L152.548 134.461L152.601 134.765C152.083 138.569 150.437 141.826 147.342 144.196C146.174 145.09 144.653 145.98 143.207 146.294L143.155 146.383C142.745 146.379 142.353 146.337 141.974 146.519C141.665 147.128 141.347 147.731 140.772 148.129C140.028 148.644 139.071 148.764 138.198 148.566C138.075 148.538 137.953 148.504 137.833 148.464C137.714 148.423 137.596 148.377 137.481 148.325C137.365 148.273 137.253 148.215 137.144 148.152C137.034 148.089 136.928 148.02 136.826 147.946C136.723 147.872 136.625 147.793 136.53 147.709C136.436 147.625 136.345 147.537 136.259 147.444C136.174 147.351 136.093 147.254 136.017 147.153C135.941 147.052 135.87 146.947 135.805 146.839C135.402 146.16 135.274 145.371 135.514 144.613C135.549 144.505 135.59 144.4 135.635 144.297C135.681 144.193 135.732 144.092 135.787 143.994C135.843 143.896 135.903 143.801 135.968 143.708C136.033 143.616 136.103 143.527 136.177 143.442C136.251 143.356 136.329 143.275 136.411 143.197C136.493 143.12 136.578 143.046 136.668 142.977C136.757 142.908 136.849 142.843 136.945 142.784C137.041 142.724 137.14 142.669 137.241 142.619C137.353 142.563 137.469 142.513 137.586 142.469C137.704 142.425 137.824 142.387 137.946 142.355C138.067 142.324 138.19 142.298 138.315 142.279C138.439 142.26 138.564 142.248 138.69 142.242C138.815 142.236 138.941 142.236 139.066 142.243C139.192 142.25 139.317 142.263 139.441 142.283C139.565 142.303 139.688 142.329 139.81 142.361C139.931 142.394 140.051 142.432 140.168 142.477C141.904 143.147 141.504 144.143 142.128 145.531L142.77 145.67C142.822 144.994 142.557 143.421 142.636 143.019C142.673 142.827 144.921 141.301 145.296 140.926C147.516 138.713 148.57 136.21 149.483 133.246Z" fill="#1A2C34"/>
<path d="M149.483 133.246C150.262 134.159 150.796 134.605 152.03 134.75C151.225 138.763 149.676 141.913 146.181 144.234C145.282 144.832 144.243 145.367 143.192 145.628L142.769 145.669C142.821 144.993 142.557 143.42 142.635 143.018C142.672 142.827 144.92 141.3 145.296 140.926C147.516 138.713 148.57 136.21 149.483 133.246Z" fill="#FEFEFE"/>
<path d="M45.1386 121.414C45.1121 121.371 45.0864 121.329 45.0594 121.287C43.8701 119.428 42.3007 117.875 41.1616 115.956C37.5915 109.94 36.7607 101.883 38.1906 95.1341C39.664 88.1794 44.1235 82.029 50.0601 78.1747C55.641 74.5515 63.0666 73.3558 69.5342 74.7797C75.7451 76.1471 81.6106 80.4541 84.9684 85.8175C88.946 92.1702 89.6051 99.8793 87.9193 107.089C86.9802 111.107 84.699 114.535 82.5051 117.963C81.3929 112.791 79.2118 107.478 74.5894 104.472C73.7946 103.955 72.8719 103.587 72.1066 103.042C70.696 102.525 69.2151 102.127 67.784 101.66C67.4397 101.446 67.2536 101.128 67.0115 100.808C65.5697 100.614 63.928 100.807 62.4497 100.781C62.1894 101.071 61.9211 101.335 61.6324 101.598C60.2784 101.844 58.9094 102.077 57.5829 102.448C53.0737 104.226 49.5355 106.935 47.5469 111.472C46.199 114.547 45.6158 118.102 45.1386 121.414Z" fill="#E1EFEE"/>
<path d="M73.624 87.0527C73.9215 87.0882 74.2176 87.1106 74.5068 87.1909C75.2035 87.5314 75.7235 87.8165 76.0003 88.5772C76.4432 89.7944 76.5992 92.3443 76.0716 93.5064C75.8886 93.9093 75.5447 94.2098 75.1308 94.362C74.6669 94.5329 74.1165 94.6012 73.6291 94.6793C73.2915 94.6883 72.9308 94.6887 72.6033 94.5933C72.001 94.4184 71.5349 93.796 71.28 93.2535C70.6678 91.9506 70.8526 89.3878 71.4027 88.0618C71.6339 87.5043 72.1264 87.4869 72.6393 87.2998L73.624 87.0527Z" fill="#00796B"/>
<path d="M73.624 87.0527C73.9215 87.0882 74.2176 87.1106 74.5068 87.1909C75.2035 87.5314 75.7235 87.8165 76.0003 88.5772C76.4432 89.7944 76.5992 92.3443 76.0716 93.5064C75.8886 93.9093 75.5447 94.2098 75.1308 94.362C74.6669 94.5329 74.1165 94.6012 73.6291 94.6793C73.2915 94.6883 72.9308 94.6887 72.6033 94.5933C72.001 94.4184 71.5349 93.796 71.28 93.2535C70.6678 91.9506 70.8526 89.3878 71.4027 88.0618C71.6339 87.5043 72.1264 87.4869 72.6393 87.2998L73.624 87.0527Z" fill="url(#paint5_linear_396_4522)" fill-opacity="0.12"/>
<path d="M54.4818 87.0759C54.7437 85.0905 54.3942 82.705 55.959 81.1657C57.8844 79.2718 61.5548 78.8017 64.1272 78.8229C66.916 78.8463 71.1301 79.4307 73.1339 81.5848C74.5882 83.1481 74.5551 85.2101 74.5069 87.1987C74.2176 87.1185 73.9216 87.0961 73.624 87.0605L72.6394 87.3078C71.6938 84.6704 70.6966 82.4666 68.023 81.1824C67.9049 81.1251 67.7855 81.0708 67.6648 81.0192C67.5441 80.968 67.4222 80.9196 67.2993 80.8742C67.1761 80.8289 67.0519 80.7866 66.9267 80.7473C66.8015 80.708 66.6755 80.6718 66.5486 80.6388C66.4216 80.6057 66.2937 80.5758 66.1655 80.5491C66.037 80.5223 65.908 80.4988 65.7784 80.4784C65.6488 80.4579 65.5189 80.4409 65.3885 80.427C65.2581 80.413 65.1273 80.4021 64.9963 80.3947C64.8653 80.3873 64.7341 80.3829 64.603 80.3819C64.4718 80.381 64.3407 80.3832 64.2097 80.3885C64.0785 80.3941 63.9475 80.4028 63.8169 80.4147C63.6864 80.4266 63.5562 80.4416 63.4262 80.46C63.2963 80.4784 63.1669 80.4998 63.038 80.5245C62.9091 80.5493 62.781 80.5772 62.6534 80.6082C62.5259 80.6393 62.3994 80.6735 62.2737 80.7109C62.1478 80.7481 62.023 80.7884 61.8993 80.832C59.9296 81.5342 58.4235 82.9628 57.5335 84.8475C57.1197 85.7242 56.8814 86.6651 56.6835 87.611C57.7533 89.0083 57.9306 90.527 57.7077 92.2502C57.6234 92.901 57.3864 93.8213 56.844 94.2521C56.5219 94.5081 56.0277 94.6796 55.6384 94.8046C55.1835 94.5862 54.62 94.6337 54.1265 94.5267C53.6655 94.4268 53.3402 94.2006 53.0956 93.7929C52.3546 92.5584 52.2573 90.0038 52.6279 88.6117C52.8432 87.8038 53.8098 87.4441 54.4818 87.0759Z" fill="#108275"/>
<path d="M56.6832 87.6016C56.4758 87.525 56.2249 87.4534 56.0361 87.3402C55.7443 87.1653 55.5898 86.9723 55.5505 86.6312C55.3822 85.1594 55.5561 83.2831 56.5467 82.1155C58.0338 80.3626 61.2336 79.951 63.3882 79.7749C65.7926 79.5789 70.285 80.2065 72.1131 81.8581C73.5901 83.1925 73.5741 85.2211 73.6237 87.0511L72.639 87.2983C71.6935 84.661 70.6963 82.4571 68.0226 81.1729C67.9045 81.1157 67.7852 81.0613 67.6645 81.0098C67.5438 80.9585 67.4219 80.9101 67.2989 80.8648C67.1757 80.8194 67.0516 80.7771 66.9264 80.7378C66.8012 80.6986 66.6752 80.6623 66.5483 80.6293C66.4212 80.5962 66.2934 80.5664 66.1651 80.5397C66.0366 80.5128 65.9076 80.4893 65.778 80.4689C65.6485 80.4484 65.5185 80.4314 65.3882 80.4175C65.2577 80.4035 65.1269 80.3927 64.9959 80.3852C64.8649 80.3778 64.7338 80.3735 64.6026 80.3724C64.4715 80.3715 64.3403 80.3737 64.2093 80.379C64.0782 80.3846 63.9472 80.3933 63.8165 80.4052C63.6861 80.4171 63.5558 80.4322 63.4259 80.4506C63.2959 80.4689 63.1665 80.4903 63.0376 80.5151C62.9087 80.5398 62.7806 80.5677 62.653 80.5988C62.5256 80.6298 62.3991 80.6641 62.2733 80.7015C62.1475 80.7386 62.0227 80.7789 61.8989 80.8226C59.9292 81.5247 58.4232 82.9533 57.5332 84.838C57.1195 85.7149 56.8812 86.6558 56.6832 87.6016Z" fill="#E1EFEE"/>
<path d="M56.6835 87.6102C56.8814 86.6644 57.1198 85.7234 57.5336 84.8466C58.4236 82.9619 59.9296 81.5333 61.8993 80.8312C62.0231 80.7877 62.1479 80.7473 62.2737 80.7101C62.3994 80.6728 62.526 80.6386 62.6534 80.6074C62.7808 80.5763 62.9091 80.5484 63.038 80.5237C63.1669 80.499 63.2963 80.4774 63.4263 80.4592C63.5562 80.441 63.6864 80.4257 63.8169 80.4138C63.9475 80.4019 64.0786 80.3932 64.2097 80.3877C64.3407 80.3824 64.4719 80.3801 64.603 80.3811C64.7342 80.3821 64.8653 80.3863 64.9963 80.3939C65.1273 80.4014 65.2579 80.4121 65.3883 80.4261C65.5188 80.44 65.6487 80.4572 65.7784 80.4776C65.908 80.4978 66.037 80.5213 66.1655 80.5483C66.2939 80.575 66.4216 80.6047 66.5486 80.6379C66.6756 80.671 66.8015 80.7072 66.9267 80.7465C67.0519 80.7857 67.1761 80.828 67.2993 80.8734C67.4222 80.9187 67.5441 80.9671 67.6648 81.0184C67.7855 81.07 67.9049 81.1243 68.023 81.1816C70.6967 82.4658 71.6939 84.6696 72.6394 87.3069C72.1263 87.4941 71.6338 87.5114 71.4028 88.069C70.8527 89.3949 70.6678 91.9577 71.2801 93.2606C71.535 93.8031 72.0011 94.4256 72.6034 94.6005C72.9309 94.6956 73.2917 94.6954 73.6292 94.6864C73.3442 97.3725 73.0799 100.523 72.1071 103.04C70.6965 102.523 69.2156 102.125 67.7845 101.658C67.4402 101.444 67.2541 101.126 67.012 100.806C65.5702 100.613 63.9285 100.805 62.4502 100.779C62.1899 101.069 61.9217 101.333 61.6329 101.596C60.2789 101.842 58.9099 102.075 57.5834 102.446C56.7742 99.9419 56.4717 97.3072 55.6384 94.8037C56.0278 94.6786 56.5218 94.5071 56.844 94.2512C57.3863 93.8203 57.6235 92.9001 57.7077 92.2492C57.9306 90.5263 57.7533 89.0075 56.6835 87.6102Z" fill="#1A2C34"/>
<path d="M59.7294 87.1523C60.8472 88.7127 62.2794 89.9729 64.0608 90.7193C65.4513 91.3019 67.1698 91.6819 68.6101 91.0993C68.7008 90.9267 68.785 90.7594 68.8578 90.578C68.8772 90.5295 68.8954 90.4804 68.9144 90.4316C68.9504 90.4186 68.985 90.4002 69.0227 90.3925C69.3205 90.3304 69.7514 90.4675 69.9892 90.6469C70.2876 90.8721 70.4113 91.2276 70.4399 91.5866C70.5943 93.5445 69.3152 95.5479 68.1294 96.9718C67.7062 97.3538 67.2567 97.7319 66.7399 97.9813C65.4267 98.6142 63.622 98.7726 62.2475 98.2565C60.573 97.6275 58.9211 95.7692 58.6606 93.9721C58.5481 93.1938 58.632 92.4511 58.3121 91.7103C58.2892 91.6576 58.2636 91.6057 58.2425 91.5525C58.0181 90.9877 57.9095 90.3542 58.1702 89.7836C58.4424 89.7891 58.6083 89.7975 58.8517 89.6669C59.3353 88.9664 59.4868 87.9721 59.7294 87.1523Z" fill="#A2624C"/>
<path d="M144.24 147.777C149.048 151.759 150.413 151.819 156.148 153.984C158.461 154.864 160.762 155.777 163.049 156.723C166.744 158.224 170.623 159.426 173.08 162.801C175.494 166.215 176.694 171.712 178.23 175.695C177.085 176.161 172.715 175.824 171.245 175.85L139.694 175.838L133.79 175.846L102.22 175.852C99.6951 175.851 97.0078 176.024 94.5 175.717C96.5083 171.546 98.404 167.324 100.455 163.173C102.195 159.569 107.645 158.052 111.084 156.679C113.402 155.754 115.73 154.831 117.984 153.756C121.645 152.343 125.345 150.937 128.84 149.143C131.267 151.593 134.118 153.595 136.751 155.816C139.2 154.084 142.809 151.776 144.777 149.596C144.598 149.437 144.348 149.253 144.211 149.06C143.947 148.687 144.148 148.185 144.24 147.777Z" fill="#00796B"/>
<path d="M144.24 147.777C149.048 151.759 150.413 151.819 156.148 153.984C158.461 154.864 160.762 155.777 163.049 156.723C166.744 158.224 170.623 159.426 173.08 162.801C175.494 166.215 176.694 171.712 178.23 175.695C177.085 176.161 172.715 175.824 171.245 175.85L139.694 175.838L133.79 175.846L102.22 175.852C99.6951 175.851 97.0078 176.024 94.5 175.717C96.5083 171.546 98.404 167.324 100.455 163.173C102.195 159.569 107.645 158.052 111.084 156.679C113.402 155.754 115.73 154.831 117.984 153.756C121.645 152.343 125.345 150.937 128.84 149.143C131.267 151.593 134.118 153.595 136.751 155.816C139.2 154.084 142.809 151.776 144.777 149.596C144.598 149.437 144.348 149.253 144.211 149.06C143.947 148.687 144.148 148.185 144.24 147.777Z" fill="url(#paint6_linear_396_4522)" fill-opacity="0.12"/>
<path d="M136.875 157.074C137.673 157.652 138.334 158.375 138.93 159.154C138.744 159.605 138.569 160.039 138.547 160.532C138.465 162.358 138.746 164.272 138.901 166.097C139.177 169.34 139.466 172.586 139.695 175.833L133.79 175.842C133.943 172.124 134.349 168.373 134.681 164.666C134.816 163.162 135.092 161.552 135.062 160.046C135.056 159.726 134.984 159.543 134.821 159.272C134.964 158.621 136.355 157.56 136.875 157.074Z" fill="#1A2C34"/>
<path d="M33.5921 193.407C32.7882 192.028 31.9586 190.655 31.231 189.234C27.6233 182.19 26.5036 173.537 28.9757 165.931C31.1318 159.296 35.4089 153.489 41.7243 150.289C47.7627 147.229 55.5499 146.928 61.9259 149.071C68.1911 151.177 73.5721 156.22 76.5015 162.12C76.6349 162.384 76.7637 162.651 76.8879 162.921C77.0121 163.19 77.1316 163.461 77.2469 163.734C77.3619 164.007 77.4721 164.282 77.5778 164.559C77.6835 164.836 77.7847 165.115 77.8809 165.395C77.977 165.676 78.0685 165.958 78.1552 166.241C78.242 166.524 78.3239 166.809 78.4011 167.096C78.4782 167.382 78.5505 167.669 78.6179 167.958C78.6851 168.247 78.7475 168.536 78.8051 168.827C78.8628 169.118 78.9154 169.41 78.963 169.702C79.0106 169.995 79.0533 170.288 79.091 170.582C79.1288 170.876 79.1616 171.171 79.1893 171.466C79.2171 171.761 79.2398 172.057 79.2575 172.353C79.2751 172.649 79.2878 172.945 79.2956 173.241C79.3033 173.537 79.3059 173.834 79.3036 174.13C79.3012 174.427 79.2939 174.723 79.2817 175.019C79.2693 175.315 79.2519 175.611 79.2295 175.907C79.2072 176.202 79.1798 176.497 79.1474 176.792C79.115 177.087 79.0778 177.381 79.0354 177.674C78.9931 177.968 78.9458 178.26 78.8936 178.552C78.8414 178.844 78.7841 179.135 78.7219 179.424C78.6599 179.714 78.5928 180.003 78.521 180.29C78.4491 180.578 78.3723 180.865 78.2909 181.15C78.2093 181.435 78.1228 181.718 78.0318 182C77.9405 182.282 77.8446 182.563 77.7438 182.841C77.6432 183.12 77.5378 183.397 77.4279 183.673C77.3179 183.948 77.2031 184.221 77.0839 184.493C76.9646 184.764 76.8406 185.033 76.7121 185.3C76.5837 185.567 76.4509 185.832 76.3135 186.095C76.1762 186.358 76.0343 186.618 75.888 186.876C75.7419 187.134 75.5913 187.389 75.4362 187.642C75.2814 187.895 75.1222 188.145 74.959 188.392C74.7955 188.64 74.6282 188.884 74.4566 189.126C73.6412 190.262 71.051 192.365 70.8361 192.734C70.7491 192.883 70.727 193.062 70.6727 193.226L70.7823 192.946C70.6983 192.721 70.6721 192.505 70.4751 192.353C69.7624 191.804 68.6418 192.09 67.8245 192.22C67.0939 189.441 66.3073 186.192 64.6656 183.807C63.9702 182.797 62.1541 182.255 61.7963 181.216L61.7446 181.436C61.2317 181.602 59.9247 181.035 59.3642 180.853C58.4512 180.729 57.5521 180.162 56.6346 180.163L56.4928 180.229C55.068 180.907 53.5498 182.292 51.862 181.726C51.3575 181.557 50.8588 181.246 50.6088 180.764C50.5309 180.614 50.4822 180.43 50.4321 180.271L50.2883 180.147C48.9959 180.42 47.7592 180.711 46.5451 181.242C45.6188 181.429 44.7333 181.765 43.8424 182.074C42.0654 182.66 40.9036 183.554 40.038 185.245C39.0733 187.13 38.3122 191.803 37.1353 192.963C36.2957 192.873 34.5704 192.522 33.8467 192.966C33.687 193.063 33.6598 193.244 33.5921 193.407Z" fill="#E1EFEE"/>
<path d="M42.0896 163.065L42.0899 162.926C42.1125 160.069 43.2596 157.501 45.3016 155.5C47.3086 153.534 50.0989 152.298 52.9263 152.366C53.0987 152.37 53.271 152.378 53.4431 152.391C53.615 152.404 53.7866 152.421 53.9578 152.442C54.129 152.463 54.2995 152.488 54.4696 152.518C54.6394 152.547 54.8085 152.581 54.9767 152.619C55.145 152.657 55.3123 152.699 55.4785 152.745C55.6446 152.791 55.8094 152.842 55.9731 152.896C56.1368 152.95 56.299 153.009 56.4597 153.071C56.6206 153.134 56.7798 153.2 56.9373 153.27C57.0947 153.341 57.2505 153.415 57.4042 153.493C57.558 153.571 57.7097 153.653 57.8596 153.738C58.0094 153.824 58.157 153.913 58.3023 154.006C58.4477 154.098 58.5907 154.195 58.7313 154.295C58.8719 154.394 59.0099 154.498 59.1453 154.604C59.2808 154.711 59.4136 154.821 59.5437 154.935C59.6736 155.048 59.8007 155.164 59.9249 155.284C60.0492 155.404 60.1704 155.526 60.2886 155.652C62.1922 157.666 62.9849 159.904 62.907 162.659C63.9845 163.187 64.7585 163.823 65.1468 165C65.5391 166.188 65.4313 167.617 64.8562 168.729C64.3923 169.626 63.5558 170.426 62.5847 170.742C62.257 170.849 61.8962 170.904 61.5576 170.966C61.0145 170.596 60.6457 170.15 60.2474 169.638C59.4674 167.521 59.9364 164.569 60.3777 162.391C60.3379 162.329 60.2977 162.267 60.2585 162.205C59.8444 161.543 59.6257 160.75 59.2588 160.057C58.3082 158.261 56.4131 157.078 54.4661 156.612C52.3881 156.114 50.1576 156.553 48.357 157.682C46.7289 158.702 45.2504 160.524 44.8437 162.429C44.8295 162.496 44.8175 162.562 44.8046 162.629C45.1286 163.963 45.4082 165.289 45.6615 166.639C45.731 168.006 45.8658 169.368 44.8861 170.479C44.5115 170.904 44.0502 171.13 43.9283 171.701C43.8835 171.526 43.9217 171.638 43.7644 171.388C43.4521 171.35 43.1332 171.315 42.8271 171.242C41.8855 171.019 41.0509 170.512 40.5566 169.678C39.8489 168.483 39.6511 166.78 40.029 165.447C40.3722 164.235 41.0127 163.652 42.0896 163.065Z" fill="#00796B"/>
<path d="M42.0896 163.065L42.0899 162.926C42.1125 160.069 43.2596 157.501 45.3016 155.5C47.3086 153.534 50.0989 152.298 52.9263 152.366C53.0987 152.37 53.271 152.378 53.4431 152.391C53.615 152.404 53.7866 152.421 53.9578 152.442C54.129 152.463 54.2995 152.488 54.4696 152.518C54.6394 152.547 54.8085 152.581 54.9767 152.619C55.145 152.657 55.3123 152.699 55.4785 152.745C55.6446 152.791 55.8094 152.842 55.9731 152.896C56.1368 152.95 56.299 153.009 56.4597 153.071C56.6206 153.134 56.7798 153.2 56.9373 153.27C57.0947 153.341 57.2505 153.415 57.4042 153.493C57.558 153.571 57.7097 153.653 57.8596 153.738C58.0094 153.824 58.157 153.913 58.3023 154.006C58.4477 154.098 58.5907 154.195 58.7313 154.295C58.8719 154.394 59.0099 154.498 59.1453 154.604C59.2808 154.711 59.4136 154.821 59.5437 154.935C59.6736 155.048 59.8007 155.164 59.9249 155.284C60.0492 155.404 60.1704 155.526 60.2886 155.652C62.1922 157.666 62.9849 159.904 62.907 162.659C63.9845 163.187 64.7585 163.823 65.1468 165C65.5391 166.188 65.4313 167.617 64.8562 168.729C64.3923 169.626 63.5558 170.426 62.5847 170.742C62.257 170.849 61.8962 170.904 61.5576 170.966C61.0145 170.596 60.6457 170.15 60.2474 169.638C59.4674 167.521 59.9364 164.569 60.3777 162.391C60.3379 162.329 60.2977 162.267 60.2585 162.205C59.8444 161.543 59.6257 160.75 59.2588 160.057C58.3082 158.261 56.4131 157.078 54.4661 156.612C52.3881 156.114 50.1576 156.553 48.357 157.682C46.7289 158.702 45.2504 160.524 44.8437 162.429C44.8295 162.496 44.8175 162.562 44.8046 162.629C45.1286 163.963 45.4082 165.289 45.6615 166.639C45.731 168.006 45.8658 169.368 44.8861 170.479C44.5115 170.904 44.0502 171.13 43.9283 171.701C43.8835 171.526 43.9217 171.638 43.7644 171.388C43.4521 171.35 43.1332 171.315 42.8271 171.242C41.8855 171.019 41.0509 170.512 40.5566 169.678C39.8489 168.483 39.6511 166.78 40.029 165.447C40.3722 164.235 41.0127 163.652 42.0896 163.065Z" fill="url(#paint7_linear_396_4522)" fill-opacity="0.12"/>
<path d="M42.8586 162.847C43.0776 160.425 43.7517 158.257 45.4497 156.446C47.256 154.518 49.9615 153.207 52.6176 153.156C55.2633 153.105 57.7268 154.235 59.591 156.083C61.4591 157.936 62.111 160.018 62.1393 162.599C61.5564 162.501 60.9654 162.452 60.3778 162.391C60.338 162.329 60.2979 162.268 60.2586 162.206C59.8445 161.544 59.6259 160.751 59.2589 160.058C58.3083 158.262 56.4132 157.079 54.4662 156.613C52.3883 156.114 50.1577 156.554 48.3571 157.683C46.729 158.703 45.2505 160.525 44.8438 162.43C44.8297 162.496 44.8176 162.563 44.8047 162.63C44.1388 162.624 43.5117 162.734 42.8586 162.847Z" fill="#E1EFEE"/>
<path d="M44.8045 162.631C44.8176 162.564 44.8296 162.497 44.8436 162.431C45.2503 160.526 46.7289 158.704 48.3569 157.684C50.1575 156.555 52.3881 156.115 54.4661 156.614C56.4131 157.08 58.3081 158.263 59.2587 160.059C59.6256 160.752 59.8442 161.545 60.2584 162.207C60.2975 162.269 60.3379 162.33 60.3777 162.392C59.9364 164.571 59.4673 167.523 60.2473 169.64C60.6456 170.152 61.0145 170.598 61.5576 170.968C61.7557 174.373 61.4986 177.84 61.7957 181.223L61.744 181.443C61.2312 181.609 59.9241 181.042 59.3637 180.86C58.4507 180.735 57.5515 180.168 56.6341 180.169L56.4922 180.236C55.0674 180.914 53.5492 182.298 51.8614 181.732C51.3569 181.563 50.8582 181.253 50.6082 180.771C50.5304 180.621 50.4816 180.436 50.4315 180.277L50.2878 180.153C48.9953 180.426 47.7586 180.717 46.5446 181.249C45.6182 181.436 44.7327 181.771 43.8418 182.081C43.9632 178.63 43.9131 175.157 43.9284 171.703C44.0503 171.132 44.5115 170.905 44.8862 170.481C45.8658 169.37 45.7312 168.008 45.6616 166.64C45.4081 165.291 45.1284 163.965 44.8045 162.631Z" fill="#1A2C34"/>
<path d="M50.8357 175.797C52.2988 175.909 53.7483 175.984 55.214 175.864C55.3996 175.849 55.3162 175.851 55.519 175.867C55.4582 176.894 55.1178 178.967 55.8405 179.773C56.0405 179.996 56.3586 180.078 56.634 180.164L56.4922 180.23C55.0674 180.909 53.5492 182.293 51.8613 181.727C51.3568 181.558 50.8582 181.248 50.6082 180.766C50.5303 180.616 50.4815 180.431 50.4314 180.272L50.2877 180.148L50.4815 180.035C50.9267 178.757 50.8151 177.144 50.8357 175.797Z" fill="#FCB58D"/>
<path d="M46.5837 165.976C46.5936 165.456 46.5567 164.976 46.8336 164.514C47.1973 164.271 47.4136 164.196 47.8538 164.267C48.8423 164.426 49.8456 165.014 50.8005 165.335C52.3417 165.853 55.1935 165.999 56.5864 165.009C57.2591 164.532 57.7673 163.814 58.5468 163.508C58.7865 163.592 58.7298 163.523 58.8379 163.731C59.6424 165.277 58.4892 167.458 60.0218 169.484C60.064 169.54 60.1042 169.597 60.1455 169.653C59.6479 171.738 58.3281 174.378 56.4125 175.494C56.1277 175.659 55.8331 175.777 55.5189 175.873C55.316 175.856 55.3994 175.855 55.214 175.87C53.7482 175.99 52.2987 175.915 50.8356 175.802C50.1672 175.582 49.5118 175.297 48.9221 174.908C47.0287 173.66 46.3528 171.758 45.9088 169.649C46.5832 168.4 46.6296 167.363 46.5837 165.976Z" fill="#F8BD9B"/>
<path d="M47.6143 170.128C48.4771 170.061 50.0908 170.062 50.8852 170.354L50.955 170.729C49.6765 171.14 48.7539 170.675 47.6143 170.128Z" fill="#CD8865"/>
<path d="M57.1588 169.893L57.2267 169.965L57.2139 170.234C57.0307 170.465 56.872 170.636 56.6206 170.796C56.1345 171.105 55.8434 171.194 55.2799 171.061L54.9167 170.7L54.9445 170.498C55.1962 170.332 55.3648 170.256 55.6637 170.206C56.1677 170.122 56.661 170.007 57.1588 169.893Z" fill="#CD8865"/>
<path d="M51.4336 171.824C51.8015 172.198 52.1125 172.553 52.629 172.704C53.3052 172.901 53.9736 172.572 54.5381 172.243L54.7018 172.145L54.8562 172.27L54.7557 172.735C54.3897 173.127 54.0219 173.559 53.5081 173.756C53.1665 173.887 52.8151 173.889 52.4866 173.712C51.8159 173.352 51.6263 172.495 51.4336 171.824Z" fill="#CD8865"/>
<path d="M118.654 78.3226C113.228 72.7655 110.749 66.5732 110.859 58.7875C110.947 52.5288 113.943 45.6016 118.452 41.2068C123.326 36.4554 130.008 34.117 136.768 34.2474C143.332 34.3737 149.394 37.2018 153.92 41.924C154.072 42.0848 154.221 42.2472 154.368 42.4114C154.515 42.5756 154.66 42.7417 154.804 42.9096C154.947 43.0772 155.088 43.2466 155.227 43.4178C155.366 43.5891 155.503 43.762 155.638 43.9364C155.773 44.1109 155.906 44.2871 156.037 44.4648C156.168 44.6426 156.296 44.8219 156.422 45.0026C156.549 45.1836 156.673 45.366 156.795 45.5498C156.917 45.7336 157.036 45.9189 157.154 46.1057C157.271 46.2925 157.386 46.4808 157.499 46.6702C157.612 46.8597 157.722 47.0506 157.831 47.2429C157.939 47.4352 158.045 47.6286 158.148 47.8234C158.252 48.0183 158.353 48.2142 158.452 48.4114C158.55 48.6087 158.647 48.8072 158.741 49.0068C158.835 49.2064 158.926 49.4071 159.015 49.6088C159.105 49.8106 159.191 50.0134 159.275 50.2174C159.359 50.4215 159.441 50.6264 159.52 50.8323C159.599 51.0381 159.676 51.2449 159.751 51.4527C159.825 51.6604 159.896 51.8689 159.966 52.0785C160.035 52.288 160.101 52.4983 160.165 52.7094C160.229 52.9204 160.291 53.1322 160.35 53.3448C160.409 53.5574 160.465 53.7707 160.519 53.9848C160.572 54.1988 160.624 54.4134 160.672 54.6285C160.721 54.8437 160.767 55.0596 160.81 55.2759C160.853 55.492 160.894 55.7088 160.932 55.9262C160.97 56.1434 161.005 56.3611 161.038 56.5794C161.071 56.7975 161.101 57.0159 161.129 57.2349C161.156 57.4537 161.181 57.6729 161.203 57.8924C161.225 58.112 161.245 58.3318 161.262 58.5516C161.278 58.7717 161.293 58.9919 161.304 59.2121C161.316 59.4324 161.324 59.6527 161.331 59.8734C161.337 60.0938 161.34 60.3143 161.341 60.5349C161.342 60.7556 161.34 60.9761 161.336 61.1967C161.231 65.7201 160.119 70.2426 157.821 74.1599C156.984 75.5884 155.899 76.9587 155.143 78.4172L153.478 78.3875L153.416 78.1516C152.026 78.5472 148.82 78.2531 147.211 78.2777C146.854 77.0293 146.562 75.6632 145.854 74.5622C145.353 75.8264 145.205 77.0495 145.061 78.3949L144.46 78.3768C142.604 78.0142 140.396 78.2371 138.492 78.2438L127.628 78.283C127.543 77.3004 127.338 76.3607 127.124 75.3997C126.694 76.3439 126.313 77.3127 125.918 78.272C124.012 78.245 121.938 78.0872 120.055 78.3834L119.771 78.4232C119.386 78.4181 119.034 78.3807 118.654 78.3226Z" fill="#E1EFEE"/>
<path d="M126.256 47.6453C126.13 45.9358 126.551 44.2089 127.688 42.8903C129.559 40.7216 132.95 40.1633 135.657 40.0302C138.826 39.8742 142.408 40.3192 144.856 42.5281C146.451 43.9672 147.25 45.9652 147.316 48.0914C147.326 48.4008 147.301 48.6391 147.196 48.9305C146.902 48.9399 146.683 48.9847 146.397 49.0454C146.283 47.6609 146.212 46.3334 145.583 45.0635C144.773 43.4295 143.13 42.3649 141.433 41.8201C138.12 40.7569 133.417 40.6375 130.266 42.2867C127.721 43.6182 127.855 44.8956 127.114 47.2663L127.064 47.4231C127.047 47.4632 127.029 47.5026 127.012 47.5426C126.853 47.9139 126.792 48.1924 126.75 48.5902C126.729 48.795 126.736 48.7214 126.619 48.951C126.454 48.5689 126.431 48.3697 126.362 47.9682C126.345 47.873 126.292 47.7395 126.256 47.6453Z" fill="#49BAAD"/>
<path d="M146.397 49.0368C146.683 48.9759 146.903 48.9311 147.196 48.9219C147.22 48.952 147.24 48.9859 147.268 49.0123C147.412 49.1466 147.503 49.1518 147.683 49.1984C148.182 49.3269 148.683 49.5779 148.95 50.0373C149.553 51.074 149.562 55.5507 149.174 56.6855C148.998 57.2028 148.741 57.6727 148.209 57.8902C147.862 58.0325 147.37 58.092 146.996 58.0624C146.314 58.0123 145.939 57.9736 145.423 57.4902C144.69 56.8033 144.517 55.8413 144.463 54.8774L144.497 54.4471C144.574 52.7653 144.442 51.079 144.445 49.3954C144.458 49.7255 144.455 49.9513 144.585 50.2628C145.055 50.1823 145.914 49.3404 146.397 49.0368Z" fill="#00796B"/>
<path d="M146.397 49.0368C146.683 48.9759 146.903 48.9311 147.196 48.9219C147.22 48.952 147.24 48.9859 147.268 49.0123C147.412 49.1466 147.503 49.1518 147.683 49.1984C148.182 49.3269 148.683 49.5779 148.95 50.0373C149.553 51.074 149.562 55.5507 149.174 56.6855C148.998 57.2028 148.741 57.6727 148.209 57.8902C147.862 58.0325 147.37 58.092 146.996 58.0624C146.314 58.0123 145.939 57.9736 145.423 57.4902C144.69 56.8033 144.517 55.8413 144.463 54.8774L144.497 54.4471C144.574 52.7653 144.442 51.079 144.445 49.3954C144.458 49.7255 144.455 49.9513 144.585 50.2628C145.055 50.1823 145.914 49.3404 146.397 49.0368Z" fill="url(#paint8_linear_396_4522)" fill-opacity="0.12"/>
<path d="M142.974 54.8608L143.122 54.3529C143.373 54.1164 143.504 54.0726 143.844 54.0215C144.215 54.1473 144.276 54.1382 144.497 54.4538L144.463 54.8841C144.517 55.848 144.69 56.8101 145.423 57.497C145.939 57.9804 146.314 58.0191 146.996 58.0692C146.086 59.6797 144.016 64.4177 142.914 65.3262C142.025 64.5831 140.828 64.1678 139.747 63.7994C139.627 62.9029 139.625 61.9849 139.593 61.0813C140.762 60.4125 141.668 59.2915 142.239 58.0893C142.306 57.9485 142.489 57.4317 142.578 57.348C142.643 57.2864 142.746 57.2837 142.829 57.2517C143.068 56.3885 143.215 55.7379 142.974 54.8608Z" fill="#1A2C34"/>
<path d="M142.974 54.8608L143.122 54.3529C143.373 54.1164 143.504 54.0726 143.844 54.0215C144.215 54.1473 144.276 54.1382 144.497 54.4538L144.463 54.8841C144.359 55.675 144.046 56.4487 143.391 56.9482C143.214 57.0834 143.033 57.1642 142.829 57.2516C143.068 56.3885 143.215 55.7379 142.974 54.8608Z" fill="#A2624C"/>
<path d="M126.256 47.6479C126.292 47.742 126.345 47.8755 126.362 47.9709C126.431 48.3725 126.454 48.5716 126.619 48.9537C126.736 48.724 126.729 48.7977 126.75 48.5929C126.792 48.1951 126.854 47.9164 127.012 47.5453C127.029 47.5054 127.047 47.4658 127.064 47.4258C127.02 48.3828 126.938 48.8142 127.627 49.5766C127.779 49.7449 127.942 49.8904 128.108 50.0446C128.475 50.3859 128.685 50.7704 128.919 51.2085C128.902 52.4469 128.775 53.743 128.866 54.9735C128.827 55.811 128.605 56.5457 127.952 57.1168C127.356 57.6386 126.671 57.8221 125.909 57.9365C125.72 57.965 125.53 58.001 125.341 58.0325C124.929 57.786 124.471 57.4776 124.246 57.0397C123.587 55.7593 123.605 51.981 124.034 50.5973C124.329 49.643 125.308 49.511 126.094 49.0937C126.342 48.7259 126.255 48.0815 126.256 47.6479Z" fill="#00796B"/>
<path d="M126.256 47.6479C126.292 47.742 126.345 47.8755 126.362 47.9709C126.431 48.3725 126.454 48.5716 126.619 48.9537C126.736 48.724 126.729 48.7977 126.75 48.5929C126.792 48.1951 126.854 47.9164 127.012 47.5453C127.029 47.5054 127.047 47.4658 127.064 47.4258C127.02 48.3828 126.938 48.8142 127.627 49.5766C127.779 49.7449 127.942 49.8904 128.108 50.0446C128.475 50.3859 128.685 50.7704 128.919 51.2085C128.902 52.4469 128.775 53.743 128.866 54.9735C128.827 55.811 128.605 56.5457 127.952 57.1168C127.356 57.6386 126.671 57.8221 125.909 57.9365C125.72 57.965 125.53 58.001 125.341 58.0325C124.929 57.786 124.471 57.4776 124.246 57.0397C123.587 55.7593 123.605 51.981 124.034 50.5973C124.329 49.643 125.308 49.511 126.094 49.0937C126.342 48.7259 126.255 48.0815 126.256 47.6479Z" fill="url(#paint9_linear_396_4522)" fill-opacity="0.12"/>
<path d="M127.065 47.4203L127.115 47.2635C127.855 44.8927 127.722 43.6152 130.266 42.2839C133.418 40.6347 138.121 40.7542 141.434 41.8173C143.131 42.3621 144.773 43.4267 145.583 45.0607C146.213 46.3305 146.283 47.6581 146.398 49.0426C145.914 49.3462 145.055 50.1881 144.585 50.2686C144.455 49.9572 144.458 49.7313 144.445 49.4012C144.337 47.5846 143.812 45.9989 142.436 44.7304C140.723 43.1495 138.182 42.5164 135.896 42.67C133.947 42.8009 132.246 43.5512 130.964 45.0552C129.465 46.8122 128.89 48.9324 128.919 51.2029C128.686 50.7648 128.476 50.3803 128.108 50.039C127.942 49.8848 127.779 49.7393 127.627 49.571C126.938 48.8087 127.02 48.3773 127.065 47.4203Z" fill="#E1EFEE"/>
<path d="M128.919 51.1998C128.889 48.9294 129.465 46.8089 130.963 45.0521C132.246 43.5483 133.947 42.7979 135.896 42.6669C138.182 42.5133 140.723 43.1464 142.436 44.7273C143.811 45.9958 144.337 47.5814 144.445 49.3981C144.442 51.0818 144.574 52.768 144.497 54.4498C144.276 54.1343 144.214 54.1433 143.843 54.0175C143.504 54.0686 143.373 54.1124 143.122 54.3489L142.973 54.8568C142.362 54.1033 142.477 52.0093 142.461 51.0459C141.461 49.8238 140.385 48.6874 139.344 47.503C136.986 47.9021 134.718 48.1619 132.325 48.2054C131.896 49.0115 131.113 50.0975 130.924 50.9732C130.708 51.9723 130.983 53.1261 130.59 54.0762C130.231 54.0218 129.985 53.3461 129.574 53.6567C129.175 53.9585 129.063 54.5639 128.976 55.0286C129.055 55.4955 129.145 56.2759 129.509 56.6194C129.717 56.815 130.083 56.9193 130.348 57.0153C131.486 58.4485 131.442 59.2973 133.011 60.6049C132.852 61.7211 132.835 63.0255 132.555 64.1017C131.505 64.4577 130.376 64.9416 129.55 65.7045C128.536 64.872 126.001 59.4824 125.34 58.0238C125.53 57.9923 125.719 57.9563 125.909 57.9278C126.67 57.8134 127.356 57.6299 127.952 57.1081C128.605 56.537 128.827 55.8023 128.866 54.9648C128.775 53.7343 128.902 52.4382 128.919 51.1998Z" fill="#1A2C34"/>
<path d="M132.325 48.2083C134.718 48.1648 136.986 47.9051 139.344 47.5059C140.385 48.6903 141.462 49.8267 142.461 51.0488C142.477 52.0121 142.363 54.1061 142.974 54.8597C143.215 55.7367 143.068 56.3873 142.829 57.2504C142.746 57.2824 142.643 57.2851 142.578 57.3467C142.489 57.4304 142.306 57.9472 142.239 58.0879C141.668 59.2902 140.762 60.4113 139.593 61.08C139.07 61.3228 138.579 61.5143 138.008 61.6128C136.137 61.936 134.6 61.6978 133.012 60.6077C131.442 59.3001 131.487 58.4514 130.349 57.0182C130.083 56.9222 129.717 56.8179 129.51 56.6222C129.145 56.2787 129.056 55.4983 128.976 55.0314C129.063 54.5666 129.175 53.9613 129.575 53.6595C129.986 53.3489 130.231 54.0245 130.591 54.079C130.983 53.129 130.709 51.9751 130.924 50.9761C131.113 50.1003 131.896 49.0143 132.325 48.2083Z" fill="#A2624C"/>
<path d="M135.593 58.5824C136.269 58.4547 136.854 58.4045 137.511 58.637L137.774 59.0166C137.34 59.2057 136.863 59.3918 136.382 59.2967C135.962 59.2138 135.811 58.902 135.593 58.5824Z" fill="#F1293B"/>
<path d="M135.671 57.541C136.042 57.3549 136.417 57.1456 136.843 57.2699C137.11 57.348 137.369 57.4653 137.623 57.5769L137.774 59.0258L137.511 58.6461C136.854 58.4136 136.269 58.4637 135.593 58.5915C135.573 58.2293 135.62 57.8973 135.671 57.541Z" fill="#8F4439"/>
<path d="M135.671 57.5354C135.32 57.5118 135.247 57.5639 134.963 57.334C135.056 56.8002 136.035 56.0146 136.287 55.1656C136.606 54.0876 136.18 52.821 136.543 51.8262L136.722 51.828C137.16 52.809 136.833 54.2692 136.946 55.3434C136.974 55.3859 137.003 55.4285 137.032 55.4704C137.472 56.1052 138.191 56.5708 138.539 57.2321L138.457 57.4759C138.156 57.5921 137.943 57.5865 137.623 57.5711C137.369 57.4596 137.11 57.3422 136.843 57.2641C136.417 57.14 136.042 57.3492 135.671 57.5354Z" fill="#1A2C34"/>
<path d="M133.012 60.6035C134.6 61.6935 136.137 61.9316 138.008 61.6085C138.579 61.5102 139.07 61.3187 139.593 61.0757C139.624 61.9794 139.627 62.8975 139.746 63.7938C140.828 64.1624 142.025 64.5775 142.913 65.3207C142.87 65.6438 142.825 65.5289 143.002 65.7699C144.671 68.0409 148.675 67.8222 150.897 71.5636C152.1 73.5893 152.473 75.9985 153.416 78.1441C152.025 78.5398 148.82 78.2457 147.21 78.2703C146.853 77.0219 146.561 75.6558 145.854 74.5548C145.352 75.8189 145.204 77.0421 145.061 78.3875L144.46 78.3694C142.604 78.0068 140.396 78.2297 138.492 78.2364L127.628 78.2755C127.542 77.293 127.338 76.3533 127.123 75.3923C126.694 76.3365 126.313 77.3053 125.918 78.2646C124.012 78.2376 121.938 78.0798 120.054 78.376L119.771 78.4158C121.036 74.5705 121.573 70.4402 125.63 68.4512C126.883 67.8369 128.502 67.3964 129.559 66.4868C129.701 66.1389 129.645 66.0738 129.551 65.7029C130.376 64.9399 131.505 64.4561 132.555 64.1C132.835 63.0242 132.852 61.7197 133.012 60.6035Z" fill="#FEFEFE"/>
<path d="M133.012 60.6035C134.6 61.6935 136.137 61.9316 138.008 61.6085C138.579 61.5102 139.07 61.3187 139.593 61.0757C139.624 61.9794 139.626 62.8975 139.746 63.7938L139.591 64.5199C139.878 65.643 140.694 66.3216 141.479 67.1229C139.899 68.7114 138.288 70.2685 136.647 71.7945C134.901 70.6051 132.881 68.9588 131.501 67.3591C132.129 66.4421 132.658 65.2251 132.679 64.1098L132.555 64.1002C132.835 63.0242 132.852 61.7197 133.012 60.6035Z" fill="#A2624C"/>
<path d="M133.012 60.6035C134.6 61.6935 136.137 61.9316 138.008 61.6085C138.579 61.5102 139.07 61.3187 139.593 61.0757C139.625 61.9794 139.627 62.8975 139.746 63.7938L139.591 64.5199C137.684 65.9449 136.002 65.6409 134.007 64.6232C133.568 64.3995 133.185 64.1229 132.679 64.1098L132.555 64.1002C132.835 63.0242 132.852 61.7197 133.012 60.6035Z" fill="#8F4439"/>
<path d="M200.973 192.912C200.099 192.425 199.331 191.6 198.659 190.867C196.014 187.984 194.235 184.671 193.149 180.911C191.301 174.51 192.382 167.187 195.589 161.398C198.691 155.8 204.265 150.736 210.514 148.995C218.01 146.906 225.12 147.573 231.93 151.433C237.991 154.87 242.326 160.864 244.14 167.549C246.061 174.629 245.184 181.915 241.529 188.3C240.972 189.252 240.362 190.168 239.698 191.049C239.035 191.93 238.323 192.769 237.561 193.567L237.284 193.778C235.419 193.595 233.464 193.711 231.588 193.708L220.792 193.695L217.731 193.7C214.087 193.748 210.442 193.758 206.797 193.729C204.846 193.726 202.859 193.647 200.913 193.798L200.973 192.912Z" fill="#E1EFEE"/>
<path d="M208.612 162.713C208.92 159.393 209.849 156.701 212.485 154.523C212.626 154.407 212.77 154.295 212.917 154.186C213.063 154.077 213.212 153.972 213.364 153.871C213.515 153.769 213.669 153.672 213.826 153.578C213.982 153.484 214.141 153.394 214.302 153.307C214.462 153.221 214.625 153.139 214.79 153.06C214.955 152.982 215.121 152.908 215.29 152.838C215.458 152.768 215.628 152.701 215.8 152.639C215.971 152.578 216.144 152.52 216.319 152.466C216.493 152.413 216.669 152.364 216.846 152.319C217.022 152.274 217.2 152.233 217.379 152.197C217.558 152.161 217.738 152.129 217.918 152.101C218.098 152.074 218.279 152.051 218.461 152.032C218.642 152.013 218.824 151.999 219.006 151.989C219.188 151.979 219.371 151.974 219.553 151.973C219.736 151.972 219.918 151.975 220.1 151.983C220.283 151.991 220.465 152.004 220.646 152.02C223.597 152.3 226.473 153.954 228.332 156.242C230.056 158.363 230.161 160.203 230.78 162.73L229.907 162.666C229.618 159.586 228.467 157.225 226.062 155.231C223.848 153.395 221.093 152.636 218.244 152.943C215.649 153.222 213.116 154.569 211.501 156.635C210.129 158.39 209.57 160.624 209.536 162.823C209.226 162.807 208.92 162.756 208.612 162.713Z" fill="#49BAAD"/>
<path d="M209.536 162.824C210.086 162.664 210.529 162.5 211.054 162.839C211.629 163.212 211.818 163.952 211.884 164.591C212.015 165.855 211.851 167.185 211.877 168.46C211.881 168.895 211.861 169.345 211.924 169.775L211.263 170.338C210.949 170.157 210.573 169.979 210.204 169.96C209.939 169.947 209.798 170.049 209.609 170.213C209.546 170.268 209.485 170.325 209.423 170.381C209.125 170.398 208.878 170.409 208.593 170.306C207.998 170.092 207.613 169.602 207.363 169.038C206.848 167.874 206.662 165.227 207.141 164.024C207.419 163.325 207.95 162.999 208.612 162.714C208.92 162.756 209.226 162.808 209.536 162.824Z" fill="#00796B"/>
<path d="M209.536 162.824C210.086 162.664 210.529 162.5 211.054 162.839C211.629 163.212 211.818 163.952 211.884 164.591C212.015 165.855 211.851 167.185 211.877 168.46C211.881 168.895 211.861 169.345 211.924 169.775L211.263 170.338C210.949 170.157 210.573 169.979 210.204 169.96C209.939 169.947 209.798 170.049 209.609 170.213C209.546 170.268 209.485 170.325 209.423 170.381C209.125 170.398 208.878 170.409 208.593 170.306C207.998 170.092 207.613 169.602 207.363 169.038C206.848 167.874 206.662 165.227 207.141 164.024C207.419 163.325 207.95 162.999 208.612 162.714C208.92 162.756 209.226 162.808 209.536 162.824Z" fill="url(#paint10_linear_396_4522)" fill-opacity="0.12"/>
<path d="M229.907 162.666L230.78 162.731C231.96 164.122 232.259 165.549 232.082 167.334C231.979 168.368 231.588 169.504 230.764 170.188C230.351 170.532 229.946 170.637 229.422 170.7C229.177 170.631 229.056 170.533 228.863 170.377C228.597 170.159 228.396 170.023 228.033 170.062C227.573 170.11 227.18 170.305 226.826 170.591C226.892 169.561 227.303 168.468 226.96 167.448C226.667 166.792 226.951 164.163 227.015 163.33C227.049 163.295 227.081 163.258 227.117 163.225C227.89 162.495 228.926 162.652 229.907 162.666Z" fill="#00796B"/>
<path d="M229.907 162.666L230.78 162.731C231.96 164.122 232.259 165.549 232.082 167.334C231.979 168.368 231.588 169.504 230.764 170.188C230.351 170.532 229.946 170.637 229.422 170.7C229.177 170.631 229.056 170.533 228.863 170.377C228.597 170.159 228.396 170.023 228.033 170.062C227.573 170.11 227.18 170.305 226.826 170.591C226.892 169.561 227.303 168.468 226.96 167.448C226.667 166.792 226.951 164.163 227.015 163.33C227.049 163.295 227.081 163.258 227.117 163.225C227.89 162.495 228.926 162.652 229.907 162.666Z" fill="url(#paint11_linear_396_4522)" fill-opacity="0.12"/>
<path d="M209.536 162.822C209.57 160.622 210.129 158.389 211.501 156.634C213.116 154.568 215.649 153.221 218.244 152.941C221.093 152.634 223.848 153.394 226.063 155.23C228.468 157.223 229.618 159.585 229.907 162.664C228.925 162.651 227.889 162.493 227.117 163.223C227.081 163.256 227.049 163.293 227.015 163.328C227.134 161.127 227.005 159.245 225.415 157.532C223.952 155.955 221.997 155.47 219.925 155.447C217.758 155.422 215.589 155.774 213.996 157.386C212.589 158.807 212.083 160.636 212.132 162.588C212.159 163.649 212.224 164.708 212.251 165.77C211.83 166.516 212.006 167.615 211.877 168.457C211.851 167.183 212.015 165.853 211.884 164.589C211.818 163.95 211.629 163.209 211.054 162.837C210.529 162.498 210.086 162.662 209.536 162.822Z" fill="#E1EFEE"/>
<path d="M212.251 165.773C212.224 164.712 212.159 163.653 212.132 162.592C212.083 160.64 212.589 158.811 213.996 157.389C215.589 155.778 217.758 155.426 219.925 155.45C221.997 155.474 223.952 155.959 225.415 157.536C227.005 159.249 227.134 161.131 227.015 163.332C226.951 164.165 226.667 166.794 226.96 167.45L226.028 167.469C225.248 166.971 225.906 163.008 224.569 161.173C223.976 160.846 223.293 160.732 222.623 160.676C221.331 160.569 219.98 160.827 218.677 160.82C217.171 160.812 215.738 160.439 214.222 160.604C212.513 162.166 213.799 165.743 212.906 167.171L212.72 167.12C212.413 166.657 212.332 166.32 212.251 165.773Z" fill="#1A2C34"/>
<path d="M224.579 179.693C224.852 179.561 224.802 179.603 225.075 179.698C226.021 180.027 226.916 180.476 227.869 180.791C231.177 181.886 234.58 182.595 236.226 186.065C237.436 188.618 236.779 191.148 237.284 193.775C235.419 193.592 233.464 193.708 231.588 193.705L220.792 193.692C220.795 192.851 220.74 191.959 220.899 191.134C221.423 190.557 221.584 188.233 221.844 187.352C222.613 184.756 223.957 182.349 224.579 179.693Z" fill="#00796B"/>
<path d="M224.579 179.693C224.852 179.561 224.802 179.603 225.075 179.698C226.021 180.027 226.916 180.476 227.869 180.791C231.177 181.886 234.58 182.595 236.226 186.065C237.436 188.618 236.779 191.148 237.284 193.775C235.419 193.592 233.464 193.708 231.588 193.705L220.792 193.692C220.795 192.851 220.74 191.959 220.899 191.134C221.423 190.557 221.584 188.233 221.844 187.352C222.613 184.756 223.957 182.349 224.579 179.693Z" fill="url(#paint12_linear_396_4522)" fill-opacity="0.12"/>
<path d="M212.251 165.772C212.332 166.318 212.413 166.655 212.72 167.118L212.906 167.169C213.799 165.742 212.513 162.165 214.222 160.603C215.738 160.438 217.171 160.81 218.677 160.818C219.98 160.826 221.331 160.568 222.623 160.675C223.293 160.731 223.976 160.844 224.569 161.172C225.906 163.007 225.248 166.969 226.028 167.467L226.96 167.449C227.303 168.468 226.892 169.562 226.826 170.591C226.763 171.988 225.678 173.748 224.672 174.655C224.478 174.83 224.26 174.993 224.01 175.076C221.776 176.23 219.718 177.17 217.144 176.383C216.57 176.208 216.015 175.954 215.466 175.713C214.252 175.226 213.207 173.656 212.602 172.542C212.111 171.846 211.698 171.071 211.263 170.338L211.924 169.775C211.861 169.345 211.881 168.895 211.877 168.46C212.006 167.617 211.829 166.519 212.251 165.772Z" fill="#F8BD9B"/>
<path d="M211.924 169.771C212.282 170.503 212.65 171.424 212.738 172.235L212.602 172.539C212.111 171.843 211.699 171.067 211.263 170.334L211.924 169.771Z" fill="#FCB58D"/>
<path d="M215.466 175.714C216.015 175.956 216.57 176.21 217.144 176.385C219.718 177.171 221.776 176.232 224.01 175.078C223.96 176.165 223.705 178.402 224.389 179.315L224.58 179.7C223.957 182.356 222.613 184.764 221.844 187.36C221.584 188.24 221.423 190.564 220.899 191.142C220.74 191.967 220.796 192.859 220.792 193.7L217.731 193.705C214.087 193.753 210.442 193.762 206.798 193.733C204.846 193.73 202.859 193.651 200.913 193.802L200.973 192.916C201.478 190.693 201.295 188.278 202.27 186.168C204.127 182.149 210.043 180.878 213.921 179.519L214.984 179.26C215.12 178.077 215.304 176.895 215.466 175.714Z" fill="#00796B"/>
<path d="M215.466 175.714C216.015 175.956 216.57 176.21 217.144 176.385C219.718 177.171 221.776 176.232 224.01 175.078C223.96 176.165 223.705 178.402 224.389 179.315L224.58 179.7C223.957 182.356 222.613 184.764 221.844 187.36C221.584 188.24 221.423 190.564 220.899 191.142C220.74 191.967 220.796 192.859 220.792 193.7L217.731 193.705C214.087 193.753 210.442 193.762 206.798 193.733C204.846 193.73 202.859 193.651 200.913 193.802L200.973 192.916C201.478 190.693 201.295 188.278 202.27 186.168C204.127 182.149 210.043 180.878 213.921 179.519L214.984 179.26C215.12 178.077 215.304 176.895 215.466 175.714Z" fill="url(#paint13_linear_396_4522)" fill-opacity="0.12"/>
<path d="M215.466 175.714C216.016 175.956 216.57 176.21 217.144 176.385C219.718 177.171 221.776 176.232 224.01 175.078C223.96 176.165 223.705 178.402 224.389 179.315L224.58 179.7C223.957 182.356 222.613 184.764 221.844 187.36C221.584 188.24 221.423 190.564 220.899 191.141C220.74 191.967 220.796 192.859 220.792 193.7L217.731 193.705C217.723 193.107 217.774 192.504 217.804 191.907C216.994 190.738 215.941 185.832 215.472 184.234C215.006 182.646 214.489 181.074 213.921 179.519L214.984 179.26C215.12 178.076 215.304 176.895 215.466 175.714Z" fill="#FEFEFE"/>
<path d="M219.487 182.918C220.869 185.926 220.918 187.865 220.899 191.13C220.74 191.956 220.796 192.848 220.793 193.689L217.731 193.694C217.723 193.096 217.774 192.493 217.804 191.896C217.939 190.86 217.863 189.804 217.872 188.762C217.889 186.558 218.591 184.889 219.487 182.918Z" fill="#1A2C34"/>
<path d="M215.467 175.714C216.016 175.956 216.57 176.21 217.144 176.385C219.718 177.171 221.776 176.232 224.01 175.078C223.96 176.165 223.705 178.402 224.389 179.315C222.728 179.62 220.962 181.424 219.629 182.414C218.073 181.375 216.525 180.324 214.984 179.261C215.12 178.076 215.304 176.895 215.467 175.714Z" fill="#FCB58D"/>
<path d="M190.768 117.836C186.223 113.806 183.648 107.534 183.18 101.567C182.671 95.0776 184.888 88.0285 189.133 83.0736C193.97 77.4281 200.02 73.8604 207.538 73.3177C214.699 72.801 221.579 74.8648 227.025 79.6104C232.486 84.3692 235.62 90.5436 236.081 97.7875C236.523 104.724 234.518 111.453 229.841 116.67C228.433 118.241 226.738 119.526 225.347 121.118L225.179 121.312L225.147 121.684C224.557 121.984 220.545 121.758 219.547 121.767C210.78 121.845 202.013 121.862 193.246 121.816C192.463 121.841 191.697 121.851 190.915 121.801L190.768 121.846L190.768 117.836Z" fill="#E1EFEE"/>
<path d="M214.935 86.3086C215.425 86.4961 215.933 86.6654 216.411 86.8792L217.51 87.2074C217.862 87.4258 218.188 87.6401 218.504 87.9098C218.53 89.2882 218.982 91.8796 217.946 92.8857C217.384 93.4324 216.573 93.4403 215.837 93.4691C215.54 94.1189 215.285 94.9412 214.601 95.2602C214.856 94.8821 215.225 94.4387 215.378 94.0097C215.476 93.7383 215.432 93.683 215.317 93.4407L214.942 93.3301C214.523 91.8273 214.591 90.0146 214.766 88.4798C214.851 87.7413 215.022 87.0577 214.935 86.3086Z" fill="#00796B"/>
<path d="M214.935 86.3086C215.425 86.4961 215.933 86.6654 216.411 86.8792L217.51 87.2074C217.862 87.4258 218.188 87.6401 218.504 87.9098C218.53 89.2882 218.982 91.8796 217.946 92.8857C217.384 93.4324 216.573 93.4403 215.837 93.4691C215.54 94.1189 215.285 94.9412 214.601 95.2602C214.856 94.8821 215.225 94.4387 215.378 94.0097C215.476 93.7383 215.432 93.683 215.317 93.4407L214.942 93.3301C214.523 91.8273 214.591 90.0146 214.766 88.4798C214.851 87.7413 215.022 87.0577 214.935 86.3086Z" fill="url(#paint14_linear_396_4522)" fill-opacity="0.12"/>
<path d="M199.211 86.1035C199.727 86.221 200.181 86.3382 200.659 86.5689C200.808 88.5794 200.794 90.5886 200.618 92.5969L200.47 92.9714C200.261 93.2962 200.104 93.5162 199.777 93.7401C199.097 93.7566 198.124 93.6564 197.501 93.3825C196.866 93.1028 196.424 92.6279 196.213 91.9642C195.83 90.7573 195.936 88.6946 196.541 87.5899C196.905 86.9254 197.436 86.7846 198.133 86.6105C198.438 86.3486 198.839 86.2414 199.211 86.1035Z" fill="#00796B"/>
<path d="M199.211 86.1035C199.727 86.221 200.181 86.3382 200.659 86.5689C200.808 88.5794 200.794 90.5886 200.618 92.5969L200.47 92.9714C200.261 93.2962 200.104 93.5162 199.777 93.7401C199.097 93.7566 198.124 93.6564 197.501 93.3825C196.866 93.1028 196.424 92.6279 196.213 91.9642C195.83 90.7573 195.936 88.6946 196.541 87.5899C196.905 86.9254 197.436 86.7846 198.133 86.6105C198.438 86.3486 198.839 86.2414 199.211 86.1035Z" fill="url(#paint15_linear_396_4522)" fill-opacity="0.12"/>
<path d="M198.133 86.6134C197.907 84.0029 197.833 81.1553 199.604 79.0335C201.304 76.9969 203.763 76.4063 206.288 76.2204C209.403 75.9907 212.655 76.1937 215.124 78.3272C216.657 79.6519 217.455 81.4 217.586 83.4025C217.665 84.6002 217.674 86.0222 217.509 87.2126L216.411 86.8843C216.468 85.6639 216.565 84.4141 216.489 83.194C216.386 81.5397 215.824 80.131 214.546 79.0364C212.212 77.0385 208.722 76.9676 205.817 77.2372C203.732 77.4304 201.765 78.1609 200.419 79.8503C198.955 81.6899 198.998 83.8951 199.21 86.1066C198.839 86.2444 198.438 86.3517 198.133 86.6134Z" fill="#49BAAD"/>
<path d="M199.211 86.1119C198.998 83.9004 198.955 81.6952 200.419 79.8556C201.765 78.1662 203.732 77.4357 205.817 77.2425C208.722 76.9729 212.212 77.0438 214.546 79.0417C215.825 80.1363 216.386 81.545 216.489 83.1993C216.565 84.4194 216.468 85.6692 216.411 86.8896C215.933 86.6757 215.425 86.5065 214.935 86.319C214.825 83.659 215.038 81.6431 212.836 79.6813C211.279 78.2943 209.112 77.6519 207.047 77.816C205.13 77.9683 203.099 78.8052 201.85 80.3001C200.328 82.1202 200.595 84.3717 200.658 86.5772C200.181 86.3465 199.727 86.2295 199.211 86.1119Z" fill="#E1EFEE"/>
<path d="M200.658 86.5676C200.595 84.3621 200.328 82.1106 201.85 80.2904C203.099 78.7956 205.13 77.9586 207.047 77.8063C209.112 77.6424 211.279 78.2846 212.836 79.6717C215.038 81.6335 214.825 83.6493 214.935 86.3094C215.022 87.0583 214.851 87.7421 214.766 88.4804C214.591 90.0152 214.523 91.8279 214.942 93.3307L214.683 93.4094C214.457 93.3667 214.285 93.327 214.099 93.1779C212.723 92.0753 213.288 87.4511 212.975 85.7331L212.936 85.5233C210.35 86.9592 207.786 87.6581 205.041 86.1099C204.615 85.8694 204.041 85.4174 203.522 85.4598C201.653 85.6129 201.928 89.3502 201.627 90.6447C201.458 91.3716 201.035 91.9907 200.618 92.5955C200.794 90.5873 200.808 88.578 200.658 86.5676Z" fill="#1A2C34"/>
<path d="M200.618 92.5955C201.035 91.9908 201.458 91.3716 201.627 90.6447C201.928 89.3502 201.653 85.6129 203.522 85.4598C204.041 85.4174 204.615 85.8694 205.041 86.1099C207.786 87.658 210.35 86.9591 212.936 85.5233L212.975 85.7331C213.288 87.4511 212.723 92.0753 214.099 93.1779C214.285 93.327 214.457 93.3666 214.683 93.4093L214.942 93.3307L215.316 93.4413C215.432 93.6837 215.476 93.7389 215.378 94.0103C215.224 94.4393 214.856 94.8828 214.601 95.2609C213.68 96.3503 212.539 97.7009 211.197 98.2566C210.687 98.4061 210.172 98.5558 209.653 98.6749C207.036 99.2777 204.628 98.4413 202.419 97.0657C202.314 96.9652 202.21 96.8639 202.107 96.7618C200.914 95.575 200.48 94.6403 200.47 92.9698L200.618 92.5955Z" fill="#F8BD9B"/>
<path d="M202.419 97.0703C204.628 98.4459 207.036 99.2823 209.654 98.6795C210.172 98.5602 210.687 98.4107 211.197 98.2612C211.361 98.8053 211.56 99.2172 211.99 99.6006C213.032 99.6094 214.5 100.266 215.26 101.001C215.353 101.092 215.37 101.147 215.419 101.253C216.73 101.528 218.437 102.341 219.569 103.087C221.675 104.209 224.069 105.283 224.819 107.74C225.567 110.188 225.129 118.362 225.18 121.319L225.147 121.691C224.557 121.991 220.545 121.765 219.547 121.773C210.781 121.852 202.013 121.868 193.246 121.822C192.463 121.847 191.697 121.857 190.915 121.808C190.839 119.023 190.561 109.275 191.38 107.197C192.265 104.952 194.406 103.759 196.495 102.833C197.298 102.274 199.75 101.306 200.728 101.124C200.909 101.037 200.852 101.078 200.996 100.961C202.908 99.4134 202.637 100.774 204.199 99.888C204.129 98.311 203.418 98.2243 202.499 97.1642L202.419 97.0703Z" fill="#00796B"/>
<path d="M202.419 97.0703C204.628 98.4459 207.036 99.2823 209.654 98.6795C210.172 98.5602 210.687 98.4107 211.197 98.2612C211.361 98.8053 211.56 99.2172 211.99 99.6006C213.032 99.6094 214.5 100.266 215.26 101.001C215.353 101.092 215.37 101.147 215.419 101.253C216.73 101.528 218.437 102.341 219.569 103.087C221.675 104.209 224.069 105.283 224.819 107.74C225.567 110.188 225.129 118.362 225.18 121.319L225.147 121.691C224.557 121.991 220.545 121.765 219.547 121.773C210.781 121.852 202.013 121.868 193.246 121.822C192.463 121.847 191.697 121.857 190.915 121.808C190.839 119.023 190.561 109.275 191.38 107.197C192.265 104.952 194.406 103.759 196.495 102.833C197.298 102.274 199.75 101.306 200.728 101.124C200.909 101.037 200.852 101.078 200.996 100.961C202.908 99.4134 202.637 100.774 204.199 99.888C204.129 98.311 203.418 98.2243 202.499 97.1642L202.419 97.0703Z" fill="url(#paint16_linear_396_4522)" fill-opacity="0.12"/>
<path d="M202.419 97.0703C204.628 98.4459 207.036 99.2823 209.653 98.6795C210.172 98.5602 210.686 98.4107 211.196 98.2612C211.36 98.8053 211.559 99.2172 211.99 99.6006C213.031 99.6094 214.5 100.266 215.259 101.001C215.353 101.092 215.369 101.147 215.419 101.253C214.927 102.764 214.298 104.184 213.649 105.632C212.387 105.099 211.201 104.4 210.005 103.737C209.22 104.607 208.435 105.46 207.584 106.267C206.886 105.52 206.276 104.695 205.653 103.885C204.443 104.534 203.241 105.207 201.977 105.749C201.492 104.223 201.047 102.693 200.727 101.124C200.908 101.037 200.852 101.078 200.996 100.961C202.907 99.4135 202.636 100.774 204.199 99.8881C204.128 98.3112 203.417 98.2244 202.499 97.1643L202.419 97.0703Z" fill="#FEFEFE"/>
<path d="M202.419 97.0703C204.628 98.4459 207.036 99.2823 209.654 98.6795C210.172 98.5602 210.687 98.4107 211.197 98.2612C211.361 98.8053 211.56 99.2172 211.99 99.6006C211.359 100.876 210.499 102.224 209.087 102.715C208.06 103.072 206.799 102.934 205.837 102.442C205.232 102.133 204.375 101.328 204.212 100.646C204.168 100.457 204.2 100.266 204.204 100.076C204.206 100.013 204.201 99.9508 204.199 99.8881C204.129 98.3112 203.418 98.2244 202.499 97.1643L202.419 97.0703Z" fill="#CD8865"/>
<path d="M92.1782 227.606L162.459 227.483C166.614 227.463 170.768 227.472 174.922 227.508C177.057 227.527 179.221 227.629 181.352 227.564C182.972 227.559 194.264 227.348 194.851 227.647C194.95 227.698 195.021 227.791 195.106 227.863C195.166 228.114 195.22 228.348 195.255 228.604L195.425 228.894C197.7 228.962 199.985 228.913 202.262 228.962C208.723 229.101 250.516 230.449 253.712 233.782L253.638 234.009C250.528 236.025 238.179 236.547 234.142 236.875C221.604 237.856 209.049 238.486 196.476 238.765C181.351 239.329 166.22 239.601 151.085 239.581C147.695 239.592 144.307 239.708 140.917 239.715C123.304 239.799 105.694 239.605 88.0864 239.131C74.6909 238.902 61.3051 238.409 47.9291 237.652C40.775 237.226 33.6617 236.869 26.5705 235.781C25.2697 235.581 19.9498 234.993 19.2478 234.036L19.3353 233.785C22.5272 230.756 52.3704 229.871 58.4361 229.582C62.0576 229.409 65.6739 229.122 69.2958 228.957C72.3019 228.821 75.4673 228.923 78.4446 228.529L78.6158 228.505C78.6809 228.385 78.7202 228.301 78.8128 228.192C79.0805 227.878 79.468 227.763 79.8586 227.696C81.3025 227.447 82.9218 227.592 84.3934 227.596L92.1782 227.606Z" fill="#E6E7E7"/>
<path d="M92.1783 227.606L162.459 227.483C166.614 227.463 170.768 227.472 174.922 227.508C177.057 227.527 179.221 227.629 181.353 227.564C182.972 227.559 194.264 227.348 194.851 227.647C194.95 227.698 195.021 227.791 195.106 227.863C195.166 228.114 195.22 228.348 195.255 228.604C195.17 229.329 195.38 230.211 194.93 230.836C194.458 231.02 193.988 231.071 193.485 231.088C188.969 231.246 184.38 231.082 179.856 231.087L149.272 231.07L99.4524 231.092C93.3239 231.09 87.1849 231.182 81.0579 231.124C80.4705 231.119 79.3202 231.184 78.913 230.719C78.3627 230.091 78.5394 229.263 78.6157 228.505C78.6808 228.385 78.72 228.301 78.8127 228.192C79.0804 227.878 79.4679 227.763 79.8584 227.696C81.3023 227.447 82.9217 227.592 84.3933 227.596L92.1783 227.606Z" fill="#445C71"/>
<path d="M178.23 175.692L178.439 175.834C180.412 175.962 185.871 175.275 187.114 176.694C187.832 177.513 187.901 178.83 187.795 179.858C187.512 182.582 185.639 191.426 185.935 193.203C185.799 193.445 185.711 193.645 185.665 193.921C185.14 197.033 184.938 200.263 184.561 203.402C184.018 207.916 183.332 212.407 182.758 216.916C182.525 218.741 182.521 221.062 181.917 222.777C181.457 224.269 181.446 226.002 181.353 227.56C179.221 227.625 177.057 227.524 174.923 227.504C170.768 227.468 166.614 227.46 162.46 227.479L92.1786 227.602C91.9691 226.135 91.8386 224.588 91.4587 223.158C90.8142 217.47 89.9158 211.797 89.2066 206.114C88.7285 202.285 88.4906 198.157 87.7867 194.393C87.7139 194.003 87.6837 193.845 87.4062 193.566C88.0025 191.62 85.7916 181.97 85.9536 178.959C86.0034 178.029 86.3099 177.204 87.0289 176.586C88.7949 175.069 92.3026 175.586 94.5003 175.714C97.008 176.021 99.6953 175.848 102.22 175.848L133.79 175.843L139.695 175.834L171.246 175.847C172.715 175.821 177.085 176.158 178.23 175.692Z" fill="#67849A"/>
<path d="M135.312 197.361C136.959 197.163 138.671 197.568 140.017 198.547C140.102 198.608 140.185 198.671 140.267 198.737C140.348 198.803 140.428 198.87 140.506 198.94C140.584 199.01 140.66 199.081 140.735 199.155C140.809 199.228 140.882 199.304 140.952 199.381C141.023 199.458 141.091 199.537 141.158 199.617C141.224 199.698 141.289 199.78 141.351 199.864C141.414 199.948 141.474 200.034 141.532 200.121C141.59 200.208 141.646 200.296 141.699 200.386C141.753 200.476 141.804 200.567 141.853 200.66C141.902 200.752 141.949 200.846 141.993 200.941C142.037 201.035 142.079 201.131 142.118 201.228C142.157 201.325 142.194 201.423 142.229 201.522C142.263 201.621 142.295 201.72 142.324 201.821C142.353 201.921 142.38 202.022 142.404 202.124C142.428 202.226 142.45 202.328 142.469 202.431C142.488 202.534 142.504 202.637 142.518 202.741C142.531 202.845 142.542 202.95 142.55 203.055C142.558 203.16 142.564 203.266 142.566 203.371C142.569 203.476 142.57 203.582 142.567 203.687C142.565 203.792 142.56 203.898 142.553 204.003C142.545 204.108 142.535 204.213 142.522 204.317C142.509 204.422 142.494 204.526 142.476 204.63C142.458 204.734 142.437 204.837 142.414 204.94C142.391 205.043 142.365 205.145 142.337 205.247C142.309 205.348 142.278 205.449 142.245 205.549C142.212 205.649 142.176 205.748 142.138 205.846C142.1 205.945 142.059 206.042 142.016 206.138C141.973 206.234 141.928 206.329 141.88 206.423C141.832 206.517 141.782 206.61 141.73 206.702C141.677 206.793 141.623 206.883 141.566 206.972C141.509 207.061 141.45 207.148 141.389 207.234C141.328 207.32 141.265 207.404 141.199 207.487C139.924 209.106 138.287 209.701 136.319 209.961C136.113 209.961 135.908 209.952 135.704 209.936C135.499 209.92 135.295 209.897 135.092 209.866C134.889 209.834 134.688 209.796 134.488 209.749C134.288 209.703 134.09 209.649 133.894 209.588C133.698 209.526 133.504 209.458 133.314 209.382C133.123 209.306 132.935 209.223 132.75 209.133C132.566 209.043 132.385 208.947 132.207 208.843C132.03 208.74 131.857 208.63 131.688 208.513C130.305 207.54 129.228 206.037 128.966 204.344C128.742 202.89 129.171 201.473 130.053 200.311C131.32 198.643 133.267 197.651 135.312 197.361Z" fill="#445C71"/>
<defs>
<linearGradient id="paint0_linear_396_4522" x1="152.776" y1="111.336" x2="152.776" y2="134.765" gradientUnits="userSpaceOnUse">
<stop stop-color="white"/>
<stop offset="1" stop-color="white" stop-opacity="0"/>
</linearGradient>
<linearGradient id="paint1_linear_396_4522" x1="122.353" y1="109.672" x2="122.353" y2="134.566" gradientUnits="userSpaceOnUse">
<stop stop-color="white"/>
<stop offset="1" stop-color="white" stop-opacity="0"/>
</linearGradient>
<linearGradient id="paint2_linear_396_4522" x1="187.128" y1="193.207" x2="187.128" y2="222.789" gradientUnits="userSpaceOnUse">
<stop stop-color="white"/>
<stop offset="1" stop-color="white" stop-opacity="0"/>
</linearGradient>
<linearGradient id="paint3_linear_396_4522" x1="86.0057" y1="193.572" x2="86.0057" y2="223.185" gradientUnits="userSpaceOnUse">
<stop stop-color="white"/>
<stop offset="1" stop-color="white" stop-opacity="0"/>
</linearGradient>
<linearGradient id="paint4_linear_396_4522" x1="53.958" y1="180.143" x2="53.958" y2="193.161" gradientUnits="userSpaceOnUse">
<stop stop-color="white"/>
<stop offset="1" stop-color="white" stop-opacity="0"/>
</linearGradient>
<linearGradient id="paint5_linear_396_4522" x1="73.6514" y1="87.0527" x2="73.6514" y2="94.6831" gradientUnits="userSpaceOnUse">
<stop stop-color="white"/>
<stop offset="1" stop-color="white" stop-opacity="0"/>
</linearGradient>
<linearGradient id="paint6_linear_396_4522" x1="136.365" y1="147.777" x2="136.365" y2="175.944" gradientUnits="userSpaceOnUse">
<stop stop-color="white"/>
<stop offset="1" stop-color="white" stop-opacity="0"/>
</linearGradient>
<linearGradient id="paint7_linear_396_4522" x1="52.6101" y1="152.363" x2="52.6101" y2="171.701" gradientUnits="userSpaceOnUse">
<stop stop-color="white"/>
<stop offset="1" stop-color="white" stop-opacity="0"/>
</linearGradient>
<linearGradient id="paint8_linear_396_4522" x1="146.942" y1="48.9219" x2="146.942" y2="58.0698" gradientUnits="userSpaceOnUse">
<stop stop-color="white"/>
<stop offset="1" stop-color="white" stop-opacity="0"/>
</linearGradient>
<linearGradient id="paint9_linear_396_4522" x1="126.324" y1="47.4258" x2="126.324" y2="58.0325" gradientUnits="userSpaceOnUse">
<stop stop-color="white"/>
<stop offset="1" stop-color="white" stop-opacity="0"/>
</linearGradient>
<linearGradient id="paint10_linear_396_4522" x1="209.4" y1="162.641" x2="209.4" y2="170.392" gradientUnits="userSpaceOnUse">
<stop stop-color="white"/>
<stop offset="1" stop-color="white" stop-opacity="0"/>
</linearGradient>
<linearGradient id="paint11_linear_396_4522" x1="229.477" y1="162.643" x2="229.477" y2="170.7" gradientUnits="userSpaceOnUse">
<stop stop-color="white"/>
<stop offset="1" stop-color="white" stop-opacity="0"/>
</linearGradient>
<linearGradient id="paint12_linear_396_4522" x1="229.034" y1="179.609" x2="229.034" y2="193.775" gradientUnits="userSpaceOnUse">
<stop stop-color="white"/>
<stop offset="1" stop-color="white" stop-opacity="0"/>
</linearGradient>
<linearGradient id="paint13_linear_396_4522" x1="212.746" y1="175.078" x2="212.746" y2="193.802" gradientUnits="userSpaceOnUse">
<stop stop-color="white"/>
<stop offset="1" stop-color="white" stop-opacity="0"/>
</linearGradient>
<linearGradient id="paint14_linear_396_4522" x1="216.612" y1="86.3086" x2="216.612" y2="95.2602" gradientUnits="userSpaceOnUse">
<stop stop-color="white"/>
<stop offset="1" stop-color="white" stop-opacity="0"/>
</linearGradient>
<linearGradient id="paint15_linear_396_4522" x1="198.375" y1="86.1035" x2="198.375" y2="93.7419" gradientUnits="userSpaceOnUse">
<stop stop-color="white"/>
<stop offset="1" stop-color="white" stop-opacity="0"/>
</linearGradient>
<linearGradient id="paint16_linear_396_4522" x1="208.035" y1="97.0703" x2="208.035" y2="121.848" gradientUnits="userSpaceOnUse">
<stop stop-color="white"/>
<stop offset="1" stop-color="white" stop-opacity="0"/>
</linearGradient>
</defs>
</svg>
