<svg width="36" height="24" viewBox="0 0 36 24" fill="none" xmlns="http://www.w3.org/2000/svg">
<path opacity="0.5" fill-rule="evenodd" clip-rule="evenodd" d="M27.0002 17.998H7.00018C3.10018 17.998 0.000183105 14.898 0.000183105 10.998C0.000183105 7.09805 3.10018 3.99805 7.00018 3.99805H27.0002C30.9002 3.99805 34.0002 7.09805 34.0002 10.998C34.0002 14.898 30.9002 17.998 27.0002 17.998Z" fill="#0B7F71"/>
<g filter="url(#filter0_dd_396_4443)">
<path fill-rule="evenodd" clip-rule="evenodd" d="M24 21C29.5228 21 34 16.5228 34 11C34 5.47715 29.5228 1 24 1C18.4772 1 14 5.47715 14 11C14 16.5228 18.4772 21 24 21Z" fill="#00796B"/>
<path fill-rule="evenodd" clip-rule="evenodd" d="M24 21C29.5228 21 34 16.5228 34 11C34 5.47715 29.5228 1 24 1C18.4772 1 14 5.47715 14 11C14 16.5228 18.4772 21 24 21Z" fill="url(#paint0_linear_396_4443)" fill-opacity="0.12"/>
<path d="M33.75 11C33.75 16.3848 29.3848 20.75 24 20.75C18.6152 20.75 14.25 16.3848 14.25 11C14.25 5.61522 18.6152 1.25 24 1.25C29.3848 1.25 33.75 5.61522 33.75 11Z" stroke="url(#paint1_linear_396_4443)" stroke-width="0.5"/>
<path d="M33.75 11C33.75 16.3848 29.3848 20.75 24 20.75C18.6152 20.75 14.25 16.3848 14.25 11C14.25 5.61522 18.6152 1.25 24 1.25C29.3848 1.25 33.75 5.61522 33.75 11Z" stroke="url(#paint2_linear_396_4443)" stroke-width="0.5"/>
</g>
<defs>
<filter id="filter0_dd_396_4443" x="12" y="0" width="24" height="24" filterUnits="userSpaceOnUse" color-interpolation-filters="sRGB">
<feFlood flood-opacity="0" result="BackgroundImageFix"/>
<feColorMatrix in="SourceAlpha" type="matrix" values="0 0 0 0 0 0 0 0 0 0 0 0 0 0 0 0 0 0 127 0" result="hardAlpha"/>
<feOffset dy="1"/>
<feGaussianBlur stdDeviation="1"/>
<feColorMatrix type="matrix" values="0 0 0 0 0 0 0 0 0 0 0 0 0 0 0 0 0 0 0.2 0"/>
<feBlend mode="normal" in2="BackgroundImageFix" result="effect1_dropShadow_396_4443"/>
<feColorMatrix in="SourceAlpha" type="matrix" values="0 0 0 0 0 0 0 0 0 0 0 0 0 0 0 0 0 0 127 0" result="hardAlpha"/>
<feOffset dy="0.1"/>
<feGaussianBlur stdDeviation="0.15"/>
<feColorMatrix type="matrix" values="0 0 0 0 0 0 0 0 0 0 0 0 0 0 0 0 0 0 0.1 0"/>
<feBlend mode="normal" in2="effect1_dropShadow_396_4443" result="effect2_dropShadow_396_4443"/>
<feBlend mode="normal" in="SourceGraphic" in2="effect2_dropShadow_396_4443" result="shape"/>
</filter>
<linearGradient id="paint0_linear_396_4443" x1="24" y1="1" x2="24" y2="21" gradientUnits="userSpaceOnUse">
<stop stop-color="white"/>
<stop offset="1" stop-color="white" stop-opacity="0"/>
</linearGradient>
<linearGradient id="paint1_linear_396_4443" x1="14.0979" y1="1" x2="14.0979" y2="20.8043" gradientUnits="userSpaceOnUse">
<stop stop-opacity="0.01"/>
<stop offset="0.8" stop-opacity="0.02"/>
<stop offset="1" stop-opacity="0.04"/>
</linearGradient>
<linearGradient id="paint2_linear_396_4443" x1="14" y1="1" x2="14" y2="21" gradientUnits="userSpaceOnUse">
<stop stop-color="white" stop-opacity="0.12"/>
<stop offset="0.2" stop-color="white" stop-opacity="0.06"/>
<stop offset="1" stop-color="white" stop-opacity="0.01"/>
</linearGradient>
</defs>
</svg>
