<svg width="36" height="24" viewBox="0 0 36 24" fill="none" xmlns="http://www.w3.org/2000/svg">
<path opacity="0.5" fill-rule="evenodd" clip-rule="evenodd" d="M29.0001 17.998H9.00012C5.10012 17.998 2.00012 14.898 2.00012 10.998C2.00012 7.09805 5.10012 3.99805 9.00012 3.99805H29.0001C32.9001 3.99805 36.0001 7.09805 36.0001 10.998C36.0001 14.898 32.9001 17.998 29.0001 17.998Z" fill="#6C7278"/>
<g filter="url(#filter0_dd_396_4473)">
<path fill-rule="evenodd" clip-rule="evenodd" d="M12 21C17.5228 21 22 16.5228 22 11C22 5.47715 17.5228 1 12 1C6.47715 1 2 5.47715 2 11C2 16.5228 6.47715 21 12 21Z" fill="#6C7278"/>
<path d="M21.75 11C21.75 16.3848 17.3848 20.75 12 20.75C6.61522 20.75 2.25 16.3848 2.25 11C2.25 5.61522 6.61522 1.25 12 1.25C17.3848 1.25 21.75 5.61522 21.75 11Z" stroke="url(#paint0_linear_396_4473)" stroke-width="0.5"/>
<path d="M21.75 11C21.75 16.3848 17.3848 20.75 12 20.75C6.61522 20.75 2.25 16.3848 2.25 11C2.25 5.61522 6.61522 1.25 12 1.25C17.3848 1.25 21.75 5.61522 21.75 11Z" stroke="url(#paint1_linear_396_4473)" stroke-width="0.5"/>
</g>
<defs>
<filter id="filter0_dd_396_4473" x="0" y="0" width="24" height="24" filterUnits="userSpaceOnUse" color-interpolation-filters="sRGB">
<feFlood flood-opacity="0" result="BackgroundImageFix"/>
<feColorMatrix in="SourceAlpha" type="matrix" values="0 0 0 0 0 0 0 0 0 0 0 0 0 0 0 0 0 0 127 0" result="hardAlpha"/>
<feOffset dy="1"/>
<feGaussianBlur stdDeviation="1"/>
<feColorMatrix type="matrix" values="0 0 0 0 0 0 0 0 0 0 0 0 0 0 0 0 0 0 0.2 0"/>
<feBlend mode="normal" in2="BackgroundImageFix" result="effect1_dropShadow_396_4473"/>
<feColorMatrix in="SourceAlpha" type="matrix" values="0 0 0 0 0 0 0 0 0 0 0 0 0 0 0 0 0 0 127 0" result="hardAlpha"/>
<feOffset dy="0.1"/>
<feGaussianBlur stdDeviation="0.15"/>
<feColorMatrix type="matrix" values="0 0 0 0 0 0 0 0 0 0 0 0 0 0 0 0 0 0 0.1 0"/>
<feBlend mode="normal" in2="effect1_dropShadow_396_4473" result="effect2_dropShadow_396_4473"/>
<feBlend mode="normal" in="SourceGraphic" in2="effect2_dropShadow_396_4473" result="shape"/>
</filter>
<linearGradient id="paint0_linear_396_4473" x1="2.09786" y1="1" x2="2.09786" y2="20.8043" gradientUnits="userSpaceOnUse">
<stop stop-opacity="0.01"/>
<stop offset="0.8" stop-opacity="0.02"/>
<stop offset="1" stop-opacity="0.04"/>
</linearGradient>
<linearGradient id="paint1_linear_396_4473" x1="2" y1="1" x2="2" y2="21" gradientUnits="userSpaceOnUse">
<stop stop-color="white" stop-opacity="0.12"/>
<stop offset="0.2" stop-color="white" stop-opacity="0.06"/>
<stop offset="1" stop-color="white" stop-opacity="0.01"/>
</linearGradient>
</defs>
</svg>
