<svg width="16" height="17" viewBox="0 0 16 17" fill="none" xmlns="http://www.w3.org/2000/svg">
<g clip-path="url(#clip0_385_5055)">
<path d="M8 16.5C12.4183 16.5 16 12.9183 16 8.5C16 4.08172 12.4183 0.5 8 0.5C3.58172 0.5 0 4.08172 0 8.5C0 12.9183 3.58172 16.5 8 16.5Z" fill="#FFD93B"/>
<path d="M8.00039 13.6418C5.66089 13.6418 3.62239 12.0573 3.04339 9.78932C2.99789 9.61082 3.10539 9.42932 3.28389 9.38382C3.46139 9.33732 3.64339 9.44582 3.68889 9.62432C4.19289 11.5973 5.96539 12.9753 7.99989 12.9753C10.0344 12.9753 11.8074 11.5973 12.3109 9.62432C12.3559 9.44582 12.5374 9.33732 12.7164 9.38382C12.8949 9.42932 13.0024 9.61082 12.9569 9.78932C12.3784 12.0573 10.3399 13.6418 8.00039 13.6418Z" fill="#3E4347"/>
<path d="M16 8.50094C16 12.9209 12.4175 16.5009 7.99996 16.5009C5.48496 16.5009 3.23996 15.3409 1.77246 13.5234C3.14496 14.6334 4.89246 15.2959 6.79496 15.2959C11.2125 15.2959 14.795 11.7159 14.795 7.29594C14.795 5.39344 14.1325 3.64594 13.0225 2.27344C14.8375 3.74094 16 5.98594 16 8.50094Z" fill="#F4C534"/>
<path d="M5.41641 8.84173C6.09352 8.84173 6.64241 8.18941 6.64241 7.38473C6.64241 6.58006 6.09352 5.92773 5.41641 5.92773C4.73931 5.92773 4.19041 6.58006 4.19041 7.38473C4.19041 8.18941 4.73931 8.84173 5.41641 8.84173Z" fill="#3E4347"/>
<path d="M5.96969 7.07174C5.87419 7.14674 5.71719 7.10974 5.61669 6.98774C5.51619 6.86574 5.51119 6.70224 5.60669 6.62724C5.70169 6.54874 5.85919 6.58574 5.95919 6.70774C6.06019 6.83324 6.06119 6.99374 5.96969 7.07174Z" fill="#5A5F63"/>
<path d="M10.5852 8.84173C11.2623 8.84173 11.8112 8.18941 11.8112 7.38473C11.8112 6.58006 11.2623 5.92773 10.5852 5.92773C9.90806 5.92773 9.35916 6.58006 9.35916 7.38473C9.35916 8.18941 9.90806 8.84173 10.5852 8.84173Z" fill="#3E4347"/>
<path d="M11.1372 7.07174C11.0417 7.14674 10.8847 7.10974 10.7842 6.98774C10.6837 6.86574 10.6787 6.70224 10.7742 6.62724C10.8692 6.54874 11.0262 6.58574 11.1267 6.70774C11.2277 6.83324 11.2287 6.99374 11.1372 7.07174Z" fill="#5A5F63"/>
</g>
<defs>
<clipPath id="clip0_385_5055">
<rect width="16" height="16" fill="white" transform="translate(0 0.5)"/>
</clipPath>
</defs>
</svg>
